G04 #@! TF.FileFunction,Soldermask,Bot*
%FSLAX46Y46*%
G04 Gerber Fmt 4.6, Leading zero omitted, Abs format (unit mm)*
G04 Created by KiCad (PCBNEW 0.201506030104+5696~23~ubuntu14.04.1-product) date Fri 05 Jun 2015 04:35:16 PM AEST*
%MOMM*%
G01*
G04 APERTURE LIST*
%ADD10C,0.100000*%
%ADD11R,1.924000X1.924000*%
%ADD12C,1.924000*%
%ADD13R,1.543000X1.035000*%
%ADD14R,1.035000X1.543000*%
%ADD15R,2.432000X2.432000*%
%ADD16O,2.432000X2.432000*%
%ADD17R,2.432000X2.127200*%
%ADD18O,2.432000X2.127200*%
%ADD19R,2.127200X2.127200*%
%ADD20O,2.127200X2.127200*%
%ADD21R,0.908000X1.543000*%
%ADD22R,2.127200X2.432000*%
%ADD23O,2.127200X2.432000*%
%ADD24R,1.289000X1.797000*%
%ADD25R,4.057600X2.432000*%
%ADD26R,1.416000X2.432000*%
%ADD27R,3.900120X3.900120*%
%ADD28C,0.254000*%
G04 APERTURE END LIST*
D10*
D11*
X25311100Y-22083600D03*
D12*
X27851100Y-22083600D03*
X30391100Y-22083600D03*
X32931100Y-22083600D03*
X35471100Y-22083600D03*
X38011100Y-22083600D03*
X25311100Y-19543600D03*
X27851100Y-19543600D03*
X30391100Y-19543600D03*
X32931100Y-19543600D03*
X35471100Y-19543600D03*
X38011100Y-19543600D03*
X40551100Y-22083600D03*
X40551100Y-19543600D03*
X43091100Y-22083600D03*
X45631100Y-22083600D03*
X48171100Y-22083600D03*
X50711100Y-22083600D03*
X53251100Y-22083600D03*
X55791100Y-22083600D03*
X43091100Y-19543600D03*
X45631100Y-19543600D03*
X48171100Y-19543600D03*
X50711100Y-19543600D03*
X53251100Y-19543600D03*
X55791100Y-19543600D03*
X58331100Y-22083600D03*
X58331100Y-19543600D03*
X60871100Y-22083600D03*
X63411100Y-22083600D03*
X65951100Y-22083600D03*
X68491100Y-22083600D03*
X71031100Y-22083600D03*
X73571100Y-22083600D03*
X60871100Y-19543600D03*
X63411100Y-19543600D03*
X65951100Y-19543600D03*
X68491100Y-19543600D03*
X71031100Y-19543600D03*
X73571100Y-19543600D03*
D13*
X46050000Y-55562000D03*
X46050000Y-54038000D03*
X49300000Y-43838000D03*
X49300000Y-45362000D03*
D14*
X42263000Y-52300000D03*
X43787000Y-52300000D03*
D13*
X46100000Y-43838000D03*
X46100000Y-45362000D03*
D14*
X53972000Y-46730000D03*
X52448000Y-46730000D03*
D15*
X65989200Y-47345600D03*
D16*
X65989200Y-49885600D03*
D17*
X55400000Y-29940000D03*
D18*
X55400000Y-27400000D03*
X55400000Y-24860000D03*
D15*
X64200000Y-29170000D03*
D16*
X64200000Y-26630000D03*
D19*
X28870000Y-65440000D03*
D20*
X26330000Y-65440000D03*
X28870000Y-62900000D03*
X26330000Y-62900000D03*
X28870000Y-60360000D03*
X26330000Y-60360000D03*
D21*
X62105000Y-24425000D03*
X60835000Y-24425000D03*
X59565000Y-24425000D03*
X58295000Y-24425000D03*
X58295000Y-30775000D03*
X59565000Y-30775000D03*
X60835000Y-30775000D03*
X62105000Y-30775000D03*
D17*
X78500000Y-43985000D03*
D18*
X78500000Y-41445000D03*
X78500000Y-38905000D03*
X78500000Y-36365000D03*
X78500000Y-33825000D03*
X78500000Y-31285000D03*
X78500000Y-28745000D03*
X78500000Y-26205000D03*
X78500000Y-23665000D03*
D17*
X78500000Y-66835000D03*
D18*
X78500000Y-64295000D03*
X78500000Y-61755000D03*
X78500000Y-59215000D03*
X78500000Y-56675000D03*
X78500000Y-54135000D03*
X78500000Y-51595000D03*
X78500000Y-49055000D03*
X78500000Y-46515000D03*
D22*
X65795000Y-66825000D03*
D23*
X68335000Y-66825000D03*
X70875000Y-66825000D03*
X73415000Y-66825000D03*
X75955000Y-66825000D03*
D15*
X78500000Y-43990000D03*
D16*
X75960000Y-43990000D03*
D13*
X50690000Y-54882000D03*
X50690000Y-53358000D03*
D14*
X53962000Y-53100000D03*
X52438000Y-53100000D03*
X42238000Y-46900000D03*
X43762000Y-46900000D03*
X64762000Y-24400000D03*
X63238000Y-24400000D03*
D24*
X25252500Y-49900000D03*
X23347500Y-49900000D03*
X25252500Y-47800000D03*
X23347500Y-47800000D03*
D15*
X53855000Y-36750000D03*
D16*
X56395000Y-36750000D03*
D15*
X56395000Y-34200000D03*
D16*
X53855000Y-34200000D03*
D15*
X73210000Y-32190000D03*
D16*
X70670000Y-32190000D03*
D25*
X26300000Y-45302000D03*
D26*
X26300000Y-38698000D03*
X28586000Y-38698000D03*
X24014000Y-38698000D03*
D21*
X63375000Y-32725000D03*
X62105000Y-32725000D03*
X60835000Y-32725000D03*
X59565000Y-32725000D03*
X59565000Y-39075000D03*
X60835000Y-39075000D03*
X62105000Y-39075000D03*
X63375000Y-39075000D03*
D15*
X50770000Y-38100000D03*
D16*
X48230000Y-38100000D03*
D27*
X25350140Y-28800000D03*
X19350660Y-28800000D03*
X22350400Y-33499000D03*
D19*
X73210000Y-37270000D03*
D20*
X73210000Y-34730000D03*
X70670000Y-37270000D03*
X70670000Y-34730000D03*
X68130000Y-37270000D03*
X68130000Y-34730000D03*
X65590000Y-37270000D03*
X65590000Y-34730000D03*
D15*
X34000000Y-43270000D03*
D16*
X34000000Y-40730000D03*
D13*
X28400000Y-34762000D03*
X28400000Y-33238000D03*
X29900000Y-34762000D03*
X29900000Y-33238000D03*
X31400000Y-35562000D03*
X31400000Y-34038000D03*
X32900000Y-36862000D03*
X32900000Y-35338000D03*
X35500000Y-29738000D03*
X35500000Y-31262000D03*
X36600000Y-32338000D03*
X36600000Y-33862000D03*
X37700000Y-29738000D03*
X37700000Y-31262000D03*
X38800000Y-32338000D03*
X38800000Y-33862000D03*
X39900000Y-29738000D03*
X39900000Y-31262000D03*
X41000000Y-32338000D03*
X41000000Y-33862000D03*
X42100000Y-29738000D03*
X42100000Y-31262000D03*
X43200000Y-32338000D03*
X43200000Y-33862000D03*
X44300000Y-29738000D03*
X44300000Y-31262000D03*
X45300000Y-32338000D03*
X45300000Y-33862000D03*
D14*
X49162000Y-34900000D03*
X47638000Y-34900000D03*
D13*
X50400000Y-32338000D03*
X50400000Y-33862000D03*
D14*
X49162000Y-32700000D03*
X47638000Y-32700000D03*
D13*
X50400000Y-29338000D03*
X50400000Y-30862000D03*
D14*
X49162000Y-30500000D03*
X47638000Y-30500000D03*
X44580000Y-43120000D03*
X43056000Y-43120000D03*
D13*
X31400000Y-29238000D03*
X31400000Y-30762000D03*
X32900000Y-28238000D03*
X32900000Y-29762000D03*
X75400000Y-34062000D03*
X75400000Y-32538000D03*
D14*
X30638000Y-25600000D03*
X32162000Y-25600000D03*
D13*
X29900000Y-30038000D03*
X29900000Y-31562000D03*
D28*
G36*
X28168600Y-73126600D02*
X23698200Y-73126600D01*
X23698200Y-68097400D01*
X28168600Y-68097400D01*
X28168600Y-73126600D01*
X28168600Y-73126600D01*
G37*
X28168600Y-73126600D02*
X23698200Y-73126600D01*
X23698200Y-68097400D01*
X28168600Y-68097400D01*
X28168600Y-73126600D01*
M02*
