G04 #@! TF.FileFunction,Legend,Top*
%FSLAX46Y46*%
G04 Gerber Fmt 4.6, Leading zero omitted, Abs format (unit mm)*
G04 Created by KiCad (PCBNEW 0.201506030104+5696~23~ubuntu14.04.1-product) date Fri 05 Jun 2015 04:35:16 PM AEST*
%MOMM*%
G01*
G04 APERTURE LIST*
%ADD10C,0.100000*%
%ADD11C,0.300000*%
%ADD12C,0.200000*%
%ADD13C,0.187500*%
%ADD14C,0.160000*%
%ADD15C,0.152400*%
%ADD16C,0.508000*%
%ADD17C,0.203200*%
%ADD18C,0.066040*%
%ADD19C,0.101600*%
%ADD20C,0.050800*%
%ADD21C,0.150000*%
%ADD22C,0.127000*%
%ADD23C,0.099060*%
%ADD24C,0.381000*%
%ADD25C,0.190500*%
%ADD26C,0.149860*%
%ADD27C,0.114300*%
%ADD28C,0.109220*%
%ADD29C,0.254000*%
G04 APERTURE END LIST*
D10*
D11*
X28764800Y-71602457D02*
X28693371Y-71745314D01*
X28693371Y-71959600D01*
X28764800Y-72173885D01*
X28907657Y-72316743D01*
X29050514Y-72388171D01*
X29336229Y-72459600D01*
X29550514Y-72459600D01*
X29836229Y-72388171D01*
X29979086Y-72316743D01*
X30121943Y-72173885D01*
X30193371Y-71959600D01*
X30193371Y-71816743D01*
X30121943Y-71602457D01*
X30050514Y-71531028D01*
X29550514Y-71531028D01*
X29550514Y-71816743D01*
X30193371Y-70888171D02*
X28693371Y-70888171D01*
X30193371Y-70031028D01*
X28693371Y-70031028D01*
X30193371Y-69316742D02*
X28693371Y-69316742D01*
X28693371Y-68959599D01*
X28764800Y-68745314D01*
X28907657Y-68602456D01*
X29050514Y-68531028D01*
X29336229Y-68459599D01*
X29550514Y-68459599D01*
X29836229Y-68531028D01*
X29979086Y-68602456D01*
X30121943Y-68745314D01*
X30193371Y-68959599D01*
X30193371Y-69316742D01*
D12*
X72288400Y-22758400D02*
X72288400Y-18846800D01*
X69748400Y-22758400D02*
X69748400Y-18846800D01*
X67208400Y-22758400D02*
X67208400Y-18846800D01*
X64668400Y-22758400D02*
X64668400Y-18846800D01*
X62128400Y-22758400D02*
X62128400Y-18846800D01*
X59588400Y-22758400D02*
X59588400Y-18846800D01*
X57048400Y-22758400D02*
X57048400Y-18846800D01*
X54508400Y-22758400D02*
X54508400Y-18846800D01*
X51968400Y-22758400D02*
X51968400Y-18846800D01*
X49428400Y-22758400D02*
X49428400Y-18846800D01*
X46888400Y-22758400D02*
X46888400Y-18846800D01*
X44348400Y-22758400D02*
X44348400Y-18846800D01*
X41808400Y-22758400D02*
X41808400Y-18846800D01*
X39268400Y-22758400D02*
X39268400Y-18846800D01*
X36728400Y-22758400D02*
X36728400Y-18846800D01*
X34188400Y-22758400D02*
X34188400Y-18846800D01*
X31648400Y-22758400D02*
X31648400Y-18846800D01*
X29108400Y-22758400D02*
X29108400Y-18846800D01*
X26568400Y-22758400D02*
X26568400Y-18846800D01*
D13*
X58431181Y-68788133D02*
X59431181Y-68454800D01*
X58431181Y-68121466D01*
X59383562Y-67407180D02*
X59431181Y-67502418D01*
X59431181Y-67692895D01*
X59383562Y-67788133D01*
X59288324Y-67835752D01*
X58907371Y-67835752D01*
X58812133Y-67788133D01*
X58764514Y-67692895D01*
X58764514Y-67502418D01*
X58812133Y-67407180D01*
X58907371Y-67359561D01*
X59002610Y-67359561D01*
X59097848Y-67835752D01*
X59431181Y-66930990D02*
X58764514Y-66930990D01*
X58954990Y-66930990D02*
X58859752Y-66883371D01*
X58812133Y-66835752D01*
X58764514Y-66740514D01*
X58764514Y-66645275D01*
X59383562Y-66359561D02*
X59431181Y-66264323D01*
X59431181Y-66073847D01*
X59383562Y-65978608D01*
X59288324Y-65930989D01*
X59240705Y-65930989D01*
X59145467Y-65978608D01*
X59097848Y-66073847D01*
X59097848Y-66216704D01*
X59050229Y-66311942D01*
X58954990Y-66359561D01*
X58907371Y-66359561D01*
X58812133Y-66311942D01*
X58764514Y-66216704D01*
X58764514Y-66073847D01*
X58812133Y-65978608D01*
X59431181Y-65502418D02*
X58764514Y-65502418D01*
X58431181Y-65502418D02*
X58478800Y-65550037D01*
X58526419Y-65502418D01*
X58478800Y-65454799D01*
X58431181Y-65502418D01*
X58526419Y-65502418D01*
X59431181Y-64883371D02*
X59383562Y-64978609D01*
X59335943Y-65026228D01*
X59240705Y-65073847D01*
X58954990Y-65073847D01*
X58859752Y-65026228D01*
X58812133Y-64978609D01*
X58764514Y-64883371D01*
X58764514Y-64740513D01*
X58812133Y-64645275D01*
X58859752Y-64597656D01*
X58954990Y-64550037D01*
X59240705Y-64550037D01*
X59335943Y-64597656D01*
X59383562Y-64645275D01*
X59431181Y-64740513D01*
X59431181Y-64883371D01*
X58764514Y-64121466D02*
X59431181Y-64121466D01*
X58859752Y-64121466D02*
X58812133Y-64073847D01*
X58764514Y-63978609D01*
X58764514Y-63835751D01*
X58812133Y-63740513D01*
X58907371Y-63692894D01*
X59431181Y-63692894D01*
X59335943Y-63216704D02*
X59383562Y-63169085D01*
X59431181Y-63216704D01*
X59383562Y-63264323D01*
X59335943Y-63216704D01*
X59431181Y-63216704D01*
X58812133Y-63216704D02*
X58859752Y-63169085D01*
X58907371Y-63216704D01*
X58859752Y-63264323D01*
X58812133Y-63216704D01*
X58907371Y-63216704D01*
X58764514Y-62073847D02*
X59431181Y-61835752D01*
X58764514Y-61597656D01*
X58431181Y-61026228D02*
X58431181Y-60930989D01*
X58478800Y-60835751D01*
X58526419Y-60788132D01*
X58621657Y-60740513D01*
X58812133Y-60692894D01*
X59050229Y-60692894D01*
X59240705Y-60740513D01*
X59335943Y-60788132D01*
X59383562Y-60835751D01*
X59431181Y-60930989D01*
X59431181Y-61026228D01*
X59383562Y-61121466D01*
X59335943Y-61169085D01*
X59240705Y-61216704D01*
X59050229Y-61264323D01*
X58812133Y-61264323D01*
X58621657Y-61216704D01*
X58526419Y-61169085D01*
X58478800Y-61121466D01*
X58431181Y-61026228D01*
X59335943Y-60264323D02*
X59383562Y-60216704D01*
X59431181Y-60264323D01*
X59383562Y-60311942D01*
X59335943Y-60264323D01*
X59431181Y-60264323D01*
X58431181Y-59597657D02*
X58431181Y-59502418D01*
X58478800Y-59407180D01*
X58526419Y-59359561D01*
X58621657Y-59311942D01*
X58812133Y-59264323D01*
X59050229Y-59264323D01*
X59240705Y-59311942D01*
X59335943Y-59359561D01*
X59383562Y-59407180D01*
X59431181Y-59502418D01*
X59431181Y-59597657D01*
X59383562Y-59692895D01*
X59335943Y-59740514D01*
X59240705Y-59788133D01*
X59050229Y-59835752D01*
X58812133Y-59835752D01*
X58621657Y-59788133D01*
X58526419Y-59740514D01*
X58478800Y-59692895D01*
X58431181Y-59597657D01*
X59335943Y-58835752D02*
X59383562Y-58788133D01*
X59431181Y-58835752D01*
X59383562Y-58883371D01*
X59335943Y-58835752D01*
X59431181Y-58835752D01*
X58431181Y-58169086D02*
X58431181Y-58073847D01*
X58478800Y-57978609D01*
X58526419Y-57930990D01*
X58621657Y-57883371D01*
X58812133Y-57835752D01*
X59050229Y-57835752D01*
X59240705Y-57883371D01*
X59335943Y-57930990D01*
X59383562Y-57978609D01*
X59431181Y-58073847D01*
X59431181Y-58169086D01*
X59383562Y-58264324D01*
X59335943Y-58311943D01*
X59240705Y-58359562D01*
X59050229Y-58407181D01*
X58812133Y-58407181D01*
X58621657Y-58359562D01*
X58526419Y-58311943D01*
X58478800Y-58264324D01*
X58431181Y-58169086D01*
X59050229Y-57407181D02*
X59050229Y-56645276D01*
X58431181Y-56264324D02*
X58431181Y-55597657D01*
X59431181Y-56026229D01*
X58859752Y-55073848D02*
X58812133Y-55169086D01*
X58764514Y-55216705D01*
X58669276Y-55264324D01*
X58621657Y-55264324D01*
X58526419Y-55216705D01*
X58478800Y-55169086D01*
X58431181Y-55073848D01*
X58431181Y-54883371D01*
X58478800Y-54788133D01*
X58526419Y-54740514D01*
X58621657Y-54692895D01*
X58669276Y-54692895D01*
X58764514Y-54740514D01*
X58812133Y-54788133D01*
X58859752Y-54883371D01*
X58859752Y-55073848D01*
X58907371Y-55169086D01*
X58954990Y-55216705D01*
X59050229Y-55264324D01*
X59240705Y-55264324D01*
X59335943Y-55216705D01*
X59383562Y-55169086D01*
X59431181Y-55073848D01*
X59431181Y-54883371D01*
X59383562Y-54788133D01*
X59335943Y-54740514D01*
X59240705Y-54692895D01*
X59050229Y-54692895D01*
X58954990Y-54740514D01*
X58907371Y-54788133D01*
X58859752Y-54883371D01*
X59050229Y-54264324D02*
X59050229Y-53502419D01*
X58764514Y-52597657D02*
X59574038Y-52597657D01*
X59669276Y-52645276D01*
X59716895Y-52692895D01*
X59764514Y-52788134D01*
X59764514Y-52930991D01*
X59716895Y-53026229D01*
X59383562Y-52597657D02*
X59431181Y-52692895D01*
X59431181Y-52883372D01*
X59383562Y-52978610D01*
X59335943Y-53026229D01*
X59240705Y-53073848D01*
X58954990Y-53073848D01*
X58859752Y-53026229D01*
X58812133Y-52978610D01*
X58764514Y-52883372D01*
X58764514Y-52692895D01*
X58812133Y-52597657D01*
X59383562Y-51740514D02*
X59431181Y-51835752D01*
X59431181Y-52026229D01*
X59383562Y-52121467D01*
X59288324Y-52169086D01*
X58907371Y-52169086D01*
X58812133Y-52121467D01*
X58764514Y-52026229D01*
X58764514Y-51835752D01*
X58812133Y-51740514D01*
X58907371Y-51692895D01*
X59002610Y-51692895D01*
X59097848Y-52169086D01*
X59431181Y-50835752D02*
X58907371Y-50835752D01*
X58812133Y-50883371D01*
X58764514Y-50978609D01*
X58764514Y-51169086D01*
X58812133Y-51264324D01*
X59383562Y-50835752D02*
X59431181Y-50930990D01*
X59431181Y-51169086D01*
X59383562Y-51264324D01*
X59288324Y-51311943D01*
X59193086Y-51311943D01*
X59097848Y-51264324D01*
X59050229Y-51169086D01*
X59050229Y-50930990D01*
X59002610Y-50835752D01*
X58431181Y-50454800D02*
X58431181Y-49835752D01*
X58812133Y-50169086D01*
X58812133Y-50026228D01*
X58859752Y-49930990D01*
X58907371Y-49883371D01*
X59002610Y-49835752D01*
X59240705Y-49835752D01*
X59335943Y-49883371D01*
X59383562Y-49930990D01*
X59431181Y-50026228D01*
X59431181Y-50311943D01*
X59383562Y-50407181D01*
X59335943Y-50454800D01*
X59383562Y-48978609D02*
X59431181Y-49073847D01*
X59431181Y-49264324D01*
X59383562Y-49359562D01*
X59335943Y-49407181D01*
X59240705Y-49454800D01*
X58954990Y-49454800D01*
X58859752Y-49407181D01*
X58812133Y-49359562D01*
X58764514Y-49264324D01*
X58764514Y-49073847D01*
X58812133Y-48978609D01*
X58431181Y-48645276D02*
X58431181Y-47978609D01*
X59431181Y-48407181D01*
X59383562Y-47169085D02*
X59431181Y-47264323D01*
X59431181Y-47454800D01*
X59383562Y-47550038D01*
X59335943Y-47597657D01*
X59240705Y-47645276D01*
X58954990Y-47645276D01*
X58859752Y-47597657D01*
X58812133Y-47550038D01*
X58764514Y-47454800D01*
X58764514Y-47264323D01*
X58812133Y-47169085D01*
X58431181Y-46835752D02*
X58431181Y-46216704D01*
X58812133Y-46550038D01*
X58812133Y-46407180D01*
X58859752Y-46311942D01*
X58907371Y-46264323D01*
X59002610Y-46216704D01*
X59240705Y-46216704D01*
X59335943Y-46264323D01*
X59383562Y-46311942D01*
X59431181Y-46407180D01*
X59431181Y-46692895D01*
X59383562Y-46788133D01*
X59335943Y-46835752D01*
D11*
X67510743Y-63216800D02*
X67582171Y-63002514D01*
X67582171Y-62645371D01*
X67510743Y-62502514D01*
X67439314Y-62431085D01*
X67296457Y-62359657D01*
X67153600Y-62359657D01*
X67010743Y-62431085D01*
X66939314Y-62502514D01*
X66867886Y-62645371D01*
X66796457Y-62931085D01*
X66725029Y-63073943D01*
X66653600Y-63145371D01*
X66510743Y-63216800D01*
X66367886Y-63216800D01*
X66225029Y-63145371D01*
X66153600Y-63073943D01*
X66082171Y-62931085D01*
X66082171Y-62573943D01*
X66153600Y-62359657D01*
X67510743Y-61145372D02*
X67582171Y-61288229D01*
X67582171Y-61573943D01*
X67510743Y-61716800D01*
X67367886Y-61788229D01*
X66796457Y-61788229D01*
X66653600Y-61716800D01*
X66582171Y-61573943D01*
X66582171Y-61288229D01*
X66653600Y-61145372D01*
X66796457Y-61073943D01*
X66939314Y-61073943D01*
X67082171Y-61788229D01*
X67582171Y-60431086D02*
X66582171Y-60431086D01*
X66867886Y-60431086D02*
X66725029Y-60359658D01*
X66653600Y-60288229D01*
X66582171Y-60145372D01*
X66582171Y-60002515D01*
X67582171Y-59502515D02*
X66582171Y-59502515D01*
X66082171Y-59502515D02*
X66153600Y-59573944D01*
X66225029Y-59502515D01*
X66153600Y-59431087D01*
X66082171Y-59502515D01*
X66225029Y-59502515D01*
X67582171Y-58145372D02*
X66796457Y-58145372D01*
X66653600Y-58216801D01*
X66582171Y-58359658D01*
X66582171Y-58645372D01*
X66653600Y-58788229D01*
X67510743Y-58145372D02*
X67582171Y-58288229D01*
X67582171Y-58645372D01*
X67510743Y-58788229D01*
X67367886Y-58859658D01*
X67225029Y-58859658D01*
X67082171Y-58788229D01*
X67010743Y-58645372D01*
X67010743Y-58288229D01*
X66939314Y-58145372D01*
X67582171Y-57216800D02*
X67510743Y-57359658D01*
X67367886Y-57431086D01*
X66082171Y-57431086D01*
X67582171Y-55502515D02*
X66082171Y-55502515D01*
X67582171Y-54645372D01*
X66082171Y-54645372D01*
X67582171Y-53716800D02*
X67510743Y-53859658D01*
X67439314Y-53931086D01*
X67296457Y-54002515D01*
X66867886Y-54002515D01*
X66725029Y-53931086D01*
X66653600Y-53859658D01*
X66582171Y-53716800D01*
X66582171Y-53502515D01*
X66653600Y-53359658D01*
X66725029Y-53288229D01*
X66867886Y-53216800D01*
X67296457Y-53216800D01*
X67439314Y-53288229D01*
X67510743Y-53359658D01*
X67582171Y-53502515D01*
X67582171Y-53716800D01*
X55964971Y-68707887D02*
X57179257Y-68707887D01*
X57322114Y-68779316D01*
X57393543Y-68850744D01*
X57464971Y-68993601D01*
X57464971Y-69207887D01*
X57393543Y-69350744D01*
X56893543Y-68707887D02*
X56964971Y-68850744D01*
X56964971Y-69136458D01*
X56893543Y-69279316D01*
X56822114Y-69350744D01*
X56679257Y-69422173D01*
X56250686Y-69422173D01*
X56107829Y-69350744D01*
X56036400Y-69279316D01*
X55964971Y-69136458D01*
X55964971Y-68850744D01*
X56036400Y-68707887D01*
X56964971Y-67993601D02*
X55964971Y-67993601D01*
X55464971Y-67993601D02*
X55536400Y-68065030D01*
X55607829Y-67993601D01*
X55536400Y-67922173D01*
X55464971Y-67993601D01*
X55607829Y-67993601D01*
X55964971Y-67493601D02*
X55964971Y-66922172D01*
X55464971Y-67279315D02*
X56750686Y-67279315D01*
X56893543Y-67207887D01*
X56964971Y-67065029D01*
X56964971Y-66922172D01*
X56964971Y-66422172D02*
X55464971Y-66422172D01*
X56964971Y-65779315D02*
X56179257Y-65779315D01*
X56036400Y-65850744D01*
X55964971Y-65993601D01*
X55964971Y-66207886D01*
X56036400Y-66350744D01*
X56107829Y-66422172D01*
X55964971Y-64422172D02*
X56964971Y-64422172D01*
X55964971Y-65065029D02*
X56750686Y-65065029D01*
X56893543Y-64993601D01*
X56964971Y-64850743D01*
X56964971Y-64636458D01*
X56893543Y-64493601D01*
X56822114Y-64422172D01*
X56964971Y-63707886D02*
X55464971Y-63707886D01*
X56036400Y-63707886D02*
X55964971Y-63565029D01*
X55964971Y-63279315D01*
X56036400Y-63136458D01*
X56107829Y-63065029D01*
X56250686Y-62993600D01*
X56679257Y-62993600D01*
X56822114Y-63065029D01*
X56893543Y-63136458D01*
X56964971Y-63279315D01*
X56964971Y-63565029D01*
X56893543Y-63707886D01*
X56822114Y-62350743D02*
X56893543Y-62279315D01*
X56964971Y-62350743D01*
X56893543Y-62422172D01*
X56822114Y-62350743D01*
X56964971Y-62350743D01*
X56893543Y-60993600D02*
X56964971Y-61136457D01*
X56964971Y-61422171D01*
X56893543Y-61565029D01*
X56822114Y-61636457D01*
X56679257Y-61707886D01*
X56250686Y-61707886D01*
X56107829Y-61636457D01*
X56036400Y-61565029D01*
X55964971Y-61422171D01*
X55964971Y-61136457D01*
X56036400Y-60993600D01*
X56964971Y-60136457D02*
X56893543Y-60279315D01*
X56822114Y-60350743D01*
X56679257Y-60422172D01*
X56250686Y-60422172D01*
X56107829Y-60350743D01*
X56036400Y-60279315D01*
X55964971Y-60136457D01*
X55964971Y-59922172D01*
X56036400Y-59779315D01*
X56107829Y-59707886D01*
X56250686Y-59636457D01*
X56679257Y-59636457D01*
X56822114Y-59707886D01*
X56893543Y-59779315D01*
X56964971Y-59922172D01*
X56964971Y-60136457D01*
X56964971Y-58993600D02*
X55964971Y-58993600D01*
X56107829Y-58993600D02*
X56036400Y-58922172D01*
X55964971Y-58779314D01*
X55964971Y-58565029D01*
X56036400Y-58422172D01*
X56179257Y-58350743D01*
X56964971Y-58350743D01*
X56179257Y-58350743D02*
X56036400Y-58279314D01*
X55964971Y-58136457D01*
X55964971Y-57922172D01*
X56036400Y-57779314D01*
X56179257Y-57707886D01*
X56964971Y-57707886D01*
X55393543Y-55922172D02*
X57322114Y-57207886D01*
X56964971Y-55422171D02*
X55464971Y-55422171D01*
X56964971Y-54779314D02*
X56179257Y-54779314D01*
X56036400Y-54850743D01*
X55964971Y-54993600D01*
X55964971Y-55207885D01*
X56036400Y-55350743D01*
X56107829Y-55422171D01*
X56893543Y-53493600D02*
X56964971Y-53636457D01*
X56964971Y-53922171D01*
X56893543Y-54065028D01*
X56750686Y-54136457D01*
X56179257Y-54136457D01*
X56036400Y-54065028D01*
X55964971Y-53922171D01*
X55964971Y-53636457D01*
X56036400Y-53493600D01*
X56179257Y-53422171D01*
X56322114Y-53422171D01*
X56464971Y-54136457D01*
X56964971Y-52136457D02*
X55464971Y-52136457D01*
X56893543Y-52136457D02*
X56964971Y-52279314D01*
X56964971Y-52565028D01*
X56893543Y-52707886D01*
X56822114Y-52779314D01*
X56679257Y-52850743D01*
X56250686Y-52850743D01*
X56107829Y-52779314D01*
X56036400Y-52707886D01*
X55964971Y-52565028D01*
X55964971Y-52279314D01*
X56036400Y-52136457D01*
X55964971Y-51422171D02*
X57250686Y-51422171D01*
X57393543Y-51493600D01*
X57464971Y-51636457D01*
X57464971Y-51707885D01*
X55464971Y-51422171D02*
X55536400Y-51493600D01*
X55607829Y-51422171D01*
X55536400Y-51350743D01*
X55464971Y-51422171D01*
X55607829Y-51422171D01*
X55393543Y-49636457D02*
X57322114Y-50922171D01*
X56964971Y-49136456D02*
X55964971Y-49136456D01*
X56250686Y-49136456D02*
X56107829Y-49065028D01*
X56036400Y-48993599D01*
X55964971Y-48850742D01*
X55964971Y-48707885D01*
X56964971Y-47565028D02*
X56179257Y-47565028D01*
X56036400Y-47636457D01*
X55964971Y-47779314D01*
X55964971Y-48065028D01*
X56036400Y-48207885D01*
X56893543Y-47565028D02*
X56964971Y-47707885D01*
X56964971Y-48065028D01*
X56893543Y-48207885D01*
X56750686Y-48279314D01*
X56607829Y-48279314D01*
X56464971Y-48207885D01*
X56393543Y-48065028D01*
X56393543Y-47707885D01*
X56322114Y-47565028D01*
X56964971Y-46207885D02*
X55464971Y-46207885D01*
X56893543Y-46207885D02*
X56964971Y-46350742D01*
X56964971Y-46636456D01*
X56893543Y-46779314D01*
X56822114Y-46850742D01*
X56679257Y-46922171D01*
X56250686Y-46922171D01*
X56107829Y-46850742D01*
X56036400Y-46779314D01*
X55964971Y-46636456D01*
X55964971Y-46350742D01*
X56036400Y-46207885D01*
X56964971Y-45493599D02*
X55964971Y-45493599D01*
X55464971Y-45493599D02*
X55536400Y-45565028D01*
X55607829Y-45493599D01*
X55536400Y-45422171D01*
X55464971Y-45493599D01*
X55607829Y-45493599D01*
X56964971Y-44565027D02*
X56893543Y-44707885D01*
X56822114Y-44779313D01*
X56679257Y-44850742D01*
X56250686Y-44850742D01*
X56107829Y-44779313D01*
X56036400Y-44707885D01*
X55964971Y-44565027D01*
X55964971Y-44350742D01*
X56036400Y-44207885D01*
X56107829Y-44136456D01*
X56250686Y-44065027D01*
X56679257Y-44065027D01*
X56822114Y-44136456D01*
X56893543Y-44207885D01*
X56964971Y-44350742D01*
X56964971Y-44565027D01*
D14*
X66305867Y-23755334D02*
X66305867Y-24155334D01*
X66305867Y-23955334D02*
X65605867Y-23955334D01*
X65705867Y-24022000D01*
X65772533Y-24088667D01*
X65805867Y-24155334D01*
X65605867Y-23522000D02*
X65605867Y-23088667D01*
X65872533Y-23322000D01*
X65872533Y-23222000D01*
X65905867Y-23155333D01*
X65939200Y-23122000D01*
X66005867Y-23088667D01*
X66172533Y-23088667D01*
X66239200Y-23122000D01*
X66272533Y-23155333D01*
X66305867Y-23222000D01*
X66305867Y-23422000D01*
X66272533Y-23488667D01*
X66239200Y-23522000D01*
X68845867Y-23806134D02*
X68845867Y-24206134D01*
X68845867Y-24006134D02*
X68145867Y-24006134D01*
X68245867Y-24072800D01*
X68312533Y-24139467D01*
X68345867Y-24206134D01*
X68845867Y-23472800D02*
X68845867Y-23339467D01*
X68812533Y-23272800D01*
X68779200Y-23239467D01*
X68679200Y-23172800D01*
X68545867Y-23139467D01*
X68279200Y-23139467D01*
X68212533Y-23172800D01*
X68179200Y-23206133D01*
X68145867Y-23272800D01*
X68145867Y-23406133D01*
X68179200Y-23472800D01*
X68212533Y-23506133D01*
X68279200Y-23539467D01*
X68445867Y-23539467D01*
X68512533Y-23506133D01*
X68545867Y-23472800D01*
X68579200Y-23406133D01*
X68579200Y-23272800D01*
X68545867Y-23206133D01*
X68512533Y-23172800D01*
X68445867Y-23139467D01*
X68386666Y-21086667D02*
X67986666Y-21086667D01*
X68186666Y-21086667D02*
X68186666Y-20386667D01*
X68120000Y-20486667D01*
X68053333Y-20553333D01*
X67986666Y-20586667D01*
X68986667Y-20386667D02*
X68853333Y-20386667D01*
X68786667Y-20420000D01*
X68753333Y-20453333D01*
X68686667Y-20553333D01*
X68653333Y-20686667D01*
X68653333Y-20953333D01*
X68686667Y-21020000D01*
X68720000Y-21053333D01*
X68786667Y-21086667D01*
X68920000Y-21086667D01*
X68986667Y-21053333D01*
X69020000Y-21020000D01*
X69053333Y-20953333D01*
X69053333Y-20786667D01*
X69020000Y-20720000D01*
X68986667Y-20686667D01*
X68920000Y-20653333D01*
X68786667Y-20653333D01*
X68720000Y-20686667D01*
X68686667Y-20720000D01*
X68653333Y-20786667D01*
X63226666Y-21086667D02*
X62826666Y-21086667D01*
X63026666Y-21086667D02*
X63026666Y-20386667D01*
X62960000Y-20486667D01*
X62893333Y-20553333D01*
X62826666Y-20586667D01*
X63493333Y-20453333D02*
X63526667Y-20420000D01*
X63593333Y-20386667D01*
X63760000Y-20386667D01*
X63826667Y-20420000D01*
X63860000Y-20453333D01*
X63893333Y-20520000D01*
X63893333Y-20586667D01*
X63860000Y-20686667D01*
X63460000Y-21086667D01*
X63893333Y-21086667D01*
X63730933Y-23501334D02*
X63730933Y-23368000D01*
X63697600Y-23301334D01*
X63664267Y-23268000D01*
X63564267Y-23201334D01*
X63430933Y-23168000D01*
X63164267Y-23168000D01*
X63097600Y-23201334D01*
X63064267Y-23234667D01*
X63030933Y-23301334D01*
X63030933Y-23434667D01*
X63064267Y-23501334D01*
X63097600Y-23534667D01*
X63164267Y-23568000D01*
X63330933Y-23568000D01*
X63397600Y-23534667D01*
X63430933Y-23501334D01*
X63464267Y-23434667D01*
X63464267Y-23301334D01*
X63430933Y-23234667D01*
X63397600Y-23201334D01*
X63330933Y-23168000D01*
X60525867Y-23201333D02*
X60525867Y-23534666D01*
X60859200Y-23568000D01*
X60825867Y-23534666D01*
X60792533Y-23468000D01*
X60792533Y-23301333D01*
X60825867Y-23234666D01*
X60859200Y-23201333D01*
X60925867Y-23168000D01*
X61092533Y-23168000D01*
X61159200Y-23201333D01*
X61192533Y-23234666D01*
X61225867Y-23301333D01*
X61225867Y-23468000D01*
X61192533Y-23534666D01*
X61159200Y-23568000D01*
X55386667Y-21020000D02*
X55353333Y-21053333D01*
X55253333Y-21086667D01*
X55186667Y-21086667D01*
X55086667Y-21053333D01*
X55020000Y-20986667D01*
X54986667Y-20920000D01*
X54953333Y-20786667D01*
X54953333Y-20686667D01*
X54986667Y-20553333D01*
X55020000Y-20486667D01*
X55086667Y-20420000D01*
X55186667Y-20386667D01*
X55253333Y-20386667D01*
X55353333Y-20420000D01*
X55386667Y-20453333D01*
X55686667Y-20720000D02*
X55920000Y-20720000D01*
X56020000Y-21086667D02*
X55686667Y-21086667D01*
X55686667Y-20386667D01*
X56020000Y-20386667D01*
X56686666Y-21086667D02*
X56286666Y-21086667D01*
X56486666Y-21086667D02*
X56486666Y-20386667D01*
X56420000Y-20486667D01*
X56353333Y-20553333D01*
X56286666Y-20586667D01*
X48546667Y-25219999D02*
X47846667Y-25219999D01*
X48346667Y-24986666D01*
X47846667Y-24753333D01*
X48546667Y-24753333D01*
X47846667Y-24286666D02*
X47846667Y-24153333D01*
X47880000Y-24086666D01*
X47946667Y-24019999D01*
X48080000Y-23986666D01*
X48313333Y-23986666D01*
X48446667Y-24019999D01*
X48513333Y-24086666D01*
X48546667Y-24153333D01*
X48546667Y-24286666D01*
X48513333Y-24353333D01*
X48446667Y-24419999D01*
X48313333Y-24453333D01*
X48080000Y-24453333D01*
X47946667Y-24419999D01*
X47880000Y-24353333D01*
X47846667Y-24286666D01*
X48513333Y-23720000D02*
X48546667Y-23620000D01*
X48546667Y-23453333D01*
X48513333Y-23386666D01*
X48480000Y-23353333D01*
X48413333Y-23320000D01*
X48346667Y-23320000D01*
X48280000Y-23353333D01*
X48246667Y-23386666D01*
X48213333Y-23453333D01*
X48180000Y-23586666D01*
X48146667Y-23653333D01*
X48113333Y-23686666D01*
X48046667Y-23720000D01*
X47980000Y-23720000D01*
X47913333Y-23686666D01*
X47880000Y-23653333D01*
X47846667Y-23586666D01*
X47846667Y-23420000D01*
X47880000Y-23320000D01*
X48546667Y-23019999D02*
X47846667Y-23019999D01*
X51106667Y-25249999D02*
X50406667Y-25249999D01*
X50906667Y-25016666D01*
X50406667Y-24783333D01*
X51106667Y-24783333D01*
X51106667Y-24449999D02*
X50406667Y-24449999D01*
X51073333Y-24150000D02*
X51106667Y-24050000D01*
X51106667Y-23883333D01*
X51073333Y-23816666D01*
X51040000Y-23783333D01*
X50973333Y-23750000D01*
X50906667Y-23750000D01*
X50840000Y-23783333D01*
X50806667Y-23816666D01*
X50773333Y-23883333D01*
X50740000Y-24016666D01*
X50706667Y-24083333D01*
X50673333Y-24116666D01*
X50606667Y-24150000D01*
X50540000Y-24150000D01*
X50473333Y-24116666D01*
X50440000Y-24083333D01*
X50406667Y-24016666D01*
X50406667Y-23850000D01*
X50440000Y-23750000D01*
X50406667Y-23316666D02*
X50406667Y-23183333D01*
X50440000Y-23116666D01*
X50506667Y-23049999D01*
X50640000Y-23016666D01*
X50873333Y-23016666D01*
X51006667Y-23049999D01*
X51073333Y-23116666D01*
X51106667Y-23183333D01*
X51106667Y-23316666D01*
X51073333Y-23383333D01*
X51006667Y-23449999D01*
X50873333Y-23483333D01*
X50640000Y-23483333D01*
X50506667Y-23449999D01*
X50440000Y-23383333D01*
X50406667Y-23316666D01*
X53563333Y-25393334D02*
X53596667Y-25293334D01*
X53596667Y-25126667D01*
X53563333Y-25060000D01*
X53530000Y-25026667D01*
X53463333Y-24993334D01*
X53396667Y-24993334D01*
X53330000Y-25026667D01*
X53296667Y-25060000D01*
X53263333Y-25126667D01*
X53230000Y-25260000D01*
X53196667Y-25326667D01*
X53163333Y-25360000D01*
X53096667Y-25393334D01*
X53030000Y-25393334D01*
X52963333Y-25360000D01*
X52930000Y-25326667D01*
X52896667Y-25260000D01*
X52896667Y-25093334D01*
X52930000Y-24993334D01*
X53530000Y-24293333D02*
X53563333Y-24326667D01*
X53596667Y-24426667D01*
X53596667Y-24493333D01*
X53563333Y-24593333D01*
X53496667Y-24660000D01*
X53430000Y-24693333D01*
X53296667Y-24726667D01*
X53196667Y-24726667D01*
X53063333Y-24693333D01*
X52996667Y-24660000D01*
X52930000Y-24593333D01*
X52896667Y-24493333D01*
X52896667Y-24426667D01*
X52930000Y-24326667D01*
X52963333Y-24293333D01*
X53596667Y-23660000D02*
X53596667Y-23993333D01*
X52896667Y-23993333D01*
X53596667Y-23426666D02*
X52896667Y-23426666D01*
X53596667Y-23026666D02*
X53196667Y-23326666D01*
X52896667Y-23026666D02*
X53296667Y-23426666D01*
X50146666Y-20463333D02*
X50180000Y-20430000D01*
X50246666Y-20396667D01*
X50413333Y-20396667D01*
X50480000Y-20430000D01*
X50513333Y-20463333D01*
X50546666Y-20530000D01*
X50546666Y-20596667D01*
X50513333Y-20696667D01*
X50113333Y-21096667D01*
X50546666Y-21096667D01*
X51146667Y-20630000D02*
X51146667Y-21096667D01*
X50980000Y-20363333D02*
X50813333Y-20863333D01*
X51246667Y-20863333D01*
X45156666Y-20453333D02*
X45190000Y-20420000D01*
X45256666Y-20386667D01*
X45423333Y-20386667D01*
X45490000Y-20420000D01*
X45523333Y-20453333D01*
X45556666Y-20520000D01*
X45556666Y-20586667D01*
X45523333Y-20686667D01*
X45123333Y-21086667D01*
X45556666Y-21086667D01*
X46156667Y-20620000D02*
X46156667Y-21086667D01*
X45990000Y-20353333D02*
X45823333Y-20853333D01*
X46256667Y-20853333D01*
X42833333Y-24623334D02*
X42800000Y-24590000D01*
X42766667Y-24523334D01*
X42766667Y-24356667D01*
X42800000Y-24290000D01*
X42833333Y-24256667D01*
X42900000Y-24223334D01*
X42966667Y-24223334D01*
X43066667Y-24256667D01*
X43466667Y-24656667D01*
X43466667Y-24223334D01*
X42833333Y-23956667D02*
X42800000Y-23923333D01*
X42766667Y-23856667D01*
X42766667Y-23690000D01*
X42800000Y-23623333D01*
X42833333Y-23590000D01*
X42900000Y-23556667D01*
X42966667Y-23556667D01*
X43066667Y-23590000D01*
X43466667Y-23990000D01*
X43466667Y-23556667D01*
X42496666Y-20453333D02*
X42530000Y-20420000D01*
X42596666Y-20386667D01*
X42763333Y-20386667D01*
X42830000Y-20420000D01*
X42863333Y-20453333D01*
X42896666Y-20520000D01*
X42896666Y-20586667D01*
X42863333Y-20686667D01*
X42463333Y-21086667D01*
X42896666Y-21086667D01*
X43130000Y-20386667D02*
X43563333Y-20386667D01*
X43330000Y-20653333D01*
X43430000Y-20653333D01*
X43496667Y-20686667D01*
X43530000Y-20720000D01*
X43563333Y-20786667D01*
X43563333Y-20953333D01*
X43530000Y-21020000D01*
X43496667Y-21053333D01*
X43430000Y-21086667D01*
X43230000Y-21086667D01*
X43163333Y-21053333D01*
X43130000Y-21020000D01*
X38406667Y-24253334D02*
X38406667Y-24653334D01*
X38406667Y-24453334D02*
X37706667Y-24453334D01*
X37806667Y-24520000D01*
X37873333Y-24586667D01*
X37906667Y-24653334D01*
X37706667Y-24020000D02*
X37706667Y-23553333D01*
X38406667Y-23853333D01*
X37886666Y-21086667D02*
X37486666Y-21086667D01*
X37686666Y-21086667D02*
X37686666Y-20386667D01*
X37620000Y-20486667D01*
X37553333Y-20553333D01*
X37486666Y-20586667D01*
X38286667Y-20686667D02*
X38220000Y-20653333D01*
X38186667Y-20620000D01*
X38153333Y-20553333D01*
X38153333Y-20520000D01*
X38186667Y-20453333D01*
X38220000Y-20420000D01*
X38286667Y-20386667D01*
X38420000Y-20386667D01*
X38486667Y-20420000D01*
X38520000Y-20453333D01*
X38553333Y-20520000D01*
X38553333Y-20553333D01*
X38520000Y-20620000D01*
X38486667Y-20653333D01*
X38420000Y-20686667D01*
X38286667Y-20686667D01*
X38220000Y-20720000D01*
X38186667Y-20753333D01*
X38153333Y-20820000D01*
X38153333Y-20953333D01*
X38186667Y-21020000D01*
X38220000Y-21053333D01*
X38286667Y-21086667D01*
X38420000Y-21086667D01*
X38486667Y-21053333D01*
X38520000Y-21020000D01*
X38553333Y-20953333D01*
X38553333Y-20820000D01*
X38520000Y-20753333D01*
X38486667Y-20720000D01*
X38420000Y-20686667D01*
X40850000Y-24386666D02*
X40883333Y-24420000D01*
X40916667Y-24520000D01*
X40916667Y-24586666D01*
X40883333Y-24686666D01*
X40816667Y-24753333D01*
X40750000Y-24786666D01*
X40616667Y-24820000D01*
X40516667Y-24820000D01*
X40383333Y-24786666D01*
X40316667Y-24753333D01*
X40250000Y-24686666D01*
X40216667Y-24586666D01*
X40216667Y-24520000D01*
X40250000Y-24420000D01*
X40283333Y-24386666D01*
X40916667Y-24086666D02*
X40216667Y-24086666D01*
X40916667Y-23686666D02*
X40516667Y-23986666D01*
X40216667Y-23686666D02*
X40616667Y-24086666D01*
X40283333Y-23420000D02*
X40250000Y-23386666D01*
X40216667Y-23320000D01*
X40216667Y-23153333D01*
X40250000Y-23086666D01*
X40283333Y-23053333D01*
X40350000Y-23020000D01*
X40416667Y-23020000D01*
X40516667Y-23053333D01*
X40916667Y-23453333D01*
X40916667Y-23020000D01*
X52716667Y-20420000D02*
X52650001Y-20386667D01*
X52550001Y-20386667D01*
X52450001Y-20420000D01*
X52383334Y-20486667D01*
X52350001Y-20553333D01*
X52316667Y-20686667D01*
X52316667Y-20786667D01*
X52350001Y-20920000D01*
X52383334Y-20986667D01*
X52450001Y-21053333D01*
X52550001Y-21086667D01*
X52616667Y-21086667D01*
X52716667Y-21053333D01*
X52750001Y-21020000D01*
X52750001Y-20786667D01*
X52616667Y-20786667D01*
X53050001Y-21086667D02*
X53050001Y-20386667D01*
X53450001Y-21086667D01*
X53450001Y-20386667D01*
X53783334Y-21086667D02*
X53783334Y-20386667D01*
X53950000Y-20386667D01*
X54050000Y-20420000D01*
X54116667Y-20486667D01*
X54150000Y-20553333D01*
X54183334Y-20686667D01*
X54183334Y-20786667D01*
X54150000Y-20920000D01*
X54116667Y-20986667D01*
X54050000Y-21053333D01*
X53950000Y-21086667D01*
X53783334Y-21086667D01*
X58676667Y-24459999D02*
X57976667Y-24459999D01*
X58676667Y-24126666D02*
X57976667Y-24126666D01*
X57976667Y-23960000D01*
X58010000Y-23860000D01*
X58076667Y-23793333D01*
X58143333Y-23760000D01*
X58276667Y-23726666D01*
X58376667Y-23726666D01*
X58510000Y-23760000D01*
X58576667Y-23793333D01*
X58643333Y-23860000D01*
X58676667Y-23960000D01*
X58676667Y-24126666D01*
X58676667Y-23426666D02*
X57976667Y-23426666D01*
X57976667Y-23260000D01*
X58010000Y-23160000D01*
X58076667Y-23093333D01*
X58143333Y-23060000D01*
X58276667Y-23026666D01*
X58376667Y-23026666D01*
X58510000Y-23060000D01*
X58576667Y-23093333D01*
X58643333Y-23160000D01*
X58676667Y-23260000D01*
X58676667Y-23426666D01*
X57610001Y-21086667D02*
X57610001Y-20386667D01*
X57943334Y-21086667D02*
X57943334Y-20386667D01*
X58110000Y-20386667D01*
X58210000Y-20420000D01*
X58276667Y-20486667D01*
X58310000Y-20553333D01*
X58343334Y-20686667D01*
X58343334Y-20786667D01*
X58310000Y-20920000D01*
X58276667Y-20986667D01*
X58210000Y-21053333D01*
X58110000Y-21086667D01*
X57943334Y-21086667D01*
X59043334Y-21020000D02*
X59010000Y-21053333D01*
X58910000Y-21086667D01*
X58843334Y-21086667D01*
X58743334Y-21053333D01*
X58676667Y-20986667D01*
X58643334Y-20920000D01*
X58610000Y-20786667D01*
X58610000Y-20686667D01*
X58643334Y-20553333D01*
X58676667Y-20486667D01*
X58743334Y-20420000D01*
X58843334Y-20386667D01*
X58910000Y-20386667D01*
X59010000Y-20420000D01*
X59043334Y-20453333D01*
X45296667Y-24726667D02*
X45296667Y-24293334D01*
X45563333Y-24526667D01*
X45563333Y-24426667D01*
X45596667Y-24360000D01*
X45630000Y-24326667D01*
X45696667Y-24293334D01*
X45863333Y-24293334D01*
X45930000Y-24326667D01*
X45963333Y-24360000D01*
X45996667Y-24426667D01*
X45996667Y-24626667D01*
X45963333Y-24693334D01*
X45930000Y-24726667D01*
X45296667Y-24093333D02*
X45996667Y-23860000D01*
X45296667Y-23626667D01*
X45296667Y-23460000D02*
X45296667Y-23026667D01*
X45563333Y-23260000D01*
X45563333Y-23160000D01*
X45596667Y-23093333D01*
X45630000Y-23060000D01*
X45696667Y-23026667D01*
X45863333Y-23026667D01*
X45930000Y-23060000D01*
X45963333Y-23093333D01*
X45996667Y-23160000D01*
X45996667Y-23360000D01*
X45963333Y-23426667D01*
X45930000Y-23460000D01*
X73030001Y-21086667D02*
X73030001Y-20386667D01*
X73430001Y-21086667D01*
X73430001Y-20386667D01*
X74163334Y-21020000D02*
X74130000Y-21053333D01*
X74030000Y-21086667D01*
X73963334Y-21086667D01*
X73863334Y-21053333D01*
X73796667Y-20986667D01*
X73763334Y-20920000D01*
X73730000Y-20786667D01*
X73730000Y-20686667D01*
X73763334Y-20553333D01*
X73796667Y-20486667D01*
X73863334Y-20420000D01*
X73963334Y-20386667D01*
X74030000Y-20386667D01*
X74130000Y-20420000D01*
X74163334Y-20453333D01*
X70460001Y-21096667D02*
X70460001Y-20396667D01*
X70860001Y-21096667D01*
X70860001Y-20396667D01*
X71593334Y-21030000D02*
X71560000Y-21063333D01*
X71460000Y-21096667D01*
X71393334Y-21096667D01*
X71293334Y-21063333D01*
X71226667Y-20996667D01*
X71193334Y-20930000D01*
X71160000Y-20796667D01*
X71160000Y-20696667D01*
X71193334Y-20563333D01*
X71226667Y-20496667D01*
X71293334Y-20430000D01*
X71393334Y-20396667D01*
X71460000Y-20396667D01*
X71560000Y-20430000D01*
X71593334Y-20463333D01*
X71396667Y-24159999D02*
X70696667Y-24159999D01*
X71396667Y-23759999D01*
X70696667Y-23759999D01*
X71330000Y-23026666D02*
X71363333Y-23060000D01*
X71396667Y-23160000D01*
X71396667Y-23226666D01*
X71363333Y-23326666D01*
X71296667Y-23393333D01*
X71230000Y-23426666D01*
X71096667Y-23460000D01*
X70996667Y-23460000D01*
X70863333Y-23426666D01*
X70796667Y-23393333D01*
X70730000Y-23326666D01*
X70696667Y-23226666D01*
X70696667Y-23160000D01*
X70730000Y-23060000D01*
X70763333Y-23026666D01*
X73280000Y-24493333D02*
X73246667Y-24559999D01*
X73246667Y-24659999D01*
X73280000Y-24759999D01*
X73346667Y-24826666D01*
X73413333Y-24859999D01*
X73546667Y-24893333D01*
X73646667Y-24893333D01*
X73780000Y-24859999D01*
X73846667Y-24826666D01*
X73913333Y-24759999D01*
X73946667Y-24659999D01*
X73946667Y-24593333D01*
X73913333Y-24493333D01*
X73880000Y-24459999D01*
X73646667Y-24459999D01*
X73646667Y-24593333D01*
X73946667Y-24159999D02*
X73246667Y-24159999D01*
X73946667Y-23759999D01*
X73246667Y-23759999D01*
X73946667Y-23426666D02*
X73246667Y-23426666D01*
X73246667Y-23260000D01*
X73280000Y-23160000D01*
X73346667Y-23093333D01*
X73413333Y-23060000D01*
X73546667Y-23026666D01*
X73646667Y-23026666D01*
X73780000Y-23060000D01*
X73846667Y-23093333D01*
X73913333Y-23160000D01*
X73946667Y-23260000D01*
X73946667Y-23426666D01*
X65386667Y-20420000D02*
X65320001Y-20386667D01*
X65220001Y-20386667D01*
X65120001Y-20420000D01*
X65053334Y-20486667D01*
X65020001Y-20553333D01*
X64986667Y-20686667D01*
X64986667Y-20786667D01*
X65020001Y-20920000D01*
X65053334Y-20986667D01*
X65120001Y-21053333D01*
X65220001Y-21086667D01*
X65286667Y-21086667D01*
X65386667Y-21053333D01*
X65420001Y-21020000D01*
X65420001Y-20786667D01*
X65286667Y-20786667D01*
X65720001Y-21086667D02*
X65720001Y-20386667D01*
X66120001Y-21086667D01*
X66120001Y-20386667D01*
X66453334Y-21086667D02*
X66453334Y-20386667D01*
X66620000Y-20386667D01*
X66720000Y-20420000D01*
X66786667Y-20486667D01*
X66820000Y-20553333D01*
X66853334Y-20686667D01*
X66853334Y-20786667D01*
X66820000Y-20920000D01*
X66786667Y-20986667D01*
X66720000Y-21053333D01*
X66620000Y-21086667D01*
X66453334Y-21086667D01*
X60326667Y-20420000D02*
X60260001Y-20386667D01*
X60160001Y-20386667D01*
X60060001Y-20420000D01*
X59993334Y-20486667D01*
X59960001Y-20553333D01*
X59926667Y-20686667D01*
X59926667Y-20786667D01*
X59960001Y-20920000D01*
X59993334Y-20986667D01*
X60060001Y-21053333D01*
X60160001Y-21086667D01*
X60226667Y-21086667D01*
X60326667Y-21053333D01*
X60360001Y-21020000D01*
X60360001Y-20786667D01*
X60226667Y-20786667D01*
X60660001Y-21086667D02*
X60660001Y-20386667D01*
X61060001Y-21086667D01*
X61060001Y-20386667D01*
X61393334Y-21086667D02*
X61393334Y-20386667D01*
X61560000Y-20386667D01*
X61660000Y-20420000D01*
X61726667Y-20486667D01*
X61760000Y-20553333D01*
X61793334Y-20686667D01*
X61793334Y-20786667D01*
X61760000Y-20920000D01*
X61726667Y-20986667D01*
X61660000Y-21053333D01*
X61560000Y-21086667D01*
X61393334Y-21086667D01*
X47606667Y-20420000D02*
X47540001Y-20386667D01*
X47440001Y-20386667D01*
X47340001Y-20420000D01*
X47273334Y-20486667D01*
X47240001Y-20553333D01*
X47206667Y-20686667D01*
X47206667Y-20786667D01*
X47240001Y-20920000D01*
X47273334Y-20986667D01*
X47340001Y-21053333D01*
X47440001Y-21086667D01*
X47506667Y-21086667D01*
X47606667Y-21053333D01*
X47640001Y-21020000D01*
X47640001Y-20786667D01*
X47506667Y-20786667D01*
X47940001Y-21086667D02*
X47940001Y-20386667D01*
X48340001Y-21086667D01*
X48340001Y-20386667D01*
X48673334Y-21086667D02*
X48673334Y-20386667D01*
X48840000Y-20386667D01*
X48940000Y-20420000D01*
X49006667Y-20486667D01*
X49040000Y-20553333D01*
X49073334Y-20686667D01*
X49073334Y-20786667D01*
X49040000Y-20920000D01*
X49006667Y-20986667D01*
X48940000Y-21053333D01*
X48840000Y-21086667D01*
X48673334Y-21086667D01*
X39996667Y-20420000D02*
X39930001Y-20386667D01*
X39830001Y-20386667D01*
X39730001Y-20420000D01*
X39663334Y-20486667D01*
X39630001Y-20553333D01*
X39596667Y-20686667D01*
X39596667Y-20786667D01*
X39630001Y-20920000D01*
X39663334Y-20986667D01*
X39730001Y-21053333D01*
X39830001Y-21086667D01*
X39896667Y-21086667D01*
X39996667Y-21053333D01*
X40030001Y-21020000D01*
X40030001Y-20786667D01*
X39896667Y-20786667D01*
X40330001Y-21086667D02*
X40330001Y-20386667D01*
X40730001Y-21086667D01*
X40730001Y-20386667D01*
X41063334Y-21086667D02*
X41063334Y-20386667D01*
X41230000Y-20386667D01*
X41330000Y-20420000D01*
X41396667Y-20486667D01*
X41430000Y-20553333D01*
X41463334Y-20686667D01*
X41463334Y-20786667D01*
X41430000Y-20920000D01*
X41396667Y-20986667D01*
X41330000Y-21053333D01*
X41230000Y-21086667D01*
X41063334Y-21086667D01*
X35200000Y-24483333D02*
X35166667Y-24549999D01*
X35166667Y-24649999D01*
X35200000Y-24749999D01*
X35266667Y-24816666D01*
X35333333Y-24849999D01*
X35466667Y-24883333D01*
X35566667Y-24883333D01*
X35700000Y-24849999D01*
X35766667Y-24816666D01*
X35833333Y-24749999D01*
X35866667Y-24649999D01*
X35866667Y-24583333D01*
X35833333Y-24483333D01*
X35800000Y-24449999D01*
X35566667Y-24449999D01*
X35566667Y-24583333D01*
X35866667Y-24149999D02*
X35166667Y-24149999D01*
X35866667Y-23749999D01*
X35166667Y-23749999D01*
X35866667Y-23416666D02*
X35166667Y-23416666D01*
X35166667Y-23250000D01*
X35200000Y-23150000D01*
X35266667Y-23083333D01*
X35333333Y-23050000D01*
X35466667Y-23016666D01*
X35566667Y-23016666D01*
X35700000Y-23050000D01*
X35766667Y-23083333D01*
X35833333Y-23150000D01*
X35866667Y-23250000D01*
X35866667Y-23416666D01*
X33190000Y-24386666D02*
X33223333Y-24420000D01*
X33256667Y-24520000D01*
X33256667Y-24586666D01*
X33223333Y-24686666D01*
X33156667Y-24753333D01*
X33090000Y-24786666D01*
X32956667Y-24820000D01*
X32856667Y-24820000D01*
X32723333Y-24786666D01*
X32656667Y-24753333D01*
X32590000Y-24686666D01*
X32556667Y-24586666D01*
X32556667Y-24520000D01*
X32590000Y-24420000D01*
X32623333Y-24386666D01*
X33256667Y-24086666D02*
X32556667Y-24086666D01*
X33256667Y-23686666D02*
X32856667Y-23986666D01*
X32556667Y-23686666D02*
X32956667Y-24086666D01*
X33256667Y-23020000D02*
X33256667Y-23420000D01*
X33256667Y-23220000D02*
X32556667Y-23220000D01*
X32656667Y-23286666D01*
X32723333Y-23353333D01*
X32756667Y-23420000D01*
X30693333Y-24753334D02*
X30726667Y-24653334D01*
X30726667Y-24486667D01*
X30693333Y-24420000D01*
X30660000Y-24386667D01*
X30593333Y-24353334D01*
X30526667Y-24353334D01*
X30460000Y-24386667D01*
X30426667Y-24420000D01*
X30393333Y-24486667D01*
X30360000Y-24620000D01*
X30326667Y-24686667D01*
X30293333Y-24720000D01*
X30226667Y-24753334D01*
X30160000Y-24753334D01*
X30093333Y-24720000D01*
X30060000Y-24686667D01*
X30026667Y-24620000D01*
X30026667Y-24453334D01*
X30060000Y-24353334D01*
X30660000Y-23653333D02*
X30693333Y-23686667D01*
X30726667Y-23786667D01*
X30726667Y-23853333D01*
X30693333Y-23953333D01*
X30626667Y-24020000D01*
X30560000Y-24053333D01*
X30426667Y-24086667D01*
X30326667Y-24086667D01*
X30193333Y-24053333D01*
X30126667Y-24020000D01*
X30060000Y-23953333D01*
X30026667Y-23853333D01*
X30026667Y-23786667D01*
X30060000Y-23686667D01*
X30093333Y-23653333D01*
X30726667Y-23020000D02*
X30726667Y-23353333D01*
X30026667Y-23353333D01*
X28133333Y-24790000D02*
X28166667Y-24690000D01*
X28166667Y-24523333D01*
X28133333Y-24456666D01*
X28100000Y-24423333D01*
X28033333Y-24390000D01*
X27966667Y-24390000D01*
X27900000Y-24423333D01*
X27866667Y-24456666D01*
X27833333Y-24523333D01*
X27800000Y-24656666D01*
X27766667Y-24723333D01*
X27733333Y-24756666D01*
X27666667Y-24790000D01*
X27600000Y-24790000D01*
X27533333Y-24756666D01*
X27500000Y-24723333D01*
X27466667Y-24656666D01*
X27466667Y-24490000D01*
X27500000Y-24390000D01*
X28166667Y-24089999D02*
X27466667Y-24089999D01*
X27466667Y-23923333D01*
X27500000Y-23823333D01*
X27566667Y-23756666D01*
X27633333Y-23723333D01*
X27766667Y-23689999D01*
X27866667Y-23689999D01*
X28000000Y-23723333D01*
X28066667Y-23756666D01*
X28133333Y-23823333D01*
X28166667Y-23923333D01*
X28166667Y-24089999D01*
X27966667Y-23423333D02*
X27966667Y-23089999D01*
X28166667Y-23489999D02*
X27466667Y-23256666D01*
X28166667Y-23023333D01*
X22043333Y-21706667D02*
X22476666Y-21706667D01*
X22243333Y-21973333D01*
X22343333Y-21973333D01*
X22410000Y-22006667D01*
X22443333Y-22040000D01*
X22476666Y-22106667D01*
X22476666Y-22273333D01*
X22443333Y-22340000D01*
X22410000Y-22373333D01*
X22343333Y-22406667D01*
X22143333Y-22406667D01*
X22076666Y-22373333D01*
X22043333Y-22340000D01*
X22676667Y-21706667D02*
X22910000Y-22406667D01*
X23143333Y-21706667D01*
X23310000Y-21706667D02*
X23743333Y-21706667D01*
X23510000Y-21973333D01*
X23610000Y-21973333D01*
X23676667Y-22006667D01*
X23710000Y-22040000D01*
X23743333Y-22106667D01*
X23743333Y-22273333D01*
X23710000Y-22340000D01*
X23676667Y-22373333D01*
X23610000Y-22406667D01*
X23410000Y-22406667D01*
X23343333Y-22373333D01*
X23310000Y-22340000D01*
X34983334Y-21086667D02*
X34750000Y-20753333D01*
X34583334Y-21086667D02*
X34583334Y-20386667D01*
X34850000Y-20386667D01*
X34916667Y-20420000D01*
X34950000Y-20453333D01*
X34983334Y-20520000D01*
X34983334Y-20620000D01*
X34950000Y-20686667D01*
X34916667Y-20720000D01*
X34850000Y-20753333D01*
X34583334Y-20753333D01*
X35216667Y-20386667D02*
X35683334Y-21086667D01*
X35683334Y-20386667D02*
X35216667Y-21086667D01*
X35950001Y-21086667D02*
X35950001Y-20386667D01*
X36116667Y-20386667D01*
X36216667Y-20420000D01*
X36283334Y-20486667D01*
X36316667Y-20553333D01*
X36350001Y-20686667D01*
X36350001Y-20786667D01*
X36316667Y-20920000D01*
X36283334Y-20986667D01*
X36216667Y-21053333D01*
X36116667Y-21086667D01*
X35950001Y-21086667D01*
X32096667Y-20386667D02*
X32496667Y-20386667D01*
X32296667Y-21086667D02*
X32296667Y-20386667D01*
X32663333Y-20386667D02*
X33130000Y-21086667D01*
X33130000Y-20386667D02*
X32663333Y-21086667D01*
X33396667Y-21086667D02*
X33396667Y-20386667D01*
X33563333Y-20386667D01*
X33663333Y-20420000D01*
X33730000Y-20486667D01*
X33763333Y-20553333D01*
X33796667Y-20686667D01*
X33796667Y-20786667D01*
X33763333Y-20920000D01*
X33730000Y-20986667D01*
X33663333Y-21053333D01*
X33563333Y-21086667D01*
X33396667Y-21086667D01*
X29866667Y-20420000D02*
X29800001Y-20386667D01*
X29700001Y-20386667D01*
X29600001Y-20420000D01*
X29533334Y-20486667D01*
X29500001Y-20553333D01*
X29466667Y-20686667D01*
X29466667Y-20786667D01*
X29500001Y-20920000D01*
X29533334Y-20986667D01*
X29600001Y-21053333D01*
X29700001Y-21086667D01*
X29766667Y-21086667D01*
X29866667Y-21053333D01*
X29900001Y-21020000D01*
X29900001Y-20786667D01*
X29766667Y-20786667D01*
X30200001Y-21086667D02*
X30200001Y-20386667D01*
X30600001Y-21086667D01*
X30600001Y-20386667D01*
X30933334Y-21086667D02*
X30933334Y-20386667D01*
X31100000Y-20386667D01*
X31200000Y-20420000D01*
X31266667Y-20486667D01*
X31300000Y-20553333D01*
X31333334Y-20686667D01*
X31333334Y-20786667D01*
X31300000Y-20920000D01*
X31266667Y-20986667D01*
X31200000Y-21053333D01*
X31100000Y-21086667D01*
X30933334Y-21086667D01*
X27736667Y-20386667D02*
X27403334Y-20386667D01*
X27370000Y-20720000D01*
X27403334Y-20686667D01*
X27470000Y-20653333D01*
X27636667Y-20653333D01*
X27703334Y-20686667D01*
X27736667Y-20720000D01*
X27770000Y-20786667D01*
X27770000Y-20953333D01*
X27736667Y-21020000D01*
X27703334Y-21053333D01*
X27636667Y-21086667D01*
X27470000Y-21086667D01*
X27403334Y-21053333D01*
X27370000Y-21020000D01*
X27970001Y-20386667D02*
X28203334Y-21086667D01*
X28436667Y-20386667D01*
X25186667Y-20386667D02*
X24853334Y-20386667D01*
X24820000Y-20720000D01*
X24853334Y-20686667D01*
X24920000Y-20653333D01*
X25086667Y-20653333D01*
X25153334Y-20686667D01*
X25186667Y-20720000D01*
X25220000Y-20786667D01*
X25220000Y-20953333D01*
X25186667Y-21020000D01*
X25153334Y-21053333D01*
X25086667Y-21086667D01*
X24920000Y-21086667D01*
X24853334Y-21053333D01*
X24820000Y-21020000D01*
X25420001Y-20386667D02*
X25653334Y-21086667D01*
X25886667Y-20386667D01*
D11*
X76506190Y-68650000D02*
X74906190Y-69150000D01*
X76506190Y-69650000D01*
X73966190Y-69007143D02*
X73966190Y-69292857D01*
X73890000Y-69435715D01*
X73737619Y-69578572D01*
X73432857Y-69650000D01*
X72899524Y-69650000D01*
X72594762Y-69578572D01*
X72442381Y-69435715D01*
X72366190Y-69292857D01*
X72366190Y-69007143D01*
X72442381Y-68864286D01*
X72594762Y-68721429D01*
X72899524Y-68650000D01*
X73432857Y-68650000D01*
X73737619Y-68721429D01*
X73890000Y-68864286D01*
X73966190Y-69007143D01*
X71350000Y-69542857D02*
X71426190Y-69400000D01*
X71426190Y-69185714D01*
X71350000Y-68971429D01*
X71197619Y-68828571D01*
X71045238Y-68757143D01*
X70740476Y-68685714D01*
X70511905Y-68685714D01*
X70207143Y-68757143D01*
X70054762Y-68828571D01*
X69902381Y-68971429D01*
X69826190Y-69185714D01*
X69826190Y-69328571D01*
X69902381Y-69542857D01*
X69978571Y-69614286D01*
X70511905Y-69614286D01*
X70511905Y-69328571D01*
X67286190Y-69150000D02*
X68886190Y-69150000D01*
X66270000Y-69542857D02*
X66346190Y-69400000D01*
X66346190Y-69185714D01*
X66270000Y-68971429D01*
X66117619Y-68828571D01*
X65965238Y-68757143D01*
X65660476Y-68685714D01*
X65431905Y-68685714D01*
X65127143Y-68757143D01*
X64974762Y-68828571D01*
X64822381Y-68971429D01*
X64746190Y-69185714D01*
X64746190Y-69328571D01*
X64822381Y-69542857D01*
X64898571Y-69614286D01*
X65431905Y-69614286D01*
X65431905Y-69328571D01*
D12*
X74850000Y-45300000D02*
X81900000Y-45300000D01*
X74700000Y-42750000D02*
X74700000Y-42600000D01*
X81800000Y-45400000D02*
X74700000Y-45400000D01*
D11*
X81242857Y-45890000D02*
X81100000Y-45813810D01*
X80885714Y-45813810D01*
X80671429Y-45890000D01*
X80528571Y-46042381D01*
X80457143Y-46194762D01*
X80385714Y-46499524D01*
X80385714Y-46728095D01*
X80457143Y-47032857D01*
X80528571Y-47185238D01*
X80671429Y-47337619D01*
X80885714Y-47413810D01*
X81028571Y-47413810D01*
X81242857Y-47337619D01*
X81314286Y-47261429D01*
X81314286Y-46728095D01*
X81028571Y-46728095D01*
X80707143Y-48353810D02*
X80992857Y-48353810D01*
X81135715Y-48430000D01*
X81278572Y-48582381D01*
X81350000Y-48887143D01*
X81350000Y-49420476D01*
X81278572Y-49725238D01*
X81135715Y-49877619D01*
X80992857Y-49953810D01*
X80707143Y-49953810D01*
X80564286Y-49877619D01*
X80421429Y-49725238D01*
X80350000Y-49420476D01*
X80350000Y-48887143D01*
X80421429Y-48582381D01*
X80564286Y-48430000D01*
X80707143Y-48353810D01*
X81242857Y-50970000D02*
X81100000Y-50893810D01*
X80885714Y-50893810D01*
X80671429Y-50970000D01*
X80528571Y-51122381D01*
X80457143Y-51274762D01*
X80385714Y-51579524D01*
X80385714Y-51808095D01*
X80457143Y-52112857D01*
X80528571Y-52265238D01*
X80671429Y-52417619D01*
X80885714Y-52493810D01*
X81028571Y-52493810D01*
X81242857Y-52417619D01*
X81314286Y-52341429D01*
X81314286Y-51808095D01*
X81028571Y-51808095D01*
X80850000Y-55033810D02*
X80850000Y-53433810D01*
X80350000Y-55973810D02*
X80850000Y-57573810D01*
X81350000Y-55973810D01*
X80707143Y-58513810D02*
X80992857Y-58513810D01*
X81135715Y-58590000D01*
X81278572Y-58742381D01*
X81350000Y-59047143D01*
X81350000Y-59580476D01*
X81278572Y-59885238D01*
X81135715Y-60037619D01*
X80992857Y-60113810D01*
X80707143Y-60113810D01*
X80564286Y-60037619D01*
X80421429Y-59885238D01*
X80350000Y-59580476D01*
X80350000Y-59047143D01*
X80421429Y-58742381D01*
X80564286Y-58590000D01*
X80707143Y-58513810D01*
X81242857Y-61130000D02*
X81100000Y-61053810D01*
X80885714Y-61053810D01*
X80671429Y-61130000D01*
X80528571Y-61282381D01*
X80457143Y-61434762D01*
X80385714Y-61739524D01*
X80385714Y-61968095D01*
X80457143Y-62272857D01*
X80528571Y-62425238D01*
X80671429Y-62577619D01*
X80885714Y-62653810D01*
X81028571Y-62653810D01*
X81242857Y-62577619D01*
X81314286Y-62501429D01*
X81314286Y-61968095D01*
X81028571Y-61968095D01*
X80850000Y-65193810D02*
X80850000Y-63593810D01*
X81242857Y-66210000D02*
X81100000Y-66133810D01*
X80885714Y-66133810D01*
X80671429Y-66210000D01*
X80528571Y-66362381D01*
X80457143Y-66514762D01*
X80385714Y-66819524D01*
X80385714Y-67048095D01*
X80457143Y-67352857D01*
X80528571Y-67505238D01*
X80671429Y-67657619D01*
X80885714Y-67733810D01*
X81028571Y-67733810D01*
X81242857Y-67657619D01*
X81314286Y-67581429D01*
X81314286Y-67048095D01*
X81028571Y-67048095D01*
X81242857Y-22940000D02*
X81100000Y-22863810D01*
X80885714Y-22863810D01*
X80671429Y-22940000D01*
X80528571Y-23092381D01*
X80457143Y-23244762D01*
X80385714Y-23549524D01*
X80385714Y-23778095D01*
X80457143Y-24082857D01*
X80528571Y-24235238D01*
X80671429Y-24387619D01*
X80885714Y-24463810D01*
X81028571Y-24463810D01*
X81242857Y-24387619D01*
X81314286Y-24311429D01*
X81314286Y-23778095D01*
X81028571Y-23778095D01*
X80707143Y-25403810D02*
X80992857Y-25403810D01*
X81135715Y-25480000D01*
X81278572Y-25632381D01*
X81350000Y-25937143D01*
X81350000Y-26470476D01*
X81278572Y-26775238D01*
X81135715Y-26927619D01*
X80992857Y-27003810D01*
X80707143Y-27003810D01*
X80564286Y-26927619D01*
X80421429Y-26775238D01*
X80350000Y-26470476D01*
X80350000Y-25937143D01*
X80421429Y-25632381D01*
X80564286Y-25480000D01*
X80707143Y-25403810D01*
X81242857Y-28020000D02*
X81100000Y-27943810D01*
X80885714Y-27943810D01*
X80671429Y-28020000D01*
X80528571Y-28172381D01*
X80457143Y-28324762D01*
X80385714Y-28629524D01*
X80385714Y-28858095D01*
X80457143Y-29162857D01*
X80528571Y-29315238D01*
X80671429Y-29467619D01*
X80885714Y-29543810D01*
X81028571Y-29543810D01*
X81242857Y-29467619D01*
X81314286Y-29391429D01*
X81314286Y-28858095D01*
X81028571Y-28858095D01*
X80850000Y-32083810D02*
X80850000Y-30483810D01*
X80350000Y-33023810D02*
X80850000Y-34623810D01*
X81350000Y-33023810D01*
X80707143Y-35563810D02*
X80992857Y-35563810D01*
X81135715Y-35640000D01*
X81278572Y-35792381D01*
X81350000Y-36097143D01*
X81350000Y-36630476D01*
X81278572Y-36935238D01*
X81135715Y-37087619D01*
X80992857Y-37163810D01*
X80707143Y-37163810D01*
X80564286Y-37087619D01*
X80421429Y-36935238D01*
X80350000Y-36630476D01*
X80350000Y-36097143D01*
X80421429Y-35792381D01*
X80564286Y-35640000D01*
X80707143Y-35563810D01*
X81242857Y-38180000D02*
X81100000Y-38103810D01*
X80885714Y-38103810D01*
X80671429Y-38180000D01*
X80528571Y-38332381D01*
X80457143Y-38484762D01*
X80385714Y-38789524D01*
X80385714Y-39018095D01*
X80457143Y-39322857D01*
X80528571Y-39475238D01*
X80671429Y-39627619D01*
X80885714Y-39703810D01*
X81028571Y-39703810D01*
X81242857Y-39627619D01*
X81314286Y-39551429D01*
X81314286Y-39018095D01*
X81028571Y-39018095D01*
X80850000Y-42243810D02*
X80850000Y-40643810D01*
X81242857Y-43260000D02*
X81100000Y-43183810D01*
X80885714Y-43183810D01*
X80671429Y-43260000D01*
X80528571Y-43412381D01*
X80457143Y-43564762D01*
X80385714Y-43869524D01*
X80385714Y-44098095D01*
X80457143Y-44402857D01*
X80528571Y-44555238D01*
X80671429Y-44707619D01*
X80885714Y-44783810D01*
X81028571Y-44783810D01*
X81242857Y-44707619D01*
X81314286Y-44631429D01*
X81314286Y-44098095D01*
X81028571Y-44098095D01*
D12*
X71950000Y-36000000D02*
X71950000Y-38550000D01*
X74500000Y-36000000D02*
X71950000Y-36000000D01*
X74500000Y-38550000D02*
X74500000Y-30950000D01*
X64300000Y-38550000D02*
X74500000Y-38550000D01*
X64300000Y-33450000D02*
X64300000Y-38550000D01*
X69400000Y-33450000D02*
X64300000Y-33450000D01*
D11*
X68114287Y-39078571D02*
X69114287Y-40578571D01*
X69114287Y-39078571D02*
X68114287Y-40578571D01*
X69614286Y-40507143D02*
X69828572Y-40578571D01*
X70185715Y-40578571D01*
X70328572Y-40507143D01*
X70400001Y-40435714D01*
X70471429Y-40292857D01*
X70471429Y-40150000D01*
X70400001Y-40007143D01*
X70328572Y-39935714D01*
X70185715Y-39864286D01*
X69900001Y-39792857D01*
X69757143Y-39721429D01*
X69685715Y-39650000D01*
X69614286Y-39507143D01*
X69614286Y-39364286D01*
X69685715Y-39221429D01*
X69757143Y-39150000D01*
X69900001Y-39078571D01*
X70257143Y-39078571D01*
X70471429Y-39150000D01*
X71114286Y-40578571D02*
X71114286Y-39078571D01*
X71685714Y-39078571D01*
X71828572Y-39150000D01*
X71900000Y-39221429D01*
X71971429Y-39364286D01*
X71971429Y-39578571D01*
X71900000Y-39721429D01*
X71828572Y-39792857D01*
X71685714Y-39864286D01*
X71114286Y-39864286D01*
X72614286Y-40578571D02*
X72614286Y-39078571D01*
X74114286Y-40578571D02*
X73257143Y-40578571D01*
X73685715Y-40578571D02*
X73685715Y-39078571D01*
X73542858Y-39292857D01*
X73400000Y-39435714D01*
X73257143Y-39507143D01*
D12*
X43942000Y-45466000D02*
X52324000Y-45466000D01*
X43942000Y-53848000D02*
X43942000Y-45466000D01*
X52324000Y-53848000D02*
X43942000Y-53848000D01*
X52324000Y-45466000D02*
X52324000Y-53848000D01*
D15*
X25946100Y-18273600D02*
X26581100Y-18908600D01*
X26581100Y-18908600D02*
X27216100Y-18273600D01*
X28486100Y-18273600D02*
X29121100Y-18908600D01*
X24676100Y-18273600D02*
X24041100Y-18908600D01*
X29121100Y-18908600D02*
X29756100Y-18273600D01*
X31026100Y-18273600D02*
X31661100Y-18908600D01*
X33566100Y-18273600D02*
X34201100Y-18908600D01*
X34201100Y-18908600D02*
X34836100Y-18273600D01*
X36106100Y-18273600D02*
X36741100Y-18908600D01*
X32296100Y-18273600D02*
X31661100Y-18908600D01*
X36741100Y-18908600D02*
X37376100Y-18273600D01*
X38646100Y-18273600D02*
X39281100Y-18908600D01*
X26581100Y-22718600D02*
X25946100Y-23353600D01*
X29121100Y-22718600D02*
X28486100Y-23353600D01*
X27216100Y-23353600D02*
X26581100Y-22718600D01*
X24041100Y-18908600D02*
X24041100Y-22718600D01*
X24041100Y-22718600D02*
X24676100Y-23353600D01*
X31661100Y-22718600D02*
X31026100Y-23353600D01*
X29756100Y-23353600D02*
X29121100Y-22718600D01*
X34201100Y-22718600D02*
X33566100Y-23353600D01*
X36741100Y-22718600D02*
X36106100Y-23353600D01*
X34836100Y-23353600D02*
X34201100Y-22718600D01*
X31661100Y-22718600D02*
X32296100Y-23353600D01*
X39281100Y-22718600D02*
X38646100Y-23353600D01*
X37376100Y-23353600D02*
X36741100Y-22718600D01*
X41186100Y-18273600D02*
X41821100Y-18908600D01*
X39281100Y-18908600D02*
X39916100Y-18273600D01*
X39916100Y-23353600D02*
X39281100Y-22718600D01*
X41821100Y-22718600D02*
X41186100Y-23353600D01*
X43726100Y-18273600D02*
X44361100Y-18908600D01*
X44361100Y-18908600D02*
X44996100Y-18273600D01*
X46266100Y-18273600D02*
X46901100Y-18908600D01*
X42456100Y-18273600D02*
X41821100Y-18908600D01*
X46901100Y-18908600D02*
X47536100Y-18273600D01*
X48806100Y-18273600D02*
X49441100Y-18908600D01*
X51346100Y-18273600D02*
X51981100Y-18908600D01*
X51981100Y-18908600D02*
X52616100Y-18273600D01*
X53886100Y-18273600D02*
X54521100Y-18908600D01*
X50076100Y-18273600D02*
X49441100Y-18908600D01*
X54521100Y-18908600D02*
X55156100Y-18273600D01*
X56426100Y-18273600D02*
X57061100Y-18908600D01*
X44361100Y-22718600D02*
X43726100Y-23353600D01*
X46901100Y-22718600D02*
X46266100Y-23353600D01*
X44996100Y-23353600D02*
X44361100Y-22718600D01*
X41821100Y-22718600D02*
X42456100Y-23353600D01*
X49441100Y-22718600D02*
X48806100Y-23353600D01*
X47536100Y-23353600D02*
X46901100Y-22718600D01*
X51981100Y-22718600D02*
X51346100Y-23353600D01*
X54521100Y-22718600D02*
X53886100Y-23353600D01*
X52616100Y-23353600D02*
X51981100Y-22718600D01*
X49441100Y-22718600D02*
X50076100Y-23353600D01*
X57061100Y-22718600D02*
X56426100Y-23353600D01*
X55156100Y-23353600D02*
X54521100Y-22718600D01*
X58966100Y-18273600D02*
X59601100Y-18908600D01*
X57061100Y-18908600D02*
X57696100Y-18273600D01*
X57696100Y-23353600D02*
X57061100Y-22718600D01*
X59601100Y-22718600D02*
X58966100Y-23353600D01*
X61506100Y-18273600D02*
X62141100Y-18908600D01*
X62141100Y-18908600D02*
X62776100Y-18273600D01*
X64046100Y-18273600D02*
X64681100Y-18908600D01*
X60236100Y-18273600D02*
X59601100Y-18908600D01*
X64681100Y-18908600D02*
X65316100Y-18273600D01*
X66586100Y-18273600D02*
X67221100Y-18908600D01*
X69126100Y-18273600D02*
X69761100Y-18908600D01*
X69761100Y-18908600D02*
X70396100Y-18273600D01*
X71666100Y-18273600D02*
X72301100Y-18908600D01*
X67856100Y-18273600D02*
X67221100Y-18908600D01*
X72301100Y-18908600D02*
X72936100Y-18273600D01*
X62141100Y-22718600D02*
X61506100Y-23353600D01*
X64681100Y-22718600D02*
X64046100Y-23353600D01*
X62776100Y-23353600D02*
X62141100Y-22718600D01*
X59601100Y-22718600D02*
X60236100Y-23353600D01*
X67221100Y-22718600D02*
X66586100Y-23353600D01*
X65316100Y-23353600D02*
X64681100Y-22718600D01*
X69761100Y-22718600D02*
X69126100Y-23353600D01*
X72301100Y-22718600D02*
X71666100Y-23353600D01*
X70396100Y-23353600D02*
X69761100Y-22718600D01*
X67221100Y-22718600D02*
X67856100Y-23353600D01*
X72936100Y-23353600D02*
X72301100Y-22718600D01*
X74841100Y-18908600D02*
X74841100Y-22718600D01*
X74206100Y-18273600D02*
X74841100Y-18908600D01*
X74841100Y-22718600D02*
X74206100Y-23353600D01*
D16*
X37821711Y-69175120D02*
G75*
G03X37821711Y-69175120I-920451J0D01*
G01*
D17*
X35400120Y-60673740D02*
X53799880Y-60673740D01*
X53799880Y-60673740D02*
X53799880Y-70676260D01*
X53799880Y-70676260D02*
X35400120Y-70676260D01*
X35400120Y-70676260D02*
X35400120Y-60673740D01*
D18*
X22507160Y-65090280D02*
X22507160Y-64765160D01*
X22507160Y-64765160D02*
X22006780Y-64765160D01*
X22006780Y-65090280D02*
X22006780Y-64765160D01*
X22507160Y-65090280D02*
X22006780Y-65090280D01*
X22507160Y-65712580D02*
X22507160Y-65562720D01*
X22507160Y-65562720D02*
X22255700Y-65562720D01*
X22255700Y-65712580D02*
X22255700Y-65562720D01*
X22507160Y-65712580D02*
X22255700Y-65712580D01*
X22507160Y-65217280D02*
X22507160Y-65067420D01*
X22507160Y-65067420D02*
X22255700Y-65067420D01*
X22255700Y-65217280D02*
X22255700Y-65067420D01*
X22507160Y-65217280D02*
X22255700Y-65217280D01*
X22507160Y-65588120D02*
X22507160Y-65191880D01*
X22507160Y-65191880D02*
X22331900Y-65191880D01*
X22331900Y-65588120D02*
X22331900Y-65191880D01*
X22507160Y-65588120D02*
X22331900Y-65588120D01*
X24003220Y-65090280D02*
X24003220Y-64765160D01*
X24003220Y-64765160D02*
X23502840Y-64765160D01*
X23502840Y-65090280D02*
X23502840Y-64765160D01*
X24003220Y-65090280D02*
X23502840Y-65090280D01*
X24003220Y-66014840D02*
X24003220Y-65689720D01*
X24003220Y-65689720D02*
X23502840Y-65689720D01*
X23502840Y-66014840D02*
X23502840Y-65689720D01*
X24003220Y-66014840D02*
X23502840Y-66014840D01*
X23754300Y-65217280D02*
X23754300Y-65067420D01*
X23754300Y-65067420D02*
X23502840Y-65067420D01*
X23502840Y-65217280D02*
X23502840Y-65067420D01*
X23754300Y-65217280D02*
X23502840Y-65217280D01*
X23754300Y-65712580D02*
X23754300Y-65562720D01*
X23754300Y-65562720D02*
X23502840Y-65562720D01*
X23502840Y-65712580D02*
X23502840Y-65562720D01*
X23754300Y-65712580D02*
X23502840Y-65712580D01*
X23678100Y-65588120D02*
X23678100Y-65191880D01*
X23678100Y-65191880D02*
X23502840Y-65191880D01*
X23502840Y-65588120D02*
X23502840Y-65191880D01*
X23678100Y-65588120D02*
X23502840Y-65588120D01*
X23005000Y-65489060D02*
X23005000Y-65290940D01*
X23005000Y-65290940D02*
X22806880Y-65290940D01*
X22806880Y-65489060D02*
X22806880Y-65290940D01*
X23005000Y-65489060D02*
X22806880Y-65489060D01*
X22507160Y-65989440D02*
X22507160Y-65689720D01*
X22507160Y-65689720D02*
X22207440Y-65689720D01*
X22207440Y-65989440D02*
X22207440Y-65689720D01*
X22507160Y-65989440D02*
X22207440Y-65989440D01*
X22080440Y-66014840D02*
X22080440Y-65788780D01*
X22080440Y-65788780D02*
X22006780Y-65788780D01*
X22006780Y-66014840D02*
X22006780Y-65788780D01*
X22080440Y-66014840D02*
X22006780Y-66014840D01*
D19*
X22481760Y-64815960D02*
X23528240Y-64815960D01*
X23502840Y-65964040D02*
X22080440Y-65964040D01*
D20*
X22228482Y-65839580D02*
G75*
G03X22228482Y-65839580I-71842J0D01*
G01*
D19*
X22006780Y-65737980D02*
G75*
G03X22006780Y-65042020I0J347980D01*
G01*
X24003220Y-65042020D02*
G75*
G03X24003220Y-65737980I0J-347980D01*
G01*
D18*
X22507160Y-62590280D02*
X22507160Y-62265160D01*
X22507160Y-62265160D02*
X22006780Y-62265160D01*
X22006780Y-62590280D02*
X22006780Y-62265160D01*
X22507160Y-62590280D02*
X22006780Y-62590280D01*
X22507160Y-63212580D02*
X22507160Y-63062720D01*
X22507160Y-63062720D02*
X22255700Y-63062720D01*
X22255700Y-63212580D02*
X22255700Y-63062720D01*
X22507160Y-63212580D02*
X22255700Y-63212580D01*
X22507160Y-62717280D02*
X22507160Y-62567420D01*
X22507160Y-62567420D02*
X22255700Y-62567420D01*
X22255700Y-62717280D02*
X22255700Y-62567420D01*
X22507160Y-62717280D02*
X22255700Y-62717280D01*
X22507160Y-63088120D02*
X22507160Y-62691880D01*
X22507160Y-62691880D02*
X22331900Y-62691880D01*
X22331900Y-63088120D02*
X22331900Y-62691880D01*
X22507160Y-63088120D02*
X22331900Y-63088120D01*
X24003220Y-62590280D02*
X24003220Y-62265160D01*
X24003220Y-62265160D02*
X23502840Y-62265160D01*
X23502840Y-62590280D02*
X23502840Y-62265160D01*
X24003220Y-62590280D02*
X23502840Y-62590280D01*
X24003220Y-63514840D02*
X24003220Y-63189720D01*
X24003220Y-63189720D02*
X23502840Y-63189720D01*
X23502840Y-63514840D02*
X23502840Y-63189720D01*
X24003220Y-63514840D02*
X23502840Y-63514840D01*
X23754300Y-62717280D02*
X23754300Y-62567420D01*
X23754300Y-62567420D02*
X23502840Y-62567420D01*
X23502840Y-62717280D02*
X23502840Y-62567420D01*
X23754300Y-62717280D02*
X23502840Y-62717280D01*
X23754300Y-63212580D02*
X23754300Y-63062720D01*
X23754300Y-63062720D02*
X23502840Y-63062720D01*
X23502840Y-63212580D02*
X23502840Y-63062720D01*
X23754300Y-63212580D02*
X23502840Y-63212580D01*
X23678100Y-63088120D02*
X23678100Y-62691880D01*
X23678100Y-62691880D02*
X23502840Y-62691880D01*
X23502840Y-63088120D02*
X23502840Y-62691880D01*
X23678100Y-63088120D02*
X23502840Y-63088120D01*
X23005000Y-62989060D02*
X23005000Y-62790940D01*
X23005000Y-62790940D02*
X22806880Y-62790940D01*
X22806880Y-62989060D02*
X22806880Y-62790940D01*
X23005000Y-62989060D02*
X22806880Y-62989060D01*
X22507160Y-63489440D02*
X22507160Y-63189720D01*
X22507160Y-63189720D02*
X22207440Y-63189720D01*
X22207440Y-63489440D02*
X22207440Y-63189720D01*
X22507160Y-63489440D02*
X22207440Y-63489440D01*
X22080440Y-63514840D02*
X22080440Y-63288780D01*
X22080440Y-63288780D02*
X22006780Y-63288780D01*
X22006780Y-63514840D02*
X22006780Y-63288780D01*
X22080440Y-63514840D02*
X22006780Y-63514840D01*
D19*
X22481760Y-62315960D02*
X23528240Y-62315960D01*
X23502840Y-63464040D02*
X22080440Y-63464040D01*
D20*
X22228482Y-63339580D02*
G75*
G03X22228482Y-63339580I-71842J0D01*
G01*
D19*
X22006780Y-63237980D02*
G75*
G03X22006780Y-62542020I0J347980D01*
G01*
X24003220Y-62542020D02*
G75*
G03X24003220Y-63237980I0J-347980D01*
G01*
D18*
X22507160Y-60090280D02*
X22507160Y-59765160D01*
X22507160Y-59765160D02*
X22006780Y-59765160D01*
X22006780Y-60090280D02*
X22006780Y-59765160D01*
X22507160Y-60090280D02*
X22006780Y-60090280D01*
X22507160Y-60712580D02*
X22507160Y-60562720D01*
X22507160Y-60562720D02*
X22255700Y-60562720D01*
X22255700Y-60712580D02*
X22255700Y-60562720D01*
X22507160Y-60712580D02*
X22255700Y-60712580D01*
X22507160Y-60217280D02*
X22507160Y-60067420D01*
X22507160Y-60067420D02*
X22255700Y-60067420D01*
X22255700Y-60217280D02*
X22255700Y-60067420D01*
X22507160Y-60217280D02*
X22255700Y-60217280D01*
X22507160Y-60588120D02*
X22507160Y-60191880D01*
X22507160Y-60191880D02*
X22331900Y-60191880D01*
X22331900Y-60588120D02*
X22331900Y-60191880D01*
X22507160Y-60588120D02*
X22331900Y-60588120D01*
X24003220Y-60090280D02*
X24003220Y-59765160D01*
X24003220Y-59765160D02*
X23502840Y-59765160D01*
X23502840Y-60090280D02*
X23502840Y-59765160D01*
X24003220Y-60090280D02*
X23502840Y-60090280D01*
X24003220Y-61014840D02*
X24003220Y-60689720D01*
X24003220Y-60689720D02*
X23502840Y-60689720D01*
X23502840Y-61014840D02*
X23502840Y-60689720D01*
X24003220Y-61014840D02*
X23502840Y-61014840D01*
X23754300Y-60217280D02*
X23754300Y-60067420D01*
X23754300Y-60067420D02*
X23502840Y-60067420D01*
X23502840Y-60217280D02*
X23502840Y-60067420D01*
X23754300Y-60217280D02*
X23502840Y-60217280D01*
X23754300Y-60712580D02*
X23754300Y-60562720D01*
X23754300Y-60562720D02*
X23502840Y-60562720D01*
X23502840Y-60712580D02*
X23502840Y-60562720D01*
X23754300Y-60712580D02*
X23502840Y-60712580D01*
X23678100Y-60588120D02*
X23678100Y-60191880D01*
X23678100Y-60191880D02*
X23502840Y-60191880D01*
X23502840Y-60588120D02*
X23502840Y-60191880D01*
X23678100Y-60588120D02*
X23502840Y-60588120D01*
X23005000Y-60489060D02*
X23005000Y-60290940D01*
X23005000Y-60290940D02*
X22806880Y-60290940D01*
X22806880Y-60489060D02*
X22806880Y-60290940D01*
X23005000Y-60489060D02*
X22806880Y-60489060D01*
X22507160Y-60989440D02*
X22507160Y-60689720D01*
X22507160Y-60689720D02*
X22207440Y-60689720D01*
X22207440Y-60989440D02*
X22207440Y-60689720D01*
X22507160Y-60989440D02*
X22207440Y-60989440D01*
X22080440Y-61014840D02*
X22080440Y-60788780D01*
X22080440Y-60788780D02*
X22006780Y-60788780D01*
X22006780Y-61014840D02*
X22006780Y-60788780D01*
X22080440Y-61014840D02*
X22006780Y-61014840D01*
D19*
X22481760Y-59815960D02*
X23528240Y-59815960D01*
X23502840Y-60964040D02*
X22080440Y-60964040D01*
D20*
X22228482Y-60839580D02*
G75*
G03X22228482Y-60839580I-71842J0D01*
G01*
D19*
X22006780Y-60737980D02*
G75*
G03X22006780Y-60042020I0J347980D01*
G01*
X24003220Y-60042020D02*
G75*
G03X24003220Y-60737980I0J-347980D01*
G01*
D21*
X67259200Y-48615600D02*
X64719200Y-48615600D01*
X67259200Y-46075600D02*
X64719200Y-46075600D01*
X64719200Y-46075600D02*
X64719200Y-48615600D01*
X64719200Y-48615600D02*
X64719200Y-51155600D01*
X64719200Y-51155600D02*
X67259200Y-51155600D01*
X67259200Y-51155600D02*
X67259200Y-46075600D01*
X62930000Y-27900000D02*
X65470000Y-27900000D01*
X62930000Y-30440000D02*
X65470000Y-30440000D01*
X65470000Y-30440000D02*
X65470000Y-27900000D01*
X65470000Y-27900000D02*
X65470000Y-25360000D01*
X65470000Y-25360000D02*
X62930000Y-25360000D01*
X62930000Y-25360000D02*
X62930000Y-30440000D01*
D18*
X29122160Y-52660280D02*
X29122160Y-52335160D01*
X29122160Y-52335160D02*
X28621780Y-52335160D01*
X28621780Y-52660280D02*
X28621780Y-52335160D01*
X29122160Y-52660280D02*
X28621780Y-52660280D01*
X29122160Y-53282580D02*
X29122160Y-53132720D01*
X29122160Y-53132720D02*
X28870700Y-53132720D01*
X28870700Y-53282580D02*
X28870700Y-53132720D01*
X29122160Y-53282580D02*
X28870700Y-53282580D01*
X29122160Y-52787280D02*
X29122160Y-52637420D01*
X29122160Y-52637420D02*
X28870700Y-52637420D01*
X28870700Y-52787280D02*
X28870700Y-52637420D01*
X29122160Y-52787280D02*
X28870700Y-52787280D01*
X29122160Y-53158120D02*
X29122160Y-52761880D01*
X29122160Y-52761880D02*
X28946900Y-52761880D01*
X28946900Y-53158120D02*
X28946900Y-52761880D01*
X29122160Y-53158120D02*
X28946900Y-53158120D01*
X30618220Y-52660280D02*
X30618220Y-52335160D01*
X30618220Y-52335160D02*
X30117840Y-52335160D01*
X30117840Y-52660280D02*
X30117840Y-52335160D01*
X30618220Y-52660280D02*
X30117840Y-52660280D01*
X30618220Y-53584840D02*
X30618220Y-53259720D01*
X30618220Y-53259720D02*
X30117840Y-53259720D01*
X30117840Y-53584840D02*
X30117840Y-53259720D01*
X30618220Y-53584840D02*
X30117840Y-53584840D01*
X30369300Y-52787280D02*
X30369300Y-52637420D01*
X30369300Y-52637420D02*
X30117840Y-52637420D01*
X30117840Y-52787280D02*
X30117840Y-52637420D01*
X30369300Y-52787280D02*
X30117840Y-52787280D01*
X30369300Y-53282580D02*
X30369300Y-53132720D01*
X30369300Y-53132720D02*
X30117840Y-53132720D01*
X30117840Y-53282580D02*
X30117840Y-53132720D01*
X30369300Y-53282580D02*
X30117840Y-53282580D01*
X30293100Y-53158120D02*
X30293100Y-52761880D01*
X30293100Y-52761880D02*
X30117840Y-52761880D01*
X30117840Y-53158120D02*
X30117840Y-52761880D01*
X30293100Y-53158120D02*
X30117840Y-53158120D01*
X29620000Y-53059060D02*
X29620000Y-52860940D01*
X29620000Y-52860940D02*
X29421880Y-52860940D01*
X29421880Y-53059060D02*
X29421880Y-52860940D01*
X29620000Y-53059060D02*
X29421880Y-53059060D01*
X29122160Y-53559440D02*
X29122160Y-53259720D01*
X29122160Y-53259720D02*
X28822440Y-53259720D01*
X28822440Y-53559440D02*
X28822440Y-53259720D01*
X29122160Y-53559440D02*
X28822440Y-53559440D01*
X28695440Y-53584840D02*
X28695440Y-53358780D01*
X28695440Y-53358780D02*
X28621780Y-53358780D01*
X28621780Y-53584840D02*
X28621780Y-53358780D01*
X28695440Y-53584840D02*
X28621780Y-53584840D01*
D19*
X29096760Y-52385960D02*
X30143240Y-52385960D01*
X30117840Y-53534040D02*
X28695440Y-53534040D01*
D20*
X28843482Y-53409580D02*
G75*
G03X28843482Y-53409580I-71842J0D01*
G01*
D19*
X28621780Y-53307980D02*
G75*
G03X28621780Y-52612020I0J347980D01*
G01*
X30618220Y-52612020D02*
G75*
G03X30618220Y-53307980I0J-347980D01*
G01*
D21*
X27600000Y-66710000D02*
X27600000Y-64170000D01*
X27600000Y-64170000D02*
X30140000Y-64170000D01*
X30140000Y-66710000D02*
X30140000Y-59090000D01*
X30140000Y-59090000D02*
X25060000Y-59090000D01*
X25060000Y-59090000D02*
X25060000Y-64170000D01*
X30140000Y-66710000D02*
X27600000Y-66710000D01*
X25060000Y-66710000D02*
X27600000Y-66710000D01*
X25060000Y-64170000D02*
X25060000Y-66710000D01*
D22*
X33000140Y-29600260D02*
X45999860Y-29600260D01*
X45999860Y-29600260D02*
X45999860Y-35599740D01*
X45999860Y-35599740D02*
X33000140Y-35599740D01*
X33000140Y-35599740D02*
X33000140Y-29600260D01*
X33922358Y-34957120D02*
G75*
G03X33922358Y-34957120I-406598J0D01*
G01*
D21*
X77230000Y-42715000D02*
X77230000Y-22395000D01*
X77230000Y-22395000D02*
X79770000Y-22395000D01*
X79770000Y-22395000D02*
X79770000Y-42715000D01*
X77230000Y-45255000D02*
X77230000Y-42715000D01*
X77230000Y-42715000D02*
X79770000Y-42715000D01*
X77230000Y-45255000D02*
X79770000Y-45255000D01*
X79770000Y-45255000D02*
X79770000Y-42715000D01*
X77230000Y-65565000D02*
X77230000Y-45245000D01*
X77230000Y-45245000D02*
X79770000Y-45245000D01*
X79770000Y-45245000D02*
X79770000Y-65565000D01*
X77230000Y-68105000D02*
X77230000Y-65565000D01*
X77230000Y-65565000D02*
X79770000Y-65565000D01*
X77230000Y-68105000D02*
X79770000Y-68105000D01*
X79770000Y-68105000D02*
X79770000Y-65565000D01*
X67065000Y-65555000D02*
X77225000Y-65555000D01*
X77225000Y-65555000D02*
X77225000Y-68095000D01*
X77225000Y-68095000D02*
X67065000Y-68095000D01*
X64525000Y-65555000D02*
X67065000Y-65555000D01*
X67065000Y-65555000D02*
X67065000Y-68095000D01*
X64525000Y-65555000D02*
X64525000Y-68095000D01*
X64525000Y-68095000D02*
X67065000Y-68095000D01*
X77230000Y-45260000D02*
X77230000Y-42720000D01*
X79770000Y-45260000D02*
X79770000Y-42720000D01*
X79770000Y-42720000D02*
X77230000Y-42720000D01*
X77230000Y-42720000D02*
X74690000Y-42720000D01*
X74690000Y-42720000D02*
X74690000Y-45260000D01*
X74690000Y-45260000D02*
X79770000Y-45260000D01*
D22*
X30257000Y-24965000D02*
X32543000Y-24965000D01*
X32543000Y-24965000D02*
X32543000Y-26235000D01*
X32543000Y-26235000D02*
X30257000Y-26235000D01*
X30257000Y-26235000D02*
X30257000Y-24965000D01*
D23*
X26778000Y-34638000D02*
G75*
G03X26778000Y-34638000I-127000J0D01*
G01*
X25508000Y-34638000D02*
X26524000Y-34638000D01*
X26524000Y-34638000D02*
X26524000Y-36162000D01*
X26524000Y-36162000D02*
X25508000Y-36162000D01*
X24492000Y-36162000D02*
X23476000Y-36162000D01*
X23476000Y-36162000D02*
X23476000Y-34638000D01*
X23476000Y-34638000D02*
X24492000Y-34638000D01*
X27978000Y-45138000D02*
G75*
G03X27978000Y-45138000I-127000J0D01*
G01*
X26708000Y-45138000D02*
X27724000Y-45138000D01*
X27724000Y-45138000D02*
X27724000Y-46662000D01*
X27724000Y-46662000D02*
X26708000Y-46662000D01*
X25692000Y-46662000D02*
X24676000Y-46662000D01*
X24676000Y-46662000D02*
X24676000Y-45138000D01*
X24676000Y-45138000D02*
X25692000Y-45138000D01*
D21*
X55125000Y-35480000D02*
X55125000Y-38020000D01*
X52585000Y-35480000D02*
X52585000Y-38020000D01*
X52585000Y-38020000D02*
X55125000Y-38020000D01*
X55125000Y-38020000D02*
X57665000Y-38020000D01*
X57665000Y-38020000D02*
X57665000Y-35480000D01*
X57665000Y-35480000D02*
X52585000Y-35480000D01*
X55125000Y-35470000D02*
X55125000Y-32930000D01*
X57665000Y-35470000D02*
X57665000Y-32930000D01*
X57665000Y-32930000D02*
X55125000Y-32930000D01*
X55125000Y-32930000D02*
X52585000Y-32930000D01*
X52585000Y-32930000D02*
X52585000Y-35470000D01*
X52585000Y-35470000D02*
X57665000Y-35470000D01*
X71940000Y-33460000D02*
X71940000Y-30920000D01*
X74480000Y-33460000D02*
X74480000Y-30920000D01*
X74480000Y-30920000D02*
X71940000Y-30920000D01*
X71940000Y-30920000D02*
X69400000Y-30920000D01*
X69400000Y-30920000D02*
X69400000Y-33460000D01*
X69400000Y-33460000D02*
X74480000Y-33460000D01*
D18*
X49902160Y-35700280D02*
X49902160Y-35375160D01*
X49902160Y-35375160D02*
X49401780Y-35375160D01*
X49401780Y-35700280D02*
X49401780Y-35375160D01*
X49902160Y-35700280D02*
X49401780Y-35700280D01*
X49902160Y-36322580D02*
X49902160Y-36172720D01*
X49902160Y-36172720D02*
X49650700Y-36172720D01*
X49650700Y-36322580D02*
X49650700Y-36172720D01*
X49902160Y-36322580D02*
X49650700Y-36322580D01*
X49902160Y-35827280D02*
X49902160Y-35677420D01*
X49902160Y-35677420D02*
X49650700Y-35677420D01*
X49650700Y-35827280D02*
X49650700Y-35677420D01*
X49902160Y-35827280D02*
X49650700Y-35827280D01*
X49902160Y-36198120D02*
X49902160Y-35801880D01*
X49902160Y-35801880D02*
X49726900Y-35801880D01*
X49726900Y-36198120D02*
X49726900Y-35801880D01*
X49902160Y-36198120D02*
X49726900Y-36198120D01*
X51398220Y-35700280D02*
X51398220Y-35375160D01*
X51398220Y-35375160D02*
X50897840Y-35375160D01*
X50897840Y-35700280D02*
X50897840Y-35375160D01*
X51398220Y-35700280D02*
X50897840Y-35700280D01*
X51398220Y-36624840D02*
X51398220Y-36299720D01*
X51398220Y-36299720D02*
X50897840Y-36299720D01*
X50897840Y-36624840D02*
X50897840Y-36299720D01*
X51398220Y-36624840D02*
X50897840Y-36624840D01*
X51149300Y-35827280D02*
X51149300Y-35677420D01*
X51149300Y-35677420D02*
X50897840Y-35677420D01*
X50897840Y-35827280D02*
X50897840Y-35677420D01*
X51149300Y-35827280D02*
X50897840Y-35827280D01*
X51149300Y-36322580D02*
X51149300Y-36172720D01*
X51149300Y-36172720D02*
X50897840Y-36172720D01*
X50897840Y-36322580D02*
X50897840Y-36172720D01*
X51149300Y-36322580D02*
X50897840Y-36322580D01*
X51073100Y-36198120D02*
X51073100Y-35801880D01*
X51073100Y-35801880D02*
X50897840Y-35801880D01*
X50897840Y-36198120D02*
X50897840Y-35801880D01*
X51073100Y-36198120D02*
X50897840Y-36198120D01*
X50400000Y-36099060D02*
X50400000Y-35900940D01*
X50400000Y-35900940D02*
X50201880Y-35900940D01*
X50201880Y-36099060D02*
X50201880Y-35900940D01*
X50400000Y-36099060D02*
X50201880Y-36099060D01*
X49902160Y-36599440D02*
X49902160Y-36299720D01*
X49902160Y-36299720D02*
X49602440Y-36299720D01*
X49602440Y-36599440D02*
X49602440Y-36299720D01*
X49902160Y-36599440D02*
X49602440Y-36599440D01*
X49475440Y-36624840D02*
X49475440Y-36398780D01*
X49475440Y-36398780D02*
X49401780Y-36398780D01*
X49401780Y-36624840D02*
X49401780Y-36398780D01*
X49475440Y-36624840D02*
X49401780Y-36624840D01*
D19*
X49876760Y-35425960D02*
X50923240Y-35425960D01*
X50897840Y-36574040D02*
X49475440Y-36574040D01*
D20*
X49623482Y-36449580D02*
G75*
G03X49623482Y-36449580I-71842J0D01*
G01*
D19*
X49401780Y-36347980D02*
G75*
G03X49401780Y-35652020I0J347980D01*
G01*
X51398220Y-35652020D02*
G75*
G03X51398220Y-36347980I0J-347980D01*
G01*
D21*
X49500000Y-39370000D02*
X49500000Y-36830000D01*
X52040000Y-39370000D02*
X52040000Y-36830000D01*
X52040000Y-36830000D02*
X49500000Y-36830000D01*
X49500000Y-36830000D02*
X46960000Y-36830000D01*
X46960000Y-36830000D02*
X46960000Y-39370000D01*
X46960000Y-39370000D02*
X52040000Y-39370000D01*
D24*
X15149500Y-24299120D02*
X15149500Y-33300880D01*
X11649380Y-24299120D02*
X11649380Y-33300880D01*
X11649380Y-33300880D02*
X26150240Y-33300880D01*
X26150240Y-33300880D02*
X26150240Y-24299120D01*
X26150240Y-24299120D02*
X11649380Y-24299120D01*
D21*
X32730000Y-42000000D02*
X35270000Y-42000000D01*
X32730000Y-44540000D02*
X35270000Y-44540000D01*
X35270000Y-44540000D02*
X35270000Y-42000000D01*
X35270000Y-42000000D02*
X35270000Y-39460000D01*
X35270000Y-39460000D02*
X32730000Y-39460000D01*
X32730000Y-39460000D02*
X32730000Y-44540000D01*
D18*
X29102160Y-47500280D02*
X29102160Y-47175160D01*
X29102160Y-47175160D02*
X28601780Y-47175160D01*
X28601780Y-47500280D02*
X28601780Y-47175160D01*
X29102160Y-47500280D02*
X28601780Y-47500280D01*
X29102160Y-48122580D02*
X29102160Y-47972720D01*
X29102160Y-47972720D02*
X28850700Y-47972720D01*
X28850700Y-48122580D02*
X28850700Y-47972720D01*
X29102160Y-48122580D02*
X28850700Y-48122580D01*
X29102160Y-47627280D02*
X29102160Y-47477420D01*
X29102160Y-47477420D02*
X28850700Y-47477420D01*
X28850700Y-47627280D02*
X28850700Y-47477420D01*
X29102160Y-47627280D02*
X28850700Y-47627280D01*
X29102160Y-47998120D02*
X29102160Y-47601880D01*
X29102160Y-47601880D02*
X28926900Y-47601880D01*
X28926900Y-47998120D02*
X28926900Y-47601880D01*
X29102160Y-47998120D02*
X28926900Y-47998120D01*
X30598220Y-47500280D02*
X30598220Y-47175160D01*
X30598220Y-47175160D02*
X30097840Y-47175160D01*
X30097840Y-47500280D02*
X30097840Y-47175160D01*
X30598220Y-47500280D02*
X30097840Y-47500280D01*
X30598220Y-48424840D02*
X30598220Y-48099720D01*
X30598220Y-48099720D02*
X30097840Y-48099720D01*
X30097840Y-48424840D02*
X30097840Y-48099720D01*
X30598220Y-48424840D02*
X30097840Y-48424840D01*
X30349300Y-47627280D02*
X30349300Y-47477420D01*
X30349300Y-47477420D02*
X30097840Y-47477420D01*
X30097840Y-47627280D02*
X30097840Y-47477420D01*
X30349300Y-47627280D02*
X30097840Y-47627280D01*
X30349300Y-48122580D02*
X30349300Y-47972720D01*
X30349300Y-47972720D02*
X30097840Y-47972720D01*
X30097840Y-48122580D02*
X30097840Y-47972720D01*
X30349300Y-48122580D02*
X30097840Y-48122580D01*
X30273100Y-47998120D02*
X30273100Y-47601880D01*
X30273100Y-47601880D02*
X30097840Y-47601880D01*
X30097840Y-47998120D02*
X30097840Y-47601880D01*
X30273100Y-47998120D02*
X30097840Y-47998120D01*
X29600000Y-47899060D02*
X29600000Y-47700940D01*
X29600000Y-47700940D02*
X29401880Y-47700940D01*
X29401880Y-47899060D02*
X29401880Y-47700940D01*
X29600000Y-47899060D02*
X29401880Y-47899060D01*
X29102160Y-48399440D02*
X29102160Y-48099720D01*
X29102160Y-48099720D02*
X28802440Y-48099720D01*
X28802440Y-48399440D02*
X28802440Y-48099720D01*
X29102160Y-48399440D02*
X28802440Y-48399440D01*
X28675440Y-48424840D02*
X28675440Y-48198780D01*
X28675440Y-48198780D02*
X28601780Y-48198780D01*
X28601780Y-48424840D02*
X28601780Y-48198780D01*
X28675440Y-48424840D02*
X28601780Y-48424840D01*
D19*
X29076760Y-47225960D02*
X30123240Y-47225960D01*
X30097840Y-48374040D02*
X28675440Y-48374040D01*
D20*
X28823482Y-48249580D02*
G75*
G03X28823482Y-48249580I-71842J0D01*
G01*
D19*
X28601780Y-48147980D02*
G75*
G03X28601780Y-47452020I0J347980D01*
G01*
X30598220Y-47452020D02*
G75*
G03X30598220Y-48147980I0J-347980D01*
G01*
D18*
X29052160Y-50550280D02*
X29052160Y-50225160D01*
X29052160Y-50225160D02*
X28551780Y-50225160D01*
X28551780Y-50550280D02*
X28551780Y-50225160D01*
X29052160Y-50550280D02*
X28551780Y-50550280D01*
X29052160Y-51172580D02*
X29052160Y-51022720D01*
X29052160Y-51022720D02*
X28800700Y-51022720D01*
X28800700Y-51172580D02*
X28800700Y-51022720D01*
X29052160Y-51172580D02*
X28800700Y-51172580D01*
X29052160Y-50677280D02*
X29052160Y-50527420D01*
X29052160Y-50527420D02*
X28800700Y-50527420D01*
X28800700Y-50677280D02*
X28800700Y-50527420D01*
X29052160Y-50677280D02*
X28800700Y-50677280D01*
X29052160Y-51048120D02*
X29052160Y-50651880D01*
X29052160Y-50651880D02*
X28876900Y-50651880D01*
X28876900Y-51048120D02*
X28876900Y-50651880D01*
X29052160Y-51048120D02*
X28876900Y-51048120D01*
X30548220Y-50550280D02*
X30548220Y-50225160D01*
X30548220Y-50225160D02*
X30047840Y-50225160D01*
X30047840Y-50550280D02*
X30047840Y-50225160D01*
X30548220Y-50550280D02*
X30047840Y-50550280D01*
X30548220Y-51474840D02*
X30548220Y-51149720D01*
X30548220Y-51149720D02*
X30047840Y-51149720D01*
X30047840Y-51474840D02*
X30047840Y-51149720D01*
X30548220Y-51474840D02*
X30047840Y-51474840D01*
X30299300Y-50677280D02*
X30299300Y-50527420D01*
X30299300Y-50527420D02*
X30047840Y-50527420D01*
X30047840Y-50677280D02*
X30047840Y-50527420D01*
X30299300Y-50677280D02*
X30047840Y-50677280D01*
X30299300Y-51172580D02*
X30299300Y-51022720D01*
X30299300Y-51022720D02*
X30047840Y-51022720D01*
X30047840Y-51172580D02*
X30047840Y-51022720D01*
X30299300Y-51172580D02*
X30047840Y-51172580D01*
X30223100Y-51048120D02*
X30223100Y-50651880D01*
X30223100Y-50651880D02*
X30047840Y-50651880D01*
X30047840Y-51048120D02*
X30047840Y-50651880D01*
X30223100Y-51048120D02*
X30047840Y-51048120D01*
X29550000Y-50949060D02*
X29550000Y-50750940D01*
X29550000Y-50750940D02*
X29351880Y-50750940D01*
X29351880Y-50949060D02*
X29351880Y-50750940D01*
X29550000Y-50949060D02*
X29351880Y-50949060D01*
X29052160Y-51449440D02*
X29052160Y-51149720D01*
X29052160Y-51149720D02*
X28752440Y-51149720D01*
X28752440Y-51449440D02*
X28752440Y-51149720D01*
X29052160Y-51449440D02*
X28752440Y-51449440D01*
X28625440Y-51474840D02*
X28625440Y-51248780D01*
X28625440Y-51248780D02*
X28551780Y-51248780D01*
X28551780Y-51474840D02*
X28551780Y-51248780D01*
X28625440Y-51474840D02*
X28551780Y-51474840D01*
D19*
X29026760Y-50275960D02*
X30073240Y-50275960D01*
X30047840Y-51424040D02*
X28625440Y-51424040D01*
D20*
X28773482Y-51299580D02*
G75*
G03X28773482Y-51299580I-71842J0D01*
G01*
D19*
X28551780Y-51197980D02*
G75*
G03X28551780Y-50502020I0J347980D01*
G01*
X30548220Y-50502020D02*
G75*
G03X30548220Y-51197980I0J-347980D01*
G01*
D17*
X25776000Y-37444000D02*
X22728000Y-37444000D01*
X22728000Y-37444000D02*
X22728000Y-44556000D01*
X22728000Y-44556000D02*
X25776000Y-44556000D01*
X28824000Y-37444000D02*
X29586000Y-37444000D01*
X29586000Y-37444000D02*
X31872000Y-38968000D01*
X31872000Y-38968000D02*
X31872000Y-43032000D01*
X31872000Y-43032000D02*
X29586000Y-44556000D01*
X29586000Y-44556000D02*
X28824000Y-44556000D01*
D21*
X58900000Y-28600000D02*
X58900000Y-26400000D01*
X60300000Y-28600000D02*
X60300000Y-26400000D01*
X57400000Y-28600000D02*
X57400000Y-26400000D01*
X58800000Y-28600000D02*
X58800000Y-26400000D01*
X18605000Y-64690000D02*
X20805000Y-64690000D01*
X18605000Y-66090000D02*
X20805000Y-66090000D01*
X18605000Y-62190000D02*
X20805000Y-62190000D01*
X18605000Y-63590000D02*
X20805000Y-63590000D01*
X18605000Y-59690000D02*
X20805000Y-59690000D01*
X18605000Y-61090000D02*
X20805000Y-61090000D01*
X60400000Y-28600000D02*
X60400000Y-26400000D01*
X61800000Y-28600000D02*
X61800000Y-26400000D01*
X58100000Y-36050000D02*
X60300000Y-36050000D01*
X58100000Y-37450000D02*
X60300000Y-37450000D01*
X60300000Y-34900000D02*
X58100000Y-34900000D01*
X60300000Y-33500000D02*
X58100000Y-33500000D01*
X40480000Y-57150000D02*
X38280000Y-57150000D01*
X40480000Y-55750000D02*
X38280000Y-55750000D01*
X40480000Y-55750000D02*
X38280000Y-55750000D01*
X40480000Y-54350000D02*
X38280000Y-54350000D01*
X49900000Y-33500000D02*
X52100000Y-33500000D01*
X49900000Y-34900000D02*
X52100000Y-34900000D01*
X40480000Y-58550000D02*
X38280000Y-58550000D01*
X40480000Y-57150000D02*
X38280000Y-57150000D01*
X27100000Y-48500000D02*
X24900000Y-48500000D01*
X27100000Y-47100000D02*
X24900000Y-47100000D01*
X27100000Y-51550000D02*
X24900000Y-51550000D01*
X27100000Y-50150000D02*
X24900000Y-50150000D01*
X27120000Y-53660000D02*
X24920000Y-53660000D01*
X27120000Y-52260000D02*
X24920000Y-52260000D01*
D22*
X43050480Y-44650480D02*
X43395920Y-44650480D01*
X43050480Y-44650480D02*
X43050480Y-44995920D01*
X43050480Y-44995920D02*
X43395920Y-44650480D01*
X43050480Y-54749520D02*
X43050480Y-54404080D01*
X43050480Y-54749520D02*
X43395920Y-54749520D01*
X43395920Y-54749520D02*
X43395920Y-54749520D01*
X53149520Y-54749520D02*
X52804080Y-54749520D01*
X53149520Y-54749520D02*
X53149520Y-54404080D01*
X53149520Y-54404080D02*
X53149520Y-54404080D01*
X53149520Y-44650480D02*
X53149520Y-44995920D01*
X53149520Y-44650480D02*
X52804080Y-44650480D01*
X52804080Y-44650480D02*
X52804080Y-44650480D01*
X25147814Y-25550398D02*
X24458386Y-25550398D01*
X24803100Y-25550398D02*
X24803100Y-24343898D01*
X24688195Y-24516255D01*
X24573290Y-24631160D01*
X24458386Y-24688612D01*
D25*
X31882714Y-57960999D02*
X32644714Y-57452999D01*
X31882714Y-57452999D02*
X32644714Y-57960999D01*
X32644714Y-56727285D02*
X32281857Y-56981285D01*
X32644714Y-57162713D02*
X31882714Y-57162713D01*
X31882714Y-56872428D01*
X31919000Y-56799856D01*
X31955286Y-56763571D01*
X32027857Y-56727285D01*
X32136714Y-56727285D01*
X32209286Y-56763571D01*
X32245571Y-56799856D01*
X32281857Y-56872428D01*
X32281857Y-57162713D01*
X32608429Y-56436999D02*
X32644714Y-56328142D01*
X32644714Y-56146713D01*
X32608429Y-56074142D01*
X32572143Y-56037856D01*
X32499571Y-56001571D01*
X32427000Y-56001571D01*
X32354429Y-56037856D01*
X32318143Y-56074142D01*
X32281857Y-56146713D01*
X32245571Y-56291856D01*
X32209286Y-56364428D01*
X32173000Y-56400713D01*
X32100429Y-56436999D01*
X32027857Y-56436999D01*
X31955286Y-56400713D01*
X31919000Y-56364428D01*
X31882714Y-56291856D01*
X31882714Y-56110428D01*
X31919000Y-56001571D01*
X31882714Y-55783857D02*
X31882714Y-55348428D01*
X32644714Y-55566142D02*
X31882714Y-55566142D01*
X32644714Y-54695286D02*
X32644714Y-55130714D01*
X32644714Y-54913000D02*
X31882714Y-54913000D01*
X31991571Y-54985571D01*
X32064143Y-55058143D01*
X32100429Y-55130714D01*
D17*
X42645410Y-64594895D02*
X43187277Y-65407695D01*
X43187277Y-64594895D02*
X42645410Y-65407695D01*
X43496915Y-65407695D02*
X43496915Y-64594895D01*
X43767848Y-65175467D01*
X44038781Y-64594895D01*
X44038781Y-65407695D01*
X44425829Y-64981943D02*
X44696762Y-64981943D01*
X44812876Y-65407695D02*
X44425829Y-65407695D01*
X44425829Y-64594895D01*
X44812876Y-64594895D01*
X45161219Y-65407695D02*
X45161219Y-64594895D01*
X45432152Y-65175467D01*
X45703085Y-64594895D01*
X45703085Y-65407695D01*
X46515885Y-65407695D02*
X46051428Y-65407695D01*
X46283657Y-65407695D02*
X46283657Y-64594895D01*
X46206247Y-64711010D01*
X46128838Y-64788419D01*
X46051428Y-64827124D01*
X36781639Y-66677695D02*
X36781639Y-65864895D01*
X37129982Y-66638990D02*
X37246096Y-66677695D01*
X37439620Y-66677695D01*
X37517030Y-66638990D01*
X37555734Y-66600286D01*
X37594439Y-66522876D01*
X37594439Y-66445467D01*
X37555734Y-66368057D01*
X37517030Y-66329352D01*
X37439620Y-66290648D01*
X37284801Y-66251943D01*
X37207392Y-66213238D01*
X37168687Y-66174533D01*
X37129982Y-66097124D01*
X37129982Y-66019714D01*
X37168687Y-65942305D01*
X37207392Y-65903600D01*
X37284801Y-65864895D01*
X37478325Y-65864895D01*
X37594439Y-65903600D01*
X38291125Y-65864895D02*
X38136306Y-65864895D01*
X38058896Y-65903600D01*
X38020191Y-65942305D01*
X37942782Y-66058419D01*
X37904077Y-66213238D01*
X37904077Y-66522876D01*
X37942782Y-66600286D01*
X37981487Y-66638990D01*
X38058896Y-66677695D01*
X38213715Y-66677695D01*
X38291125Y-66638990D01*
X38329829Y-66600286D01*
X38368534Y-66522876D01*
X38368534Y-66329352D01*
X38329829Y-66251943D01*
X38291125Y-66213238D01*
X38213715Y-66174533D01*
X38058896Y-66174533D01*
X37981487Y-66213238D01*
X37942782Y-66251943D01*
X37904077Y-66329352D01*
X38678172Y-65942305D02*
X38716877Y-65903600D01*
X38794286Y-65864895D01*
X38987810Y-65864895D01*
X39065220Y-65903600D01*
X39103924Y-65942305D01*
X39142629Y-66019714D01*
X39142629Y-66097124D01*
X39103924Y-66213238D01*
X38639467Y-66677695D01*
X39142629Y-66677695D01*
X40071543Y-65826190D02*
X39374858Y-66871219D01*
X40690820Y-65864895D02*
X40536001Y-65864895D01*
X40458591Y-65903600D01*
X40419886Y-65942305D01*
X40342477Y-66058419D01*
X40303772Y-66213238D01*
X40303772Y-66522876D01*
X40342477Y-66600286D01*
X40381182Y-66638990D01*
X40458591Y-66677695D01*
X40613410Y-66677695D01*
X40690820Y-66638990D01*
X40729524Y-66600286D01*
X40768229Y-66522876D01*
X40768229Y-66329352D01*
X40729524Y-66251943D01*
X40690820Y-66213238D01*
X40613410Y-66174533D01*
X40458591Y-66174533D01*
X40381182Y-66213238D01*
X40342477Y-66251943D01*
X40303772Y-66329352D01*
X41503619Y-65864895D02*
X41116572Y-65864895D01*
X41077867Y-66251943D01*
X41116572Y-66213238D01*
X41193981Y-66174533D01*
X41387505Y-66174533D01*
X41464915Y-66213238D01*
X41503619Y-66251943D01*
X41542324Y-66329352D01*
X41542324Y-66522876D01*
X41503619Y-66600286D01*
X41464915Y-66638990D01*
X41387505Y-66677695D01*
X41193981Y-66677695D01*
X41116572Y-66638990D01*
X41077867Y-66600286D01*
X41813257Y-65864895D02*
X42006781Y-66677695D01*
X42161600Y-66097124D01*
X42316419Y-66677695D01*
X42509943Y-65864895D01*
X42703467Y-65864895D02*
X42974400Y-66677695D01*
X43245333Y-65864895D01*
X43903314Y-65864895D02*
X43516267Y-65864895D01*
X43477562Y-66251943D01*
X43516267Y-66213238D01*
X43593676Y-66174533D01*
X43787200Y-66174533D01*
X43864610Y-66213238D01*
X43903314Y-66251943D01*
X43942019Y-66329352D01*
X43942019Y-66522876D01*
X43903314Y-66600286D01*
X43864610Y-66638990D01*
X43787200Y-66677695D01*
X43593676Y-66677695D01*
X43516267Y-66638990D01*
X43477562Y-66600286D01*
X44716114Y-66677695D02*
X44251657Y-66677695D01*
X44483886Y-66677695D02*
X44483886Y-65864895D01*
X44406476Y-65981010D01*
X44329067Y-66058419D01*
X44251657Y-66097124D01*
X45025752Y-65942305D02*
X45064457Y-65903600D01*
X45141866Y-65864895D01*
X45335390Y-65864895D01*
X45412800Y-65903600D01*
X45451504Y-65942305D01*
X45490209Y-66019714D01*
X45490209Y-66097124D01*
X45451504Y-66213238D01*
X44987047Y-66677695D01*
X45490209Y-66677695D01*
X46264304Y-66677695D02*
X45799847Y-66677695D01*
X46032076Y-66677695D02*
X46032076Y-65864895D01*
X45954666Y-65981010D01*
X45877257Y-66058419D01*
X45799847Y-66097124D01*
X46960990Y-65864895D02*
X46806171Y-65864895D01*
X46728761Y-65903600D01*
X46690056Y-65942305D01*
X46612647Y-66058419D01*
X46573942Y-66213238D01*
X46573942Y-66522876D01*
X46612647Y-66600286D01*
X46651352Y-66638990D01*
X46728761Y-66677695D01*
X46883580Y-66677695D01*
X46960990Y-66638990D01*
X46999694Y-66600286D01*
X47038399Y-66522876D01*
X47038399Y-66329352D01*
X46999694Y-66251943D01*
X46960990Y-66213238D01*
X46883580Y-66174533D01*
X46728761Y-66174533D01*
X46651352Y-66213238D01*
X46612647Y-66251943D01*
X46573942Y-66329352D01*
X47386742Y-66251943D02*
X47657675Y-66251943D01*
X47773789Y-66677695D02*
X47386742Y-66677695D01*
X47386742Y-65864895D01*
X47773789Y-65864895D01*
X48354360Y-66987333D02*
X48315656Y-66948629D01*
X48238246Y-66832514D01*
X48199541Y-66755105D01*
X48160837Y-66638990D01*
X48122132Y-66445467D01*
X48122132Y-66290648D01*
X48160837Y-66097124D01*
X48199541Y-65981010D01*
X48238246Y-65903600D01*
X48315656Y-65787486D01*
X48354360Y-65748781D01*
X48625294Y-66445467D02*
X49012342Y-66445467D01*
X48547885Y-66677695D02*
X48818818Y-65864895D01*
X49089751Y-66677695D01*
X49554209Y-66948629D02*
X49554209Y-65787486D01*
X50405713Y-66251943D02*
X50521827Y-66290648D01*
X50560532Y-66329352D01*
X50599237Y-66406762D01*
X50599237Y-66522876D01*
X50560532Y-66600286D01*
X50521827Y-66638990D01*
X50444418Y-66677695D01*
X50134780Y-66677695D01*
X50134780Y-65864895D01*
X50405713Y-65864895D01*
X50483123Y-65903600D01*
X50521827Y-65942305D01*
X50560532Y-66019714D01*
X50560532Y-66097124D01*
X50521827Y-66174533D01*
X50483123Y-66213238D01*
X50405713Y-66251943D01*
X50134780Y-66251943D01*
X50870170Y-66987333D02*
X50908875Y-66948629D01*
X50986285Y-66832514D01*
X51024989Y-66755105D01*
X51063694Y-66638990D01*
X51102399Y-66445467D01*
X51102399Y-66290648D01*
X51063694Y-66097124D01*
X51024989Y-65981010D01*
X50986285Y-65903600D01*
X50908875Y-65787486D01*
X50870170Y-65748781D01*
X51876494Y-66677695D02*
X51489447Y-66677695D01*
X51489447Y-65864895D01*
X52534475Y-66677695D02*
X52147428Y-66677695D01*
X52147428Y-65864895D01*
D21*
D25*
X22442572Y-67004714D02*
X22442572Y-66242714D01*
X22624000Y-66242714D01*
X22732857Y-66279000D01*
X22805429Y-66351571D01*
X22841714Y-66424143D01*
X22878000Y-66569286D01*
X22878000Y-66678143D01*
X22841714Y-66823286D01*
X22805429Y-66895857D01*
X22732857Y-66968429D01*
X22624000Y-67004714D01*
X22442572Y-67004714D01*
X23603714Y-67004714D02*
X23168286Y-67004714D01*
X23386000Y-67004714D02*
X23386000Y-66242714D01*
X23313429Y-66351571D01*
X23240857Y-66424143D01*
X23168286Y-66460429D01*
X22442572Y-64504714D02*
X22442572Y-63742714D01*
X22624000Y-63742714D01*
X22732857Y-63779000D01*
X22805429Y-63851571D01*
X22841714Y-63924143D01*
X22878000Y-64069286D01*
X22878000Y-64178143D01*
X22841714Y-64323286D01*
X22805429Y-64395857D01*
X22732857Y-64468429D01*
X22624000Y-64504714D01*
X22442572Y-64504714D01*
X23168286Y-63815286D02*
X23204572Y-63779000D01*
X23277143Y-63742714D01*
X23458572Y-63742714D01*
X23531143Y-63779000D01*
X23567429Y-63815286D01*
X23603714Y-63887857D01*
X23603714Y-63960429D01*
X23567429Y-64069286D01*
X23132000Y-64504714D01*
X23603714Y-64504714D01*
X22442572Y-62004714D02*
X22442572Y-61242714D01*
X22624000Y-61242714D01*
X22732857Y-61279000D01*
X22805429Y-61351571D01*
X22841714Y-61424143D01*
X22878000Y-61569286D01*
X22878000Y-61678143D01*
X22841714Y-61823286D01*
X22805429Y-61895857D01*
X22732857Y-61968429D01*
X22624000Y-62004714D01*
X22442572Y-62004714D01*
X23132000Y-61242714D02*
X23603714Y-61242714D01*
X23349714Y-61533000D01*
X23458572Y-61533000D01*
X23531143Y-61569286D01*
X23567429Y-61605571D01*
X23603714Y-61678143D01*
X23603714Y-61859571D01*
X23567429Y-61932143D01*
X23531143Y-61968429D01*
X23458572Y-62004714D01*
X23240857Y-62004714D01*
X23168286Y-61968429D01*
X23132000Y-61932143D01*
D17*
X62855324Y-48784933D02*
X63762467Y-48784933D01*
X63943895Y-48845409D01*
X64064848Y-48966361D01*
X64125324Y-49147790D01*
X64125324Y-49268742D01*
X64125324Y-47514933D02*
X64125324Y-48240647D01*
X64125324Y-47877790D02*
X62855324Y-47877790D01*
X63036752Y-47998742D01*
X63157705Y-48119695D01*
X63218181Y-48240647D01*
X65929524Y-30308572D02*
X66836667Y-30308572D01*
X67018095Y-30369048D01*
X67139048Y-30490000D01*
X67199524Y-30671429D01*
X67199524Y-30792381D01*
X66534286Y-29703810D02*
X66534286Y-29280477D01*
X67199524Y-29099048D02*
X67199524Y-29703810D01*
X65929524Y-29703810D01*
X65929524Y-29099048D01*
X65929524Y-28675714D02*
X67199524Y-28373333D01*
X66292381Y-28131429D01*
X67199524Y-27889524D01*
X65929524Y-27587143D01*
X67199524Y-26377619D02*
X66594762Y-26800952D01*
X67199524Y-27103333D02*
X65929524Y-27103333D01*
X65929524Y-26619524D01*
X65990000Y-26498571D01*
X66050476Y-26438095D01*
X66171429Y-26377619D01*
X66352857Y-26377619D01*
X66473810Y-26438095D01*
X66534286Y-26498571D01*
X66594762Y-26619524D01*
X66594762Y-27103333D01*
X67199524Y-25168095D02*
X67199524Y-25893809D01*
X67199524Y-25530952D02*
X65929524Y-25530952D01*
X66110952Y-25651904D01*
X66231905Y-25772857D01*
X66292381Y-25893809D01*
D15*
X32496191Y-53412381D02*
X32020000Y-53412381D01*
X32020000Y-52412381D01*
X33400953Y-53412381D02*
X33067619Y-52936190D01*
X32829524Y-53412381D02*
X32829524Y-52412381D01*
X33210477Y-52412381D01*
X33305715Y-52460000D01*
X33353334Y-52507619D01*
X33400953Y-52602857D01*
X33400953Y-52745714D01*
X33353334Y-52840952D01*
X33305715Y-52888571D01*
X33210477Y-52936190D01*
X32829524Y-52936190D01*
X33781905Y-53364762D02*
X33924762Y-53412381D01*
X34162858Y-53412381D01*
X34258096Y-53364762D01*
X34305715Y-53317143D01*
X34353334Y-53221905D01*
X34353334Y-53126667D01*
X34305715Y-53031429D01*
X34258096Y-52983810D01*
X34162858Y-52936190D01*
X33972381Y-52888571D01*
X33877143Y-52840952D01*
X33829524Y-52793333D01*
X33781905Y-52698095D01*
X33781905Y-52602857D01*
X33829524Y-52507619D01*
X33877143Y-52460000D01*
X33972381Y-52412381D01*
X34210477Y-52412381D01*
X34353334Y-52460000D01*
X34639048Y-52412381D02*
X35210477Y-52412381D01*
X34924762Y-53412381D02*
X34924762Y-52412381D01*
X36067620Y-53412381D02*
X35496191Y-53412381D01*
X35781905Y-53412381D02*
X35781905Y-52412381D01*
X35686667Y-52555238D01*
X35591429Y-52650476D01*
X35496191Y-52698095D01*
D17*
X30704524Y-64746905D02*
X31611667Y-64746905D01*
X31793095Y-64807381D01*
X31914048Y-64928333D01*
X31974524Y-65109762D01*
X31974524Y-65230714D01*
X31974524Y-63537381D02*
X31974524Y-64142143D01*
X30704524Y-64142143D01*
X31309286Y-63114048D02*
X31309286Y-62690715D01*
X31974524Y-62509286D02*
X31974524Y-63114048D01*
X30704524Y-63114048D01*
X30704524Y-62509286D01*
X31974524Y-61965000D02*
X30704524Y-61965000D01*
X30704524Y-61662619D01*
X30765000Y-61481191D01*
X30885952Y-61360238D01*
X31006905Y-61299762D01*
X31248810Y-61239286D01*
X31430238Y-61239286D01*
X31672143Y-61299762D01*
X31793095Y-61360238D01*
X31914048Y-61481191D01*
X31974524Y-61662619D01*
X31974524Y-61965000D01*
X31974524Y-60029762D02*
X31974524Y-60755476D01*
X31974524Y-60392619D02*
X30704524Y-60392619D01*
X30885952Y-60513571D01*
X31006905Y-60634524D01*
X31067381Y-60755476D01*
D26*
X38001401Y-33459669D02*
X38001401Y-34066245D01*
X38037082Y-34137607D01*
X38072763Y-34173288D01*
X38144125Y-34208969D01*
X38286848Y-34208969D01*
X38358210Y-34173288D01*
X38393891Y-34137607D01*
X38429572Y-34066245D01*
X38429572Y-33459669D01*
X39143191Y-34208969D02*
X38786382Y-34208969D01*
X38786382Y-33459669D01*
X39285915Y-33459669D02*
X39535682Y-34208969D01*
X39785448Y-33459669D01*
X40392024Y-34208969D02*
X40035215Y-34208969D01*
X40035215Y-33459669D01*
X41034281Y-34208969D02*
X40606110Y-34208969D01*
X40820196Y-34208969D02*
X40820196Y-33459669D01*
X40748834Y-33566712D01*
X40677472Y-33638074D01*
X40606110Y-33673755D01*
X37680272Y-31018850D02*
X37608910Y-30983169D01*
X37501867Y-30983169D01*
X37394825Y-31018850D01*
X37323463Y-31090212D01*
X37287782Y-31161574D01*
X37252101Y-31304298D01*
X37252101Y-31411340D01*
X37287782Y-31554064D01*
X37323463Y-31625426D01*
X37394825Y-31696788D01*
X37501867Y-31732469D01*
X37573229Y-31732469D01*
X37680272Y-31696788D01*
X37715953Y-31661107D01*
X37715953Y-31411340D01*
X37573229Y-31411340D01*
X37930039Y-30983169D02*
X38358210Y-30983169D01*
X38144125Y-31732469D02*
X38144125Y-30983169D01*
X38964786Y-31732469D02*
X38607977Y-31732469D01*
X38607977Y-30983169D01*
X39178872Y-31054531D02*
X39214553Y-31018850D01*
X39285915Y-30983169D01*
X39464319Y-30983169D01*
X39535681Y-31018850D01*
X39571362Y-31054531D01*
X39607043Y-31125893D01*
X39607043Y-31197255D01*
X39571362Y-31304298D01*
X39143191Y-31732469D01*
X39607043Y-31732469D01*
X40070896Y-30983169D02*
X40142257Y-30983169D01*
X40213619Y-31018850D01*
X40249300Y-31054531D01*
X40284981Y-31125893D01*
X40320662Y-31268617D01*
X40320662Y-31447021D01*
X40284981Y-31589745D01*
X40249300Y-31661107D01*
X40213619Y-31696788D01*
X40142257Y-31732469D01*
X40070896Y-31732469D01*
X39999534Y-31696788D01*
X39963853Y-31661107D01*
X39928172Y-31589745D01*
X39892491Y-31447021D01*
X39892491Y-31268617D01*
X39928172Y-31125893D01*
X39963853Y-31054531D01*
X39999534Y-31018850D01*
X40070896Y-30983169D01*
X40784515Y-30983169D02*
X40855876Y-30983169D01*
X40927238Y-31018850D01*
X40962919Y-31054531D01*
X40998600Y-31125893D01*
X41034281Y-31268617D01*
X41034281Y-31447021D01*
X40998600Y-31589745D01*
X40962919Y-31661107D01*
X40927238Y-31696788D01*
X40855876Y-31732469D01*
X40784515Y-31732469D01*
X40713153Y-31696788D01*
X40677472Y-31661107D01*
X40641791Y-31589745D01*
X40606110Y-31447021D01*
X40606110Y-31268617D01*
X40641791Y-31125893D01*
X40677472Y-31054531D01*
X40713153Y-31018850D01*
X40784515Y-30983169D01*
X41498134Y-30983169D02*
X41569495Y-30983169D01*
X41640857Y-31018850D01*
X41676538Y-31054531D01*
X41712219Y-31125893D01*
X41747900Y-31268617D01*
X41747900Y-31447021D01*
X41712219Y-31589745D01*
X41676538Y-31661107D01*
X41640857Y-31696788D01*
X41569495Y-31732469D01*
X41498134Y-31732469D01*
X41426772Y-31696788D01*
X41391091Y-31661107D01*
X41355410Y-31589745D01*
X41319729Y-31447021D01*
X41319729Y-31268617D01*
X41355410Y-31125893D01*
X41391091Y-31054531D01*
X41426772Y-31018850D01*
X41498134Y-30983169D01*
D17*
X76157667Y-28242380D02*
X76157667Y-27637618D01*
X76520524Y-28363333D02*
X75250524Y-27939999D01*
X76520524Y-27516666D01*
X76520524Y-27093333D02*
X75250524Y-27093333D01*
X76520524Y-26367619D01*
X75250524Y-26367619D01*
X76520524Y-25097619D02*
X76520524Y-25823333D01*
X76520524Y-25460476D02*
X75250524Y-25460476D01*
X75431952Y-25581428D01*
X75552905Y-25702381D01*
X75613381Y-25823333D01*
X76425667Y-58247380D02*
X76425667Y-57642618D01*
X76788524Y-58368333D02*
X75518524Y-57944999D01*
X76788524Y-57521666D01*
X76788524Y-57098333D02*
X75518524Y-57098333D01*
X76788524Y-56372619D01*
X75518524Y-56372619D01*
X75518524Y-55525952D02*
X75518524Y-55405000D01*
X75579000Y-55284048D01*
X75639476Y-55223571D01*
X75760429Y-55163095D01*
X76002333Y-55102619D01*
X76304714Y-55102619D01*
X76546619Y-55163095D01*
X76667571Y-55223571D01*
X76728048Y-55284048D01*
X76788524Y-55405000D01*
X76788524Y-55525952D01*
X76728048Y-55646905D01*
X76667571Y-55707381D01*
X76546619Y-55767857D01*
X76304714Y-55828333D01*
X76002333Y-55828333D01*
X75760429Y-55767857D01*
X75639476Y-55707381D01*
X75579000Y-55646905D01*
X75518524Y-55525952D01*
X69302620Y-64750667D02*
X69907382Y-64750667D01*
X69181667Y-65113524D02*
X69605001Y-63843524D01*
X70028334Y-65113524D01*
X70451667Y-65113524D02*
X70451667Y-63843524D01*
X71177381Y-65113524D01*
X71177381Y-63843524D01*
X71721667Y-63964476D02*
X71782143Y-63904000D01*
X71903095Y-63843524D01*
X72205476Y-63843524D01*
X72326429Y-63904000D01*
X72386905Y-63964476D01*
X72447381Y-64085429D01*
X72447381Y-64206381D01*
X72386905Y-64387810D01*
X71661191Y-65113524D01*
X72447381Y-65113524D01*
X74109048Y-46611667D02*
X74713810Y-46611667D01*
X73988095Y-46974524D02*
X74411429Y-45704524D01*
X74834762Y-46974524D01*
X75076666Y-45704524D02*
X75802381Y-45704524D01*
X75439524Y-46974524D02*
X75439524Y-45704524D01*
X76467619Y-45704524D02*
X76588571Y-45704524D01*
X76709523Y-45765000D01*
X76770000Y-45825476D01*
X76830476Y-45946429D01*
X76890952Y-46188333D01*
X76890952Y-46490714D01*
X76830476Y-46732619D01*
X76770000Y-46853571D01*
X76709523Y-46914048D01*
X76588571Y-46974524D01*
X76467619Y-46974524D01*
X76346666Y-46914048D01*
X76286190Y-46853571D01*
X76225714Y-46732619D01*
X76165238Y-46490714D01*
X76165238Y-46188333D01*
X76225714Y-45946429D01*
X76286190Y-45825476D01*
X76346666Y-45765000D01*
X76467619Y-45704524D01*
D27*
X28415343Y-25784629D02*
X28393572Y-25808819D01*
X28328258Y-25833010D01*
X28284715Y-25833010D01*
X28219400Y-25808819D01*
X28175858Y-25760438D01*
X28154086Y-25712057D01*
X28132315Y-25615295D01*
X28132315Y-25542724D01*
X28154086Y-25445962D01*
X28175858Y-25397581D01*
X28219400Y-25349200D01*
X28284715Y-25325010D01*
X28328258Y-25325010D01*
X28393572Y-25349200D01*
X28415343Y-25373390D01*
X28829000Y-25833010D02*
X28611286Y-25833010D01*
X28611286Y-25325010D01*
X28916086Y-25325010D02*
X29068486Y-25833010D01*
X29220886Y-25325010D01*
X29591000Y-25833010D02*
X29373286Y-25833010D01*
X29373286Y-25325010D01*
X29982886Y-25833010D02*
X29721629Y-25833010D01*
X29852257Y-25833010D02*
X29852257Y-25325010D01*
X29808714Y-25397581D01*
X29765172Y-25445962D01*
X29721629Y-25470152D01*
D28*
X23868189Y-36828707D02*
X23844361Y-36852535D01*
X23772878Y-36876362D01*
X23725223Y-36876362D01*
X23653740Y-36852535D01*
X23606085Y-36804880D01*
X23582257Y-36757224D01*
X23558429Y-36661914D01*
X23558429Y-36590431D01*
X23582257Y-36495120D01*
X23606085Y-36447465D01*
X23653740Y-36399810D01*
X23725223Y-36375982D01*
X23772878Y-36375982D01*
X23844361Y-36399810D01*
X23868189Y-36423638D01*
X24011154Y-36375982D02*
X24177948Y-36876362D01*
X24344741Y-36375982D01*
X24511534Y-36876362D02*
X24511534Y-36375982D01*
X24749810Y-36876362D02*
X24749810Y-36375982D01*
X25035742Y-36876362D01*
X25035742Y-36375982D01*
X25512294Y-36375982D02*
X25274018Y-36375982D01*
X25250190Y-36614259D01*
X25274018Y-36590431D01*
X25321673Y-36566603D01*
X25440811Y-36566603D01*
X25488467Y-36590431D01*
X25512294Y-36614259D01*
X25536122Y-36661914D01*
X25536122Y-36781052D01*
X25512294Y-36828707D01*
X25488467Y-36852535D01*
X25440811Y-36876362D01*
X25321673Y-36876362D01*
X25274018Y-36852535D01*
X25250190Y-36828707D01*
X25679087Y-36375982D02*
X25845881Y-36876362D01*
X26012674Y-36375982D01*
X26274778Y-36375982D02*
X26322433Y-36375982D01*
X26370088Y-36399810D01*
X26393916Y-36423638D01*
X26417743Y-36471293D01*
X26441571Y-36566603D01*
X26441571Y-36685741D01*
X26417743Y-36781052D01*
X26393916Y-36828707D01*
X26370088Y-36852535D01*
X26322433Y-36876362D01*
X26274778Y-36876362D01*
X26227122Y-36852535D01*
X26203295Y-36828707D01*
X26179467Y-36781052D01*
X26155639Y-36685741D01*
X26155639Y-36566603D01*
X26179467Y-36471293D01*
X26203295Y-36423638D01*
X26227122Y-36399810D01*
X26274778Y-36375982D01*
X28434602Y-46028707D02*
X28410774Y-46052535D01*
X28339291Y-46076362D01*
X28291636Y-46076362D01*
X28220153Y-46052535D01*
X28172498Y-46004880D01*
X28148670Y-45957224D01*
X28124842Y-45861914D01*
X28124842Y-45790431D01*
X28148670Y-45695120D01*
X28172498Y-45647465D01*
X28220153Y-45599810D01*
X28291636Y-45575982D01*
X28339291Y-45575982D01*
X28410774Y-45599810D01*
X28434602Y-45623638D01*
X28577567Y-45575982D02*
X28744361Y-46076362D01*
X28911154Y-45575982D01*
X29173258Y-45575982D02*
X29268568Y-45575982D01*
X29316223Y-45599810D01*
X29363879Y-45647465D01*
X29387706Y-45742776D01*
X29387706Y-45909569D01*
X29363879Y-46004880D01*
X29316223Y-46052535D01*
X29268568Y-46076362D01*
X29173258Y-46076362D01*
X29125602Y-46052535D01*
X29077947Y-46004880D01*
X29054119Y-45909569D01*
X29054119Y-45742776D01*
X29077947Y-45647465D01*
X29125602Y-45599810D01*
X29173258Y-45575982D01*
X29602155Y-45575982D02*
X29602155Y-45981052D01*
X29625983Y-46028707D01*
X29649810Y-46052535D01*
X29697466Y-46076362D01*
X29792776Y-46076362D01*
X29840431Y-46052535D01*
X29864259Y-46028707D01*
X29888087Y-45981052D01*
X29888087Y-45575982D01*
X30054880Y-45575982D02*
X30340812Y-45575982D01*
X30197846Y-46076362D02*
X30197846Y-45575982D01*
X30769709Y-46076362D02*
X30483777Y-46076362D01*
X30626743Y-46076362D02*
X30626743Y-45575982D01*
X30579088Y-45647465D01*
X30531433Y-45695120D01*
X30483777Y-45718948D01*
X30912674Y-45575982D02*
X31079468Y-46076362D01*
X31246261Y-45575982D01*
X31484537Y-45790431D02*
X31436882Y-45766603D01*
X31413054Y-45742776D01*
X31389226Y-45695120D01*
X31389226Y-45671293D01*
X31413054Y-45623638D01*
X31436882Y-45599810D01*
X31484537Y-45575982D01*
X31579847Y-45575982D01*
X31627503Y-45599810D01*
X31651330Y-45623638D01*
X31675158Y-45671293D01*
X31675158Y-45695120D01*
X31651330Y-45742776D01*
X31627503Y-45766603D01*
X31579847Y-45790431D01*
X31484537Y-45790431D01*
X31436882Y-45814259D01*
X31413054Y-45838086D01*
X31389226Y-45885741D01*
X31389226Y-45981052D01*
X31413054Y-46028707D01*
X31436882Y-46052535D01*
X31484537Y-46076362D01*
X31579847Y-46076362D01*
X31627503Y-46052535D01*
X31651330Y-46028707D01*
X31675158Y-45981052D01*
X31675158Y-45885741D01*
X31651330Y-45838086D01*
X31627503Y-45814259D01*
X31579847Y-45790431D01*
D17*
X53280715Y-31254524D02*
X53280715Y-32161667D01*
X53220239Y-32343095D01*
X53099287Y-32464048D01*
X52917858Y-32524524D01*
X52796906Y-32524524D01*
X54308810Y-31859286D02*
X53885477Y-31859286D01*
X53885477Y-32524524D02*
X53885477Y-31254524D01*
X54490239Y-31254524D01*
X55578810Y-32524524D02*
X54974048Y-32524524D01*
X54974048Y-31254524D01*
X55941667Y-32161667D02*
X56546429Y-32161667D01*
X55820714Y-32524524D02*
X56244048Y-31254524D01*
X56667381Y-32524524D01*
X56788333Y-32645476D02*
X57755952Y-32645476D01*
X58784047Y-32403571D02*
X58723571Y-32464048D01*
X58542142Y-32524524D01*
X58421190Y-32524524D01*
X58239762Y-32464048D01*
X58118809Y-32343095D01*
X58058333Y-32222143D01*
X57997857Y-31980238D01*
X57997857Y-31798810D01*
X58058333Y-31556905D01*
X58118809Y-31435952D01*
X58239762Y-31315000D01*
X58421190Y-31254524D01*
X58542142Y-31254524D01*
X58723571Y-31315000D01*
X58784047Y-31375476D01*
X59328333Y-31859286D02*
X59751666Y-31859286D01*
X59933095Y-32524524D02*
X59328333Y-32524524D01*
X59328333Y-31254524D01*
X59933095Y-31254524D01*
X61142619Y-32524524D02*
X60416905Y-32524524D01*
X60779762Y-32524524D02*
X60779762Y-31254524D01*
X60658810Y-31435952D01*
X60537857Y-31556905D01*
X60416905Y-31617381D01*
X53025524Y-38826924D02*
X53025524Y-39734067D01*
X52965048Y-39915495D01*
X52844096Y-40036448D01*
X52662667Y-40096924D01*
X52541715Y-40096924D01*
X54053619Y-39431686D02*
X53630286Y-39431686D01*
X53630286Y-40096924D02*
X53630286Y-38826924D01*
X54235048Y-38826924D01*
X55323619Y-40096924D02*
X54718857Y-40096924D01*
X54718857Y-38826924D01*
X55686476Y-39734067D02*
X56291238Y-39734067D01*
X55565523Y-40096924D02*
X55988857Y-38826924D01*
X56412190Y-40096924D01*
X56533142Y-40217876D02*
X57500761Y-40217876D01*
X57682190Y-38826924D02*
X57984571Y-40096924D01*
X58226475Y-39189781D01*
X58468380Y-40096924D01*
X58770761Y-38826924D01*
X59254571Y-40096924D02*
X59254571Y-38826924D01*
X59738380Y-38826924D01*
X59859333Y-38887400D01*
X59919809Y-38947876D01*
X59980285Y-39068829D01*
X59980285Y-39250257D01*
X59919809Y-39371210D01*
X59859333Y-39431686D01*
X59738380Y-39492162D01*
X59254571Y-39492162D01*
X61189809Y-40096924D02*
X60464095Y-40096924D01*
X60826952Y-40096924D02*
X60826952Y-38826924D01*
X60706000Y-39008352D01*
X60585047Y-39129305D01*
X60464095Y-39189781D01*
X68857619Y-29154524D02*
X68857619Y-30061667D01*
X68797143Y-30243095D01*
X68676191Y-30364048D01*
X68494762Y-30424524D01*
X68373810Y-30424524D01*
X70127619Y-29215000D02*
X70006667Y-29154524D01*
X69825238Y-29154524D01*
X69643810Y-29215000D01*
X69522857Y-29335952D01*
X69462381Y-29456905D01*
X69401905Y-29698810D01*
X69401905Y-29880238D01*
X69462381Y-30122143D01*
X69522857Y-30243095D01*
X69643810Y-30364048D01*
X69825238Y-30424524D01*
X69946190Y-30424524D01*
X70127619Y-30364048D01*
X70188095Y-30303571D01*
X70188095Y-29880238D01*
X69946190Y-29880238D01*
X70732381Y-30424524D02*
X70732381Y-29154524D01*
X71458095Y-30424524D01*
X71458095Y-29154524D01*
X72486190Y-29759286D02*
X72667619Y-29819762D01*
X72728095Y-29880238D01*
X72788571Y-30001190D01*
X72788571Y-30182619D01*
X72728095Y-30303571D01*
X72667619Y-30364048D01*
X72546666Y-30424524D01*
X72062857Y-30424524D01*
X72062857Y-29154524D01*
X72486190Y-29154524D01*
X72607143Y-29215000D01*
X72667619Y-29275476D01*
X72728095Y-29396429D01*
X72728095Y-29517381D01*
X72667619Y-29638333D01*
X72607143Y-29698810D01*
X72486190Y-29759286D01*
X72062857Y-29759286D01*
X73151428Y-29154524D02*
X73877143Y-29154524D01*
X73514286Y-30424524D02*
X73514286Y-29154524D01*
X74965714Y-30424524D02*
X74240000Y-30424524D01*
X74602857Y-30424524D02*
X74602857Y-29154524D01*
X74481905Y-29335952D01*
X74360952Y-29456905D01*
X74240000Y-29517381D01*
D15*
X48189286Y-36085715D02*
X48189286Y-36442858D01*
X47439286Y-36442858D01*
X48153571Y-35871429D02*
X48189286Y-35764286D01*
X48189286Y-35585715D01*
X48153571Y-35514286D01*
X48117857Y-35478572D01*
X48046429Y-35442857D01*
X47975000Y-35442857D01*
X47903571Y-35478572D01*
X47867857Y-35514286D01*
X47832143Y-35585715D01*
X47796429Y-35728572D01*
X47760714Y-35800000D01*
X47725000Y-35835715D01*
X47653571Y-35871429D01*
X47582143Y-35871429D01*
X47510714Y-35835715D01*
X47475000Y-35800000D01*
X47439286Y-35728572D01*
X47439286Y-35550000D01*
X47475000Y-35442857D01*
X48189286Y-35121429D02*
X47439286Y-35121429D01*
X47439286Y-34835714D01*
X47475000Y-34764286D01*
X47510714Y-34728571D01*
X47582143Y-34692857D01*
X47689286Y-34692857D01*
X47760714Y-34728571D01*
X47796429Y-34764286D01*
X47832143Y-34835714D01*
X47832143Y-35121429D01*
X48189286Y-34371429D02*
X47439286Y-34371429D01*
X48260714Y-34192857D02*
X48260714Y-33621428D01*
X48117857Y-33014285D02*
X48153571Y-33049999D01*
X48189286Y-33157142D01*
X48189286Y-33228571D01*
X48153571Y-33335714D01*
X48082143Y-33407142D01*
X48010714Y-33442857D01*
X47867857Y-33478571D01*
X47760714Y-33478571D01*
X47617857Y-33442857D01*
X47546429Y-33407142D01*
X47475000Y-33335714D01*
X47439286Y-33228571D01*
X47439286Y-33157142D01*
X47475000Y-33049999D01*
X47510714Y-33014285D01*
X47796429Y-32692857D02*
X47796429Y-32442857D01*
X48189286Y-32335714D02*
X48189286Y-32692857D01*
X47439286Y-32692857D01*
X47439286Y-32335714D01*
X48189286Y-31621428D02*
X48189286Y-32050000D01*
X48189286Y-31835714D02*
X47439286Y-31835714D01*
X47546429Y-31907143D01*
X47617857Y-31978571D01*
X47653571Y-32050000D01*
D17*
X47201667Y-39893724D02*
X48048333Y-41163724D01*
X48048333Y-39893724D02*
X47201667Y-41163724D01*
X48532143Y-41163724D02*
X48532143Y-39893724D01*
X48834524Y-39893724D01*
X49015952Y-39954200D01*
X49136905Y-40075152D01*
X49197381Y-40196105D01*
X49257857Y-40438010D01*
X49257857Y-40619438D01*
X49197381Y-40861343D01*
X49136905Y-40982295D01*
X49015952Y-41103248D01*
X48834524Y-41163724D01*
X48532143Y-41163724D01*
X50044048Y-39893724D02*
X50285952Y-39893724D01*
X50406905Y-39954200D01*
X50527857Y-40075152D01*
X50588333Y-40317057D01*
X50588333Y-40740390D01*
X50527857Y-40982295D01*
X50406905Y-41103248D01*
X50285952Y-41163724D01*
X50044048Y-41163724D01*
X49923095Y-41103248D01*
X49802143Y-40982295D01*
X49741667Y-40740390D01*
X49741667Y-40317057D01*
X49802143Y-40075152D01*
X49923095Y-39954200D01*
X50044048Y-39893724D01*
X51797857Y-41163724D02*
X51072143Y-41163724D01*
X51435000Y-41163724D02*
X51435000Y-39893724D01*
X51314048Y-40075152D01*
X51193095Y-40196105D01*
X51072143Y-40256581D01*
X21793619Y-30719047D02*
X22809619Y-30041714D01*
X21793619Y-30041714D02*
X22809619Y-30719047D01*
X22809619Y-29654666D02*
X21793619Y-29654666D01*
X21793619Y-29267619D01*
X21842000Y-29170857D01*
X21890381Y-29122476D01*
X21987143Y-29074095D01*
X22132286Y-29074095D01*
X22229048Y-29122476D01*
X22277429Y-29170857D01*
X22325810Y-29267619D01*
X22325810Y-29654666D01*
X21793619Y-28735428D02*
X22809619Y-28493523D01*
X22083905Y-28300000D01*
X22809619Y-28106476D01*
X21793619Y-27864571D01*
X22809619Y-26896952D02*
X22325810Y-27235618D01*
X22809619Y-27477523D02*
X21793619Y-27477523D01*
X21793619Y-27090476D01*
X21842000Y-26993714D01*
X21890381Y-26945333D01*
X21987143Y-26896952D01*
X22132286Y-26896952D01*
X22229048Y-26945333D01*
X22277429Y-26993714D01*
X22325810Y-27090476D01*
X22325810Y-27477523D01*
X22809619Y-25929333D02*
X22809619Y-26509904D01*
X22809619Y-26219618D02*
X21793619Y-26219618D01*
X21938762Y-26316380D01*
X22035524Y-26413142D01*
X22083905Y-26509904D01*
X35754524Y-46177380D02*
X37024524Y-45330714D01*
X35754524Y-45330714D02*
X37024524Y-46177380D01*
X36964048Y-44907380D02*
X37024524Y-44725952D01*
X37024524Y-44423571D01*
X36964048Y-44302618D01*
X36903571Y-44242142D01*
X36782619Y-44181666D01*
X36661667Y-44181666D01*
X36540714Y-44242142D01*
X36480238Y-44302618D01*
X36419762Y-44423571D01*
X36359286Y-44665475D01*
X36298810Y-44786428D01*
X36238333Y-44846904D01*
X36117381Y-44907380D01*
X35996429Y-44907380D01*
X35875476Y-44846904D01*
X35815000Y-44786428D01*
X35754524Y-44665475D01*
X35754524Y-44363095D01*
X35815000Y-44181666D01*
X36419762Y-43395475D02*
X37024524Y-43395475D01*
X35754524Y-43818809D02*
X36419762Y-43395475D01*
X35754524Y-42972142D01*
X37024524Y-42548809D02*
X35754524Y-42548809D01*
X37024524Y-41823095D01*
X35754524Y-41823095D01*
X36903571Y-40492619D02*
X36964048Y-40553095D01*
X37024524Y-40734524D01*
X37024524Y-40855476D01*
X36964048Y-41036904D01*
X36843095Y-41157857D01*
X36722143Y-41218333D01*
X36480238Y-41278809D01*
X36298810Y-41278809D01*
X36056905Y-41218333D01*
X35935952Y-41157857D01*
X35815000Y-41036904D01*
X35754524Y-40855476D01*
X35754524Y-40734524D01*
X35815000Y-40553095D01*
X35875476Y-40492619D01*
X37024524Y-39283095D02*
X37024524Y-40008809D01*
X37024524Y-39645952D02*
X35754524Y-39645952D01*
X35935952Y-39766904D01*
X36056905Y-39887857D01*
X36117381Y-40008809D01*
D15*
X32478572Y-48302381D02*
X32002381Y-48302381D01*
X32002381Y-47302381D01*
X33335715Y-48302381D02*
X32764286Y-48302381D01*
X33050000Y-48302381D02*
X33050000Y-47302381D01*
X32954762Y-47445238D01*
X32859524Y-47540476D01*
X32764286Y-47588095D01*
X33621429Y-47302381D02*
X33954762Y-48302381D01*
X34288096Y-47302381D01*
X34764286Y-47730952D02*
X34669048Y-47683333D01*
X34621429Y-47635714D01*
X34573810Y-47540476D01*
X34573810Y-47492857D01*
X34621429Y-47397619D01*
X34669048Y-47350000D01*
X34764286Y-47302381D01*
X34954763Y-47302381D01*
X35050001Y-47350000D01*
X35097620Y-47397619D01*
X35145239Y-47492857D01*
X35145239Y-47540476D01*
X35097620Y-47635714D01*
X35050001Y-47683333D01*
X34954763Y-47730952D01*
X34764286Y-47730952D01*
X34669048Y-47778571D01*
X34621429Y-47826190D01*
X34573810Y-47921429D01*
X34573810Y-48111905D01*
X34621429Y-48207143D01*
X34669048Y-48254762D01*
X34764286Y-48302381D01*
X34954763Y-48302381D01*
X35050001Y-48254762D01*
X35097620Y-48207143D01*
X35145239Y-48111905D01*
X35145239Y-47921429D01*
X35097620Y-47826190D01*
X35050001Y-47778571D01*
X34954763Y-47730952D01*
X32478572Y-51402381D02*
X32002381Y-51402381D01*
X32002381Y-50402381D01*
X32716667Y-50402381D02*
X33335715Y-50402381D01*
X33002381Y-50783333D01*
X33145239Y-50783333D01*
X33240477Y-50830952D01*
X33288096Y-50878571D01*
X33335715Y-50973810D01*
X33335715Y-51211905D01*
X33288096Y-51307143D01*
X33240477Y-51354762D01*
X33145239Y-51402381D01*
X32859524Y-51402381D01*
X32764286Y-51354762D01*
X32716667Y-51307143D01*
X33621429Y-50402381D02*
X33954762Y-51402381D01*
X34288096Y-50402381D01*
X34526191Y-50402381D02*
X35145239Y-50402381D01*
X34811905Y-50783333D01*
X34954763Y-50783333D01*
X35050001Y-50830952D01*
X35097620Y-50878571D01*
X35145239Y-50973810D01*
X35145239Y-51211905D01*
X35097620Y-51307143D01*
X35050001Y-51354762D01*
X34954763Y-51402381D01*
X34669048Y-51402381D01*
X34573810Y-51354762D01*
X34526191Y-51307143D01*
D17*
X27505619Y-44386666D02*
X28328095Y-44386666D01*
X28424857Y-44338285D01*
X28473238Y-44289904D01*
X28521619Y-44193142D01*
X28521619Y-43999619D01*
X28473238Y-43902857D01*
X28424857Y-43854476D01*
X28328095Y-43806095D01*
X27505619Y-43806095D01*
X27505619Y-43419047D02*
X27505619Y-42790095D01*
X27892667Y-43128761D01*
X27892667Y-42983619D01*
X27941048Y-42886857D01*
X27989429Y-42838476D01*
X28086190Y-42790095D01*
X28328095Y-42790095D01*
X28424857Y-42838476D01*
X28473238Y-42886857D01*
X28521619Y-42983619D01*
X28521619Y-43273904D01*
X28473238Y-43370666D01*
X28424857Y-43419047D01*
X27505619Y-42499809D02*
X28521619Y-42161142D01*
X27505619Y-41822476D01*
X27505619Y-41580571D02*
X27505619Y-40951619D01*
X27892667Y-41290285D01*
X27892667Y-41145143D01*
X27941048Y-41048381D01*
X27989429Y-41000000D01*
X28086190Y-40951619D01*
X28328095Y-40951619D01*
X28424857Y-41000000D01*
X28473238Y-41048381D01*
X28521619Y-41145143D01*
X28521619Y-41435428D01*
X28473238Y-41532190D01*
X28424857Y-41580571D01*
X27844286Y-40661333D02*
X27844286Y-40274285D01*
X27505619Y-40516190D02*
X28376476Y-40516190D01*
X28473238Y-40467809D01*
X28521619Y-40371047D01*
X28521619Y-40274285D01*
X28521619Y-39403429D02*
X28521619Y-39984000D01*
X28521619Y-39693714D02*
X27505619Y-39693714D01*
X27650762Y-39790476D01*
X27747524Y-39887238D01*
X27795905Y-39984000D01*
X27505619Y-39113143D02*
X28521619Y-38774476D01*
X27505619Y-38435810D01*
X27941048Y-37952000D02*
X27892667Y-38048762D01*
X27844286Y-38097143D01*
X27747524Y-38145524D01*
X27699143Y-38145524D01*
X27602381Y-38097143D01*
X27554000Y-38048762D01*
X27505619Y-37952000D01*
X27505619Y-37758477D01*
X27554000Y-37661715D01*
X27602381Y-37613334D01*
X27699143Y-37564953D01*
X27747524Y-37564953D01*
X27844286Y-37613334D01*
X27892667Y-37661715D01*
X27941048Y-37758477D01*
X27941048Y-37952000D01*
X27989429Y-38048762D01*
X28037810Y-38097143D01*
X28134571Y-38145524D01*
X28328095Y-38145524D01*
X28424857Y-38097143D01*
X28473238Y-38048762D01*
X28521619Y-37952000D01*
X28521619Y-37758477D01*
X28473238Y-37661715D01*
X28424857Y-37613334D01*
X28328095Y-37564953D01*
X28134571Y-37564953D01*
X28037810Y-37613334D01*
X27989429Y-37661715D01*
X27941048Y-37758477D01*
D15*
X58270561Y-29605648D02*
X58053895Y-29296124D01*
X57899133Y-29605648D02*
X57899133Y-28955648D01*
X58146752Y-28955648D01*
X58208657Y-28986600D01*
X58239609Y-29017552D01*
X58270561Y-29079457D01*
X58270561Y-29172314D01*
X58239609Y-29234219D01*
X58208657Y-29265171D01*
X58146752Y-29296124D01*
X57899133Y-29296124D01*
X58549133Y-29605648D02*
X58549133Y-28955648D01*
X58858657Y-29605648D02*
X58858657Y-28955648D01*
X59013419Y-28955648D01*
X59106276Y-28986600D01*
X59168181Y-29048505D01*
X59199133Y-29110410D01*
X59230085Y-29234219D01*
X59230085Y-29327076D01*
X59199133Y-29450886D01*
X59168181Y-29512790D01*
X59106276Y-29574695D01*
X59013419Y-29605648D01*
X58858657Y-29605648D01*
X59353895Y-29667552D02*
X59849133Y-29667552D01*
X59972943Y-29574695D02*
X60065800Y-29605648D01*
X60220562Y-29605648D01*
X60282466Y-29574695D01*
X60313419Y-29543743D01*
X60344371Y-29481838D01*
X60344371Y-29419933D01*
X60313419Y-29358029D01*
X60282466Y-29327076D01*
X60220562Y-29296124D01*
X60096752Y-29265171D01*
X60034847Y-29234219D01*
X60003895Y-29203267D01*
X59972943Y-29141362D01*
X59972943Y-29079457D01*
X60003895Y-29017552D01*
X60034847Y-28986600D01*
X60096752Y-28955648D01*
X60251514Y-28955648D01*
X60344371Y-28986600D01*
X60994371Y-29543743D02*
X60963419Y-29574695D01*
X60870562Y-29605648D01*
X60808657Y-29605648D01*
X60715800Y-29574695D01*
X60653895Y-29512790D01*
X60622943Y-29450886D01*
X60591991Y-29327076D01*
X60591991Y-29234219D01*
X60622943Y-29110410D01*
X60653895Y-29048505D01*
X60715800Y-28986600D01*
X60808657Y-28955648D01*
X60870562Y-28955648D01*
X60963419Y-28986600D01*
X60994371Y-29017552D01*
X61613419Y-29605648D02*
X61241991Y-29605648D01*
X61427705Y-29605648D02*
X61427705Y-28955648D01*
X61365800Y-29048505D01*
X61303895Y-29110410D01*
X61241991Y-29141362D01*
X57457761Y-25795648D02*
X57241095Y-25486124D01*
X57086333Y-25795648D02*
X57086333Y-25145648D01*
X57333952Y-25145648D01*
X57395857Y-25176600D01*
X57426809Y-25207552D01*
X57457761Y-25269457D01*
X57457761Y-25362314D01*
X57426809Y-25424219D01*
X57395857Y-25455171D01*
X57333952Y-25486124D01*
X57086333Y-25486124D01*
X57736333Y-25795648D02*
X57736333Y-25145648D01*
X58045857Y-25795648D02*
X58045857Y-25145648D01*
X58200619Y-25145648D01*
X58293476Y-25176600D01*
X58355381Y-25238505D01*
X58386333Y-25300410D01*
X58417285Y-25424219D01*
X58417285Y-25517076D01*
X58386333Y-25640886D01*
X58355381Y-25702790D01*
X58293476Y-25764695D01*
X58200619Y-25795648D01*
X58045857Y-25795648D01*
X58541095Y-25857552D02*
X59036333Y-25857552D01*
X59160143Y-25764695D02*
X59253000Y-25795648D01*
X59407762Y-25795648D01*
X59469666Y-25764695D01*
X59500619Y-25733743D01*
X59531571Y-25671838D01*
X59531571Y-25609933D01*
X59500619Y-25548029D01*
X59469666Y-25517076D01*
X59407762Y-25486124D01*
X59283952Y-25455171D01*
X59222047Y-25424219D01*
X59191095Y-25393267D01*
X59160143Y-25331362D01*
X59160143Y-25269457D01*
X59191095Y-25207552D01*
X59222047Y-25176600D01*
X59283952Y-25145648D01*
X59438714Y-25145648D01*
X59531571Y-25176600D01*
X59810143Y-25795648D02*
X59810143Y-25145648D01*
X59964905Y-25145648D01*
X60057762Y-25176600D01*
X60119667Y-25238505D01*
X60150619Y-25300410D01*
X60181571Y-25424219D01*
X60181571Y-25517076D01*
X60150619Y-25640886D01*
X60119667Y-25702790D01*
X60057762Y-25764695D01*
X59964905Y-25795648D01*
X59810143Y-25795648D01*
X60800619Y-25795648D02*
X60429191Y-25795648D01*
X60614905Y-25795648D02*
X60614905Y-25145648D01*
X60553000Y-25238505D01*
X60491095Y-25300410D01*
X60429191Y-25331362D01*
X18719924Y-67045248D02*
X18503258Y-66735724D01*
X18348496Y-67045248D02*
X18348496Y-66395248D01*
X18596115Y-66395248D01*
X18658020Y-66426200D01*
X18688972Y-66457152D01*
X18719924Y-66519057D01*
X18719924Y-66611914D01*
X18688972Y-66673819D01*
X18658020Y-66704771D01*
X18596115Y-66735724D01*
X18348496Y-66735724D01*
X19308020Y-67045248D02*
X18998496Y-67045248D01*
X18998496Y-66395248D01*
X19524686Y-66704771D02*
X19741353Y-66704771D01*
X19834210Y-67045248D02*
X19524686Y-67045248D01*
X19524686Y-66395248D01*
X19834210Y-66395248D01*
X20112781Y-67045248D02*
X20112781Y-66395248D01*
X20267543Y-66395248D01*
X20360400Y-66426200D01*
X20422305Y-66488105D01*
X20453257Y-66550010D01*
X20484209Y-66673819D01*
X20484209Y-66766676D01*
X20453257Y-66890486D01*
X20422305Y-66952390D01*
X20360400Y-67014295D01*
X20267543Y-67045248D01*
X20112781Y-67045248D01*
X21103257Y-67045248D02*
X20731829Y-67045248D01*
X20917543Y-67045248D02*
X20917543Y-66395248D01*
X20855638Y-66488105D01*
X20793733Y-66550010D01*
X20731829Y-66580962D01*
X18714524Y-64384048D02*
X18497858Y-64074524D01*
X18343096Y-64384048D02*
X18343096Y-63734048D01*
X18590715Y-63734048D01*
X18652620Y-63765000D01*
X18683572Y-63795952D01*
X18714524Y-63857857D01*
X18714524Y-63950714D01*
X18683572Y-64012619D01*
X18652620Y-64043571D01*
X18590715Y-64074524D01*
X18343096Y-64074524D01*
X19302620Y-64384048D02*
X18993096Y-64384048D01*
X18993096Y-63734048D01*
X19519286Y-64043571D02*
X19735953Y-64043571D01*
X19828810Y-64384048D02*
X19519286Y-64384048D01*
X19519286Y-63734048D01*
X19828810Y-63734048D01*
X20107381Y-64384048D02*
X20107381Y-63734048D01*
X20262143Y-63734048D01*
X20355000Y-63765000D01*
X20416905Y-63826905D01*
X20447857Y-63888810D01*
X20478809Y-64012619D01*
X20478809Y-64105476D01*
X20447857Y-64229286D01*
X20416905Y-64291190D01*
X20355000Y-64353095D01*
X20262143Y-64384048D01*
X20107381Y-64384048D01*
X20726429Y-63795952D02*
X20757381Y-63765000D01*
X20819286Y-63734048D01*
X20974048Y-63734048D01*
X21035952Y-63765000D01*
X21066905Y-63795952D01*
X21097857Y-63857857D01*
X21097857Y-63919762D01*
X21066905Y-64012619D01*
X20695476Y-64384048D01*
X21097857Y-64384048D01*
X18175648Y-61645676D02*
X17866124Y-61862342D01*
X18175648Y-62017104D02*
X17525648Y-62017104D01*
X17525648Y-61769485D01*
X17556600Y-61707580D01*
X17587552Y-61676628D01*
X17649457Y-61645676D01*
X17742314Y-61645676D01*
X17804219Y-61676628D01*
X17835171Y-61707580D01*
X17866124Y-61769485D01*
X17866124Y-62017104D01*
X18175648Y-61057580D02*
X18175648Y-61367104D01*
X17525648Y-61367104D01*
X17835171Y-60840914D02*
X17835171Y-60624247D01*
X18175648Y-60531390D02*
X18175648Y-60840914D01*
X17525648Y-60840914D01*
X17525648Y-60531390D01*
X18175648Y-60252819D02*
X17525648Y-60252819D01*
X17525648Y-60098057D01*
X17556600Y-60005200D01*
X17618505Y-59943295D01*
X17680410Y-59912343D01*
X17804219Y-59881391D01*
X17897076Y-59881391D01*
X18020886Y-59912343D01*
X18082790Y-59943295D01*
X18144695Y-60005200D01*
X18175648Y-60098057D01*
X18175648Y-60252819D01*
X17525648Y-59664724D02*
X17525648Y-59262343D01*
X17773267Y-59479010D01*
X17773267Y-59386152D01*
X17804219Y-59324248D01*
X17835171Y-59293295D01*
X17897076Y-59262343D01*
X18051838Y-59262343D01*
X18113743Y-59293295D01*
X18144695Y-59324248D01*
X18175648Y-59386152D01*
X18175648Y-59571867D01*
X18144695Y-59633771D01*
X18113743Y-59664724D01*
X62676448Y-28185962D02*
X62366924Y-28402628D01*
X62676448Y-28557390D02*
X62026448Y-28557390D01*
X62026448Y-28309771D01*
X62057400Y-28247866D01*
X62088352Y-28216914D01*
X62150257Y-28185962D01*
X62243114Y-28185962D01*
X62305019Y-28216914D01*
X62335971Y-28247866D01*
X62366924Y-28309771D01*
X62366924Y-28557390D01*
X62026448Y-27969295D02*
X62676448Y-27814533D01*
X62212162Y-27690723D01*
X62676448Y-27566914D01*
X62026448Y-27412152D01*
X62676448Y-26793105D02*
X62366924Y-27009771D01*
X62676448Y-27164533D02*
X62026448Y-27164533D01*
X62026448Y-26916914D01*
X62057400Y-26855009D01*
X62088352Y-26824057D01*
X62150257Y-26793105D01*
X62243114Y-26793105D01*
X62305019Y-26824057D01*
X62335971Y-26855009D01*
X62366924Y-26916914D01*
X62366924Y-27164533D01*
X62676448Y-26174057D02*
X62676448Y-26545485D01*
X62676448Y-26359771D02*
X62026448Y-26359771D01*
X62119305Y-26421676D01*
X62181210Y-26483581D01*
X62212162Y-26545485D01*
X58453562Y-38394048D02*
X58236896Y-38084524D01*
X58082134Y-38394048D02*
X58082134Y-37744048D01*
X58329753Y-37744048D01*
X58391658Y-37775000D01*
X58422610Y-37805952D01*
X58453562Y-37867857D01*
X58453562Y-37960714D01*
X58422610Y-38022619D01*
X58391658Y-38053571D01*
X58329753Y-38084524D01*
X58082134Y-38084524D01*
X58948801Y-38053571D02*
X58732134Y-38053571D01*
X58732134Y-38394048D02*
X58732134Y-37744048D01*
X59041658Y-37744048D01*
X59598801Y-38394048D02*
X59289277Y-38394048D01*
X59289277Y-37744048D01*
X59784515Y-38208333D02*
X60094038Y-38208333D01*
X59722610Y-38394048D02*
X59939276Y-37744048D01*
X60155943Y-38394048D01*
X60217848Y-38455952D02*
X60713086Y-38455952D01*
X61239276Y-38332143D02*
X61208324Y-38363095D01*
X61115467Y-38394048D01*
X61053562Y-38394048D01*
X60960705Y-38363095D01*
X60898800Y-38301190D01*
X60867848Y-38239286D01*
X60836896Y-38115476D01*
X60836896Y-38022619D01*
X60867848Y-37898810D01*
X60898800Y-37836905D01*
X60960705Y-37775000D01*
X61053562Y-37744048D01*
X61115467Y-37744048D01*
X61208324Y-37775000D01*
X61239276Y-37805952D01*
X61517848Y-38053571D02*
X61734515Y-38053571D01*
X61827372Y-38394048D02*
X61517848Y-38394048D01*
X61517848Y-37744048D01*
X61827372Y-37744048D01*
X62446419Y-38394048D02*
X62074991Y-38394048D01*
X62260705Y-38394048D02*
X62260705Y-37744048D01*
X62198800Y-37836905D01*
X62136895Y-37898810D01*
X62074991Y-37929762D01*
X58579381Y-35803248D02*
X58362715Y-35493724D01*
X58207953Y-35803248D02*
X58207953Y-35153248D01*
X58455572Y-35153248D01*
X58517477Y-35184200D01*
X58548429Y-35215152D01*
X58579381Y-35277057D01*
X58579381Y-35369914D01*
X58548429Y-35431819D01*
X58517477Y-35462771D01*
X58455572Y-35493724D01*
X58207953Y-35493724D01*
X59074620Y-35462771D02*
X58857953Y-35462771D01*
X58857953Y-35803248D02*
X58857953Y-35153248D01*
X59167477Y-35153248D01*
X59724620Y-35803248D02*
X59415096Y-35803248D01*
X59415096Y-35153248D01*
X59910334Y-35617533D02*
X60219857Y-35617533D01*
X59848429Y-35803248D02*
X60065095Y-35153248D01*
X60281762Y-35803248D01*
X60343667Y-35865152D02*
X60838905Y-35865152D01*
X60931762Y-35153248D02*
X61086524Y-35803248D01*
X61210334Y-35338962D01*
X61334143Y-35803248D01*
X61488905Y-35153248D01*
X61736524Y-35803248D02*
X61736524Y-35153248D01*
X61984143Y-35153248D01*
X62046048Y-35184200D01*
X62077000Y-35215152D01*
X62107952Y-35277057D01*
X62107952Y-35369914D01*
X62077000Y-35431819D01*
X62046048Y-35462771D01*
X61984143Y-35493724D01*
X61736524Y-35493724D01*
X62727000Y-35803248D02*
X62355572Y-35803248D01*
X62541286Y-35803248D02*
X62541286Y-35153248D01*
X62479381Y-35246105D01*
X62417476Y-35308010D01*
X62355572Y-35338962D01*
X36082771Y-56682048D02*
X35866105Y-56372524D01*
X35711343Y-56682048D02*
X35711343Y-56032048D01*
X35958962Y-56032048D01*
X36020867Y-56063000D01*
X36051819Y-56093952D01*
X36082771Y-56155857D01*
X36082771Y-56248714D01*
X36051819Y-56310619D01*
X36020867Y-56341571D01*
X35958962Y-56372524D01*
X35711343Y-56372524D01*
X36670867Y-56682048D02*
X36361343Y-56682048D01*
X36361343Y-56032048D01*
X37104200Y-56341571D02*
X37197057Y-56372524D01*
X37228009Y-56403476D01*
X37258961Y-56465381D01*
X37258961Y-56558238D01*
X37228009Y-56620143D01*
X37197057Y-56651095D01*
X37135152Y-56682048D01*
X36887533Y-56682048D01*
X36887533Y-56032048D01*
X37104200Y-56032048D01*
X37166104Y-56063000D01*
X37197057Y-56093952D01*
X37228009Y-56155857D01*
X37228009Y-56217762D01*
X37197057Y-56279667D01*
X37166104Y-56310619D01*
X37104200Y-56341571D01*
X36887533Y-56341571D01*
X37878009Y-56682048D02*
X37506581Y-56682048D01*
X37692295Y-56682048D02*
X37692295Y-56032048D01*
X37630390Y-56124905D01*
X37568485Y-56186810D01*
X37506581Y-56217762D01*
X36036343Y-55361248D02*
X35819677Y-55051724D01*
X35664915Y-55361248D02*
X35664915Y-54711248D01*
X35912534Y-54711248D01*
X35974439Y-54742200D01*
X36005391Y-54773152D01*
X36036343Y-54835057D01*
X36036343Y-54927914D01*
X36005391Y-54989819D01*
X35974439Y-55020771D01*
X35912534Y-55051724D01*
X35664915Y-55051724D01*
X36438724Y-54711248D02*
X36562534Y-54711248D01*
X36624439Y-54742200D01*
X36686343Y-54804105D01*
X36717296Y-54927914D01*
X36717296Y-55144581D01*
X36686343Y-55268390D01*
X36624439Y-55330295D01*
X36562534Y-55361248D01*
X36438724Y-55361248D01*
X36376820Y-55330295D01*
X36314915Y-55268390D01*
X36283963Y-55144581D01*
X36283963Y-54927914D01*
X36314915Y-54804105D01*
X36376820Y-54742200D01*
X36438724Y-54711248D01*
X36995867Y-55020771D02*
X37212534Y-55020771D01*
X37305391Y-55361248D02*
X36995867Y-55361248D01*
X36995867Y-54711248D01*
X37305391Y-54711248D01*
X37924438Y-55361248D02*
X37553010Y-55361248D01*
X37738724Y-55361248D02*
X37738724Y-54711248D01*
X37676819Y-54804105D01*
X37614914Y-54866010D01*
X37553010Y-54896962D01*
X51195648Y-32752286D02*
X50886124Y-32968952D01*
X51195648Y-33123714D02*
X50545648Y-33123714D01*
X50545648Y-32876095D01*
X50576600Y-32814190D01*
X50607552Y-32783238D01*
X50669457Y-32752286D01*
X50762314Y-32752286D01*
X50824219Y-32783238D01*
X50855171Y-32814190D01*
X50886124Y-32876095D01*
X50886124Y-33123714D01*
X51164695Y-32504666D02*
X51195648Y-32411809D01*
X51195648Y-32257047D01*
X51164695Y-32195143D01*
X51133743Y-32164190D01*
X51071838Y-32133238D01*
X51009933Y-32133238D01*
X50948029Y-32164190D01*
X50917076Y-32195143D01*
X50886124Y-32257047D01*
X50855171Y-32380857D01*
X50824219Y-32442762D01*
X50793267Y-32473714D01*
X50731362Y-32504666D01*
X50669457Y-32504666D01*
X50607552Y-32473714D01*
X50576600Y-32442762D01*
X50545648Y-32380857D01*
X50545648Y-32226095D01*
X50576600Y-32133238D01*
X51195648Y-31854666D02*
X50545648Y-31854666D01*
X50545648Y-31607047D01*
X50576600Y-31545142D01*
X50607552Y-31514190D01*
X50669457Y-31483238D01*
X50762314Y-31483238D01*
X50824219Y-31514190D01*
X50855171Y-31545142D01*
X50886124Y-31607047D01*
X50886124Y-31854666D01*
X51195648Y-31204666D02*
X50545648Y-31204666D01*
X51257552Y-31049904D02*
X51257552Y-30554666D01*
X51133743Y-30028476D02*
X51164695Y-30059428D01*
X51195648Y-30152285D01*
X51195648Y-30214190D01*
X51164695Y-30307047D01*
X51102790Y-30368952D01*
X51040886Y-30399904D01*
X50917076Y-30430856D01*
X50824219Y-30430856D01*
X50700410Y-30399904D01*
X50638505Y-30368952D01*
X50576600Y-30307047D01*
X50545648Y-30214190D01*
X50545648Y-30152285D01*
X50576600Y-30059428D01*
X50607552Y-30028476D01*
X50855171Y-29749904D02*
X50855171Y-29533237D01*
X51195648Y-29440380D02*
X51195648Y-29749904D01*
X50545648Y-29749904D01*
X50545648Y-29440380D01*
X51195648Y-28821333D02*
X51195648Y-29192761D01*
X51195648Y-29007047D02*
X50545648Y-29007047D01*
X50638505Y-29068952D01*
X50700410Y-29130857D01*
X50731362Y-29192761D01*
X35954590Y-58104448D02*
X35737924Y-57794924D01*
X35583162Y-58104448D02*
X35583162Y-57454448D01*
X35830781Y-57454448D01*
X35892686Y-57485400D01*
X35923638Y-57516352D01*
X35954590Y-57578257D01*
X35954590Y-57671114D01*
X35923638Y-57733019D01*
X35892686Y-57763971D01*
X35830781Y-57794924D01*
X35583162Y-57794924D01*
X36233162Y-57454448D02*
X36233162Y-57980638D01*
X36264114Y-58042543D01*
X36295067Y-58073495D01*
X36356971Y-58104448D01*
X36480781Y-58104448D01*
X36542686Y-58073495D01*
X36573638Y-58042543D01*
X36604590Y-57980638D01*
X36604590Y-57454448D01*
X37130781Y-57763971D02*
X37223638Y-57794924D01*
X37254590Y-57825876D01*
X37285542Y-57887781D01*
X37285542Y-57980638D01*
X37254590Y-58042543D01*
X37223638Y-58073495D01*
X37161733Y-58104448D01*
X36914114Y-58104448D01*
X36914114Y-57454448D01*
X37130781Y-57454448D01*
X37192685Y-57485400D01*
X37223638Y-57516352D01*
X37254590Y-57578257D01*
X37254590Y-57640162D01*
X37223638Y-57702067D01*
X37192685Y-57733019D01*
X37130781Y-57763971D01*
X36914114Y-57763971D01*
X37904590Y-58104448D02*
X37533162Y-58104448D01*
X37718876Y-58104448D02*
X37718876Y-57454448D01*
X37656971Y-57547305D01*
X37595066Y-57609210D01*
X37533162Y-57640162D01*
X24271648Y-48559124D02*
X23962124Y-48775790D01*
X24271648Y-48930552D02*
X23621648Y-48930552D01*
X23621648Y-48682933D01*
X23652600Y-48621028D01*
X23683552Y-48590076D01*
X23745457Y-48559124D01*
X23838314Y-48559124D01*
X23900219Y-48590076D01*
X23931171Y-48621028D01*
X23962124Y-48682933D01*
X23962124Y-48930552D01*
X24271648Y-47971028D02*
X24271648Y-48280552D01*
X23621648Y-48280552D01*
X24271648Y-47413886D02*
X24271648Y-47785314D01*
X24271648Y-47599600D02*
X23621648Y-47599600D01*
X23714505Y-47661505D01*
X23776410Y-47723410D01*
X23807362Y-47785314D01*
X23621648Y-47228171D02*
X24271648Y-47011505D01*
X23621648Y-46794838D01*
X23900219Y-46485314D02*
X23869267Y-46547219D01*
X23838314Y-46578171D01*
X23776410Y-46609123D01*
X23745457Y-46609123D01*
X23683552Y-46578171D01*
X23652600Y-46547219D01*
X23621648Y-46485314D01*
X23621648Y-46361504D01*
X23652600Y-46299600D01*
X23683552Y-46268647D01*
X23745457Y-46237695D01*
X23776410Y-46237695D01*
X23838314Y-46268647D01*
X23869267Y-46299600D01*
X23900219Y-46361504D01*
X23900219Y-46485314D01*
X23931171Y-46547219D01*
X23962124Y-46578171D01*
X24024029Y-46609123D01*
X24147838Y-46609123D01*
X24209743Y-46578171D01*
X24240695Y-46547219D01*
X24271648Y-46485314D01*
X24271648Y-46361504D01*
X24240695Y-46299600D01*
X24209743Y-46268647D01*
X24147838Y-46237695D01*
X24024029Y-46237695D01*
X23962124Y-46268647D01*
X23931171Y-46299600D01*
X23900219Y-46361504D01*
X25100876Y-49874848D02*
X24884210Y-49565324D01*
X24729448Y-49874848D02*
X24729448Y-49224848D01*
X24977067Y-49224848D01*
X25038972Y-49255800D01*
X25069924Y-49286752D01*
X25100876Y-49348657D01*
X25100876Y-49441514D01*
X25069924Y-49503419D01*
X25038972Y-49534371D01*
X24977067Y-49565324D01*
X24729448Y-49565324D01*
X25688972Y-49874848D02*
X25379448Y-49874848D01*
X25379448Y-49224848D01*
X25843733Y-49224848D02*
X26246114Y-49224848D01*
X26029447Y-49472467D01*
X26122305Y-49472467D01*
X26184209Y-49503419D01*
X26215162Y-49534371D01*
X26246114Y-49596276D01*
X26246114Y-49751038D01*
X26215162Y-49812943D01*
X26184209Y-49843895D01*
X26122305Y-49874848D01*
X25936590Y-49874848D01*
X25874686Y-49843895D01*
X25843733Y-49812943D01*
X26431829Y-49224848D02*
X26648495Y-49874848D01*
X26865162Y-49224848D01*
X27019924Y-49224848D02*
X27422305Y-49224848D01*
X27205638Y-49472467D01*
X27298496Y-49472467D01*
X27360400Y-49503419D01*
X27391353Y-49534371D01*
X27422305Y-49596276D01*
X27422305Y-49751038D01*
X27391353Y-49812943D01*
X27360400Y-49843895D01*
X27298496Y-49874848D01*
X27112781Y-49874848D01*
X27050877Y-49843895D01*
X27019924Y-49812943D01*
X24373248Y-53619277D02*
X24063724Y-53835943D01*
X24373248Y-53990705D02*
X23723248Y-53990705D01*
X23723248Y-53743086D01*
X23754200Y-53681181D01*
X23785152Y-53650229D01*
X23847057Y-53619277D01*
X23939914Y-53619277D01*
X24001819Y-53650229D01*
X24032771Y-53681181D01*
X24063724Y-53743086D01*
X24063724Y-53990705D01*
X24373248Y-52969277D02*
X24063724Y-53185943D01*
X24373248Y-53340705D02*
X23723248Y-53340705D01*
X23723248Y-53093086D01*
X23754200Y-53031181D01*
X23785152Y-53000229D01*
X23847057Y-52969277D01*
X23939914Y-52969277D01*
X24001819Y-53000229D01*
X24032771Y-53031181D01*
X24063724Y-53093086D01*
X24063724Y-53340705D01*
X24342295Y-52721657D02*
X24373248Y-52628800D01*
X24373248Y-52474038D01*
X24342295Y-52412134D01*
X24311343Y-52381181D01*
X24249438Y-52350229D01*
X24187533Y-52350229D01*
X24125629Y-52381181D01*
X24094676Y-52412134D01*
X24063724Y-52474038D01*
X24032771Y-52597848D01*
X24001819Y-52659753D01*
X23970867Y-52690705D01*
X23908962Y-52721657D01*
X23847057Y-52721657D01*
X23785152Y-52690705D01*
X23754200Y-52659753D01*
X23723248Y-52597848D01*
X23723248Y-52443086D01*
X23754200Y-52350229D01*
X23723248Y-52164514D02*
X23723248Y-51793086D01*
X24373248Y-51978800D02*
X23723248Y-51978800D01*
X23785152Y-51607371D02*
X23754200Y-51576419D01*
X23723248Y-51514514D01*
X23723248Y-51359752D01*
X23754200Y-51297848D01*
X23785152Y-51266895D01*
X23847057Y-51235943D01*
X23908962Y-51235943D01*
X24001819Y-51266895D01*
X24373248Y-51638324D01*
X24373248Y-51235943D01*
D29*
G36*
X73228200Y-61849000D02*
X68402200Y-61849000D01*
X68402200Y-42697400D01*
X73228200Y-42697400D01*
X73228200Y-61849000D01*
X73228200Y-61849000D01*
G37*
X73228200Y-61849000D02*
X68402200Y-61849000D01*
X68402200Y-42697400D01*
X73228200Y-42697400D01*
X73228200Y-61849000D01*
M02*
