G04 #@! TF.FileFunction,Copper,L1,Top,Signal*
%FSLAX46Y46*%
G04 Gerber Fmt 4.6, Leading zero omitted, Abs format (unit mm)*
G04 Created by KiCad (PCBNEW 0.201506030104+5696~23~ubuntu14.04.1-product) date Sat 06 Jun 2015 13:04:04 AEST*
%MOMM*%
G01*
G04 APERTURE LIST*
%ADD10C,0.100000*%
%ADD11C,0.262890*%
%ADD12R,1.524000X1.524000*%
%ADD13C,1.524000*%
%ADD14R,6.000000X4.000000*%
%ADD15R,0.419100X1.500000*%
%ADD16R,1.198880X1.198880*%
%ADD17R,2.032000X2.032000*%
%ADD18O,2.032000X2.032000*%
%ADD19R,2.032000X1.727200*%
%ADD20O,2.032000X1.727200*%
%ADD21R,1.727200X1.727200*%
%ADD22O,1.727200X1.727200*%
%ADD23R,0.299720X1.501140*%
%ADD24R,1.727200X2.032000*%
%ADD25O,1.727200X2.032000*%
%ADD26R,0.635000X1.143000*%
%ADD27R,0.889000X1.397000*%
%ADD28R,3.500120X3.500120*%
%ADD29R,2.032000X3.657600*%
%ADD30R,2.032000X1.016000*%
%ADD31R,1.143000X0.635000*%
%ADD32R,1.000000X0.198120*%
%ADD33R,1.000000X0.200660*%
%ADD34R,0.198120X1.000000*%
%ADD35R,0.200660X1.000000*%
%ADD36R,4.000000X4.000000*%
%ADD37C,0.889000*%
%ADD38C,0.600000*%
%ADD39C,0.152400*%
%ADD40C,0.254000*%
G04 APERTURE END LIST*
D10*
D11*
X68018054Y-71215368D02*
X68638540Y-71215368D01*
X68328297Y-72301218D02*
X68328297Y-71215368D01*
X69207318Y-71215368D02*
X69414147Y-71215368D01*
X69517561Y-71267075D01*
X69620975Y-71370489D01*
X69672683Y-71577318D01*
X69672683Y-71939268D01*
X69620975Y-72146096D01*
X69517561Y-72249511D01*
X69414147Y-72301218D01*
X69207318Y-72301218D01*
X69103904Y-72249511D01*
X69000490Y-72146096D01*
X68948783Y-71939268D01*
X68948783Y-71577318D01*
X69000490Y-71370489D01*
X69103904Y-71267075D01*
X69207318Y-71215368D01*
X70138047Y-72301218D02*
X70138047Y-71215368D01*
X70551704Y-71215368D01*
X70655118Y-71267075D01*
X70706825Y-71318782D01*
X70758532Y-71422196D01*
X70758532Y-71577318D01*
X70706825Y-71680732D01*
X70655118Y-71732439D01*
X70551704Y-71784146D01*
X70138047Y-71784146D01*
D12*
X25311100Y-22083600D03*
D13*
X27851100Y-22083600D03*
X30391100Y-22083600D03*
X32931100Y-22083600D03*
X35471100Y-22083600D03*
X38011100Y-22083600D03*
X25311100Y-19543600D03*
X27851100Y-19543600D03*
X30391100Y-19543600D03*
X32931100Y-19543600D03*
X35471100Y-19543600D03*
X38011100Y-19543600D03*
X40551100Y-22083600D03*
X40551100Y-19543600D03*
X43091100Y-22083600D03*
X45631100Y-22083600D03*
X48171100Y-22083600D03*
X50711100Y-22083600D03*
X53251100Y-22083600D03*
X55791100Y-22083600D03*
X43091100Y-19543600D03*
X45631100Y-19543600D03*
X48171100Y-19543600D03*
X50711100Y-19543600D03*
X53251100Y-19543600D03*
X55791100Y-19543600D03*
X58331100Y-22083600D03*
X58331100Y-19543600D03*
X60871100Y-22083600D03*
X63411100Y-22083600D03*
X65951100Y-22083600D03*
X68491100Y-22083600D03*
X71031100Y-22083600D03*
X73571100Y-22083600D03*
X60871100Y-19543600D03*
X63411100Y-19543600D03*
X65951100Y-19543600D03*
X68491100Y-19543600D03*
X71031100Y-19543600D03*
X73571100Y-19543600D03*
D14*
X28310000Y-56560000D03*
X21310000Y-56560000D03*
D15*
X36197680Y-71707500D03*
X36197680Y-59642500D03*
X36997780Y-71710040D03*
X36997780Y-59642500D03*
X37797880Y-71710040D03*
X37797880Y-59642500D03*
X38597980Y-71710040D03*
X38597980Y-59642500D03*
X39398080Y-71710040D03*
X39398080Y-59642500D03*
X40198180Y-71710040D03*
X40198180Y-59642500D03*
X40998280Y-71710040D03*
X40998280Y-59642500D03*
X41798380Y-71710040D03*
X41798380Y-59642500D03*
X42598480Y-71710040D03*
X42598480Y-59642500D03*
X43398580Y-71710040D03*
X43398580Y-59642500D03*
X44198680Y-71710040D03*
X44198680Y-59642500D03*
X44998780Y-71710040D03*
X44998780Y-59642500D03*
X45798880Y-71710040D03*
X45798880Y-59642500D03*
X46598980Y-71710040D03*
X46598980Y-59642500D03*
X47399080Y-71710040D03*
X47399080Y-59642500D03*
X48199180Y-71710040D03*
X48199180Y-59642500D03*
X48999280Y-71710040D03*
X48999280Y-59642500D03*
X49799380Y-71710040D03*
X49799380Y-59642500D03*
X50599480Y-71710040D03*
X50599480Y-59642500D03*
X51399580Y-71710040D03*
X51399580Y-59642500D03*
X52199680Y-71710040D03*
X52199680Y-59642500D03*
X52999780Y-71710040D03*
X52999780Y-59642500D03*
D16*
X24054020Y-65390000D03*
X21955980Y-65390000D03*
X24054020Y-62890000D03*
X21955980Y-62890000D03*
X24054020Y-60390000D03*
X21955980Y-60390000D03*
D17*
X65989200Y-47345600D03*
D18*
X65989200Y-49885600D03*
D19*
X55400000Y-29940000D03*
D20*
X55400000Y-27400000D03*
X55400000Y-24860000D03*
D17*
X64200000Y-29170000D03*
D18*
X64200000Y-26630000D03*
D16*
X30669020Y-52960000D03*
X28570980Y-52960000D03*
D21*
X28870000Y-65440000D03*
D22*
X26330000Y-65440000D03*
X28870000Y-62900000D03*
X26330000Y-62900000D03*
X28870000Y-60360000D03*
X26330000Y-60360000D03*
D23*
X38750700Y-28599500D03*
X38250320Y-28599500D03*
X37749940Y-28599500D03*
X37249560Y-28599500D03*
X36749180Y-28599500D03*
X36248800Y-28599500D03*
X35750960Y-28599500D03*
X35250580Y-28599500D03*
X34750200Y-28599500D03*
X34249820Y-28599500D03*
X33749440Y-28599500D03*
X45250560Y-28599500D03*
X44750180Y-28599500D03*
X44249800Y-28599500D03*
X43749420Y-28599500D03*
X43249040Y-28599500D03*
X42751200Y-28599500D03*
X42250820Y-28599500D03*
X41750440Y-36600500D03*
X41250060Y-28599500D03*
X40749680Y-28599500D03*
X40249300Y-28599500D03*
X39748920Y-28599500D03*
X39251080Y-28599500D03*
X39251080Y-36600500D03*
X39748920Y-36600500D03*
X40249300Y-36600500D03*
X40749680Y-36600500D03*
X41250060Y-36600500D03*
X41750440Y-28599500D03*
X42250820Y-36600500D03*
X42751200Y-36600500D03*
X43249040Y-36600500D03*
X43749420Y-36600500D03*
X44249800Y-36600500D03*
X44750180Y-36600500D03*
X45250560Y-36600500D03*
X33749440Y-36600500D03*
X34249820Y-36600500D03*
X34750200Y-36600500D03*
X35250580Y-36600500D03*
X35750960Y-36600500D03*
X36248800Y-36600500D03*
X36749180Y-36600500D03*
X37249560Y-36600500D03*
X37749940Y-36600500D03*
X38250320Y-36600500D03*
X38750700Y-36600500D03*
D19*
X78500000Y-43985000D03*
D20*
X78500000Y-41445000D03*
X78500000Y-38905000D03*
X78500000Y-36365000D03*
X78500000Y-33825000D03*
X78500000Y-31285000D03*
X78500000Y-28745000D03*
X78500000Y-26205000D03*
X78500000Y-23665000D03*
D19*
X78500000Y-66835000D03*
D20*
X78500000Y-64295000D03*
X78500000Y-61755000D03*
X78500000Y-59215000D03*
X78500000Y-56675000D03*
X78500000Y-54135000D03*
X78500000Y-51595000D03*
X78500000Y-49055000D03*
X78500000Y-46515000D03*
D24*
X65795000Y-66825000D03*
D25*
X68335000Y-66825000D03*
X70875000Y-66825000D03*
X73415000Y-66825000D03*
X75955000Y-66825000D03*
D17*
X78500000Y-43990000D03*
D18*
X75960000Y-43990000D03*
D26*
X30638000Y-25600000D03*
X32162000Y-25600000D03*
D27*
X28202500Y-35150000D03*
X26297500Y-35150000D03*
X27152500Y-45900000D03*
X25247500Y-45900000D03*
D17*
X53855000Y-36750000D03*
D18*
X56395000Y-36750000D03*
D17*
X56395000Y-34200000D03*
D18*
X53855000Y-34200000D03*
D17*
X73210000Y-32190000D03*
D18*
X70670000Y-32190000D03*
D16*
X51449020Y-36000000D03*
X49350980Y-36000000D03*
D17*
X50770000Y-38100000D03*
D18*
X48230000Y-38100000D03*
D28*
X25350140Y-28800000D03*
X19350660Y-28800000D03*
X22350400Y-33499000D03*
D21*
X73210000Y-37270000D03*
D22*
X73210000Y-34730000D03*
X70670000Y-37270000D03*
X70670000Y-34730000D03*
X68130000Y-37270000D03*
X68130000Y-34730000D03*
X65590000Y-37270000D03*
X65590000Y-34730000D03*
D17*
X34000000Y-43270000D03*
D18*
X34000000Y-40730000D03*
D16*
X30649020Y-47800000D03*
X28550980Y-47800000D03*
X30599020Y-50850000D03*
X28500980Y-50850000D03*
D29*
X30602000Y-41000000D03*
D30*
X23998000Y-41000000D03*
X23998000Y-43286000D03*
X23998000Y-38714000D03*
D31*
X59600000Y-28262000D03*
X59600000Y-26738000D03*
X58100000Y-28262000D03*
X58100000Y-26738000D03*
D26*
X18943000Y-65390000D03*
X20467000Y-65390000D03*
X18943000Y-62890000D03*
X20467000Y-62890000D03*
X18943000Y-60390000D03*
X20467000Y-60390000D03*
D31*
X61100000Y-28262000D03*
X61100000Y-26738000D03*
D26*
X58438000Y-36750000D03*
X59962000Y-36750000D03*
X59962000Y-34200000D03*
X58438000Y-34200000D03*
X40142000Y-56450000D03*
X38618000Y-56450000D03*
X40142000Y-55050000D03*
X38618000Y-55050000D03*
X50238000Y-34200000D03*
X51762000Y-34200000D03*
X40142000Y-57850000D03*
X38618000Y-57850000D03*
X26762000Y-47800000D03*
X25238000Y-47800000D03*
X26762000Y-50850000D03*
X25238000Y-50850000D03*
X26782000Y-52960000D03*
X25258000Y-52960000D03*
D32*
X42898080Y-45501380D03*
D33*
X42898080Y-45902700D03*
D32*
X42898080Y-46301480D03*
D33*
X42898080Y-46702800D03*
D32*
X42898080Y-47101580D03*
D33*
X42898080Y-47502900D03*
X42898080Y-47901680D03*
X42898080Y-48303000D03*
X42898080Y-48701780D03*
X42898080Y-49103100D03*
X42898080Y-49501880D03*
X42898080Y-49898120D03*
X42898080Y-50296900D03*
X42898080Y-50698220D03*
X42898080Y-51097000D03*
X42898080Y-51498320D03*
X42898080Y-51897100D03*
D32*
X42898080Y-52298420D03*
D33*
X42898080Y-52697200D03*
D32*
X42898080Y-53098520D03*
D33*
X42898080Y-53497300D03*
D32*
X42898080Y-53898620D03*
D34*
X43901380Y-54901920D03*
D35*
X44302700Y-54901920D03*
D34*
X44701480Y-54901920D03*
D35*
X45102800Y-54901920D03*
D34*
X45501580Y-54901920D03*
D35*
X45902900Y-54901920D03*
X46301680Y-54901920D03*
X46703000Y-54901920D03*
X47101780Y-54901920D03*
X47503100Y-54901920D03*
X47901880Y-54901920D03*
X48298120Y-54901920D03*
X48696900Y-54901920D03*
X49098220Y-54901920D03*
X49497000Y-54901920D03*
X49898320Y-54901920D03*
X50297100Y-54901920D03*
D34*
X50698420Y-54901920D03*
D35*
X51097200Y-54901920D03*
D34*
X51498520Y-54901920D03*
D35*
X51897300Y-54901920D03*
D34*
X52298620Y-54901920D03*
D32*
X53301920Y-53896080D03*
D33*
X53301920Y-53494760D03*
D32*
X53301920Y-53095980D03*
D33*
X53301920Y-52694660D03*
D32*
X53301920Y-52295880D03*
D33*
X53301920Y-51894560D03*
X53301920Y-51495780D03*
X53301920Y-51094460D03*
X53301920Y-50695680D03*
X53301920Y-50294360D03*
X53301920Y-49895580D03*
X53301920Y-49499340D03*
X53301920Y-49100560D03*
X53301920Y-48699240D03*
X53301920Y-48300460D03*
X53301920Y-47899140D03*
X53301920Y-47500360D03*
D32*
X53301920Y-47099040D03*
D33*
X53301920Y-46700260D03*
D32*
X53301920Y-46298940D03*
D33*
X53301920Y-45900160D03*
D32*
X53301920Y-45498840D03*
D34*
X52298620Y-44500620D03*
D35*
X51897300Y-44500620D03*
D34*
X51498520Y-44500620D03*
D35*
X51097200Y-44500620D03*
D34*
X50698420Y-44500620D03*
D35*
X50297100Y-44500620D03*
X49898320Y-44500620D03*
X49497000Y-44500620D03*
X49098220Y-44500620D03*
X48696900Y-44500620D03*
X48298120Y-44500620D03*
X47901880Y-44500620D03*
X47503100Y-44500620D03*
X47101780Y-44500620D03*
X46703000Y-44500620D03*
X46301680Y-44500620D03*
X45902900Y-44500620D03*
D34*
X45501580Y-44500620D03*
D35*
X45102800Y-44500620D03*
D34*
X44701480Y-44500620D03*
D35*
X44302700Y-44500620D03*
D34*
X43901380Y-44500620D03*
D36*
X48100000Y-49700000D03*
D37*
X44207256Y-58350869D03*
X41720000Y-55060000D03*
X51330000Y-52470000D03*
X51680000Y-46730000D03*
X49310000Y-46120000D03*
X46110000Y-46120000D03*
X44530000Y-46910000D03*
X44560000Y-52290000D03*
X46060000Y-53270002D03*
X46558181Y-51244332D03*
X46558181Y-48154404D03*
X49655141Y-48154404D03*
X49635570Y-51226244D03*
X45081993Y-70015754D03*
X23347500Y-51321955D03*
X28300000Y-23950000D03*
X22750000Y-25150000D03*
X23347500Y-45900000D03*
X18950000Y-59150000D03*
X18950000Y-66850000D03*
X24384000Y-68834000D03*
X25958800Y-68834000D03*
X27432000Y-68834000D03*
X26850000Y-49250000D03*
X62100000Y-20800000D03*
X62100000Y-25750000D03*
X26300000Y-43300000D03*
X41348612Y-52425400D03*
X50970220Y-55970449D03*
X54703641Y-53939951D03*
X54384701Y-44050830D03*
X46100000Y-43070000D03*
X44187547Y-69482363D03*
X60800000Y-34200000D03*
X45900000Y-56375000D03*
X27612316Y-41000000D03*
X28600000Y-42816964D03*
X29814066Y-45614066D03*
X60782200Y-36753800D03*
X41460000Y-46829780D03*
X50867114Y-41802602D03*
X70575000Y-44375000D03*
X68300000Y-44400000D03*
X36555040Y-39150000D03*
X36555040Y-38099110D03*
X34200000Y-30100000D03*
X33400000Y-30800000D03*
X34200000Y-31600000D03*
X33400000Y-34000000D03*
X33400000Y-32400000D03*
X34200000Y-33200000D03*
X34200000Y-34800000D03*
X35500000Y-34900000D03*
X37700000Y-34900000D03*
X39900000Y-34900000D03*
X42100000Y-34900000D03*
X44300000Y-34900000D03*
X36600000Y-34900000D03*
X38800000Y-34900000D03*
X44400000Y-23200000D03*
X41000000Y-34900000D03*
X43200000Y-34900000D03*
X58300000Y-25750000D03*
X59600000Y-25750000D03*
X46500000Y-30500000D03*
X46500000Y-32700000D03*
X46500000Y-34900000D03*
X46500000Y-31600000D03*
X46500000Y-33800000D03*
X35866404Y-52075000D03*
X35858752Y-53119451D03*
X35475000Y-39175000D03*
X58670246Y-46402938D03*
X45400000Y-34900000D03*
X60850000Y-25750000D03*
X52021911Y-58295586D03*
X41890796Y-65467260D03*
X51025481Y-57926290D03*
X39977179Y-64898254D03*
X48343273Y-63018023D03*
X42525859Y-58383985D03*
X43529868Y-55933027D03*
X47163663Y-36730473D03*
X43270000Y-57090002D03*
X41148000Y-56618987D03*
X46217390Y-37165336D03*
X38150019Y-40650019D03*
X37278325Y-47629899D03*
X36749981Y-41299981D03*
X37517434Y-52739748D03*
X45593120Y-58059136D03*
X41125260Y-58196465D03*
X45975968Y-38178374D03*
X46587562Y-57749903D03*
X45265015Y-38939349D03*
X47486871Y-58275051D03*
X44212117Y-38792451D03*
X46508193Y-63757643D03*
X35116790Y-59600000D03*
X36133499Y-54783499D03*
X47317187Y-61539061D03*
X39260693Y-40928564D03*
X37540242Y-46621961D03*
X37069626Y-53847374D03*
X36165760Y-40312263D03*
X36000520Y-56900000D03*
X46526056Y-62328109D03*
X36790000Y-57960000D03*
X44525000Y-62350000D03*
X55330290Y-57738054D03*
X52200000Y-61300000D03*
X55398132Y-56698855D03*
X51400000Y-62043480D03*
X56060000Y-51984111D03*
X40262778Y-40624377D03*
X56465738Y-51024989D03*
X50609575Y-61291063D03*
X56278415Y-50000563D03*
X49800000Y-62050000D03*
X56737846Y-49065971D03*
X37150000Y-62000000D03*
X55591415Y-48761194D03*
X35950000Y-62360000D03*
X57392831Y-47807263D03*
X36050000Y-63450000D03*
X35511454Y-68144314D03*
X57276112Y-46727861D03*
X56056456Y-46995581D03*
X41350000Y-39625000D03*
X37900000Y-68650000D03*
X60272090Y-44080156D03*
X61300000Y-44522071D03*
X37800000Y-70000000D03*
X62698900Y-44522071D03*
X39850000Y-69050000D03*
X63875000Y-44522071D03*
X39943674Y-70240474D03*
X55018621Y-52069015D03*
X38167448Y-42956467D03*
X33700000Y-26000000D03*
X28189998Y-36750000D03*
X47221661Y-40160969D03*
X46101682Y-41403386D03*
X47560000Y-64780000D03*
X40849396Y-65467268D03*
X43200000Y-44600000D03*
X48326880Y-57600000D03*
X43196718Y-38561140D03*
X48208686Y-41242395D03*
X44700000Y-41500000D03*
X46884785Y-42089890D03*
D38*
X26297500Y-35150000D02*
X24001400Y-35150000D01*
X24001400Y-35150000D02*
X22350400Y-33499000D01*
D39*
X44207256Y-58818753D02*
X44207256Y-58350869D01*
X44200000Y-58826009D02*
X44207256Y-58818753D01*
D38*
X40142000Y-55050000D02*
X41710000Y-55050000D01*
X41710000Y-55050000D02*
X41720000Y-55060000D01*
D39*
X44998780Y-70098967D02*
X45081993Y-70015754D01*
X44998780Y-71710040D02*
X44998780Y-70098967D01*
X44200000Y-58826009D02*
X44200000Y-59641180D01*
X44200000Y-59641180D02*
X44198680Y-59642500D01*
X44198680Y-58827329D02*
X44200000Y-58826009D01*
D38*
X23350000Y-50850000D02*
X23350000Y-51319455D01*
X23350000Y-51319455D02*
X23347500Y-51321955D01*
X28300000Y-25600000D02*
X28300000Y-23950000D01*
D39*
X40142000Y-56450000D02*
X40142000Y-55050000D01*
X40142000Y-57850000D02*
X40142000Y-56450000D01*
D38*
X23998000Y-35146600D02*
X22350400Y-33499000D01*
X23998000Y-35146600D02*
X22350400Y-33499000D01*
X23998000Y-38714000D02*
X23998000Y-35146600D01*
X23651400Y-34800000D02*
X22350400Y-33499000D01*
X19350660Y-30500660D02*
X19350660Y-28800000D01*
X22349000Y-33499000D02*
X19350660Y-30500660D01*
X22350400Y-33499000D02*
X22349000Y-33499000D01*
X23200000Y-25600000D02*
X22750000Y-25150000D01*
X28300000Y-25600000D02*
X23200000Y-25600000D01*
D39*
X33749440Y-36600500D02*
X33500500Y-36600500D01*
X33500500Y-36600500D02*
X33500000Y-36600000D01*
D38*
X32900000Y-36600000D02*
X33500000Y-36600000D01*
X30638000Y-34338000D02*
X32900000Y-36600000D01*
X30638000Y-25600000D02*
X30638000Y-34338000D01*
X23350000Y-47800000D02*
X23350000Y-50850000D01*
X23350000Y-45900000D02*
X23350000Y-47800000D01*
X23347500Y-45900000D02*
X23350000Y-45900000D01*
X23350000Y-45900000D02*
X25247500Y-45900000D01*
X25250000Y-47800000D02*
X23350000Y-47800000D01*
X23350000Y-50850000D02*
X25250000Y-50850000D01*
X53855000Y-34200000D02*
X51762000Y-34200000D01*
X18943000Y-65390000D02*
X18943000Y-62890000D01*
X18943000Y-62890000D02*
X18943000Y-60390000D01*
X18943000Y-60390000D02*
X18943000Y-59157000D01*
X18943000Y-59157000D02*
X18950000Y-59150000D01*
X18943000Y-66843000D02*
X18950000Y-66850000D01*
X18943000Y-65390000D02*
X18943000Y-66843000D01*
X30638000Y-25600000D02*
X28300000Y-25600000D01*
X23347500Y-51321955D02*
X23347500Y-52477500D01*
X23830000Y-52960000D02*
X25258000Y-52960000D01*
X23347500Y-52477500D02*
X23830000Y-52960000D01*
X21310000Y-56790000D02*
X18950000Y-59150000D01*
X21310000Y-56560000D02*
X21310000Y-56790000D01*
X23347500Y-54522500D02*
X21310000Y-56560000D01*
X23347500Y-51321955D02*
X23347500Y-54522500D01*
X24384000Y-68834000D02*
X25958800Y-68834000D01*
D39*
X25311100Y-22083600D02*
X24683600Y-22083600D01*
X24683600Y-22083600D02*
X23800000Y-21200000D01*
X23800000Y-21200000D02*
X23800000Y-18250000D01*
X23800000Y-18250000D02*
X26600000Y-18250000D01*
X47000000Y-18250000D02*
X62100000Y-18250000D01*
X25311100Y-22083600D02*
X25416400Y-22083600D01*
X26500000Y-21500000D02*
X25916400Y-22083600D01*
X26500000Y-21500000D02*
X26500000Y-18250000D01*
X44400000Y-18250000D02*
X47000000Y-18250000D01*
X26600000Y-18250000D02*
X44400000Y-18250000D01*
X26500000Y-18250000D02*
X26600000Y-18250000D01*
X44400000Y-20800000D02*
X44400000Y-18250000D01*
X45631100Y-22031100D02*
X44400000Y-20800000D01*
X45631100Y-22083600D02*
X45631100Y-22031100D01*
X47000000Y-20800000D02*
X47000000Y-18250000D01*
X45716400Y-22083600D02*
X47000000Y-20800000D01*
X45631100Y-22083600D02*
X45716400Y-22083600D01*
X62100000Y-20800000D02*
X62100000Y-18250000D01*
D38*
X62400000Y-26050000D02*
X62100000Y-25750000D01*
X62400000Y-28900000D02*
X62400000Y-26050000D01*
X62050000Y-29250000D02*
X62400000Y-28900000D01*
X61550000Y-29250000D02*
X62050000Y-29250000D01*
X60050000Y-29250000D02*
X61550000Y-29250000D01*
X58350000Y-29250000D02*
X60050000Y-29250000D01*
X58100000Y-29000000D02*
X58350000Y-29250000D01*
X58100000Y-28262000D02*
X58100000Y-29000000D01*
X59600000Y-28800000D02*
X60050000Y-29250000D01*
X59600000Y-28262000D02*
X59600000Y-28800000D01*
X61100000Y-28800000D02*
X61550000Y-29250000D01*
X61100000Y-28262000D02*
X61100000Y-28800000D01*
D39*
X25916400Y-22083600D02*
X26500000Y-21500000D01*
X25311100Y-22083600D02*
X25916400Y-22083600D01*
D38*
X26286000Y-43286000D02*
X26300000Y-43300000D01*
X23998000Y-43286000D02*
X26286000Y-43286000D01*
X24000000Y-43288000D02*
X23998000Y-43286000D01*
D39*
X29650000Y-49250000D02*
X26850000Y-49250000D01*
X30599020Y-50199020D02*
X29650000Y-49250000D01*
X30599020Y-50850000D02*
X30599020Y-50199020D01*
X45902900Y-54901920D02*
X45902900Y-56372100D01*
X45902900Y-56372100D02*
X45900000Y-56375000D01*
X41620412Y-52697200D02*
X41348612Y-52425400D01*
X42898080Y-52697200D02*
X41620412Y-52697200D01*
X43507302Y-51897100D02*
X43626681Y-52016479D01*
X43626681Y-52016479D02*
X43626681Y-52620999D01*
X43550480Y-52697200D02*
X42898080Y-52697200D01*
X43626681Y-52620999D02*
X43550480Y-52697200D01*
X51097200Y-54901920D02*
X51097200Y-55843469D01*
X50698420Y-54901920D02*
X50698420Y-55698649D01*
X50698420Y-55698649D02*
X50970220Y-55970449D01*
X51097200Y-55843469D02*
X50970220Y-55970449D01*
X49098220Y-44500620D02*
X49098220Y-43848220D01*
X49098220Y-43848220D02*
X49495650Y-43450790D01*
X49495650Y-43450790D02*
X49497000Y-43450790D01*
X49497000Y-44500620D02*
X49497000Y-43450790D01*
X54703641Y-53810441D02*
X54703641Y-53939951D01*
X53301920Y-53095980D02*
X53989180Y-53095980D01*
X53989180Y-53095980D02*
X54703641Y-53810441D01*
X44998780Y-58740100D02*
X44920000Y-58661320D01*
X44920000Y-58661320D02*
X44920000Y-57355000D01*
X45455501Y-56819499D02*
X45900000Y-56375000D01*
X44998780Y-59642500D02*
X44998780Y-58740100D01*
X44920000Y-57355000D02*
X45455501Y-56819499D01*
X43053020Y-51897100D02*
X43507302Y-51897100D01*
X45902900Y-44500620D02*
X45902900Y-43267100D01*
X45902900Y-43267100D02*
X46100000Y-43070000D01*
X46301680Y-44500620D02*
X46301680Y-43271680D01*
X46301680Y-43271680D02*
X46100000Y-43070000D01*
X44198680Y-69493496D02*
X44187547Y-69482363D01*
X44198680Y-71710040D02*
X44198680Y-69493496D01*
D38*
X73210000Y-37270000D02*
X73130000Y-37270000D01*
D39*
X34249820Y-36600500D02*
X34249820Y-37550180D01*
X34249820Y-37550180D02*
X30800000Y-41000000D01*
X30800000Y-41000000D02*
X30602000Y-41000000D01*
D38*
X28600000Y-41000000D02*
X30602000Y-41000000D01*
X28550000Y-44350000D02*
X28600000Y-44300000D01*
X27152500Y-45747500D02*
X28550000Y-44350000D01*
X27152500Y-45900000D02*
X27152500Y-45747500D01*
D39*
X30649020Y-47800000D02*
X30649020Y-46449020D01*
D38*
X59962000Y-36750000D02*
X59962000Y-34200000D01*
D39*
X46300000Y-54748660D02*
X46301680Y-54746980D01*
X46301680Y-54746980D02*
X46301680Y-55973320D01*
X46301680Y-55973320D02*
X45900000Y-56375000D01*
D38*
X78500000Y-33825000D02*
X78347600Y-33825000D01*
X27322744Y-41000000D02*
X27612316Y-41000000D01*
X23998000Y-41000000D02*
X27322744Y-41000000D01*
X27322744Y-41000000D02*
X28600000Y-41000000D01*
X28600000Y-42451852D02*
X28600000Y-42816964D01*
X28600000Y-44300000D02*
X28600000Y-42451852D01*
X28600000Y-42451852D02*
X28600000Y-41000000D01*
X30649020Y-46349020D02*
X30649020Y-47800000D01*
X29818022Y-45618022D02*
X29814066Y-45614066D01*
X29918022Y-45618022D02*
X29818022Y-45618022D01*
D39*
X29814066Y-45614066D02*
X28550000Y-44350000D01*
X30649020Y-46449020D02*
X29814066Y-45614066D01*
D38*
X28600000Y-44300000D02*
X29918022Y-45618022D01*
X29918022Y-45618022D02*
X30649020Y-46349020D01*
X59962000Y-34200000D02*
X60800000Y-34200000D01*
X60778400Y-36750000D02*
X60782200Y-36753800D01*
X59962000Y-36750000D02*
X60778400Y-36750000D01*
D39*
X46300000Y-54750000D02*
X46301680Y-54746980D01*
X46300000Y-54748660D02*
X46300000Y-54750000D01*
X46301680Y-54746980D02*
X46300000Y-54748660D01*
X54384701Y-44679447D02*
X54384701Y-44050830D01*
X54384701Y-45868559D02*
X54384701Y-44679447D01*
X53954320Y-46298940D02*
X54384701Y-45868559D01*
X53301920Y-46298940D02*
X53954320Y-46298940D01*
X52649520Y-46298940D02*
X53301920Y-46298940D01*
X52573319Y-46375141D02*
X52649520Y-46298940D01*
X52573319Y-47022839D02*
X52573319Y-46375141D01*
X52649520Y-47099040D02*
X52573319Y-47022839D01*
X53301920Y-47099040D02*
X52649520Y-47099040D01*
X41731800Y-47101580D02*
X41460000Y-46829780D01*
X42898080Y-46702800D02*
X41586980Y-46702800D01*
X41586980Y-46702800D02*
X41460000Y-46829780D01*
X42898080Y-47101580D02*
X41731800Y-47101580D01*
X49497000Y-43450790D02*
X50422615Y-42525175D01*
X50422615Y-42525175D02*
X50422615Y-42247101D01*
X50422615Y-42247101D02*
X50867114Y-41802602D01*
X74627200Y-29925400D02*
X78347600Y-26205000D01*
X78347600Y-26205000D02*
X78500000Y-26205000D01*
X52736724Y-38549990D02*
X74077192Y-38549990D01*
X48298120Y-43540814D02*
X49603207Y-42235727D01*
X49603207Y-41683507D02*
X52736724Y-38549990D01*
X74077192Y-38549990D02*
X74627200Y-37999982D01*
X48298120Y-44500620D02*
X48298120Y-43540814D01*
X49603207Y-42235727D02*
X49603207Y-41683507D01*
X74627200Y-37999982D02*
X74627200Y-29925400D01*
X48696900Y-43573100D02*
X49953217Y-42316783D01*
X74222170Y-38900000D02*
X75172178Y-37949992D01*
X49953217Y-42316783D02*
X49953217Y-41764563D01*
X52817780Y-38900000D02*
X74222170Y-38900000D01*
X75172178Y-34460422D02*
X78347600Y-31285000D01*
X78347600Y-31285000D02*
X78500000Y-31285000D01*
X49953217Y-41764563D02*
X52817780Y-38900000D01*
X48696900Y-44500620D02*
X48696900Y-43573100D01*
X75172178Y-37949992D02*
X75172178Y-34460422D01*
X78347600Y-36365000D02*
X78500000Y-36365000D01*
X53530314Y-40566658D02*
X75206160Y-40566658D01*
X50297100Y-44500620D02*
X50297100Y-43799872D01*
X50297100Y-43799872D02*
X53530314Y-40566658D01*
X77331600Y-38441218D02*
X77331600Y-37381000D01*
X77331600Y-37381000D02*
X78347600Y-36365000D01*
X75206160Y-40566658D02*
X77331600Y-38441218D01*
X49898320Y-44500620D02*
X49898320Y-43767586D01*
X75015981Y-40261849D02*
X76775020Y-38502810D01*
X79002282Y-35140000D02*
X80510000Y-36647718D01*
X49898320Y-43767586D02*
X53404057Y-40261849D01*
X76775020Y-36175410D02*
X77810430Y-35140000D01*
X78652400Y-41445000D02*
X78500000Y-41445000D01*
X77810430Y-35140000D02*
X79002282Y-35140000D01*
X76775020Y-38502810D02*
X76775020Y-36175410D01*
X53404057Y-40261849D02*
X75015981Y-40261849D01*
X80510000Y-36647718D02*
X80510000Y-39587400D01*
X80510000Y-39587400D02*
X78652400Y-41445000D01*
X67376277Y-41176277D02*
X53782827Y-41176277D01*
X70575000Y-44375000D02*
X67376277Y-41176277D01*
X53782827Y-41176277D02*
X51097200Y-43861904D01*
X51097200Y-43861904D02*
X51097200Y-44500620D01*
X68300000Y-44400000D02*
X65381087Y-41481087D01*
X53909083Y-41481087D02*
X51498520Y-43891650D01*
X51498520Y-43891650D02*
X51498520Y-44500620D01*
X65381087Y-41481087D02*
X53909083Y-41481087D01*
X75960000Y-43990000D02*
X72841467Y-40871467D01*
X72841467Y-40871467D02*
X53656571Y-40871467D01*
X53656571Y-40871467D02*
X50698420Y-43829618D01*
X50698420Y-43848220D02*
X50698420Y-44500620D01*
X50698420Y-43829618D02*
X50698420Y-43848220D01*
X36248800Y-37377488D02*
X35860539Y-37765749D01*
X35860539Y-38455499D02*
X36555040Y-39150000D01*
X36248800Y-36600500D02*
X36248800Y-37377488D01*
X35860539Y-37765749D02*
X35860539Y-38455499D01*
X49253197Y-40832803D02*
X50770000Y-39316000D01*
X47901880Y-44500620D02*
X47901880Y-43505988D01*
X47901880Y-43505988D02*
X49253197Y-42154671D01*
X50770000Y-39316000D02*
X50770000Y-39268400D01*
X49253197Y-42154671D02*
X49253197Y-40832803D01*
X50770000Y-39268400D02*
X50770000Y-38100000D01*
X48230000Y-39536840D02*
X48903187Y-40210027D01*
X48903187Y-40210027D02*
X48903187Y-42064651D01*
X48230000Y-38100000D02*
X48230000Y-39536840D01*
X48903187Y-42064651D02*
X47500000Y-43467838D01*
X47500000Y-43467838D02*
X47500000Y-44497520D01*
X47500000Y-44497520D02*
X47503100Y-44500620D01*
X36750000Y-37904150D02*
X36555040Y-38099110D01*
X36749180Y-37551070D02*
X36750000Y-37551890D01*
X36750000Y-37551890D02*
X36750000Y-37904150D01*
X36749180Y-37551070D02*
X36749180Y-36600500D01*
X34750200Y-25950200D02*
X33000000Y-24200000D01*
X34750200Y-28599500D02*
X34750200Y-25950200D01*
X29967500Y-24200000D02*
X27851100Y-22083600D01*
X33000000Y-24200000D02*
X29967500Y-24200000D01*
X34750200Y-29549800D02*
X34200000Y-30100000D01*
X34750200Y-28599500D02*
X34750200Y-29549800D01*
X34600000Y-30800000D02*
X33400000Y-30800000D01*
X35250580Y-30149420D02*
X34600000Y-30800000D01*
X35250580Y-25750580D02*
X33200000Y-23700000D01*
X35250580Y-28599500D02*
X35250580Y-25750580D01*
X32007500Y-23700000D02*
X30391100Y-22083600D01*
X33200000Y-23700000D02*
X32007500Y-23700000D01*
X35250580Y-28599500D02*
X35250580Y-30149420D01*
X34400000Y-31600000D02*
X34200000Y-31600000D01*
X35750960Y-30249040D02*
X34400000Y-31600000D01*
X35750960Y-28599500D02*
X35750960Y-30249040D01*
X32931100Y-22731100D02*
X32931100Y-22083600D01*
X35750960Y-25550960D02*
X32931100Y-22731100D01*
X35750960Y-28599500D02*
X35750960Y-25550960D01*
X34500000Y-34000000D02*
X33400000Y-34000000D01*
X37249560Y-31250440D02*
X34500000Y-34000000D01*
X37249560Y-28599500D02*
X37249560Y-31250440D01*
X37249560Y-22845140D02*
X38011100Y-22083600D01*
X37249560Y-28599500D02*
X37249560Y-22845140D01*
X34500000Y-32400000D02*
X33400000Y-32400000D01*
X36248800Y-30651200D02*
X34500000Y-32400000D01*
X36248800Y-28599500D02*
X36248800Y-30651200D01*
X36248800Y-25348800D02*
X34200000Y-23300000D01*
X36248800Y-28599500D02*
X36248800Y-25348800D01*
X32931100Y-19543600D02*
X32931100Y-19568900D01*
X34200000Y-20812500D02*
X32931100Y-19543600D01*
X34200000Y-23300000D02*
X34200000Y-20812500D01*
X34500000Y-33200000D02*
X34200000Y-33200000D01*
X36749180Y-30950820D02*
X34500000Y-33200000D01*
X36749180Y-28599500D02*
X36749180Y-30950820D01*
X35471100Y-19543600D02*
X35456400Y-19543600D01*
X36749180Y-20821680D02*
X35471100Y-19543600D01*
X36749180Y-28599500D02*
X36749180Y-20821680D01*
X34500000Y-34800000D02*
X34200000Y-34800000D01*
X37749940Y-31550060D02*
X34500000Y-34800000D01*
X37749940Y-28599500D02*
X37749940Y-31550060D01*
X39200000Y-20732500D02*
X38011100Y-19543600D01*
X39200000Y-22800000D02*
X39200000Y-20732500D01*
X37749940Y-24250060D02*
X39200000Y-22800000D01*
X37749940Y-28599500D02*
X37749940Y-24250060D01*
X38250320Y-32149680D02*
X35500000Y-34900000D01*
X38250320Y-28599500D02*
X38250320Y-32149680D01*
X38250320Y-24384380D02*
X40551100Y-22083600D01*
X38250320Y-28599500D02*
X38250320Y-24384380D01*
X39251080Y-33348920D02*
X37700000Y-34900000D01*
X39251080Y-28599500D02*
X39251080Y-33348920D01*
X39251080Y-25923620D02*
X43091100Y-22083600D01*
X39251080Y-28599500D02*
X39251080Y-25923620D01*
X40249300Y-34550700D02*
X39900000Y-34900000D01*
X40249300Y-28599500D02*
X40249300Y-34550700D01*
X46254700Y-24000000D02*
X48171100Y-22083600D01*
X42800000Y-24000000D02*
X46254700Y-24000000D01*
X40249300Y-26550700D02*
X42800000Y-24000000D01*
X40249300Y-28599500D02*
X40249300Y-26550700D01*
X41250060Y-34050060D02*
X42100000Y-34900000D01*
X41250060Y-28599500D02*
X41250060Y-34050060D01*
X47994700Y-24800000D02*
X50711100Y-22083600D01*
X43200000Y-24800000D02*
X47994700Y-24800000D01*
X41250060Y-26749940D02*
X43200000Y-24800000D01*
X41250060Y-28599500D02*
X41250060Y-26749940D01*
X42250820Y-28599500D02*
X42250820Y-32850820D01*
X42250820Y-32850820D02*
X44300000Y-34900000D01*
X49734700Y-25600000D02*
X53251100Y-22083600D01*
X43600000Y-25600000D02*
X49734700Y-25600000D01*
X42250820Y-26949180D02*
X43600000Y-25600000D01*
X42250820Y-28599500D02*
X42250820Y-26949180D01*
X38750700Y-32749300D02*
X36600000Y-34900000D01*
X38750700Y-28599500D02*
X38750700Y-32749300D01*
X41800000Y-20834700D02*
X43091100Y-19543600D01*
X41800000Y-22800000D02*
X41800000Y-20834700D01*
X41200000Y-23400000D02*
X41800000Y-22800000D01*
X40200000Y-23400000D02*
X41200000Y-23400000D01*
X38750700Y-24849300D02*
X40200000Y-23400000D01*
X38750700Y-28599500D02*
X38750700Y-24849300D01*
X39748920Y-33951080D02*
X38800000Y-34900000D01*
X39748920Y-28599500D02*
X39748920Y-33951080D01*
X44200000Y-23400000D02*
X44400000Y-23200000D01*
X42800000Y-23400000D02*
X44200000Y-23400000D01*
X39748920Y-26451080D02*
X42800000Y-23400000D01*
X39748920Y-28599500D02*
X39748920Y-26451080D01*
X40749680Y-34649680D02*
X41000000Y-34900000D01*
X40749680Y-28599500D02*
X40749680Y-34649680D01*
X49400000Y-20854700D02*
X50711100Y-19543600D01*
X49400000Y-22800000D02*
X49400000Y-20854700D01*
X47800000Y-24400000D02*
X49400000Y-22800000D01*
X43000000Y-24400000D02*
X47800000Y-24400000D01*
X40749680Y-26650320D02*
X43000000Y-24400000D01*
X40749680Y-28599500D02*
X40749680Y-26650320D01*
X41750440Y-33450440D02*
X43200000Y-34900000D01*
X41750440Y-28599500D02*
X41750440Y-33450440D01*
X53251100Y-19543600D02*
X53251100Y-19548900D01*
X41750440Y-26849560D02*
X41750440Y-28599500D01*
X43400000Y-25200000D02*
X41750440Y-26849560D01*
X49400000Y-25200000D02*
X43400000Y-25200000D01*
X52000000Y-22600000D02*
X49400000Y-25200000D01*
X52000000Y-21000000D02*
X52000000Y-22600000D01*
X53251100Y-19748900D02*
X52000000Y-21000000D01*
X53251100Y-19543600D02*
X53251100Y-19748900D01*
X55791100Y-19543600D02*
X55706400Y-19543600D01*
X55791100Y-19543600D02*
X55791100Y-19791100D01*
X55706400Y-19543600D02*
X54525000Y-20725000D01*
X54525000Y-23985000D02*
X55400000Y-24860000D01*
X54525000Y-20725000D02*
X54525000Y-23985000D01*
X58100000Y-25950000D02*
X58300000Y-25750000D01*
X58100000Y-26738000D02*
X58100000Y-25950000D01*
X59600000Y-26738000D02*
X59600000Y-25750000D01*
X60871100Y-22083600D02*
X60216400Y-22083600D01*
X57000000Y-28340000D02*
X55400000Y-29940000D01*
X57000000Y-25400000D02*
X57000000Y-28340000D01*
X60316400Y-22083600D02*
X57000000Y-25400000D01*
X60871100Y-22083600D02*
X60316400Y-22083600D01*
X45250560Y-28449440D02*
X45250560Y-28599500D01*
X45250560Y-29250560D02*
X46500000Y-30500000D01*
X45250560Y-28599500D02*
X45250560Y-29250560D01*
X66500000Y-29819736D02*
X66500000Y-26400000D01*
X46500000Y-30500000D02*
X47038760Y-31038760D01*
X47038760Y-31038760D02*
X65280976Y-31038760D01*
X65280976Y-31038760D02*
X66500000Y-29819736D01*
X66500000Y-26400000D02*
X63411100Y-23311100D01*
X63411100Y-23311100D02*
X63411100Y-22083600D01*
X44249800Y-30449800D02*
X46500000Y-32700000D01*
X44249800Y-28599500D02*
X44249800Y-30449800D01*
X67500000Y-25000000D02*
X65951100Y-23451100D01*
X67500000Y-29681868D02*
X67500000Y-25000000D01*
X46500000Y-32700000D02*
X47551620Y-31648380D01*
X65533488Y-31648380D02*
X67500000Y-29681868D01*
X65951100Y-23451100D02*
X65951100Y-22083600D01*
X47551620Y-31648380D02*
X65533488Y-31648380D01*
X43249040Y-31649040D02*
X46500000Y-34900000D01*
X43249040Y-28599500D02*
X43249040Y-31649040D01*
X68491100Y-29552900D02*
X68491100Y-22083600D01*
X49317000Y-32258000D02*
X65786000Y-32258000D01*
X46675000Y-34900000D02*
X49317000Y-32258000D01*
X46500000Y-34900000D02*
X46675000Y-34900000D01*
X65786000Y-32258000D02*
X68491100Y-29552900D01*
X44750180Y-29850180D02*
X46500000Y-31600000D01*
X44750180Y-28599500D02*
X44750180Y-29850180D01*
X47128617Y-31600000D02*
X47385047Y-31343570D01*
X67000000Y-25400000D02*
X64700000Y-23100000D01*
X47385047Y-31343570D02*
X65407232Y-31343570D01*
X46500000Y-31600000D02*
X47128617Y-31600000D01*
X65407232Y-31343570D02*
X67000000Y-29750802D01*
X64700000Y-20832500D02*
X63411100Y-19543600D01*
X64700000Y-23100000D02*
X64700000Y-20832500D01*
X67000000Y-29750802D02*
X67000000Y-25400000D01*
X43749420Y-28599500D02*
X43749420Y-31049420D01*
X43749420Y-31049420D02*
X46500000Y-33800000D01*
X68491100Y-19543600D02*
X68491100Y-19608900D01*
X67200000Y-23700000D02*
X67200000Y-20834700D01*
X48346810Y-31953190D02*
X65659744Y-31953190D01*
X68000000Y-24500000D02*
X67200000Y-23700000D01*
X65659744Y-31953190D02*
X68000000Y-29612934D01*
X68000000Y-29612934D02*
X68000000Y-24500000D01*
X67200000Y-20834700D02*
X68491100Y-19543600D01*
X46500000Y-33800000D02*
X48346810Y-31953190D01*
X35250580Y-36600500D02*
X35250580Y-37366358D01*
X35250580Y-37366358D02*
X35099990Y-37516948D01*
X35099990Y-37516948D02*
X35099990Y-38125010D01*
X35099990Y-38125010D02*
X34000000Y-39225000D01*
X34000000Y-39225000D02*
X34000000Y-40730000D01*
X42245680Y-50698220D02*
X42898080Y-50698220D01*
X36614567Y-50698220D02*
X42245680Y-50698220D01*
X35866404Y-51446383D02*
X36614567Y-50698220D01*
X35866404Y-52075000D02*
X35866404Y-51446383D01*
X32784000Y-43270000D02*
X34000000Y-43270000D01*
X32320000Y-39987020D02*
X32320000Y-42806000D01*
X32320000Y-42806000D02*
X32784000Y-43270000D01*
X34749980Y-37557040D02*
X32320000Y-39987020D01*
X34749980Y-36600720D02*
X34749980Y-37557040D01*
X34750200Y-36600500D02*
X34749980Y-36600720D01*
X42245680Y-51097000D02*
X42898080Y-51097000D01*
X40215523Y-51097000D02*
X42245680Y-51097000D01*
X35858752Y-53119451D02*
X36539505Y-52438698D01*
X36539505Y-52438698D02*
X36539505Y-51321233D01*
X36539505Y-51321233D02*
X36755928Y-51104810D01*
X40207714Y-51104809D02*
X40215523Y-51097000D01*
X36755928Y-51104810D02*
X40207714Y-51104809D01*
X26330000Y-65440000D02*
X24104020Y-65440000D01*
X24104020Y-65440000D02*
X24054020Y-65390000D01*
X21955980Y-65390000D02*
X20467000Y-65390000D01*
X26330000Y-62900000D02*
X24064020Y-62900000D01*
X24064020Y-62900000D02*
X24054020Y-62890000D01*
X21955980Y-62890000D02*
X20467000Y-62890000D01*
X26330000Y-60360000D02*
X24084020Y-60360000D01*
X24084020Y-60360000D02*
X24054020Y-60390000D01*
X21955980Y-60390000D02*
X20467000Y-60390000D01*
X56104782Y-45958439D02*
X58225747Y-45958439D01*
X53301920Y-47899140D02*
X54164081Y-47899140D01*
X58225747Y-45958439D02*
X58670246Y-46402938D01*
X54164081Y-47899140D02*
X56104782Y-45958439D01*
X58670246Y-46402938D02*
X59612908Y-47345600D01*
X59612908Y-47345600D02*
X65989200Y-47345600D01*
X35750960Y-36600500D02*
X35750960Y-37380340D01*
X35475000Y-37656300D02*
X35475000Y-39175000D01*
X35750960Y-37380340D02*
X35475000Y-37656300D01*
X42751200Y-32251200D02*
X45400000Y-34900000D01*
X42751200Y-28599500D02*
X42751200Y-32251200D01*
X54000000Y-26000000D02*
X55400000Y-27400000D01*
X43800000Y-26000000D02*
X54000000Y-26000000D01*
X42751200Y-27048800D02*
X43800000Y-26000000D01*
X42751200Y-28599500D02*
X42751200Y-27048800D01*
X61100000Y-26000000D02*
X60850000Y-25750000D01*
X61100000Y-26738000D02*
X61100000Y-26000000D01*
X28570980Y-52960000D02*
X26782000Y-52960000D01*
X41890796Y-67550796D02*
X41811195Y-67471195D01*
X41811195Y-67471195D02*
X28723993Y-67471195D01*
X28723993Y-67471195D02*
X27600000Y-66347202D01*
X27600000Y-66347202D02*
X27600000Y-64170000D01*
X27600000Y-64170000D02*
X28870000Y-62900000D01*
X40198180Y-71710040D02*
X40198180Y-71169590D01*
X40198180Y-71169590D02*
X41890796Y-69476974D01*
X41890796Y-69476974D02*
X41890796Y-67550796D01*
X41890796Y-67550796D02*
X41890796Y-65467260D01*
X51667497Y-58650000D02*
X52021911Y-58295586D01*
X50797256Y-58650000D02*
X51667497Y-58650000D01*
X48696900Y-56549644D02*
X50797256Y-58650000D01*
X48696900Y-54901920D02*
X48696900Y-56549644D01*
X49098220Y-54901920D02*
X49098220Y-56398220D01*
X49098220Y-56398220D02*
X50626290Y-57926290D01*
X50626290Y-57926290D02*
X51025481Y-57926290D01*
X48999280Y-71428100D02*
X48999280Y-69751627D01*
X48999280Y-69751627D02*
X48999280Y-63674030D01*
X48999280Y-71710040D02*
X48999280Y-69751627D01*
X34616866Y-66861576D02*
X38013857Y-66861576D01*
X28870000Y-60360000D02*
X29733599Y-61223599D01*
X29733599Y-61223599D02*
X29733599Y-61978309D01*
X29733599Y-61978309D02*
X34616866Y-66861576D01*
X38013857Y-66861576D02*
X39977179Y-64898254D01*
X48999280Y-63674030D02*
X48343273Y-63018023D01*
X42598480Y-58456606D02*
X42525859Y-58383985D01*
X43923993Y-55933027D02*
X43529868Y-55933027D01*
X42598480Y-59642500D02*
X42598480Y-58456606D01*
X44302700Y-55554320D02*
X43923993Y-55933027D01*
X44302700Y-54901920D02*
X44302700Y-55554320D01*
X45250560Y-36600500D02*
X45250560Y-35999790D01*
X45552820Y-35697530D02*
X46130720Y-35697530D01*
X46130720Y-35697530D02*
X47163663Y-36730473D01*
X45250560Y-35999790D02*
X45552820Y-35697530D01*
X44701480Y-56287139D02*
X43898617Y-57090002D01*
X44701480Y-54901920D02*
X44701480Y-56287139D01*
X43898617Y-57090002D02*
X43270000Y-57090002D01*
X41798380Y-59642500D02*
X41798380Y-57269367D01*
X41798380Y-57269367D02*
X41148000Y-56618987D01*
X44750180Y-36600500D02*
X44750180Y-37328048D01*
X44750180Y-37328048D02*
X45001803Y-37579671D01*
X45001803Y-37579671D02*
X45597538Y-37579671D01*
X45597538Y-37579671D02*
X46011873Y-37165336D01*
X46011873Y-37165336D02*
X46217390Y-37165336D01*
X38750700Y-36600500D02*
X38750700Y-40049338D01*
X38750700Y-40049338D02*
X38150019Y-40650019D01*
X42898080Y-47901680D02*
X37550106Y-47901680D01*
X37550106Y-47901680D02*
X37278325Y-47629899D01*
X42245680Y-52298420D02*
X42898080Y-52298420D01*
X41025523Y-51752299D02*
X41699559Y-51752299D01*
X41699559Y-51752299D02*
X42245680Y-52298420D01*
X37517434Y-52739748D02*
X40038074Y-52739748D01*
X40038074Y-52739748D02*
X41025523Y-51752299D01*
X36849981Y-40472869D02*
X36849981Y-41199981D01*
X37749940Y-36600500D02*
X37749940Y-39572910D01*
X36849981Y-41199981D02*
X36749981Y-41299981D01*
X37749940Y-39572910D02*
X36849981Y-40472869D01*
X46703000Y-56646039D02*
X45593120Y-57755919D01*
X46703000Y-54901920D02*
X46703000Y-56646039D01*
X45593120Y-57755919D02*
X45593120Y-58059136D01*
X40998280Y-58323445D02*
X41125260Y-58196465D01*
X40998280Y-59642500D02*
X40998280Y-58323445D01*
X44249800Y-36600500D02*
X44249800Y-37378734D01*
X44249800Y-37378734D02*
X45049440Y-38178374D01*
X45049440Y-38178374D02*
X45347351Y-38178374D01*
X45347351Y-38178374D02*
X45975968Y-38178374D01*
X47032061Y-57305404D02*
X46587562Y-57749903D01*
X47101780Y-54901920D02*
X47101780Y-57235685D01*
X47101780Y-57235685D02*
X47032061Y-57305404D01*
X43749420Y-36600500D02*
X43749420Y-37333564D01*
X43749420Y-37333564D02*
X44820516Y-38404660D01*
X44820516Y-38494850D02*
X45265015Y-38939349D01*
X44820516Y-38404660D02*
X44820516Y-38494850D01*
X47503100Y-58258822D02*
X47486871Y-58275051D01*
X47503100Y-54901920D02*
X47503100Y-58258822D01*
X43249040Y-37551070D02*
X44212117Y-38514147D01*
X43249040Y-36600500D02*
X43249040Y-37551070D01*
X44212117Y-38514147D02*
X44212117Y-38792451D01*
X35500652Y-64727906D02*
X36564936Y-64727906D01*
X47399080Y-67362483D02*
X47399080Y-70807640D01*
X47399080Y-70807640D02*
X47399080Y-71710040D01*
X42898080Y-49501880D02*
X35000885Y-49501880D01*
X34138860Y-63366114D02*
X35500652Y-64727906D01*
X39083591Y-62209251D02*
X42245848Y-62209251D01*
X34138860Y-50363905D02*
X34138860Y-63366114D01*
X36564936Y-64727906D02*
X39083591Y-62209251D01*
X42245848Y-62209251D02*
X47399080Y-67362483D01*
X35000885Y-49501880D02*
X34138860Y-50363905D01*
X42390826Y-61859241D02*
X39002535Y-61859241D01*
X35035711Y-49898120D02*
X42245680Y-49898120D01*
X48199180Y-71710040D02*
X48199180Y-67667595D01*
X48199180Y-67667595D02*
X42390826Y-61859241D01*
X36438680Y-64423096D02*
X35726906Y-64423096D01*
X35726906Y-64423096D02*
X34443670Y-63139860D01*
X34443670Y-50490161D02*
X35035711Y-49898120D01*
X34443670Y-63139860D02*
X34443670Y-50490161D01*
X42245680Y-49898120D02*
X42898080Y-49898120D01*
X39002535Y-61859241D02*
X36438680Y-64423096D01*
X48199180Y-61684472D02*
X46952692Y-62930960D01*
X46952692Y-63313144D02*
X46508193Y-63757643D01*
X46952692Y-62930960D02*
X46952692Y-63313144D01*
X48199180Y-59921900D02*
X48199180Y-61684472D01*
X35060000Y-59600000D02*
X35116790Y-59600000D01*
X34760000Y-50604895D02*
X34760000Y-59300000D01*
X34760000Y-59300000D02*
X35060000Y-59600000D01*
X35067995Y-50296900D02*
X34760000Y-50604895D01*
X42898080Y-50296900D02*
X35067995Y-50296900D01*
X47317187Y-61539061D02*
X47317187Y-59724393D01*
X47317187Y-59724393D02*
X47399080Y-59642500D01*
X36844315Y-53076495D02*
X36396525Y-53524285D01*
X36844315Y-51447489D02*
X36844315Y-53076495D01*
X42847249Y-51447489D02*
X36844315Y-51447489D01*
X42898080Y-51498320D02*
X42847249Y-51447489D01*
X36396525Y-54520473D02*
X36133499Y-54783499D01*
X36396525Y-53524285D02*
X36396525Y-54520473D01*
X39251080Y-40918951D02*
X39260693Y-40928564D01*
X39251080Y-36600500D02*
X39251080Y-40918951D01*
X42898080Y-47502900D02*
X38421181Y-47502900D01*
X37984741Y-47066460D02*
X37540242Y-46621961D01*
X38421181Y-47502900D02*
X37984741Y-47066460D01*
X37069626Y-53847374D02*
X37476618Y-53440382D01*
X42245680Y-53098520D02*
X42898080Y-53098520D01*
X37476618Y-53440382D02*
X40968552Y-53440382D01*
X40968552Y-53440382D02*
X41308934Y-53100000D01*
X41308934Y-53100000D02*
X42244200Y-53100000D01*
X42244200Y-53100000D02*
X42245680Y-53098520D01*
X37249560Y-36600500D02*
X37249560Y-39578302D01*
X37249560Y-39578302D02*
X36515599Y-40312263D01*
X36515599Y-40312263D02*
X36165760Y-40312263D01*
X42898080Y-53497300D02*
X41342700Y-53497300D01*
X41342700Y-53497300D02*
X41094808Y-53745192D01*
X41094808Y-53745192D02*
X38123742Y-53745192D01*
X38123742Y-53745192D02*
X36000520Y-55868414D01*
X36000520Y-55868414D02*
X36000520Y-56271383D01*
X36000520Y-56271383D02*
X36000520Y-56900000D01*
X46598980Y-60536183D02*
X46598980Y-59642500D01*
X46598980Y-60536183D02*
X46598980Y-62255185D01*
X46598980Y-62255185D02*
X46526056Y-62328109D01*
X36790000Y-57960000D02*
X36790000Y-55515288D01*
X36790000Y-55515288D02*
X38155208Y-54150080D01*
X38155208Y-54150080D02*
X41189920Y-54150080D01*
X41189920Y-54150080D02*
X41441380Y-53898620D01*
X41441380Y-53898620D02*
X42898080Y-53898620D01*
X45798880Y-60553810D02*
X45798880Y-59642500D01*
X45798880Y-60553810D02*
X45798880Y-61076120D01*
X45798880Y-61076120D02*
X44525000Y-62350000D01*
X42536487Y-57442677D02*
X42536487Y-55613513D01*
X43649920Y-54901920D02*
X43901380Y-54901920D01*
X43398580Y-58304770D02*
X42536487Y-57442677D01*
X43398580Y-59642500D02*
X43398580Y-58304770D01*
X42536487Y-55613513D02*
X43248080Y-54901920D01*
X43248080Y-54901920D02*
X43649920Y-54901920D01*
X52999780Y-58284044D02*
X51968925Y-57253189D01*
X51968925Y-57253189D02*
X50384255Y-57253189D01*
X49497000Y-55554320D02*
X49497000Y-54901920D01*
X52999780Y-59921900D02*
X52999780Y-58284044D01*
X50384255Y-57253189D02*
X49497000Y-56365934D01*
X49497000Y-56365934D02*
X49497000Y-55554320D01*
X50510511Y-56948379D02*
X52095181Y-56948379D01*
X53437931Y-65382117D02*
X49799380Y-69020668D01*
X49898320Y-56336188D02*
X50510511Y-56948379D01*
X52095181Y-56948379D02*
X53437931Y-58291129D01*
X53437931Y-58291129D02*
X53437931Y-65382117D01*
X49799380Y-69020668D02*
X49799380Y-70582215D01*
X49898320Y-54901920D02*
X49898320Y-56336188D01*
X49799380Y-70582215D02*
X49799380Y-71428100D01*
X49799380Y-70582215D02*
X49799380Y-71710040D01*
X50599480Y-68715556D02*
X53742741Y-65572295D01*
X52221437Y-56643569D02*
X50636767Y-56643569D01*
X50599480Y-70126578D02*
X50599480Y-68715556D01*
X50297100Y-56303902D02*
X50297100Y-55554320D01*
X50636767Y-56643569D02*
X50297100Y-56303902D01*
X53742741Y-65572295D02*
X53742741Y-58164873D01*
X53742741Y-58164873D02*
X52221437Y-56643569D01*
X50297100Y-55554320D02*
X50297100Y-54901920D01*
X50599480Y-70126578D02*
X50599480Y-71428100D01*
X50599480Y-70126578D02*
X50599480Y-71710040D01*
X51498520Y-55469586D02*
X51498520Y-54901920D01*
X54047551Y-58018617D02*
X51498520Y-55469586D01*
X54047551Y-65762473D02*
X54047551Y-58018617D01*
X51399580Y-68410444D02*
X54047551Y-65762473D01*
X51399580Y-70192030D02*
X51399580Y-68410444D01*
X51399580Y-70192030D02*
X51399580Y-71428100D01*
X51399580Y-70192030D02*
X51399580Y-71710040D01*
X52199680Y-68105332D02*
X52199680Y-70097583D01*
X51890000Y-55430000D02*
X54352360Y-57892360D01*
X51890000Y-54909220D02*
X51890000Y-55430000D01*
X51897300Y-54901920D02*
X51890000Y-54909220D01*
X54352360Y-65952652D02*
X52199680Y-68105332D01*
X54352360Y-57892360D02*
X54352360Y-65952652D01*
X52199680Y-71428100D02*
X52199680Y-70097583D01*
X52199680Y-70097583D02*
X52199680Y-71710040D01*
X52999780Y-71710040D02*
X52999780Y-67790220D01*
X54657170Y-66132830D02*
X54657170Y-57747170D01*
X52999780Y-67790220D02*
X54657170Y-66132830D01*
X54657170Y-57747170D02*
X52298620Y-55388620D01*
X52298620Y-55388620D02*
X52298620Y-54901920D01*
X55330290Y-57738054D02*
X53301920Y-55709684D01*
X53301920Y-55709684D02*
X53301920Y-53896080D01*
X52200000Y-61300000D02*
X52200000Y-59922220D01*
X52200000Y-59922220D02*
X52199680Y-59921900D01*
X53954320Y-53494760D02*
X53301920Y-53494760D01*
X54030521Y-53570961D02*
X53954320Y-53494760D01*
X55398132Y-56698855D02*
X54030521Y-55331244D01*
X54030521Y-55331244D02*
X54030521Y-53570961D01*
X51399580Y-62043060D02*
X51400000Y-62043480D01*
X51399580Y-59921900D02*
X51399580Y-62043060D01*
X55170349Y-51094460D02*
X55615501Y-51539612D01*
X53301920Y-51094460D02*
X55170349Y-51094460D01*
X55615501Y-51539612D02*
X56060000Y-51984111D01*
X39748920Y-40110519D02*
X40262778Y-40624377D01*
X39748920Y-36600500D02*
X39748920Y-40110519D01*
X56136429Y-50695680D02*
X56465738Y-51024989D01*
X53301920Y-50695680D02*
X56136429Y-50695680D01*
X50609575Y-61291063D02*
X50609575Y-59931995D01*
X50609575Y-59931995D02*
X50599480Y-59921900D01*
X53301920Y-50294360D02*
X55984618Y-50294360D01*
X55984618Y-50294360D02*
X56278415Y-50000563D01*
X49800000Y-62050000D02*
X49800000Y-59922520D01*
X49800000Y-59922520D02*
X49799380Y-59921900D01*
X53301920Y-49895580D02*
X55387208Y-49895580D01*
X55387208Y-49895580D02*
X55955326Y-49327462D01*
X56476355Y-49327462D02*
X56737846Y-49065971D01*
X55955326Y-49327462D02*
X56476355Y-49327462D01*
X37797880Y-60856672D02*
X37797880Y-61352120D01*
X37797880Y-59921900D02*
X37797880Y-60856672D01*
X37797880Y-60856672D02*
X37797880Y-59642500D01*
X37797880Y-61352120D02*
X37150000Y-62000000D01*
X54853269Y-49499340D02*
X55146916Y-49205693D01*
X55146916Y-49205693D02*
X55591415Y-48761194D01*
X53301920Y-49499340D02*
X54853269Y-49499340D01*
X36997780Y-59921900D02*
X36997780Y-60538084D01*
X36997780Y-60538084D02*
X36997780Y-59642500D01*
X36997780Y-60538084D02*
X35950000Y-61585864D01*
X35950000Y-61585864D02*
X35950000Y-61731383D01*
X35950000Y-61731383D02*
X35950000Y-62360000D01*
X53301920Y-49100560D02*
X54255859Y-49100560D01*
X55268326Y-48088093D02*
X56483384Y-48088093D01*
X56483384Y-48088093D02*
X56764214Y-47807263D01*
X54255859Y-49100560D02*
X55268326Y-48088093D01*
X56764214Y-47807263D02*
X57392831Y-47807263D01*
X35276899Y-62676899D02*
X35605501Y-63005501D01*
X36197680Y-60182250D02*
X35276899Y-61103031D01*
X35276899Y-61103031D02*
X35276899Y-62676899D01*
X35605501Y-63005501D02*
X36050000Y-63450000D01*
X56220690Y-47783283D02*
X55142070Y-47783283D01*
X54226113Y-48699240D02*
X53954320Y-48699240D01*
X57276112Y-46727861D02*
X56220690Y-47783283D01*
X55142070Y-47783283D02*
X54226113Y-48699240D01*
X53954320Y-48699240D02*
X53301920Y-48699240D01*
X36197680Y-71428100D02*
X36197680Y-70812217D01*
X36197680Y-70812217D02*
X36197680Y-68830540D01*
X36197680Y-71707500D02*
X36197680Y-70812217D01*
X36197680Y-68830540D02*
X35511454Y-68144314D01*
X53301920Y-48300460D02*
X54193827Y-48300460D01*
X54193827Y-48300460D02*
X55494287Y-47000000D01*
X55494287Y-47000000D02*
X56052037Y-47000000D01*
X56052037Y-47000000D02*
X56056456Y-46995581D01*
X40749680Y-36600500D02*
X40749680Y-39024680D01*
X40749680Y-39024680D02*
X41350000Y-39625000D01*
X53908602Y-45902700D02*
X54030521Y-45780781D01*
X53146980Y-45902700D02*
X53908602Y-45902700D01*
X54030521Y-44692840D02*
X53711600Y-44373919D01*
X53711600Y-44373919D02*
X53711600Y-43727741D01*
X53711600Y-43727741D02*
X54713079Y-42726262D01*
X54713079Y-42726262D02*
X58918196Y-42726262D01*
X58918196Y-42726262D02*
X59827591Y-43635657D01*
X59827591Y-43635657D02*
X60272090Y-44080156D01*
X54030521Y-45780781D02*
X54030521Y-44692840D01*
X36997780Y-71428100D02*
X36997780Y-70267557D01*
X36997780Y-70267557D02*
X36997780Y-69552220D01*
X36997780Y-71710040D02*
X36997780Y-70267557D01*
X36997780Y-69552220D02*
X37455501Y-69094499D01*
X37455501Y-69094499D02*
X37900000Y-68650000D01*
X53146980Y-43861295D02*
X54612763Y-42395512D01*
X54612763Y-42395512D02*
X59802058Y-42395512D01*
X61300000Y-43893454D02*
X61300000Y-44522071D01*
X53146980Y-45501380D02*
X53146980Y-43861295D01*
X59802058Y-42395512D02*
X61300000Y-43893454D01*
X37797880Y-70895673D02*
X37797880Y-70002120D01*
X37797880Y-71428100D02*
X37797880Y-70895673D01*
X37797880Y-70895673D02*
X37797880Y-71710040D01*
X37797880Y-70002120D02*
X37800000Y-70000000D01*
X62698900Y-44522071D02*
X60267531Y-42090702D01*
X60267531Y-42090702D02*
X54307598Y-42090702D01*
X52298620Y-44099680D02*
X52298620Y-44500620D01*
X54307598Y-42090702D02*
X52298620Y-44099680D01*
X38597980Y-70943990D02*
X38597980Y-70302020D01*
X38597980Y-71428100D02*
X38597980Y-70943990D01*
X38597980Y-70943990D02*
X38597980Y-71710040D01*
X39405501Y-69494499D02*
X39850000Y-69050000D01*
X38597980Y-70302020D02*
X39405501Y-69494499D01*
X39943674Y-70240474D02*
X39943674Y-70623996D01*
X39943674Y-70623996D02*
X39398080Y-71169590D01*
X39398080Y-71169590D02*
X39398080Y-71710040D01*
X61138826Y-41785897D02*
X54035339Y-41785897D01*
X63875000Y-44522071D02*
X61138826Y-41785897D01*
X54035339Y-41785897D02*
X51897300Y-43923936D01*
X51897300Y-43923936D02*
X51897300Y-44500620D01*
X55463120Y-52513514D02*
X55018621Y-52069015D01*
X55606837Y-52657231D02*
X55463120Y-52513514D01*
X65989200Y-49885600D02*
X60622268Y-49885600D01*
X60622268Y-49885600D02*
X57850637Y-52657231D01*
X57850637Y-52657231D02*
X55606837Y-52657231D01*
X54574122Y-51624516D02*
X55018621Y-52069015D01*
X54445386Y-51495780D02*
X54574122Y-51624516D01*
X53301920Y-51495780D02*
X54445386Y-51495780D01*
X37237350Y-40787197D02*
X38167448Y-41717295D01*
X38250320Y-36600500D02*
X38250320Y-39567518D01*
X38250320Y-39567518D02*
X37237350Y-40580488D01*
X38167448Y-41717295D02*
X38167448Y-42956467D01*
X37237350Y-40580488D02*
X37237350Y-40787197D01*
X78347600Y-54135000D02*
X78500000Y-54135000D01*
X69822600Y-45610000D02*
X78347600Y-54135000D01*
X53954320Y-47500360D02*
X55844680Y-45610000D01*
X53301920Y-47500360D02*
X53954320Y-47500360D01*
X55844680Y-45610000D02*
X69822600Y-45610000D01*
X66772600Y-52720000D02*
X78347600Y-64295000D01*
X58650000Y-52720000D02*
X66772600Y-52720000D01*
X58103149Y-53266851D02*
X58650000Y-52720000D01*
X54197404Y-52694660D02*
X54769595Y-53266851D01*
X78347600Y-64295000D02*
X78500000Y-64295000D01*
X54769595Y-53266851D02*
X58103149Y-53266851D01*
X53301920Y-52694660D02*
X54197404Y-52694660D01*
X74487791Y-45195191D02*
X78347600Y-49055000D01*
X54320814Y-46702800D02*
X55828423Y-45195191D01*
X53146980Y-46702800D02*
X54320814Y-46702800D01*
X78347600Y-49055000D02*
X78500000Y-49055000D01*
X55828423Y-45195191D02*
X74487791Y-45195191D01*
X78347600Y-59215000D02*
X78500000Y-59215000D01*
X71132600Y-52000000D02*
X78347600Y-59215000D01*
X58938934Y-52000000D02*
X71132600Y-52000000D01*
X57976893Y-52962041D02*
X58938934Y-52000000D01*
X54895851Y-52962041D02*
X57976893Y-52962041D01*
X53828370Y-51894560D02*
X54895851Y-52962041D01*
X53301920Y-51894560D02*
X53828370Y-51894560D01*
X33748940Y-28600000D02*
X33749440Y-28599500D01*
X34249820Y-28599500D02*
X34249820Y-27549820D01*
X34249820Y-27549820D02*
X33749440Y-27049440D01*
X33749440Y-28599500D02*
X33749440Y-26049440D01*
X33749440Y-26049440D02*
X33700000Y-26000000D01*
X34249820Y-27549820D02*
X33749440Y-27049440D01*
X33749440Y-27049440D02*
X33749440Y-26049440D01*
X33749440Y-26049440D02*
X33700000Y-26000000D01*
X33749440Y-28599500D02*
X33749440Y-27049440D01*
X33400000Y-25600000D02*
X32162000Y-25600000D01*
X33700000Y-25900000D02*
X33400000Y-25600000D01*
X33700000Y-26000000D02*
X33700000Y-25900000D01*
D38*
X28202500Y-36737498D02*
X28189998Y-36750000D01*
X28202500Y-35150000D02*
X28202500Y-36737498D01*
X28202500Y-35150000D02*
X28202500Y-31652360D01*
X28202500Y-31652360D02*
X25350140Y-28800000D01*
X25950000Y-29399860D02*
X25350140Y-28800000D01*
D39*
X47221661Y-41193799D02*
X47221661Y-40789586D01*
X47594501Y-42511205D02*
X47594501Y-41566639D01*
X46703000Y-44500620D02*
X46703000Y-43402706D01*
X47221661Y-40789586D02*
X47221661Y-40160969D01*
X47594501Y-41566639D02*
X47221661Y-41193799D01*
X46703000Y-43402706D02*
X47594501Y-42511205D01*
X53105000Y-36000000D02*
X53855000Y-36750000D01*
X51449020Y-36000000D02*
X53105000Y-36000000D01*
X41750440Y-38527590D02*
X41750440Y-36600500D01*
X46960541Y-40422089D02*
X43644939Y-40422089D01*
X43644939Y-40422089D02*
X41750440Y-38527590D01*
X47221661Y-40160969D02*
X46960541Y-40422089D01*
X56395000Y-36750000D02*
X58438000Y-36750000D01*
X58350000Y-36750000D02*
X58438000Y-36750000D01*
X58438000Y-34200000D02*
X56395000Y-34200000D01*
X45102800Y-44500620D02*
X45102800Y-42393390D01*
X45673101Y-41823089D02*
X45102800Y-42393390D01*
X43454761Y-40726899D02*
X45223089Y-40726899D01*
X45223089Y-40726899D02*
X45673101Y-41176911D01*
X41250060Y-36600500D02*
X41250060Y-38522198D01*
X41250060Y-38522198D02*
X43454761Y-40726899D01*
X45673101Y-41176911D02*
X45673101Y-41823089D01*
X45102800Y-42393390D02*
X45111678Y-42393390D01*
X45111678Y-42393390D02*
X45657183Y-41847885D01*
X45657183Y-41847885D02*
X46101682Y-41403386D01*
X48298120Y-56581930D02*
X48298120Y-54901920D01*
X47560000Y-64780000D02*
X47561501Y-64778499D01*
X47561501Y-64778499D02*
X47561501Y-62817597D01*
X47561501Y-62817597D02*
X48999280Y-61379818D01*
X48999280Y-61379818D02*
X48999280Y-60530307D01*
X40404897Y-65911767D02*
X40849396Y-65467268D01*
X39150279Y-67166385D02*
X40404897Y-65911767D01*
X29886000Y-65440000D02*
X31612385Y-67166385D01*
X28870000Y-65440000D02*
X29886000Y-65440000D01*
X31612385Y-67166385D02*
X39150279Y-67166385D01*
X48999280Y-59642500D02*
X48999280Y-58740100D01*
X48999280Y-58740100D02*
X49000000Y-58739380D01*
X49000000Y-58739380D02*
X49000000Y-57283810D01*
X48999280Y-60530307D02*
X48999280Y-59642500D01*
X48999280Y-60530307D02*
X49000000Y-60529587D01*
X49000000Y-57283810D02*
X48298120Y-56581930D01*
X28550980Y-47800000D02*
X26750000Y-47800000D01*
X26750000Y-50850000D02*
X28500980Y-50850000D01*
X43901380Y-44500620D02*
X43299380Y-44500620D01*
X43299380Y-44500620D02*
X43200000Y-44600000D01*
X31420860Y-52960000D02*
X30669020Y-52960000D01*
X31528917Y-52851943D02*
X31420860Y-52960000D01*
X36685301Y-44800000D02*
X31528917Y-49956384D01*
X42371383Y-44800000D02*
X36685301Y-44800000D01*
X42571383Y-44600000D02*
X42371383Y-44800000D01*
X43200000Y-44600000D02*
X42571383Y-44600000D01*
X29310000Y-56560000D02*
X31528917Y-54341083D01*
X28310000Y-56560000D02*
X29310000Y-56560000D01*
X31528917Y-52554588D02*
X31528917Y-52851943D01*
X31528917Y-54341083D02*
X31528917Y-52554588D01*
X31528917Y-49956384D02*
X31528917Y-52554588D01*
X49720500Y-34200000D02*
X50238000Y-34200000D01*
X49350980Y-34569520D02*
X49720500Y-34200000D01*
X49350980Y-36000000D02*
X49350980Y-34569520D01*
X40198180Y-59642500D02*
X40198180Y-58740100D01*
X40198180Y-58740100D02*
X40108181Y-58650101D01*
X40108181Y-58650101D02*
X39586731Y-58650101D01*
X39586731Y-58650101D02*
X39520000Y-58583370D01*
X39520000Y-58583370D02*
X39520000Y-56834500D01*
X39520000Y-56834500D02*
X39135500Y-56450000D01*
X39135500Y-56450000D02*
X38618000Y-56450000D01*
X37850000Y-58354070D02*
X37850000Y-55348100D01*
X37850000Y-55348100D02*
X38148100Y-55050000D01*
X38148100Y-55050000D02*
X38618000Y-55050000D01*
X38597980Y-59642500D02*
X38597980Y-59102050D01*
X38597980Y-59102050D02*
X37850000Y-58354070D01*
X39398080Y-59642500D02*
X39398080Y-59102050D01*
X39398080Y-59102050D02*
X39087900Y-58791870D01*
X38618000Y-58104000D02*
X38618000Y-57850000D01*
X39087900Y-58791870D02*
X39087900Y-58573900D01*
X39087900Y-58573900D02*
X38618000Y-58104000D01*
X42646620Y-45249920D02*
X42898080Y-45501380D01*
X36666447Y-45249920D02*
X42646620Y-45249920D01*
X32310000Y-64123650D02*
X32310000Y-49606367D01*
X37322472Y-66556766D02*
X34743117Y-66556767D01*
X41644877Y-64225134D02*
X39654104Y-64225134D01*
X42600000Y-65180257D02*
X41644877Y-64225134D01*
X40998280Y-70805800D02*
X42600000Y-69204080D01*
X39654104Y-64225134D02*
X37322472Y-66556766D01*
X34743117Y-66556767D02*
X32310000Y-64123650D01*
X42600000Y-69204080D02*
X42600000Y-65180257D01*
X40998280Y-71710040D02*
X40998280Y-70805800D01*
X32310000Y-49606367D02*
X36666447Y-45249920D01*
X32614810Y-49732623D02*
X32614810Y-63997394D01*
X34869372Y-66251956D02*
X37196216Y-66251956D01*
X42904810Y-65054001D02*
X42904809Y-69701211D01*
X37196216Y-66251956D02*
X39527848Y-63920324D01*
X41798380Y-70807640D02*
X41798380Y-71710040D01*
X32614810Y-63997394D02*
X34869372Y-66251956D01*
X41987011Y-45644031D02*
X36703402Y-45644031D01*
X42898080Y-45902700D02*
X42245680Y-45902700D01*
X36703402Y-45644031D02*
X32614810Y-49732623D01*
X39527848Y-63920324D02*
X41771133Y-63920324D01*
X41771133Y-63920324D02*
X42904810Y-65054001D01*
X42904809Y-69701211D02*
X41798380Y-70807640D01*
X42245680Y-45902700D02*
X41987011Y-45644031D01*
X41831083Y-45948841D02*
X36829658Y-45948841D01*
X32919620Y-49858879D02*
X32919620Y-63871138D01*
X32919620Y-63871138D02*
X34995628Y-65947146D01*
X41897390Y-63615515D02*
X43209619Y-64927744D01*
X42598480Y-70807640D02*
X42598480Y-71710040D01*
X37069960Y-65947146D02*
X39401592Y-63615514D01*
X43209619Y-64927744D02*
X43209619Y-70196501D01*
X43209619Y-70196501D02*
X42598480Y-70807640D01*
X34995628Y-65947146D02*
X37069960Y-65947146D01*
X36829658Y-45948841D02*
X32919620Y-49858879D01*
X39401592Y-63615514D02*
X41897390Y-63615515D01*
X42898080Y-46301480D02*
X42183722Y-46301480D01*
X42183722Y-46301480D02*
X41831083Y-45948841D01*
X33224430Y-63744882D02*
X35121884Y-65642336D01*
X43398580Y-70807640D02*
X43398580Y-71710040D01*
X42004173Y-63291232D02*
X43514429Y-64801488D01*
X33224430Y-49985137D02*
X33224430Y-63744882D01*
X39294809Y-63291231D02*
X42004173Y-63291232D01*
X42898080Y-48303000D02*
X34906567Y-48303000D01*
X43514429Y-64801488D02*
X43514428Y-70691792D01*
X34906567Y-48303000D02*
X33224430Y-49985137D01*
X36943704Y-65642336D02*
X39294809Y-63291231D01*
X43514428Y-70691792D02*
X43398580Y-70807640D01*
X35121884Y-65642336D02*
X36943704Y-65642336D01*
X35248140Y-65337526D02*
X33529240Y-63618626D01*
X45798880Y-71710040D02*
X45798880Y-66654870D01*
X42245680Y-48701780D02*
X42898080Y-48701780D01*
X33529240Y-63618626D02*
X33529240Y-50111393D01*
X45798880Y-66654870D02*
X42053282Y-62909272D01*
X42053282Y-62909272D02*
X39245702Y-62909272D01*
X39245702Y-62909272D02*
X36817448Y-65337526D01*
X36817448Y-65337526D02*
X35248140Y-65337526D01*
X33529240Y-50111393D02*
X34938853Y-48701780D01*
X34938853Y-48701780D02*
X42245680Y-48701780D01*
X46598980Y-67023904D02*
X42179538Y-62604462D01*
X34968599Y-49103100D02*
X42245680Y-49103100D01*
X46598980Y-71710040D02*
X46598980Y-67023904D01*
X39119445Y-62604463D02*
X36691192Y-65032716D01*
X36691192Y-65032716D02*
X35374396Y-65032716D01*
X35374396Y-65032716D02*
X33834050Y-63492370D01*
X33834050Y-63492370D02*
X33834050Y-50237649D01*
X42179538Y-62604462D02*
X39119445Y-62604463D01*
X42245680Y-49103100D02*
X42898080Y-49103100D01*
X33834050Y-50237649D02*
X34968599Y-49103100D01*
X47901880Y-57175000D02*
X47901880Y-54901920D01*
X47901880Y-57175000D02*
X48326880Y-57600000D01*
X42752219Y-38116641D02*
X43196718Y-38561140D01*
X42751200Y-36600500D02*
X42751200Y-38115622D01*
X42751200Y-38115622D02*
X42752219Y-38116641D01*
X48208686Y-42328086D02*
X48208686Y-41871012D01*
X47101780Y-43434992D02*
X48208686Y-42328086D01*
X47101780Y-44500620D02*
X47101780Y-43434992D01*
X48208686Y-41871012D02*
X48208686Y-41242395D01*
X43634407Y-39963218D02*
X46391550Y-39963218D01*
X48208686Y-40120132D02*
X48208686Y-41242395D01*
X42250820Y-36600500D02*
X42250820Y-38579631D01*
X46888300Y-39466468D02*
X47555022Y-39466468D01*
X47555022Y-39466468D02*
X48208686Y-40120132D01*
X46391550Y-39963218D02*
X46888300Y-39466468D01*
X42250820Y-38579631D02*
X43634407Y-39963218D01*
X40249300Y-39571438D02*
X42177862Y-41500000D01*
X42177862Y-41500000D02*
X44700000Y-41500000D01*
X40249300Y-36600500D02*
X40249300Y-39571438D01*
X45993920Y-42089890D02*
X46256168Y-42089890D01*
X45501580Y-43480514D02*
X45410000Y-43388934D01*
X45410000Y-42673810D02*
X45993920Y-42089890D01*
X45501580Y-44500620D02*
X45501580Y-43480514D01*
X45410000Y-43388934D02*
X45410000Y-42673810D01*
X46256168Y-42089890D02*
X46884785Y-42089890D01*
D40*
G36*
X28168600Y-72600000D02*
X23698200Y-72600000D01*
X23698200Y-68097400D01*
X28168600Y-68097400D01*
X28168600Y-72600000D01*
X28168600Y-72600000D01*
G37*
X28168600Y-72600000D02*
X23698200Y-72600000D01*
X23698200Y-68097400D01*
X28168600Y-68097400D01*
X28168600Y-72600000D01*
M02*
