M48
;DRILL file {KiCad 0.201506030104+5696~23~ubuntu14.04.1-product} date Sat 06 Jun 2015 12:54:37 AEST
;FORMAT={-:-/ absolute / inch / decimal}
FMAT,2
INCH,TZ
T1C0.012
T2C0.039
T3C0.040
%
G90
G05
M72
T1
X0.7461Y-2.3287
X0.7461Y-2.6319
X0.8957Y-0.9902
X0.9192Y-1.8071
X0.9192Y-2.0205
X0.96Y-2.71
X1.022Y-2.71
X1.0354Y-1.7047
X1.0571Y-1.939
X1.08Y-2.71
X1.0871Y-1.6142
X1.1098Y-1.4469
X1.1142Y-0.9429
X1.126Y-1.6857
X1.1738Y-1.7958
X1.315Y-1.2126
X1.315Y-1.2756
X1.315Y-1.3386
X1.3268Y-1.0236
X1.3465Y-1.185
X1.3465Y-1.2441
X1.3465Y-1.3071
X1.3465Y-1.3701
X1.3826Y-2.3465
X1.3967Y-1.5423
X1.3976Y-1.374
X1.3981Y-2.6828
X1.4118Y-2.0913
X1.4121Y-2.0502
X1.4154Y-2.4551
X1.4173Y-2.2402
X1.4193Y-2.498
X1.4226Y-2.1568
X1.4238Y-1.5871
X1.4392Y-1.5
X1.4392Y-1.5413
X1.4409Y-1.374
X1.4468Y-1.626
X1.4484Y-2.2819
X1.4594Y-2.12
X1.4626Y-2.4409
X1.4677Y-1.8752
X1.4771Y-2.0764
X1.478Y-1.8355
X1.4843Y-1.374
X1.4882Y-2.7559
X1.4921Y-2.7028
X1.502Y-1.6004
X1.5027Y-1.6912
X1.5276Y-1.374
X1.5457Y-1.6114
X1.5689Y-2.7185
X1.5709Y-1.374
X1.5726Y-2.7654
X1.5739Y-2.555
X1.5851Y-1.5994
X1.6082Y-2.5775
X1.6142Y-1.374
X1.6191Y-2.2912
X1.62Y-2.2291
X1.6279Y-2.064
X1.628Y-1.56
X1.6323Y-1.8437
X1.6425Y-2.1677
X1.6492Y-2.5775
X1.6575Y-1.374
X1.6742Y-2.2986
X1.7007Y-1.5182
X1.7008Y-1.374
X1.7008Y-1.7559
X1.7035Y-2.2476
X1.7138Y-2.2021
X1.7397Y-2.7355
X1.7404Y-2.2973
X1.7406Y-1.5273
X1.7441Y-1.374
X1.748Y-0.9134
X1.753Y-2.4547
X1.7531Y-1.8469
X1.7543Y-2.0587
X1.7598Y-1.6339
X1.7749Y-2.7565
X1.7821Y-1.533
X1.7874Y-1.374
X1.795Y-2.2858
X1.8071Y-2.2195
X1.8101Y-1.5031
X1.8134Y-2.0972
X1.815Y-1.6957
X1.815Y-1.6301
X1.8154Y-1.8157
X1.8196Y-1.4632
X1.8307Y-1.2008
X1.8307Y-1.2441
X1.8307Y-1.2874
X1.8307Y-1.3307
X1.8307Y-1.374
X1.831Y-2.5101
X1.8317Y-2.4539
X1.833Y-1.8958
X1.833Y-2.0175
X1.8342Y-2.2736
X1.8459Y-1.6571
X1.8568Y-1.4461
X1.8591Y-1.5811
X1.8629Y-2.4228
X1.8696Y-2.2943
X1.8724Y-2.5504
X1.898Y-1.6237
X1.9026Y-2.2677
X1.9033Y-2.481
X1.9413Y-1.8157
X1.9542Y-2.0168
X1.9549Y-1.8958
X1.9606Y-2.4429
X1.9925Y-2.413
X2.0026Y-1.6458
X2.0067Y-2.2036
X2.0089Y-2.2806
X2.0209Y-2.0657
X2.0236Y-2.4427
X2.0346Y-1.8398
X2.0481Y-2.2951
X2.0551Y-2.4134
X2.1411Y-1.7343
X2.1537Y-2.1236
X2.1661Y-2.05
X2.1784Y-2.2732
X2.181Y-2.2322
X2.1886Y-1.9197
X2.2069Y-1.8502
X2.2071Y-2.0466
X2.2157Y-1.9685
X2.2231Y-2.0089
X2.2338Y-1.9317
X2.255Y-1.8397
X2.2596Y-1.8822
X2.2953Y-1.0138
X2.3099Y-1.8269
X2.3465Y-1.0138
X2.3729Y-1.7354
X2.393Y-1.447
X2.3937Y-1.3465
X2.3957Y-1.0138
X2.4134Y-1.7528
X2.4449Y-0.8189
X2.4449Y-1.0138
X2.4685Y-1.7528
X2.5148Y-1.7528
X2.689Y-1.748
X2.7785Y-1.747
T3
X0.9965Y-0.7694
X0.9965Y-0.8694
X1.0366Y-2.3764
X1.0366Y-2.4764
X1.0366Y-2.5764
X1.0965Y-0.7694
X1.0965Y-0.8694
X1.1366Y-2.3764
X1.1366Y-2.4764
X1.1366Y-2.5764
X1.1965Y-0.7694
X1.1965Y-0.8694
X1.2965Y-0.7694
X1.2965Y-0.8694
X1.3386Y-1.6035
X1.3386Y-1.7035
X1.3965Y-0.7694
X1.3965Y-0.8694
X1.4965Y-0.7694
X1.4965Y-0.8694
X1.5965Y-0.7694
X1.5965Y-0.8694
X1.6965Y-0.7694
X1.6965Y-0.8694
X1.7965Y-0.7694
X1.7965Y-0.8694
X1.8965Y-0.7694
X1.8965Y-0.8694
X1.8988Y-1.5
X1.9965Y-0.7694
X1.9965Y-0.8694
X1.9988Y-1.5
X2.0965Y-0.7694
X2.0965Y-0.8694
X2.1203Y-1.3465
X2.1203Y-1.4469
X2.1811Y-0.9787
X2.1811Y-1.0787
X2.1811Y-1.1787
X2.1965Y-0.7694
X2.1965Y-0.8694
X2.2203Y-1.3465
X2.2203Y-1.4469
X2.2965Y-0.7694
X2.2965Y-0.8694
X2.3965Y-0.7694
X2.3965Y-0.8694
X2.4965Y-0.7694
X2.4965Y-0.8694
X2.5276Y-1.0484
X2.5276Y-1.1484
X2.5823Y-1.3673
X2.5823Y-1.4673
X2.5904Y-2.6309
X2.5965Y-0.7694
X2.5965Y-0.8694
X2.598Y-1.864
X2.598Y-1.964
X2.6823Y-1.3673
X2.6823Y-1.4673
X2.6904Y-2.6309
X2.6965Y-0.7694
X2.6965Y-0.8694
X2.7823Y-1.2673
X2.7823Y-1.3673
X2.7823Y-1.4673
X2.7904Y-2.6309
X2.7965Y-0.7694
X2.7965Y-0.8694
X2.8823Y-1.2673
X2.8823Y-1.3673
X2.8823Y-1.4673
X2.8904Y-2.6309
X2.8965Y-0.7694
X2.8965Y-0.8694
X2.9904Y-2.6309
X2.9906Y-1.7319
X3.0906Y-0.9317
X3.0906Y-1.0317
X3.0906Y-1.1317
X3.0906Y-1.2317
X3.0906Y-1.3317
X3.0906Y-1.4317
X3.0906Y-1.5317
X3.0906Y-1.6317
X3.0906Y-1.7317
X3.0906Y-1.7319
X3.0906Y-1.8313
X3.0906Y-1.9313
X3.0906Y-2.0313
X3.0906Y-2.1313
X3.0906Y-2.2313
X3.0906Y-2.3313
X3.0906Y-2.4313
X3.0906Y-2.5313
X3.0906Y-2.6313
T2
X0.7618Y-1.0945G85X0.7618Y-1.1732
G05
X0.8406Y-1.3189G85X0.9193Y-1.3189
G05
X0.998Y-1.0945G85X0.998Y-1.1732
G05
T0
M30
