G04 #@! TF.FileFunction,Soldermask,Top*
%FSLAX46Y46*%
G04 Gerber Fmt 4.6, Leading zero omitted, Abs format (unit mm)*
G04 Created by KiCad (PCBNEW 0.201506030104+5696~23~ubuntu14.04.1-product) date Sat 06 Jun 2015 13:04:04 AEST*
%MOMM*%
G01*
G04 APERTURE LIST*
%ADD10C,0.100000*%
%ADD11R,1.924000X1.924000*%
%ADD12C,1.924000*%
%ADD13R,6.400000X4.400000*%
%ADD14R,0.819100X1.900000*%
%ADD15R,1.598880X1.598880*%
%ADD16R,2.432000X2.432000*%
%ADD17O,2.432000X2.432000*%
%ADD18R,2.432000X2.127200*%
%ADD19O,2.432000X2.127200*%
%ADD20R,2.127200X2.127200*%
%ADD21O,2.127200X2.127200*%
%ADD22R,0.699720X1.901140*%
%ADD23R,2.127200X2.432000*%
%ADD24O,2.127200X2.432000*%
%ADD25R,1.035000X1.543000*%
%ADD26R,1.289000X1.797000*%
%ADD27R,3.900120X3.900120*%
%ADD28R,2.432000X4.057600*%
%ADD29R,2.432000X1.416000*%
%ADD30R,1.543000X1.035000*%
%ADD31R,1.400000X0.598120*%
%ADD32R,1.400000X0.600660*%
%ADD33R,0.598120X1.400000*%
%ADD34R,0.600660X1.400000*%
%ADD35R,4.400000X4.400000*%
%ADD36C,0.254000*%
G04 APERTURE END LIST*
D10*
D11*
X25311100Y-22083600D03*
D12*
X27851100Y-22083600D03*
X30391100Y-22083600D03*
X32931100Y-22083600D03*
X35471100Y-22083600D03*
X38011100Y-22083600D03*
X25311100Y-19543600D03*
X27851100Y-19543600D03*
X30391100Y-19543600D03*
X32931100Y-19543600D03*
X35471100Y-19543600D03*
X38011100Y-19543600D03*
X40551100Y-22083600D03*
X40551100Y-19543600D03*
X43091100Y-22083600D03*
X45631100Y-22083600D03*
X48171100Y-22083600D03*
X50711100Y-22083600D03*
X53251100Y-22083600D03*
X55791100Y-22083600D03*
X43091100Y-19543600D03*
X45631100Y-19543600D03*
X48171100Y-19543600D03*
X50711100Y-19543600D03*
X53251100Y-19543600D03*
X55791100Y-19543600D03*
X58331100Y-22083600D03*
X58331100Y-19543600D03*
X60871100Y-22083600D03*
X63411100Y-22083600D03*
X65951100Y-22083600D03*
X68491100Y-22083600D03*
X71031100Y-22083600D03*
X73571100Y-22083600D03*
X60871100Y-19543600D03*
X63411100Y-19543600D03*
X65951100Y-19543600D03*
X68491100Y-19543600D03*
X71031100Y-19543600D03*
X73571100Y-19543600D03*
D13*
X28310000Y-56560000D03*
X21310000Y-56560000D03*
D14*
X36197680Y-71707500D03*
X36197680Y-59642500D03*
X36997780Y-71710040D03*
X36997780Y-59642500D03*
X37797880Y-71710040D03*
X37797880Y-59642500D03*
X38597980Y-71710040D03*
X38597980Y-59642500D03*
X39398080Y-71710040D03*
X39398080Y-59642500D03*
X40198180Y-71710040D03*
X40198180Y-59642500D03*
X40998280Y-71710040D03*
X40998280Y-59642500D03*
X41798380Y-71710040D03*
X41798380Y-59642500D03*
X42598480Y-71710040D03*
X42598480Y-59642500D03*
X43398580Y-71710040D03*
X43398580Y-59642500D03*
X44198680Y-71710040D03*
X44198680Y-59642500D03*
X44998780Y-71710040D03*
X44998780Y-59642500D03*
X45798880Y-71710040D03*
X45798880Y-59642500D03*
X46598980Y-71710040D03*
X46598980Y-59642500D03*
X47399080Y-71710040D03*
X47399080Y-59642500D03*
X48199180Y-71710040D03*
X48199180Y-59642500D03*
X48999280Y-71710040D03*
X48999280Y-59642500D03*
X49799380Y-71710040D03*
X49799380Y-59642500D03*
X50599480Y-71710040D03*
X50599480Y-59642500D03*
X51399580Y-71710040D03*
X51399580Y-59642500D03*
X52199680Y-71710040D03*
X52199680Y-59642500D03*
X52999780Y-71710040D03*
X52999780Y-59642500D03*
D15*
X24054020Y-65390000D03*
X21955980Y-65390000D03*
X24054020Y-62890000D03*
X21955980Y-62890000D03*
X24054020Y-60390000D03*
X21955980Y-60390000D03*
D16*
X65989200Y-47345600D03*
D17*
X65989200Y-49885600D03*
D18*
X55400000Y-29940000D03*
D19*
X55400000Y-27400000D03*
X55400000Y-24860000D03*
D16*
X64200000Y-29170000D03*
D17*
X64200000Y-26630000D03*
D15*
X30669020Y-52960000D03*
X28570980Y-52960000D03*
D20*
X28870000Y-65440000D03*
D21*
X26330000Y-65440000D03*
X28870000Y-62900000D03*
X26330000Y-62900000D03*
X28870000Y-60360000D03*
X26330000Y-60360000D03*
D22*
X38750700Y-28599500D03*
X38250320Y-28599500D03*
X37749940Y-28599500D03*
X37249560Y-28599500D03*
X36749180Y-28599500D03*
X36248800Y-28599500D03*
X35750960Y-28599500D03*
X35250580Y-28599500D03*
X34750200Y-28599500D03*
X34249820Y-28599500D03*
X33749440Y-28599500D03*
X45250560Y-28599500D03*
X44750180Y-28599500D03*
X44249800Y-28599500D03*
X43749420Y-28599500D03*
X43249040Y-28599500D03*
X42751200Y-28599500D03*
X42250820Y-28599500D03*
X41750440Y-36600500D03*
X41250060Y-28599500D03*
X40749680Y-28599500D03*
X40249300Y-28599500D03*
X39748920Y-28599500D03*
X39251080Y-28599500D03*
X39251080Y-36600500D03*
X39748920Y-36600500D03*
X40249300Y-36600500D03*
X40749680Y-36600500D03*
X41250060Y-36600500D03*
X41750440Y-28599500D03*
X42250820Y-36600500D03*
X42751200Y-36600500D03*
X43249040Y-36600500D03*
X43749420Y-36600500D03*
X44249800Y-36600500D03*
X44750180Y-36600500D03*
X45250560Y-36600500D03*
X33749440Y-36600500D03*
X34249820Y-36600500D03*
X34750200Y-36600500D03*
X35250580Y-36600500D03*
X35750960Y-36600500D03*
X36248800Y-36600500D03*
X36749180Y-36600500D03*
X37249560Y-36600500D03*
X37749940Y-36600500D03*
X38250320Y-36600500D03*
X38750700Y-36600500D03*
D18*
X78500000Y-43985000D03*
D19*
X78500000Y-41445000D03*
X78500000Y-38905000D03*
X78500000Y-36365000D03*
X78500000Y-33825000D03*
X78500000Y-31285000D03*
X78500000Y-28745000D03*
X78500000Y-26205000D03*
X78500000Y-23665000D03*
D18*
X78500000Y-66835000D03*
D19*
X78500000Y-64295000D03*
X78500000Y-61755000D03*
X78500000Y-59215000D03*
X78500000Y-56675000D03*
X78500000Y-54135000D03*
X78500000Y-51595000D03*
X78500000Y-49055000D03*
X78500000Y-46515000D03*
D23*
X65795000Y-66825000D03*
D24*
X68335000Y-66825000D03*
X70875000Y-66825000D03*
X73415000Y-66825000D03*
X75955000Y-66825000D03*
D16*
X78500000Y-43990000D03*
D17*
X75960000Y-43990000D03*
D25*
X30638000Y-25600000D03*
X32162000Y-25600000D03*
D26*
X28202500Y-35150000D03*
X26297500Y-35150000D03*
X27152500Y-45900000D03*
X25247500Y-45900000D03*
D16*
X53855000Y-36750000D03*
D17*
X56395000Y-36750000D03*
D16*
X56395000Y-34200000D03*
D17*
X53855000Y-34200000D03*
D16*
X73210000Y-32190000D03*
D17*
X70670000Y-32190000D03*
D15*
X51449020Y-36000000D03*
X49350980Y-36000000D03*
D16*
X50770000Y-38100000D03*
D17*
X48230000Y-38100000D03*
D27*
X25350140Y-28800000D03*
X19350660Y-28800000D03*
X22350400Y-33499000D03*
D20*
X73210000Y-37270000D03*
D21*
X73210000Y-34730000D03*
X70670000Y-37270000D03*
X70670000Y-34730000D03*
X68130000Y-37270000D03*
X68130000Y-34730000D03*
X65590000Y-37270000D03*
X65590000Y-34730000D03*
D16*
X34000000Y-43270000D03*
D17*
X34000000Y-40730000D03*
D15*
X30649020Y-47800000D03*
X28550980Y-47800000D03*
X30599020Y-50850000D03*
X28500980Y-50850000D03*
D28*
X30602000Y-41000000D03*
D29*
X23998000Y-41000000D03*
X23998000Y-43286000D03*
X23998000Y-38714000D03*
D30*
X59600000Y-28262000D03*
X59600000Y-26738000D03*
X58100000Y-28262000D03*
X58100000Y-26738000D03*
D25*
X18943000Y-65390000D03*
X20467000Y-65390000D03*
X18943000Y-62890000D03*
X20467000Y-62890000D03*
X18943000Y-60390000D03*
X20467000Y-60390000D03*
D30*
X61100000Y-28262000D03*
X61100000Y-26738000D03*
D25*
X58438000Y-36750000D03*
X59962000Y-36750000D03*
X59962000Y-34200000D03*
X58438000Y-34200000D03*
X40142000Y-56450000D03*
X38618000Y-56450000D03*
X40142000Y-55050000D03*
X38618000Y-55050000D03*
X50238000Y-34200000D03*
X51762000Y-34200000D03*
X40142000Y-57850000D03*
X38618000Y-57850000D03*
X26762000Y-47800000D03*
X25238000Y-47800000D03*
X26762000Y-50850000D03*
X25238000Y-50850000D03*
X26782000Y-52960000D03*
X25258000Y-52960000D03*
D31*
X42898080Y-45501380D03*
D32*
X42898080Y-45902700D03*
D31*
X42898080Y-46301480D03*
D32*
X42898080Y-46702800D03*
D31*
X42898080Y-47101580D03*
D32*
X42898080Y-47502900D03*
X42898080Y-47901680D03*
X42898080Y-48303000D03*
X42898080Y-48701780D03*
X42898080Y-49103100D03*
X42898080Y-49501880D03*
X42898080Y-49898120D03*
X42898080Y-50296900D03*
X42898080Y-50698220D03*
X42898080Y-51097000D03*
X42898080Y-51498320D03*
X42898080Y-51897100D03*
D31*
X42898080Y-52298420D03*
D32*
X42898080Y-52697200D03*
D31*
X42898080Y-53098520D03*
D32*
X42898080Y-53497300D03*
D31*
X42898080Y-53898620D03*
D33*
X43901380Y-54901920D03*
D34*
X44302700Y-54901920D03*
D33*
X44701480Y-54901920D03*
D34*
X45102800Y-54901920D03*
D33*
X45501580Y-54901920D03*
D34*
X45902900Y-54901920D03*
X46301680Y-54901920D03*
X46703000Y-54901920D03*
X47101780Y-54901920D03*
X47503100Y-54901920D03*
X47901880Y-54901920D03*
X48298120Y-54901920D03*
X48696900Y-54901920D03*
X49098220Y-54901920D03*
X49497000Y-54901920D03*
X49898320Y-54901920D03*
X50297100Y-54901920D03*
D33*
X50698420Y-54901920D03*
D34*
X51097200Y-54901920D03*
D33*
X51498520Y-54901920D03*
D34*
X51897300Y-54901920D03*
D33*
X52298620Y-54901920D03*
D31*
X53301920Y-53896080D03*
D32*
X53301920Y-53494760D03*
D31*
X53301920Y-53095980D03*
D32*
X53301920Y-52694660D03*
D31*
X53301920Y-52295880D03*
D32*
X53301920Y-51894560D03*
X53301920Y-51495780D03*
X53301920Y-51094460D03*
X53301920Y-50695680D03*
X53301920Y-50294360D03*
X53301920Y-49895580D03*
X53301920Y-49499340D03*
X53301920Y-49100560D03*
X53301920Y-48699240D03*
X53301920Y-48300460D03*
X53301920Y-47899140D03*
X53301920Y-47500360D03*
D31*
X53301920Y-47099040D03*
D32*
X53301920Y-46700260D03*
D31*
X53301920Y-46298940D03*
D32*
X53301920Y-45900160D03*
D31*
X53301920Y-45498840D03*
D33*
X52298620Y-44500620D03*
D34*
X51897300Y-44500620D03*
D33*
X51498520Y-44500620D03*
D34*
X51097200Y-44500620D03*
D33*
X50698420Y-44500620D03*
D34*
X50297100Y-44500620D03*
X49898320Y-44500620D03*
X49497000Y-44500620D03*
X49098220Y-44500620D03*
X48696900Y-44500620D03*
X48298120Y-44500620D03*
X47901880Y-44500620D03*
X47503100Y-44500620D03*
X47101780Y-44500620D03*
X46703000Y-44500620D03*
X46301680Y-44500620D03*
X45902900Y-44500620D03*
D33*
X45501580Y-44500620D03*
D34*
X45102800Y-44500620D03*
D33*
X44701480Y-44500620D03*
D34*
X44302700Y-44500620D03*
D33*
X43901380Y-44500620D03*
D35*
X48100000Y-49700000D03*
D36*
G36*
X28168600Y-73126600D02*
X23698200Y-73126600D01*
X23698200Y-68097400D01*
X28168600Y-68097400D01*
X28168600Y-73126600D01*
X28168600Y-73126600D01*
G37*
X28168600Y-73126600D02*
X23698200Y-73126600D01*
X23698200Y-68097400D01*
X28168600Y-68097400D01*
X28168600Y-73126600D01*
M02*
