G04 #@! TF.FileFunction,Copper,L3,Inr,Plane*
%FSLAX46Y46*%
G04 Gerber Fmt 4.6, Leading zero omitted, Abs format (unit mm)*
G04 Created by KiCad (PCBNEW 0.201506030104+5696~23~ubuntu14.04.1-product) date Sat 06 Jun 2015 13:04:04 AEST*
%MOMM*%
G01*
G04 APERTURE LIST*
%ADD10C,0.100000*%
%ADD11R,1.524000X1.524000*%
%ADD12C,1.524000*%
%ADD13R,2.032000X2.032000*%
%ADD14O,2.032000X2.032000*%
%ADD15R,2.032000X1.727200*%
%ADD16O,2.032000X1.727200*%
%ADD17R,1.727200X1.727200*%
%ADD18O,1.727200X1.727200*%
%ADD19R,1.727200X2.032000*%
%ADD20O,1.727200X2.032000*%
%ADD21R,3.500120X3.500120*%
%ADD22C,0.889000*%
%ADD23C,0.152400*%
%ADD24C,0.254000*%
G04 APERTURE END LIST*
D10*
D11*
X25311100Y-22083600D03*
D12*
X27851100Y-22083600D03*
X30391100Y-22083600D03*
X32931100Y-22083600D03*
X35471100Y-22083600D03*
X38011100Y-22083600D03*
X25311100Y-19543600D03*
X27851100Y-19543600D03*
X30391100Y-19543600D03*
X32931100Y-19543600D03*
X35471100Y-19543600D03*
X38011100Y-19543600D03*
X40551100Y-22083600D03*
X40551100Y-19543600D03*
X43091100Y-22083600D03*
X45631100Y-22083600D03*
X48171100Y-22083600D03*
X50711100Y-22083600D03*
X53251100Y-22083600D03*
X55791100Y-22083600D03*
X43091100Y-19543600D03*
X45631100Y-19543600D03*
X48171100Y-19543600D03*
X50711100Y-19543600D03*
X53251100Y-19543600D03*
X55791100Y-19543600D03*
X58331100Y-22083600D03*
X58331100Y-19543600D03*
X60871100Y-22083600D03*
X63411100Y-22083600D03*
X65951100Y-22083600D03*
X68491100Y-22083600D03*
X71031100Y-22083600D03*
X73571100Y-22083600D03*
X60871100Y-19543600D03*
X63411100Y-19543600D03*
X65951100Y-19543600D03*
X68491100Y-19543600D03*
X71031100Y-19543600D03*
X73571100Y-19543600D03*
D13*
X65989200Y-47345600D03*
D14*
X65989200Y-49885600D03*
D15*
X55400000Y-29940000D03*
D16*
X55400000Y-27400000D03*
X55400000Y-24860000D03*
D13*
X64200000Y-29170000D03*
D14*
X64200000Y-26630000D03*
D17*
X28870000Y-65440000D03*
D18*
X26330000Y-65440000D03*
X28870000Y-62900000D03*
X26330000Y-62900000D03*
X28870000Y-60360000D03*
X26330000Y-60360000D03*
D15*
X78500000Y-43985000D03*
D16*
X78500000Y-41445000D03*
X78500000Y-38905000D03*
X78500000Y-36365000D03*
X78500000Y-33825000D03*
X78500000Y-31285000D03*
X78500000Y-28745000D03*
X78500000Y-26205000D03*
X78500000Y-23665000D03*
D15*
X78500000Y-66835000D03*
D16*
X78500000Y-64295000D03*
X78500000Y-61755000D03*
X78500000Y-59215000D03*
X78500000Y-56675000D03*
X78500000Y-54135000D03*
X78500000Y-51595000D03*
X78500000Y-49055000D03*
X78500000Y-46515000D03*
D19*
X65795000Y-66825000D03*
D20*
X68335000Y-66825000D03*
X70875000Y-66825000D03*
X73415000Y-66825000D03*
X75955000Y-66825000D03*
D13*
X78500000Y-43990000D03*
D14*
X75960000Y-43990000D03*
D13*
X53855000Y-36750000D03*
D14*
X56395000Y-36750000D03*
D13*
X56395000Y-34200000D03*
D14*
X53855000Y-34200000D03*
D13*
X73210000Y-32190000D03*
D14*
X70670000Y-32190000D03*
D13*
X50770000Y-38100000D03*
D14*
X48230000Y-38100000D03*
D21*
X25350140Y-28800000D03*
X19350660Y-28800000D03*
X22350400Y-33499000D03*
D17*
X73210000Y-37270000D03*
D18*
X73210000Y-34730000D03*
X70670000Y-37270000D03*
X70670000Y-34730000D03*
X68130000Y-37270000D03*
X68130000Y-34730000D03*
X65590000Y-37270000D03*
X65590000Y-34730000D03*
D13*
X34000000Y-43270000D03*
D14*
X34000000Y-40730000D03*
D22*
X44207256Y-58350869D03*
X41720000Y-55060000D03*
X51330000Y-52470000D03*
X51680000Y-46730000D03*
X49310000Y-46120000D03*
X46110000Y-46120000D03*
X44530000Y-46910000D03*
X44560000Y-52290000D03*
X46060000Y-53270002D03*
X46558181Y-51244332D03*
X46558181Y-48154404D03*
X49655141Y-48154404D03*
X49635570Y-51226244D03*
X45081993Y-70015754D03*
X23347500Y-51321955D03*
X28300000Y-23950000D03*
X22750000Y-25150000D03*
X23347500Y-45900000D03*
X18950000Y-59150000D03*
X18950000Y-66850000D03*
X24384000Y-68834000D03*
X25958800Y-68834000D03*
X27432000Y-68834000D03*
X26850000Y-49250000D03*
X62100000Y-20800000D03*
X62100000Y-25750000D03*
X26300000Y-43300000D03*
X41348612Y-52425400D03*
X50970220Y-55970449D03*
X54703641Y-53939951D03*
X54384701Y-44050830D03*
X46100000Y-43070000D03*
X44187547Y-69482363D03*
X60800000Y-34200000D03*
X45900000Y-56375000D03*
X27612316Y-41000000D03*
X28600000Y-42816964D03*
X29814066Y-45614066D03*
X60782200Y-36753800D03*
X41460000Y-46829780D03*
X50867114Y-41802602D03*
X70575000Y-44375000D03*
X68300000Y-44400000D03*
X36555040Y-39150000D03*
X36555040Y-38099110D03*
X34200000Y-30100000D03*
X33400000Y-30800000D03*
X34200000Y-31600000D03*
X33400000Y-34000000D03*
X33400000Y-32400000D03*
X34200000Y-33200000D03*
X34200000Y-34800000D03*
X35500000Y-34900000D03*
X37700000Y-34900000D03*
X39900000Y-34900000D03*
X42100000Y-34900000D03*
X44300000Y-34900000D03*
X36600000Y-34900000D03*
X38800000Y-34900000D03*
X44400000Y-23200000D03*
X41000000Y-34900000D03*
X43200000Y-34900000D03*
X58300000Y-25750000D03*
X59600000Y-25750000D03*
X46500000Y-30500000D03*
X46500000Y-32700000D03*
X46500000Y-34900000D03*
X46500000Y-31600000D03*
X46500000Y-33800000D03*
X35866404Y-52075000D03*
X35858752Y-53119451D03*
X35475000Y-39175000D03*
X58670246Y-46402938D03*
X45400000Y-34900000D03*
X60850000Y-25750000D03*
X52021911Y-58295586D03*
X41890796Y-65467260D03*
X51025481Y-57926290D03*
X39977179Y-64898254D03*
X48343273Y-63018023D03*
X42525859Y-58383985D03*
X43529868Y-55933027D03*
X47163663Y-36730473D03*
X43270000Y-57090002D03*
X41148000Y-56618987D03*
X46217390Y-37165336D03*
X38150019Y-40650019D03*
X37278325Y-47629899D03*
X36749981Y-41299981D03*
X37517434Y-52739748D03*
X45593120Y-58059136D03*
X41125260Y-58196465D03*
X45975968Y-38178374D03*
X46587562Y-57749903D03*
X45265015Y-38939349D03*
X47486871Y-58275051D03*
X44212117Y-38792451D03*
X46508193Y-63757643D03*
X35116790Y-59600000D03*
X36133499Y-54783499D03*
X47317187Y-61539061D03*
X39260693Y-40928564D03*
X37540242Y-46621961D03*
X37069626Y-53847374D03*
X36165760Y-40312263D03*
X36000520Y-56900000D03*
X46526056Y-62328109D03*
X36790000Y-57960000D03*
X44525000Y-62350000D03*
X55330290Y-57738054D03*
X52200000Y-61300000D03*
X55398132Y-56698855D03*
X51400000Y-62043480D03*
X56060000Y-51984111D03*
X40262778Y-40624377D03*
X56465738Y-51024989D03*
X50609575Y-61291063D03*
X56278415Y-50000563D03*
X49800000Y-62050000D03*
X56737846Y-49065971D03*
X37150000Y-62000000D03*
X55591415Y-48761194D03*
X35950000Y-62360000D03*
X57392831Y-47807263D03*
X36050000Y-63450000D03*
X35511454Y-68144314D03*
X57276112Y-46727861D03*
X56056456Y-46995581D03*
X41350000Y-39625000D03*
X37900000Y-68650000D03*
X60272090Y-44080156D03*
X61300000Y-44522071D03*
X37800000Y-70000000D03*
X62698900Y-44522071D03*
X39850000Y-69050000D03*
X63875000Y-44522071D03*
X39943674Y-70240474D03*
X55018621Y-52069015D03*
X38167448Y-42956467D03*
X33700000Y-26000000D03*
X28189998Y-36750000D03*
X47221661Y-40160969D03*
X46101682Y-41403386D03*
X47560000Y-64780000D03*
X40849396Y-65467268D03*
X43200000Y-44600000D03*
X48326880Y-57600000D03*
X43196718Y-38561140D03*
X48208686Y-41242395D03*
X44700000Y-41500000D03*
X46884785Y-42089890D03*
D23*
X41950400Y-52425400D02*
X41348612Y-52425400D01*
X45900000Y-56375000D02*
X41950400Y-52425400D01*
X52673143Y-55970449D02*
X51598837Y-55970449D01*
X50565669Y-56375000D02*
X50970220Y-55970449D01*
X51598837Y-55970449D02*
X50970220Y-55970449D01*
X54703641Y-53939951D02*
X52673143Y-55970449D01*
X45900000Y-56375000D02*
X50565669Y-56375000D01*
X43743048Y-69037864D02*
X44187547Y-69482363D01*
X43743048Y-60279151D02*
X43743048Y-69037864D01*
X44880357Y-59141842D02*
X43743048Y-60279151D01*
X45900000Y-56375000D02*
X44880357Y-57394643D01*
X44880357Y-57394643D02*
X44880357Y-59141842D01*
X55781409Y-43373422D02*
X55104001Y-44050830D01*
X55104001Y-44050830D02*
X55013318Y-44050830D01*
X55013318Y-44050830D02*
X54384701Y-44050830D01*
X29814066Y-44031030D02*
X28600000Y-42816964D01*
X29814066Y-45614066D02*
X29814066Y-44031030D01*
X28600000Y-41987684D02*
X27612316Y-41000000D01*
X28600000Y-42816964D02*
X28600000Y-41987684D01*
X55781409Y-39218591D02*
X60800000Y-34200000D01*
X55781409Y-43373422D02*
X55781409Y-39218591D01*
X73210000Y-37270000D02*
X73210000Y-34730000D01*
X73210000Y-38286000D02*
X70373400Y-41122600D01*
X73210000Y-37270000D02*
X73210000Y-38286000D01*
X67722600Y-41122600D02*
X60800000Y-34200000D01*
X75955000Y-59067600D02*
X75955000Y-66825000D01*
X69632566Y-47959966D02*
X69632566Y-41122600D01*
X78500000Y-56675000D02*
X78347600Y-56675000D01*
X69632566Y-41122600D02*
X67722600Y-41122600D01*
X70373400Y-41122600D02*
X69632566Y-41122600D01*
X40244286Y-45614066D02*
X41015501Y-46385281D01*
X42088617Y-46829780D02*
X41460000Y-46829780D01*
X46100000Y-43070000D02*
X42340220Y-46829780D01*
X41015501Y-46385281D02*
X41460000Y-46829780D01*
X29814066Y-45614066D02*
X40244286Y-45614066D01*
X42340220Y-46829780D02*
X42088617Y-46829780D01*
X41348612Y-46941168D02*
X41460000Y-46829780D01*
X41348612Y-52425400D02*
X41348612Y-46941168D01*
X55781409Y-43373422D02*
X54210589Y-41802602D01*
X50422615Y-42247101D02*
X50867114Y-41802602D01*
X54210589Y-41802602D02*
X51495731Y-41802602D01*
X46100000Y-43070000D02*
X49599716Y-43070000D01*
X49599716Y-43070000D02*
X50422615Y-42247101D01*
X51495731Y-41802602D02*
X50867114Y-41802602D01*
D24*
G36*
X81433200Y-70260084D02*
X81234243Y-71260306D01*
X80695936Y-72065939D01*
X80273217Y-72348390D01*
X80273217Y-69450831D01*
X80273217Y-20450831D01*
X79994930Y-19777324D01*
X79480086Y-19261581D01*
X78807066Y-18982119D01*
X78078331Y-18981483D01*
X77404824Y-19259770D01*
X76889081Y-19774614D01*
X76609619Y-20447634D01*
X76608983Y-21176369D01*
X76887270Y-21849876D01*
X77402114Y-22365619D01*
X77756690Y-22512851D01*
X77403250Y-22749014D01*
X77122442Y-23169272D01*
X77023836Y-23665000D01*
X77122442Y-24160728D01*
X77403250Y-24580986D01*
X77823508Y-24861794D01*
X78191541Y-24935000D01*
X77823508Y-25008206D01*
X77403250Y-25289014D01*
X77122442Y-25709272D01*
X77023836Y-26205000D01*
X77122442Y-26700728D01*
X77403250Y-27120986D01*
X77823508Y-27401794D01*
X78191541Y-27475000D01*
X77823508Y-27548206D01*
X77403250Y-27829014D01*
X77122442Y-28249272D01*
X77023836Y-28745000D01*
X77122442Y-29240728D01*
X77403250Y-29660986D01*
X77823508Y-29941794D01*
X78191541Y-30015000D01*
X77823508Y-30088206D01*
X77403250Y-30369014D01*
X77122442Y-30789272D01*
X77023836Y-31285000D01*
X77122442Y-31780728D01*
X77403250Y-32200986D01*
X77792132Y-32460829D01*
X77585680Y-32533046D01*
X77149268Y-32922964D01*
X76895291Y-33450209D01*
X76892642Y-33465974D01*
X77013783Y-33698000D01*
X78373000Y-33698000D01*
X78373000Y-33678000D01*
X78627000Y-33678000D01*
X78627000Y-33698000D01*
X79986217Y-33698000D01*
X80107358Y-33465974D01*
X80104709Y-33450209D01*
X79850732Y-32922964D01*
X79414320Y-32533046D01*
X79207867Y-32460829D01*
X79596750Y-32200986D01*
X79877558Y-31780728D01*
X79976164Y-31285000D01*
X79877558Y-30789272D01*
X79596750Y-30369014D01*
X79176492Y-30088206D01*
X78808458Y-30015000D01*
X79176492Y-29941794D01*
X79596750Y-29660986D01*
X79877558Y-29240728D01*
X79976164Y-28745000D01*
X79877558Y-28249272D01*
X79596750Y-27829014D01*
X79176492Y-27548206D01*
X78808458Y-27475000D01*
X79176492Y-27401794D01*
X79596750Y-27120986D01*
X79877558Y-26700728D01*
X79976164Y-26205000D01*
X79877558Y-25709272D01*
X79596750Y-25289014D01*
X79176492Y-25008206D01*
X78808458Y-24935000D01*
X79176492Y-24861794D01*
X79596750Y-24580986D01*
X79877558Y-24160728D01*
X79976164Y-23665000D01*
X79877558Y-23169272D01*
X79596750Y-22749014D01*
X79198266Y-22482755D01*
X79477376Y-22367430D01*
X79993119Y-21852586D01*
X80272581Y-21179566D01*
X80273217Y-20450831D01*
X80273217Y-69450831D01*
X79994930Y-68777324D01*
X79480086Y-68261581D01*
X79184538Y-68138859D01*
X79516000Y-68138859D01*
X79680644Y-68106915D01*
X79825351Y-68011858D01*
X79922216Y-67868355D01*
X79956259Y-67698600D01*
X79956259Y-65971400D01*
X79924315Y-65806756D01*
X79829258Y-65662049D01*
X79685755Y-65565184D01*
X79516000Y-65531141D01*
X78978680Y-65531141D01*
X79176492Y-65491794D01*
X79596750Y-65210986D01*
X79877558Y-64790728D01*
X79976164Y-64295000D01*
X79877558Y-63799272D01*
X79596750Y-63379014D01*
X79176492Y-63098206D01*
X78808458Y-63025000D01*
X79176492Y-62951794D01*
X79596750Y-62670986D01*
X79877558Y-62250728D01*
X79976164Y-61755000D01*
X79877558Y-61259272D01*
X79596750Y-60839014D01*
X79176492Y-60558206D01*
X78808458Y-60485000D01*
X79176492Y-60411794D01*
X79596750Y-60130986D01*
X79877558Y-59710728D01*
X79976164Y-59215000D01*
X79877558Y-58719272D01*
X79596750Y-58299014D01*
X79207867Y-58039170D01*
X79414320Y-57966954D01*
X79850732Y-57577036D01*
X80104709Y-57049791D01*
X80107358Y-57034026D01*
X80107358Y-56315974D01*
X80104709Y-56300209D01*
X79850732Y-55772964D01*
X79414320Y-55383046D01*
X79207867Y-55310829D01*
X79596750Y-55050986D01*
X79877558Y-54630728D01*
X79976164Y-54135000D01*
X79877558Y-53639272D01*
X79596750Y-53219014D01*
X79176492Y-52938206D01*
X78808458Y-52865000D01*
X79176492Y-52791794D01*
X79596750Y-52510986D01*
X79877558Y-52090728D01*
X79976164Y-51595000D01*
X79877558Y-51099272D01*
X79596750Y-50679014D01*
X79176492Y-50398206D01*
X78808458Y-50325000D01*
X79176492Y-50251794D01*
X79596750Y-49970986D01*
X79877558Y-49550728D01*
X79976164Y-49055000D01*
X79877558Y-48559272D01*
X79596750Y-48139014D01*
X79176492Y-47858206D01*
X78808458Y-47785000D01*
X79176492Y-47711794D01*
X79596750Y-47430986D01*
X79877558Y-47010728D01*
X79976164Y-46515000D01*
X79877558Y-46019272D01*
X79596750Y-45599014D01*
X79368136Y-45446259D01*
X79516000Y-45446259D01*
X79680644Y-45414315D01*
X79825351Y-45319258D01*
X79922216Y-45175755D01*
X79956259Y-45006000D01*
X79956259Y-44848600D01*
X79956259Y-43121400D01*
X79956259Y-42974000D01*
X79924315Y-42809356D01*
X79829258Y-42664649D01*
X79685755Y-42567784D01*
X79516000Y-42533741D01*
X79338204Y-42533741D01*
X79596750Y-42360986D01*
X79877558Y-41940728D01*
X79976164Y-41445000D01*
X79877558Y-40949272D01*
X79596750Y-40529014D01*
X79176492Y-40248206D01*
X78808458Y-40175000D01*
X79176492Y-40101794D01*
X79596750Y-39820986D01*
X79877558Y-39400728D01*
X79976164Y-38905000D01*
X79877558Y-38409272D01*
X79596750Y-37989014D01*
X79176492Y-37708206D01*
X78808458Y-37635000D01*
X79176492Y-37561794D01*
X79596750Y-37280986D01*
X79877558Y-36860728D01*
X79976164Y-36365000D01*
X79877558Y-35869272D01*
X79596750Y-35449014D01*
X79207867Y-35189170D01*
X79414320Y-35116954D01*
X79850732Y-34727036D01*
X80104709Y-34199791D01*
X80107358Y-34184026D01*
X79986217Y-33952000D01*
X78627000Y-33952000D01*
X78627000Y-33972000D01*
X78373000Y-33972000D01*
X78373000Y-33952000D01*
X77013783Y-33952000D01*
X76892642Y-34184026D01*
X76895291Y-34199791D01*
X77149268Y-34727036D01*
X77585680Y-35116954D01*
X77792132Y-35189170D01*
X77403250Y-35449014D01*
X77122442Y-35869272D01*
X77023836Y-36365000D01*
X77122442Y-36860728D01*
X77403250Y-37280986D01*
X77823508Y-37561794D01*
X78191541Y-37635000D01*
X77823508Y-37708206D01*
X77403250Y-37989014D01*
X77122442Y-38409272D01*
X77023836Y-38905000D01*
X77122442Y-39400728D01*
X77403250Y-39820986D01*
X77823508Y-40101794D01*
X78191541Y-40175000D01*
X77823508Y-40248206D01*
X77403250Y-40529014D01*
X77122442Y-40949272D01*
X77023836Y-41445000D01*
X77122442Y-41940728D01*
X77403250Y-42360986D01*
X77661795Y-42533741D01*
X77484000Y-42533741D01*
X77319356Y-42565685D01*
X77174649Y-42660742D01*
X77077784Y-42804245D01*
X77043741Y-42974000D01*
X77043741Y-43013585D01*
X77012113Y-42966251D01*
X76542413Y-42652407D01*
X75988364Y-42542200D01*
X75931636Y-42542200D01*
X75377587Y-42652407D01*
X74907887Y-42966251D01*
X74765107Y-43179936D01*
X74765107Y-21847180D01*
X74765107Y-19307180D01*
X74583745Y-18868250D01*
X74248216Y-18532136D01*
X73809603Y-18350008D01*
X73334680Y-18349593D01*
X72895750Y-18530955D01*
X72559636Y-18866484D01*
X72377508Y-19305097D01*
X72377093Y-19780020D01*
X72558455Y-20218950D01*
X72893984Y-20555064D01*
X73332597Y-20737192D01*
X73807520Y-20737607D01*
X74246450Y-20556245D01*
X74582564Y-20220716D01*
X74764692Y-19782103D01*
X74765107Y-19307180D01*
X74765107Y-21847180D01*
X74583745Y-21408250D01*
X74248216Y-21072136D01*
X73809603Y-20890008D01*
X73334680Y-20889593D01*
X72895750Y-21070955D01*
X72559636Y-21406484D01*
X72377508Y-21845097D01*
X72377093Y-22320020D01*
X72558455Y-22758950D01*
X72893984Y-23095064D01*
X73332597Y-23277192D01*
X73807520Y-23277607D01*
X74246450Y-23096245D01*
X74582564Y-22760716D01*
X74764692Y-22322103D01*
X74765107Y-21847180D01*
X74765107Y-43179936D01*
X74708600Y-43264504D01*
X74708600Y-38259910D01*
X74708600Y-38007291D01*
X74708600Y-37555750D01*
X74708600Y-36984250D01*
X74708600Y-36532709D01*
X74708600Y-36280090D01*
X74666259Y-36177869D01*
X74666259Y-33206000D01*
X74666259Y-31174000D01*
X74634315Y-31009356D01*
X74539258Y-30864649D01*
X74395755Y-30767784D01*
X74226000Y-30733741D01*
X72225107Y-30733741D01*
X72225107Y-21847180D01*
X72225107Y-19307180D01*
X72043745Y-18868250D01*
X71708216Y-18532136D01*
X71269603Y-18350008D01*
X70794680Y-18349593D01*
X70355750Y-18530955D01*
X70019636Y-18866484D01*
X69837508Y-19305097D01*
X69837093Y-19780020D01*
X70018455Y-20218950D01*
X70353984Y-20555064D01*
X70792597Y-20737192D01*
X71267520Y-20737607D01*
X71706450Y-20556245D01*
X72042564Y-20220716D01*
X72224692Y-19782103D01*
X72225107Y-19307180D01*
X72225107Y-21847180D01*
X72043745Y-21408250D01*
X71708216Y-21072136D01*
X71269603Y-20890008D01*
X70794680Y-20889593D01*
X70355750Y-21070955D01*
X70019636Y-21406484D01*
X69837508Y-21845097D01*
X69837093Y-22320020D01*
X70018455Y-22758950D01*
X70353984Y-23095064D01*
X70792597Y-23277192D01*
X71267520Y-23277607D01*
X71706450Y-23096245D01*
X72042564Y-22760716D01*
X72224692Y-22322103D01*
X72225107Y-21847180D01*
X72225107Y-30733741D01*
X72194000Y-30733741D01*
X72029356Y-30765685D01*
X71884649Y-30860742D01*
X71787784Y-31004245D01*
X71753741Y-31174000D01*
X71753741Y-31213585D01*
X71722113Y-31166251D01*
X71252413Y-30852407D01*
X70698364Y-30742200D01*
X70641636Y-30742200D01*
X70087587Y-30852407D01*
X69685107Y-31121335D01*
X69685107Y-21847180D01*
X69685107Y-19307180D01*
X69503745Y-18868250D01*
X69168216Y-18532136D01*
X68729603Y-18350008D01*
X68254680Y-18349593D01*
X67815750Y-18530955D01*
X67479636Y-18866484D01*
X67297508Y-19305097D01*
X67297093Y-19780020D01*
X67478455Y-20218950D01*
X67813984Y-20555064D01*
X68252597Y-20737192D01*
X68727520Y-20737607D01*
X69166450Y-20556245D01*
X69502564Y-20220716D01*
X69684692Y-19782103D01*
X69685107Y-19307180D01*
X69685107Y-21847180D01*
X69503745Y-21408250D01*
X69168216Y-21072136D01*
X68729603Y-20890008D01*
X68254680Y-20889593D01*
X67815750Y-21070955D01*
X67479636Y-21406484D01*
X67297508Y-21845097D01*
X67297093Y-22320020D01*
X67478455Y-22758950D01*
X67813984Y-23095064D01*
X68252597Y-23277192D01*
X68727520Y-23277607D01*
X69166450Y-23096245D01*
X69502564Y-22760716D01*
X69684692Y-22322103D01*
X69685107Y-21847180D01*
X69685107Y-31121335D01*
X69617887Y-31166251D01*
X69304043Y-31635951D01*
X69193836Y-32190000D01*
X69304043Y-32744049D01*
X69617887Y-33213749D01*
X70087587Y-33527593D01*
X70141303Y-33538277D01*
X69728636Y-33814014D01*
X69447828Y-34234272D01*
X69400000Y-34474720D01*
X69352172Y-34234272D01*
X69071364Y-33814014D01*
X68651106Y-33533206D01*
X68155378Y-33434600D01*
X68104622Y-33434600D01*
X67608894Y-33533206D01*
X67188636Y-33814014D01*
X67145107Y-33879159D01*
X67145107Y-21847180D01*
X67145107Y-19307180D01*
X66963745Y-18868250D01*
X66628216Y-18532136D01*
X66189603Y-18350008D01*
X65714680Y-18349593D01*
X65275750Y-18530955D01*
X64939636Y-18866484D01*
X64757508Y-19305097D01*
X64757093Y-19780020D01*
X64938455Y-20218950D01*
X65273984Y-20555064D01*
X65712597Y-20737192D01*
X66187520Y-20737607D01*
X66626450Y-20556245D01*
X66962564Y-20220716D01*
X67144692Y-19782103D01*
X67145107Y-19307180D01*
X67145107Y-21847180D01*
X66963745Y-21408250D01*
X66628216Y-21072136D01*
X66189603Y-20890008D01*
X65714680Y-20889593D01*
X65275750Y-21070955D01*
X64939636Y-21406484D01*
X64757508Y-21845097D01*
X64757093Y-22320020D01*
X64938455Y-22758950D01*
X65273984Y-23095064D01*
X65712597Y-23277192D01*
X66187520Y-23277607D01*
X66626450Y-23096245D01*
X66962564Y-22760716D01*
X67144692Y-22322103D01*
X67145107Y-21847180D01*
X67145107Y-33879159D01*
X66907828Y-34234272D01*
X66860000Y-34474720D01*
X66812172Y-34234272D01*
X66531364Y-33814014D01*
X66111106Y-33533206D01*
X65656259Y-33442731D01*
X65656259Y-30186000D01*
X65656259Y-28154000D01*
X65624315Y-27989356D01*
X65529258Y-27844649D01*
X65385755Y-27747784D01*
X65216000Y-27713741D01*
X65176414Y-27713741D01*
X65223749Y-27682113D01*
X65537593Y-27212413D01*
X65647800Y-26658364D01*
X65647800Y-26601636D01*
X65537593Y-26047587D01*
X65223749Y-25577887D01*
X64754049Y-25264043D01*
X64605107Y-25234416D01*
X64605107Y-21847180D01*
X64423745Y-21408250D01*
X64088216Y-21072136D01*
X63649603Y-20890008D01*
X63174680Y-20889593D01*
X62976151Y-20971623D01*
X62976426Y-20655734D01*
X63172597Y-20737192D01*
X63647520Y-20737607D01*
X64086450Y-20556245D01*
X64422564Y-20220716D01*
X64604692Y-19782103D01*
X64605107Y-19307180D01*
X64423745Y-18868250D01*
X64088216Y-18532136D01*
X63649603Y-18350008D01*
X63174680Y-18349593D01*
X62735750Y-18530955D01*
X62399636Y-18866484D01*
X62217508Y-19305097D01*
X62217093Y-19780020D01*
X62276823Y-19924579D01*
X62275072Y-19923852D01*
X62005930Y-19923617D01*
X62064692Y-19782103D01*
X62065107Y-19307180D01*
X61883745Y-18868250D01*
X61548216Y-18532136D01*
X61109603Y-18350008D01*
X60634680Y-18349593D01*
X60195750Y-18530955D01*
X59859636Y-18866484D01*
X59677508Y-19305097D01*
X59677093Y-19780020D01*
X59858455Y-20218950D01*
X60193984Y-20555064D01*
X60632597Y-20737192D01*
X61107520Y-20737607D01*
X61223795Y-20689562D01*
X61223579Y-20937335D01*
X61109603Y-20890008D01*
X60634680Y-20889593D01*
X60195750Y-21070955D01*
X59859636Y-21406484D01*
X59677508Y-21845097D01*
X59677093Y-22320020D01*
X59858455Y-22758950D01*
X60193984Y-23095064D01*
X60632597Y-23277192D01*
X61107520Y-23277607D01*
X61546450Y-23096245D01*
X61882564Y-22760716D01*
X62064692Y-22322103D01*
X62065107Y-21847180D01*
X61994463Y-21676208D01*
X62273542Y-21676452D01*
X62290433Y-21669472D01*
X62217508Y-21845097D01*
X62217093Y-22320020D01*
X62398455Y-22758950D01*
X62733984Y-23095064D01*
X63172597Y-23277192D01*
X63647520Y-23277607D01*
X64086450Y-23096245D01*
X64422564Y-22760716D01*
X64604692Y-22322103D01*
X64605107Y-21847180D01*
X64605107Y-25234416D01*
X64200000Y-25153836D01*
X63645951Y-25264043D01*
X63176251Y-25577887D01*
X62976189Y-25877299D01*
X62976452Y-25576458D01*
X62843324Y-25254264D01*
X62597032Y-25007542D01*
X62275072Y-24873852D01*
X61926458Y-24873548D01*
X61604264Y-25006676D01*
X61474990Y-25135724D01*
X61347032Y-25007542D01*
X61025072Y-24873852D01*
X60676458Y-24873548D01*
X60354264Y-25006676D01*
X60224990Y-25135724D01*
X60097032Y-25007542D01*
X59775072Y-24873852D01*
X59525107Y-24873634D01*
X59525107Y-21847180D01*
X59525107Y-19307180D01*
X59343745Y-18868250D01*
X59008216Y-18532136D01*
X58569603Y-18350008D01*
X58094680Y-18349593D01*
X57655750Y-18530955D01*
X57319636Y-18866484D01*
X57137508Y-19305097D01*
X57137093Y-19780020D01*
X57318455Y-20218950D01*
X57653984Y-20555064D01*
X58092597Y-20737192D01*
X58567520Y-20737607D01*
X59006450Y-20556245D01*
X59342564Y-20220716D01*
X59524692Y-19782103D01*
X59525107Y-19307180D01*
X59525107Y-21847180D01*
X59343745Y-21408250D01*
X59008216Y-21072136D01*
X58569603Y-20890008D01*
X58094680Y-20889593D01*
X57655750Y-21070955D01*
X57319636Y-21406484D01*
X57137508Y-21845097D01*
X57137093Y-22320020D01*
X57318455Y-22758950D01*
X57653984Y-23095064D01*
X58092597Y-23277192D01*
X58567520Y-23277607D01*
X59006450Y-23096245D01*
X59342564Y-22760716D01*
X59524692Y-22322103D01*
X59525107Y-21847180D01*
X59525107Y-24873634D01*
X59426458Y-24873548D01*
X59104264Y-25006676D01*
X58949947Y-25160724D01*
X58797032Y-25007542D01*
X58475072Y-24873852D01*
X58126458Y-24873548D01*
X57804264Y-25006676D01*
X57557542Y-25252968D01*
X57423852Y-25574928D01*
X57423548Y-25923542D01*
X57556676Y-26245736D01*
X57802968Y-26492458D01*
X58124928Y-26626148D01*
X58473542Y-26626452D01*
X58795736Y-26493324D01*
X58950052Y-26339275D01*
X59102968Y-26492458D01*
X59424928Y-26626148D01*
X59773542Y-26626452D01*
X60095736Y-26493324D01*
X60225009Y-26364275D01*
X60352968Y-26492458D01*
X60674928Y-26626148D01*
X61023542Y-26626452D01*
X61345736Y-26493324D01*
X61475009Y-26364275D01*
X61602968Y-26492458D01*
X61924928Y-26626148D01*
X62273542Y-26626452D01*
X62595736Y-26493324D01*
X62817848Y-26271598D01*
X62752200Y-26601636D01*
X62752200Y-26658364D01*
X62862407Y-27212413D01*
X63176251Y-27682113D01*
X63223585Y-27713741D01*
X63184000Y-27713741D01*
X63019356Y-27745685D01*
X62874649Y-27840742D01*
X62777784Y-27984245D01*
X62743741Y-28154000D01*
X62743741Y-30186000D01*
X62775685Y-30350644D01*
X62870742Y-30495351D01*
X63014245Y-30592216D01*
X63184000Y-30626259D01*
X65216000Y-30626259D01*
X65380644Y-30594315D01*
X65525351Y-30499258D01*
X65622216Y-30355755D01*
X65656259Y-30186000D01*
X65656259Y-33442731D01*
X65615378Y-33434600D01*
X65564622Y-33434600D01*
X65068894Y-33533206D01*
X64648636Y-33814014D01*
X64367828Y-34234272D01*
X64269222Y-34730000D01*
X64367828Y-35225728D01*
X64648636Y-35645986D01*
X65068894Y-35926794D01*
X65436927Y-36000000D01*
X65068894Y-36073206D01*
X64648636Y-36354014D01*
X64367828Y-36774272D01*
X64269222Y-37270000D01*
X64367828Y-37765728D01*
X64648636Y-38185986D01*
X65068894Y-38466794D01*
X65564622Y-38565400D01*
X65615378Y-38565400D01*
X66111106Y-38466794D01*
X66531364Y-38185986D01*
X66812172Y-37765728D01*
X66860000Y-37525279D01*
X66907828Y-37765728D01*
X67188636Y-38185986D01*
X67608894Y-38466794D01*
X68104622Y-38565400D01*
X68155378Y-38565400D01*
X68651106Y-38466794D01*
X69071364Y-38185986D01*
X69352172Y-37765728D01*
X69400000Y-37525279D01*
X69447828Y-37765728D01*
X69728636Y-38185986D01*
X70148894Y-38466794D01*
X70644622Y-38565400D01*
X70695378Y-38565400D01*
X71191106Y-38466794D01*
X71611364Y-38185986D01*
X71711400Y-38036271D01*
X71711400Y-38259910D01*
X71808073Y-38493299D01*
X71986702Y-38671927D01*
X72220091Y-38768600D01*
X72924250Y-38768600D01*
X73083000Y-38609850D01*
X73083000Y-37397000D01*
X73063000Y-37397000D01*
X73063000Y-37143000D01*
X73083000Y-37143000D01*
X73083000Y-36064469D01*
X73083000Y-35930150D01*
X73083000Y-34857000D01*
X73063000Y-34857000D01*
X73063000Y-34603000D01*
X73083000Y-34603000D01*
X73083000Y-34583000D01*
X73337000Y-34583000D01*
X73337000Y-34603000D01*
X74543817Y-34603000D01*
X74664958Y-34370974D01*
X74492688Y-33955053D01*
X74210832Y-33646259D01*
X74226000Y-33646259D01*
X74390644Y-33614315D01*
X74535351Y-33519258D01*
X74632216Y-33375755D01*
X74666259Y-33206000D01*
X74666259Y-36177869D01*
X74611927Y-36046701D01*
X74433298Y-35868073D01*
X74235880Y-35786299D01*
X74492688Y-35504947D01*
X74664958Y-35089026D01*
X74543817Y-34857000D01*
X73337000Y-34857000D01*
X73337000Y-35930150D01*
X73337000Y-36064469D01*
X73337000Y-37143000D01*
X74549850Y-37143000D01*
X74708600Y-36984250D01*
X74708600Y-37555750D01*
X74549850Y-37397000D01*
X73337000Y-37397000D01*
X73337000Y-38609850D01*
X73495750Y-38768600D01*
X74199909Y-38768600D01*
X74433298Y-38671927D01*
X74611927Y-38493299D01*
X74708600Y-38259910D01*
X74708600Y-43264504D01*
X74594043Y-43435951D01*
X74483836Y-43990000D01*
X74594043Y-44544049D01*
X74907887Y-45013749D01*
X75377587Y-45327593D01*
X75931636Y-45437800D01*
X75988364Y-45437800D01*
X76542413Y-45327593D01*
X77012113Y-45013749D01*
X77043741Y-44966414D01*
X77043741Y-45006000D01*
X77075685Y-45170644D01*
X77170742Y-45315351D01*
X77314245Y-45412216D01*
X77484000Y-45446259D01*
X77631863Y-45446259D01*
X77403250Y-45599014D01*
X77122442Y-46019272D01*
X77023836Y-46515000D01*
X77122442Y-47010728D01*
X77403250Y-47430986D01*
X77823508Y-47711794D01*
X78191541Y-47785000D01*
X77823508Y-47858206D01*
X77403250Y-48139014D01*
X77122442Y-48559272D01*
X77023836Y-49055000D01*
X77122442Y-49550728D01*
X77403250Y-49970986D01*
X77823508Y-50251794D01*
X78191541Y-50325000D01*
X77823508Y-50398206D01*
X77403250Y-50679014D01*
X77122442Y-51099272D01*
X77023836Y-51595000D01*
X77122442Y-52090728D01*
X77403250Y-52510986D01*
X77823508Y-52791794D01*
X78191541Y-52865000D01*
X77823508Y-52938206D01*
X77403250Y-53219014D01*
X77122442Y-53639272D01*
X77023836Y-54135000D01*
X77122442Y-54630728D01*
X77403250Y-55050986D01*
X77792132Y-55310829D01*
X77585680Y-55383046D01*
X77149268Y-55772964D01*
X76895291Y-56300209D01*
X76892642Y-56315974D01*
X77013783Y-56548000D01*
X78373000Y-56548000D01*
X78373000Y-56528000D01*
X78627000Y-56528000D01*
X78627000Y-56548000D01*
X79986217Y-56548000D01*
X80107358Y-56315974D01*
X80107358Y-57034026D01*
X79986217Y-56802000D01*
X78627000Y-56802000D01*
X78627000Y-56822000D01*
X78373000Y-56822000D01*
X78373000Y-56802000D01*
X77013783Y-56802000D01*
X76892642Y-57034026D01*
X76895291Y-57049791D01*
X77149268Y-57577036D01*
X77585680Y-57966954D01*
X77792132Y-58039170D01*
X77403250Y-58299014D01*
X77122442Y-58719272D01*
X77023836Y-59215000D01*
X77122442Y-59710728D01*
X77403250Y-60130986D01*
X77823508Y-60411794D01*
X78191541Y-60485000D01*
X77823508Y-60558206D01*
X77403250Y-60839014D01*
X77122442Y-61259272D01*
X77023836Y-61755000D01*
X77122442Y-62250728D01*
X77403250Y-62670986D01*
X77823508Y-62951794D01*
X78191541Y-63025000D01*
X77823508Y-63098206D01*
X77403250Y-63379014D01*
X77122442Y-63799272D01*
X77023836Y-64295000D01*
X77122442Y-64790728D01*
X77403250Y-65210986D01*
X77823508Y-65491794D01*
X78021319Y-65531141D01*
X77484000Y-65531141D01*
X77319356Y-65563085D01*
X77174649Y-65658142D01*
X77108662Y-65755898D01*
X76857036Y-65474268D01*
X76329791Y-65220291D01*
X76314026Y-65217642D01*
X76082000Y-65338783D01*
X76082000Y-66698000D01*
X76102000Y-66698000D01*
X76102000Y-66952000D01*
X76082000Y-66952000D01*
X76082000Y-68311217D01*
X76314026Y-68432358D01*
X76329791Y-68429709D01*
X76857036Y-68175732D01*
X77101339Y-67902297D01*
X77170742Y-68007951D01*
X77314245Y-68104816D01*
X77484000Y-68138859D01*
X77697451Y-68138859D01*
X77404824Y-68259770D01*
X76889081Y-68774614D01*
X76609619Y-69447634D01*
X76608983Y-70176369D01*
X76887270Y-70849876D01*
X77402114Y-71365619D01*
X78075134Y-71645081D01*
X78803869Y-71645717D01*
X79477376Y-71367430D01*
X79993119Y-70852586D01*
X80272581Y-70179566D01*
X80273217Y-69450831D01*
X80273217Y-72348390D01*
X79890305Y-72604244D01*
X78890084Y-72803200D01*
X75828000Y-72803200D01*
X75828000Y-68311217D01*
X75828000Y-66952000D01*
X75808000Y-66952000D01*
X75808000Y-66698000D01*
X75828000Y-66698000D01*
X75828000Y-65338783D01*
X75595974Y-65217642D01*
X75580209Y-65220291D01*
X75052964Y-65474268D01*
X74663046Y-65910680D01*
X74590829Y-66117132D01*
X74330986Y-65728250D01*
X73910728Y-65447442D01*
X73415000Y-65348836D01*
X72919272Y-65447442D01*
X72499014Y-65728250D01*
X72218206Y-66148508D01*
X72145000Y-66516541D01*
X72071794Y-66148508D01*
X71790986Y-65728250D01*
X71451452Y-65501380D01*
X71451452Y-44201458D01*
X71318324Y-43879264D01*
X71072032Y-43632542D01*
X70750072Y-43498852D01*
X70401458Y-43498548D01*
X70079264Y-43631676D01*
X69832542Y-43877968D01*
X69698852Y-44199928D01*
X69698548Y-44548542D01*
X69831676Y-44870736D01*
X70077968Y-45117458D01*
X70399928Y-45251148D01*
X70748542Y-45251452D01*
X71070736Y-45118324D01*
X71317458Y-44872032D01*
X71451148Y-44550072D01*
X71451452Y-44201458D01*
X71451452Y-65501380D01*
X71370728Y-65447442D01*
X70875000Y-65348836D01*
X70379272Y-65447442D01*
X69959014Y-65728250D01*
X69678206Y-66148508D01*
X69605000Y-66516541D01*
X69531794Y-66148508D01*
X69250986Y-65728250D01*
X69176452Y-65678447D01*
X69176452Y-44226458D01*
X69043324Y-43904264D01*
X68797032Y-43657542D01*
X68475072Y-43523852D01*
X68126458Y-43523548D01*
X67804264Y-43656676D01*
X67557542Y-43902968D01*
X67423852Y-44224928D01*
X67423548Y-44573542D01*
X67556676Y-44895736D01*
X67802968Y-45142458D01*
X68124928Y-45276148D01*
X68473542Y-45276452D01*
X68795736Y-45143324D01*
X69042458Y-44897032D01*
X69176148Y-44575072D01*
X69176452Y-44226458D01*
X69176452Y-65678447D01*
X68830728Y-65447442D01*
X68335000Y-65348836D01*
X67839272Y-65447442D01*
X67445459Y-65710579D01*
X67445459Y-48361600D01*
X67445459Y-46329600D01*
X67413515Y-46164956D01*
X67318458Y-46020249D01*
X67174955Y-45923384D01*
X67005200Y-45889341D01*
X64973200Y-45889341D01*
X64808556Y-45921285D01*
X64751452Y-45958796D01*
X64751452Y-44348529D01*
X64618324Y-44026335D01*
X64372032Y-43779613D01*
X64050072Y-43645923D01*
X63701458Y-43645619D01*
X63379264Y-43778747D01*
X63287005Y-43870845D01*
X63195932Y-43779613D01*
X62873972Y-43645923D01*
X62525358Y-43645619D01*
X62203164Y-43778747D01*
X61999310Y-43982244D01*
X61797032Y-43779613D01*
X61475072Y-43645923D01*
X61126458Y-43645619D01*
X61053206Y-43675885D01*
X61015414Y-43584420D01*
X60769122Y-43337698D01*
X60447162Y-43204008D01*
X60098548Y-43203704D01*
X59776354Y-43336832D01*
X59529632Y-43583124D01*
X59395942Y-43905084D01*
X59395638Y-44253698D01*
X59528766Y-44575892D01*
X59775058Y-44822614D01*
X60097018Y-44956304D01*
X60445632Y-44956608D01*
X60518883Y-44926341D01*
X60556676Y-45017807D01*
X60802968Y-45264529D01*
X61124928Y-45398219D01*
X61473542Y-45398523D01*
X61795736Y-45265395D01*
X61999589Y-45061897D01*
X62201868Y-45264529D01*
X62523828Y-45398219D01*
X62872442Y-45398523D01*
X63194636Y-45265395D01*
X63286894Y-45173296D01*
X63377968Y-45264529D01*
X63699928Y-45398219D01*
X64048542Y-45398523D01*
X64370736Y-45265395D01*
X64617458Y-45019103D01*
X64751148Y-44697143D01*
X64751452Y-44348529D01*
X64751452Y-45958796D01*
X64663849Y-46016342D01*
X64566984Y-46159845D01*
X64532941Y-46329600D01*
X64532941Y-48361600D01*
X64564885Y-48526244D01*
X64659942Y-48670951D01*
X64803445Y-48767816D01*
X64973200Y-48801859D01*
X65012785Y-48801859D01*
X64965451Y-48833487D01*
X64651607Y-49303187D01*
X64541400Y-49857236D01*
X64541400Y-49913964D01*
X64651607Y-50468013D01*
X64965451Y-50937713D01*
X65435151Y-51251557D01*
X65989200Y-51361764D01*
X66543249Y-51251557D01*
X67012949Y-50937713D01*
X67326793Y-50468013D01*
X67437000Y-49913964D01*
X67437000Y-49857236D01*
X67326793Y-49303187D01*
X67012949Y-48833487D01*
X66965614Y-48801859D01*
X67005200Y-48801859D01*
X67169844Y-48769915D01*
X67314551Y-48674858D01*
X67411416Y-48531355D01*
X67445459Y-48361600D01*
X67445459Y-65710579D01*
X67419014Y-65728250D01*
X67138206Y-66148508D01*
X67098859Y-66346319D01*
X67098859Y-65809000D01*
X67066915Y-65644356D01*
X66971858Y-65499649D01*
X66828355Y-65402784D01*
X66658600Y-65368741D01*
X64931400Y-65368741D01*
X64766756Y-65400685D01*
X64622049Y-65495742D01*
X64525184Y-65639245D01*
X64491141Y-65809000D01*
X64491141Y-67841000D01*
X64523085Y-68005644D01*
X64618142Y-68150351D01*
X64761645Y-68247216D01*
X64931400Y-68281259D01*
X66658600Y-68281259D01*
X66823244Y-68249315D01*
X66967951Y-68154258D01*
X67064816Y-68010755D01*
X67098859Y-67841000D01*
X67098859Y-67303680D01*
X67138206Y-67501492D01*
X67419014Y-67921750D01*
X67839272Y-68202558D01*
X68335000Y-68301164D01*
X68830728Y-68202558D01*
X69250986Y-67921750D01*
X69531794Y-67501492D01*
X69605000Y-67133458D01*
X69678206Y-67501492D01*
X69959014Y-67921750D01*
X70379272Y-68202558D01*
X70875000Y-68301164D01*
X71370728Y-68202558D01*
X71790986Y-67921750D01*
X72071794Y-67501492D01*
X72145000Y-67133458D01*
X72218206Y-67501492D01*
X72499014Y-67921750D01*
X72919272Y-68202558D01*
X73415000Y-68301164D01*
X73910728Y-68202558D01*
X74330986Y-67921750D01*
X74590829Y-67532867D01*
X74663046Y-67739320D01*
X75052964Y-68175732D01*
X75580209Y-68429709D01*
X75595974Y-68432358D01*
X75828000Y-68311217D01*
X75828000Y-72803200D01*
X63989914Y-72803200D01*
X63755060Y-72756484D01*
X63598275Y-72651724D01*
X63493515Y-72494939D01*
X63446800Y-72260085D01*
X63446800Y-54310000D01*
X63437062Y-54261043D01*
X63437062Y-54211129D01*
X63360942Y-53828446D01*
X63360942Y-53828445D01*
X63285269Y-53645754D01*
X63068496Y-53321330D01*
X62928670Y-53181504D01*
X62604246Y-52964731D01*
X62421554Y-52889058D01*
X62038872Y-52812938D01*
X62038871Y-52812938D01*
X61841129Y-52812938D01*
X61841128Y-52812938D01*
X61841127Y-52812938D01*
X61458446Y-52889058D01*
X61458445Y-52889058D01*
X61275754Y-52964731D01*
X60951330Y-53181504D01*
X60811504Y-53321330D01*
X60594731Y-53645754D01*
X60519058Y-53828446D01*
X60442938Y-54211129D01*
X60442938Y-54261043D01*
X60433200Y-54310000D01*
X60433200Y-72260085D01*
X60386484Y-72494939D01*
X60281724Y-72651724D01*
X60124939Y-72756484D01*
X59890085Y-72803200D01*
X59546698Y-72803200D01*
X59546698Y-46229396D01*
X59413570Y-45907202D01*
X59167278Y-45660480D01*
X58845318Y-45526790D01*
X58496704Y-45526486D01*
X58174510Y-45659614D01*
X57927788Y-45905906D01*
X57871164Y-46042268D01*
X57871164Y-36750000D01*
X57760957Y-36195951D01*
X57447113Y-35726251D01*
X57342362Y-35656259D01*
X57411000Y-35656259D01*
X57575644Y-35624315D01*
X57720351Y-35529258D01*
X57817216Y-35385755D01*
X57851259Y-35216000D01*
X57851259Y-33184000D01*
X57819315Y-33019356D01*
X57724258Y-32874649D01*
X57580755Y-32777784D01*
X57411000Y-32743741D01*
X56985107Y-32743741D01*
X56985107Y-21847180D01*
X56985107Y-19307180D01*
X56803745Y-18868250D01*
X56468216Y-18532136D01*
X56029603Y-18350008D01*
X55554680Y-18349593D01*
X55115750Y-18530955D01*
X54779636Y-18866484D01*
X54597508Y-19305097D01*
X54597093Y-19780020D01*
X54778455Y-20218950D01*
X55113984Y-20555064D01*
X55552597Y-20737192D01*
X56027520Y-20737607D01*
X56466450Y-20556245D01*
X56802564Y-20220716D01*
X56984692Y-19782103D01*
X56985107Y-19307180D01*
X56985107Y-21847180D01*
X56803745Y-21408250D01*
X56468216Y-21072136D01*
X56029603Y-20890008D01*
X55554680Y-20889593D01*
X55115750Y-21070955D01*
X54779636Y-21406484D01*
X54597508Y-21845097D01*
X54597093Y-22320020D01*
X54778455Y-22758950D01*
X55113984Y-23095064D01*
X55552597Y-23277192D01*
X56027520Y-23277607D01*
X56466450Y-23096245D01*
X56802564Y-22760716D01*
X56984692Y-22322103D01*
X56985107Y-21847180D01*
X56985107Y-32743741D01*
X56876164Y-32743741D01*
X56876164Y-27400000D01*
X56777558Y-26904272D01*
X56496750Y-26484014D01*
X56076492Y-26203206D01*
X55708458Y-26130000D01*
X56076492Y-26056794D01*
X56496750Y-25775986D01*
X56777558Y-25355728D01*
X56876164Y-24860000D01*
X56777558Y-24364272D01*
X56496750Y-23944014D01*
X56076492Y-23663206D01*
X55580764Y-23564600D01*
X55219236Y-23564600D01*
X54723508Y-23663206D01*
X54445107Y-23849227D01*
X54445107Y-21847180D01*
X54445107Y-19307180D01*
X54263745Y-18868250D01*
X53928216Y-18532136D01*
X53489603Y-18350008D01*
X53014680Y-18349593D01*
X52575750Y-18530955D01*
X52239636Y-18866484D01*
X52057508Y-19305097D01*
X52057093Y-19780020D01*
X52238455Y-20218950D01*
X52573984Y-20555064D01*
X53012597Y-20737192D01*
X53487520Y-20737607D01*
X53926450Y-20556245D01*
X54262564Y-20220716D01*
X54444692Y-19782103D01*
X54445107Y-19307180D01*
X54445107Y-21847180D01*
X54263745Y-21408250D01*
X53928216Y-21072136D01*
X53489603Y-20890008D01*
X53014680Y-20889593D01*
X52575750Y-21070955D01*
X52239636Y-21406484D01*
X52057508Y-21845097D01*
X52057093Y-22320020D01*
X52238455Y-22758950D01*
X52573984Y-23095064D01*
X53012597Y-23277192D01*
X53487520Y-23277607D01*
X53926450Y-23096245D01*
X54262564Y-22760716D01*
X54444692Y-22322103D01*
X54445107Y-21847180D01*
X54445107Y-23849227D01*
X54303250Y-23944014D01*
X54022442Y-24364272D01*
X53923836Y-24860000D01*
X54022442Y-25355728D01*
X54303250Y-25775986D01*
X54723508Y-26056794D01*
X55091541Y-26130000D01*
X54723508Y-26203206D01*
X54303250Y-26484014D01*
X54022442Y-26904272D01*
X53923836Y-27400000D01*
X54022442Y-27895728D01*
X54303250Y-28315986D01*
X54723508Y-28596794D01*
X54921319Y-28636141D01*
X54384000Y-28636141D01*
X54219356Y-28668085D01*
X54074649Y-28763142D01*
X53977784Y-28906645D01*
X53943741Y-29076400D01*
X53943741Y-30803600D01*
X53975685Y-30968244D01*
X54070742Y-31112951D01*
X54214245Y-31209816D01*
X54384000Y-31243859D01*
X56416000Y-31243859D01*
X56580644Y-31211915D01*
X56725351Y-31116858D01*
X56822216Y-30973355D01*
X56856259Y-30803600D01*
X56856259Y-29076400D01*
X56824315Y-28911756D01*
X56729258Y-28767049D01*
X56585755Y-28670184D01*
X56416000Y-28636141D01*
X55878680Y-28636141D01*
X56076492Y-28596794D01*
X56496750Y-28315986D01*
X56777558Y-27895728D01*
X56876164Y-27400000D01*
X56876164Y-32743741D01*
X55379000Y-32743741D01*
X55214356Y-32775685D01*
X55069649Y-32870742D01*
X54972784Y-33014245D01*
X54938741Y-33184000D01*
X54938741Y-33223585D01*
X54907113Y-33176251D01*
X54437413Y-32862407D01*
X53883364Y-32752200D01*
X53826636Y-32752200D01*
X53272587Y-32862407D01*
X52802887Y-33176251D01*
X52489043Y-33645951D01*
X52378836Y-34200000D01*
X52489043Y-34754049D01*
X52802887Y-35223749D01*
X52907637Y-35293741D01*
X52839000Y-35293741D01*
X52674356Y-35325685D01*
X52529649Y-35420742D01*
X52432784Y-35564245D01*
X52398741Y-35734000D01*
X52398741Y-37766000D01*
X52430685Y-37930644D01*
X52525742Y-38075351D01*
X52669245Y-38172216D01*
X52839000Y-38206259D01*
X54871000Y-38206259D01*
X55035644Y-38174315D01*
X55180351Y-38079258D01*
X55277216Y-37935755D01*
X55311259Y-37766000D01*
X55311259Y-37726414D01*
X55342887Y-37773749D01*
X55812587Y-38087593D01*
X56366636Y-38197800D01*
X56423364Y-38197800D01*
X56977413Y-38087593D01*
X57447113Y-37773749D01*
X57760957Y-37304049D01*
X57871164Y-36750000D01*
X57871164Y-46042268D01*
X57859045Y-46071454D01*
X57773144Y-45985403D01*
X57451184Y-45851713D01*
X57102570Y-45851409D01*
X56780376Y-45984537D01*
X56533654Y-46230829D01*
X56528675Y-46242819D01*
X56231528Y-46119433D01*
X55882914Y-46119129D01*
X55560720Y-46252257D01*
X55313998Y-46498549D01*
X55180308Y-46820509D01*
X55180004Y-47169123D01*
X55313132Y-47491317D01*
X55559424Y-47738039D01*
X55881384Y-47871729D01*
X56229998Y-47872033D01*
X56516577Y-47753620D01*
X56516379Y-47980805D01*
X56602631Y-48189552D01*
X56564304Y-48189519D01*
X56341414Y-48281614D01*
X56334739Y-48265458D01*
X56088447Y-48018736D01*
X55766487Y-47885046D01*
X55417873Y-47884742D01*
X55095679Y-48017870D01*
X54848957Y-48264162D01*
X54715267Y-48586122D01*
X54714963Y-48934736D01*
X54848091Y-49256930D01*
X55094383Y-49503652D01*
X55416343Y-49637342D01*
X55480370Y-49637397D01*
X55402267Y-49825491D01*
X55401963Y-50174105D01*
X55535091Y-50496299D01*
X55677280Y-50638736D01*
X55589590Y-50849917D01*
X55589286Y-51198531D01*
X55600550Y-51225793D01*
X55564264Y-51240787D01*
X55489304Y-51315616D01*
X55193693Y-51192867D01*
X54845079Y-51192563D01*
X54522885Y-51325691D01*
X54276163Y-51571983D01*
X54142473Y-51893943D01*
X54142169Y-52242557D01*
X54275297Y-52564751D01*
X54521589Y-52811473D01*
X54843549Y-52945163D01*
X55192163Y-52945467D01*
X55514357Y-52812339D01*
X55589316Y-52737509D01*
X55884928Y-52860259D01*
X56233542Y-52860563D01*
X56555736Y-52727435D01*
X56802458Y-52481143D01*
X56936148Y-52159183D01*
X56936452Y-51810569D01*
X56925187Y-51783306D01*
X56961474Y-51768313D01*
X57208196Y-51522021D01*
X57341886Y-51200061D01*
X57342190Y-50851447D01*
X57209062Y-50529253D01*
X57066872Y-50386815D01*
X57154563Y-50175635D01*
X57154854Y-49841824D01*
X57233582Y-49809295D01*
X57480304Y-49563003D01*
X57613994Y-49241043D01*
X57614298Y-48892429D01*
X57528045Y-48683681D01*
X57566373Y-48683715D01*
X57888567Y-48550587D01*
X58135289Y-48304295D01*
X58268979Y-47982335D01*
X58269283Y-47633721D01*
X58136155Y-47311527D01*
X58027706Y-47202889D01*
X58087312Y-47059344D01*
X58173214Y-47145396D01*
X58495174Y-47279086D01*
X58843788Y-47279390D01*
X59165982Y-47146262D01*
X59412704Y-46899970D01*
X59546394Y-46578010D01*
X59546698Y-46229396D01*
X59546698Y-72803200D01*
X56274584Y-72803200D01*
X56274584Y-56525313D01*
X56141456Y-56203119D01*
X55895164Y-55956397D01*
X55573204Y-55822707D01*
X55224590Y-55822403D01*
X54902396Y-55955531D01*
X54655674Y-56201823D01*
X54521984Y-56523783D01*
X54521680Y-56872397D01*
X54648832Y-57180128D01*
X54587832Y-57241022D01*
X54454142Y-57562982D01*
X54453838Y-57911596D01*
X54586966Y-58233790D01*
X54833258Y-58480512D01*
X55155218Y-58614202D01*
X55503832Y-58614506D01*
X55826026Y-58481378D01*
X56072748Y-58235086D01*
X56206438Y-57913126D01*
X56206742Y-57564512D01*
X56079589Y-57256780D01*
X56140590Y-57195887D01*
X56274280Y-56873927D01*
X56274584Y-56525313D01*
X56274584Y-72803200D01*
X53076452Y-72803200D01*
X53076452Y-61126458D01*
X52943324Y-60804264D01*
X52898363Y-60759224D01*
X52898363Y-58122044D01*
X52765235Y-57799850D01*
X52556452Y-57590702D01*
X52556452Y-46556458D01*
X52423324Y-46234264D01*
X52226259Y-46036854D01*
X52226259Y-39116000D01*
X52226259Y-37084000D01*
X52194315Y-36919356D01*
X52099258Y-36774649D01*
X51955755Y-36677784D01*
X51905107Y-36667626D01*
X51905107Y-21847180D01*
X51905107Y-19307180D01*
X51723745Y-18868250D01*
X51388216Y-18532136D01*
X50949603Y-18350008D01*
X50474680Y-18349593D01*
X50035750Y-18530955D01*
X49699636Y-18866484D01*
X49517508Y-19305097D01*
X49517093Y-19780020D01*
X49698455Y-20218950D01*
X50033984Y-20555064D01*
X50472597Y-20737192D01*
X50947520Y-20737607D01*
X51386450Y-20556245D01*
X51722564Y-20220716D01*
X51904692Y-19782103D01*
X51905107Y-19307180D01*
X51905107Y-21847180D01*
X51723745Y-21408250D01*
X51388216Y-21072136D01*
X50949603Y-20890008D01*
X50474680Y-20889593D01*
X50035750Y-21070955D01*
X49699636Y-21406484D01*
X49517508Y-21845097D01*
X49517093Y-22320020D01*
X49698455Y-22758950D01*
X50033984Y-23095064D01*
X50472597Y-23277192D01*
X50947520Y-23277607D01*
X51386450Y-23096245D01*
X51722564Y-22760716D01*
X51904692Y-22322103D01*
X51905107Y-21847180D01*
X51905107Y-36667626D01*
X51786000Y-36643741D01*
X49754000Y-36643741D01*
X49589356Y-36675685D01*
X49444649Y-36770742D01*
X49365107Y-36888581D01*
X49365107Y-21847180D01*
X49365107Y-19307180D01*
X49183745Y-18868250D01*
X48848216Y-18532136D01*
X48409603Y-18350008D01*
X47934680Y-18349593D01*
X47495750Y-18530955D01*
X47159636Y-18866484D01*
X46977508Y-19305097D01*
X46977093Y-19780020D01*
X47158455Y-20218950D01*
X47493984Y-20555064D01*
X47932597Y-20737192D01*
X48407520Y-20737607D01*
X48846450Y-20556245D01*
X49182564Y-20220716D01*
X49364692Y-19782103D01*
X49365107Y-19307180D01*
X49365107Y-21847180D01*
X49183745Y-21408250D01*
X48848216Y-21072136D01*
X48409603Y-20890008D01*
X47934680Y-20889593D01*
X47495750Y-21070955D01*
X47159636Y-21406484D01*
X46977508Y-21845097D01*
X46977093Y-22320020D01*
X47158455Y-22758950D01*
X47493984Y-23095064D01*
X47932597Y-23277192D01*
X48407520Y-23277607D01*
X48846450Y-23096245D01*
X49182564Y-22760716D01*
X49364692Y-22322103D01*
X49365107Y-21847180D01*
X49365107Y-36888581D01*
X49347784Y-36914245D01*
X49313741Y-37084000D01*
X49313741Y-37123585D01*
X49282113Y-37076251D01*
X48812413Y-36762407D01*
X48258364Y-36652200D01*
X48201636Y-36652200D01*
X48040003Y-36684350D01*
X48040115Y-36556931D01*
X47906987Y-36234737D01*
X47660695Y-35988015D01*
X47376452Y-35869986D01*
X47376452Y-34726458D01*
X47243324Y-34404264D01*
X47189275Y-34350121D01*
X47242458Y-34297032D01*
X47376148Y-33975072D01*
X47376452Y-33626458D01*
X47243324Y-33304264D01*
X47189275Y-33250121D01*
X47242458Y-33197032D01*
X47376148Y-32875072D01*
X47376452Y-32526458D01*
X47243324Y-32204264D01*
X47189275Y-32150121D01*
X47242458Y-32097032D01*
X47376148Y-31775072D01*
X47376452Y-31426458D01*
X47243324Y-31104264D01*
X47189275Y-31050121D01*
X47242458Y-30997032D01*
X47376148Y-30675072D01*
X47376452Y-30326458D01*
X47243324Y-30004264D01*
X46997032Y-29757542D01*
X46825107Y-29686152D01*
X46825107Y-21847180D01*
X46825107Y-19307180D01*
X46643745Y-18868250D01*
X46308216Y-18532136D01*
X45869603Y-18350008D01*
X45394680Y-18349593D01*
X44955750Y-18530955D01*
X44619636Y-18866484D01*
X44437508Y-19305097D01*
X44437093Y-19780020D01*
X44618455Y-20218950D01*
X44953984Y-20555064D01*
X45392597Y-20737192D01*
X45867520Y-20737607D01*
X46306450Y-20556245D01*
X46642564Y-20220716D01*
X46824692Y-19782103D01*
X46825107Y-19307180D01*
X46825107Y-21847180D01*
X46643745Y-21408250D01*
X46308216Y-21072136D01*
X45869603Y-20890008D01*
X45394680Y-20889593D01*
X44955750Y-21070955D01*
X44619636Y-21406484D01*
X44437508Y-21845097D01*
X44437093Y-22320020D01*
X44438627Y-22323733D01*
X44284071Y-22323598D01*
X44284692Y-22322103D01*
X44285107Y-21847180D01*
X44285107Y-19307180D01*
X44103745Y-18868250D01*
X43768216Y-18532136D01*
X43329603Y-18350008D01*
X42854680Y-18349593D01*
X42415750Y-18530955D01*
X42079636Y-18866484D01*
X41897508Y-19305097D01*
X41897093Y-19780020D01*
X42078455Y-20218950D01*
X42413984Y-20555064D01*
X42852597Y-20737192D01*
X43327520Y-20737607D01*
X43766450Y-20556245D01*
X44102564Y-20220716D01*
X44284692Y-19782103D01*
X44285107Y-19307180D01*
X44285107Y-21847180D01*
X44103745Y-21408250D01*
X43768216Y-21072136D01*
X43329603Y-20890008D01*
X42854680Y-20889593D01*
X42415750Y-21070955D01*
X42079636Y-21406484D01*
X41897508Y-21845097D01*
X41897093Y-22320020D01*
X42078455Y-22758950D01*
X42413984Y-23095064D01*
X42852597Y-23277192D01*
X43327520Y-23277607D01*
X43523702Y-23196546D01*
X43523548Y-23373542D01*
X43656676Y-23695736D01*
X43902968Y-23942458D01*
X44224928Y-24076148D01*
X44573542Y-24076452D01*
X44895736Y-23943324D01*
X45142458Y-23697032D01*
X45276148Y-23375072D01*
X45276275Y-23228891D01*
X45392597Y-23277192D01*
X45867520Y-23277607D01*
X46306450Y-23096245D01*
X46642564Y-22760716D01*
X46824692Y-22322103D01*
X46825107Y-21847180D01*
X46825107Y-29686152D01*
X46675072Y-29623852D01*
X46326458Y-29623548D01*
X46004264Y-29756676D01*
X45757542Y-30002968D01*
X45623852Y-30324928D01*
X45623548Y-30673542D01*
X45756676Y-30995736D01*
X45810724Y-31049878D01*
X45757542Y-31102968D01*
X45623852Y-31424928D01*
X45623548Y-31773542D01*
X45756676Y-32095736D01*
X45810724Y-32149878D01*
X45757542Y-32202968D01*
X45623852Y-32524928D01*
X45623548Y-32873542D01*
X45756676Y-33195736D01*
X45810724Y-33249878D01*
X45757542Y-33302968D01*
X45623852Y-33624928D01*
X45623548Y-33973542D01*
X45658680Y-34058569D01*
X45575072Y-34023852D01*
X45226458Y-34023548D01*
X44904264Y-34156676D01*
X44850121Y-34210724D01*
X44797032Y-34157542D01*
X44475072Y-34023852D01*
X44126458Y-34023548D01*
X43804264Y-34156676D01*
X43750121Y-34210724D01*
X43697032Y-34157542D01*
X43375072Y-34023852D01*
X43026458Y-34023548D01*
X42704264Y-34156676D01*
X42650121Y-34210724D01*
X42597032Y-34157542D01*
X42275072Y-34023852D01*
X41926458Y-34023548D01*
X41745107Y-34098480D01*
X41745107Y-21847180D01*
X41745107Y-19307180D01*
X41563745Y-18868250D01*
X41228216Y-18532136D01*
X40789603Y-18350008D01*
X40314680Y-18349593D01*
X39875750Y-18530955D01*
X39539636Y-18866484D01*
X39357508Y-19305097D01*
X39357093Y-19780020D01*
X39538455Y-20218950D01*
X39873984Y-20555064D01*
X40312597Y-20737192D01*
X40787520Y-20737607D01*
X41226450Y-20556245D01*
X41562564Y-20220716D01*
X41744692Y-19782103D01*
X41745107Y-19307180D01*
X41745107Y-21847180D01*
X41563745Y-21408250D01*
X41228216Y-21072136D01*
X40789603Y-20890008D01*
X40314680Y-20889593D01*
X39875750Y-21070955D01*
X39539636Y-21406484D01*
X39357508Y-21845097D01*
X39357093Y-22320020D01*
X39538455Y-22758950D01*
X39873984Y-23095064D01*
X40312597Y-23277192D01*
X40787520Y-23277607D01*
X41226450Y-23096245D01*
X41562564Y-22760716D01*
X41744692Y-22322103D01*
X41745107Y-21847180D01*
X41745107Y-34098480D01*
X41604264Y-34156676D01*
X41550121Y-34210724D01*
X41497032Y-34157542D01*
X41175072Y-34023852D01*
X40826458Y-34023548D01*
X40504264Y-34156676D01*
X40450121Y-34210724D01*
X40397032Y-34157542D01*
X40075072Y-34023852D01*
X39726458Y-34023548D01*
X39404264Y-34156676D01*
X39350121Y-34210724D01*
X39297032Y-34157542D01*
X39205107Y-34119371D01*
X39205107Y-21847180D01*
X39205107Y-19307180D01*
X39023745Y-18868250D01*
X38688216Y-18532136D01*
X38249603Y-18350008D01*
X37774680Y-18349593D01*
X37335750Y-18530955D01*
X36999636Y-18866484D01*
X36817508Y-19305097D01*
X36817093Y-19780020D01*
X36998455Y-20218950D01*
X37333984Y-20555064D01*
X37772597Y-20737192D01*
X38247520Y-20737607D01*
X38686450Y-20556245D01*
X39022564Y-20220716D01*
X39204692Y-19782103D01*
X39205107Y-19307180D01*
X39205107Y-21847180D01*
X39023745Y-21408250D01*
X38688216Y-21072136D01*
X38249603Y-20890008D01*
X37774680Y-20889593D01*
X37335750Y-21070955D01*
X36999636Y-21406484D01*
X36817508Y-21845097D01*
X36817093Y-22320020D01*
X36998455Y-22758950D01*
X37333984Y-23095064D01*
X37772597Y-23277192D01*
X38247520Y-23277607D01*
X38686450Y-23096245D01*
X39022564Y-22760716D01*
X39204692Y-22322103D01*
X39205107Y-21847180D01*
X39205107Y-34119371D01*
X38975072Y-34023852D01*
X38626458Y-34023548D01*
X38304264Y-34156676D01*
X38250121Y-34210724D01*
X38197032Y-34157542D01*
X37875072Y-34023852D01*
X37526458Y-34023548D01*
X37204264Y-34156676D01*
X37150121Y-34210724D01*
X37097032Y-34157542D01*
X36775072Y-34023852D01*
X36665107Y-34023756D01*
X36665107Y-21847180D01*
X36665107Y-19307180D01*
X36483745Y-18868250D01*
X36148216Y-18532136D01*
X35709603Y-18350008D01*
X35234680Y-18349593D01*
X34795750Y-18530955D01*
X34459636Y-18866484D01*
X34277508Y-19305097D01*
X34277093Y-19780020D01*
X34458455Y-20218950D01*
X34793984Y-20555064D01*
X35232597Y-20737192D01*
X35707520Y-20737607D01*
X36146450Y-20556245D01*
X36482564Y-20220716D01*
X36664692Y-19782103D01*
X36665107Y-19307180D01*
X36665107Y-21847180D01*
X36483745Y-21408250D01*
X36148216Y-21072136D01*
X35709603Y-20890008D01*
X35234680Y-20889593D01*
X34795750Y-21070955D01*
X34459636Y-21406484D01*
X34277508Y-21845097D01*
X34277093Y-22320020D01*
X34458455Y-22758950D01*
X34793984Y-23095064D01*
X35232597Y-23277192D01*
X35707520Y-23277607D01*
X36146450Y-23096245D01*
X36482564Y-22760716D01*
X36664692Y-22322103D01*
X36665107Y-21847180D01*
X36665107Y-34023756D01*
X36426458Y-34023548D01*
X36104264Y-34156676D01*
X36050121Y-34210724D01*
X35997032Y-34157542D01*
X35675072Y-34023852D01*
X35326458Y-34023548D01*
X35004264Y-34156676D01*
X34899946Y-34260811D01*
X34697032Y-34057542D01*
X34558512Y-34000023D01*
X34695736Y-33943324D01*
X34942458Y-33697032D01*
X35076148Y-33375072D01*
X35076452Y-33026458D01*
X34943324Y-32704264D01*
X34697032Y-32457542D01*
X34558512Y-32400023D01*
X34695736Y-32343324D01*
X34942458Y-32097032D01*
X35076148Y-31775072D01*
X35076452Y-31426458D01*
X34943324Y-31104264D01*
X34697032Y-30857542D01*
X34679223Y-30850147D01*
X34695736Y-30843324D01*
X34942458Y-30597032D01*
X35076148Y-30275072D01*
X35076452Y-29926458D01*
X34943324Y-29604264D01*
X34697032Y-29357542D01*
X34576452Y-29307472D01*
X34576452Y-25826458D01*
X34443324Y-25504264D01*
X34197032Y-25257542D01*
X34125107Y-25227676D01*
X34125107Y-21847180D01*
X34125107Y-19307180D01*
X33943745Y-18868250D01*
X33608216Y-18532136D01*
X33169603Y-18350008D01*
X32694680Y-18349593D01*
X32255750Y-18530955D01*
X31919636Y-18866484D01*
X31737508Y-19305097D01*
X31737093Y-19780020D01*
X31918455Y-20218950D01*
X32253984Y-20555064D01*
X32692597Y-20737192D01*
X33167520Y-20737607D01*
X33606450Y-20556245D01*
X33942564Y-20220716D01*
X34124692Y-19782103D01*
X34125107Y-19307180D01*
X34125107Y-21847180D01*
X33943745Y-21408250D01*
X33608216Y-21072136D01*
X33169603Y-20890008D01*
X32694680Y-20889593D01*
X32255750Y-21070955D01*
X31919636Y-21406484D01*
X31737508Y-21845097D01*
X31737093Y-22320020D01*
X31918455Y-22758950D01*
X32253984Y-23095064D01*
X32692597Y-23277192D01*
X33167520Y-23277607D01*
X33606450Y-23096245D01*
X33942564Y-22760716D01*
X34124692Y-22322103D01*
X34125107Y-21847180D01*
X34125107Y-25227676D01*
X33875072Y-25123852D01*
X33526458Y-25123548D01*
X33204264Y-25256676D01*
X32957542Y-25502968D01*
X32823852Y-25824928D01*
X32823548Y-26173542D01*
X32956676Y-26495736D01*
X33202968Y-26742458D01*
X33524928Y-26876148D01*
X33873542Y-26876452D01*
X34195736Y-26743324D01*
X34442458Y-26497032D01*
X34576148Y-26175072D01*
X34576452Y-25826458D01*
X34576452Y-29307472D01*
X34375072Y-29223852D01*
X34026458Y-29223548D01*
X33704264Y-29356676D01*
X33457542Y-29602968D01*
X33324389Y-29923633D01*
X33226458Y-29923548D01*
X32904264Y-30056676D01*
X32657542Y-30302968D01*
X32523852Y-30624928D01*
X32523548Y-30973542D01*
X32656676Y-31295736D01*
X32902968Y-31542458D01*
X33041487Y-31599976D01*
X32904264Y-31656676D01*
X32657542Y-31902968D01*
X32523852Y-32224928D01*
X32523548Y-32573542D01*
X32656676Y-32895736D01*
X32902968Y-33142458D01*
X33041487Y-33199976D01*
X32904264Y-33256676D01*
X32657542Y-33502968D01*
X32523852Y-33824928D01*
X32523548Y-34173542D01*
X32656676Y-34495736D01*
X32902968Y-34742458D01*
X33224928Y-34876148D01*
X33323632Y-34876234D01*
X33323548Y-34973542D01*
X33456676Y-35295736D01*
X33702968Y-35542458D01*
X34024928Y-35676148D01*
X34373542Y-35676452D01*
X34695736Y-35543324D01*
X34800053Y-35439188D01*
X35002968Y-35642458D01*
X35324928Y-35776148D01*
X35673542Y-35776452D01*
X35995736Y-35643324D01*
X36049878Y-35589275D01*
X36102968Y-35642458D01*
X36424928Y-35776148D01*
X36773542Y-35776452D01*
X37095736Y-35643324D01*
X37149878Y-35589275D01*
X37202968Y-35642458D01*
X37524928Y-35776148D01*
X37873542Y-35776452D01*
X38195736Y-35643324D01*
X38249878Y-35589275D01*
X38302968Y-35642458D01*
X38624928Y-35776148D01*
X38973542Y-35776452D01*
X39295736Y-35643324D01*
X39349878Y-35589275D01*
X39402968Y-35642458D01*
X39724928Y-35776148D01*
X40073542Y-35776452D01*
X40395736Y-35643324D01*
X40449878Y-35589275D01*
X40502968Y-35642458D01*
X40824928Y-35776148D01*
X41173542Y-35776452D01*
X41495736Y-35643324D01*
X41549878Y-35589275D01*
X41602968Y-35642458D01*
X41924928Y-35776148D01*
X42273542Y-35776452D01*
X42595736Y-35643324D01*
X42649878Y-35589275D01*
X42702968Y-35642458D01*
X43024928Y-35776148D01*
X43373542Y-35776452D01*
X43695736Y-35643324D01*
X43749878Y-35589275D01*
X43802968Y-35642458D01*
X44124928Y-35776148D01*
X44473542Y-35776452D01*
X44795736Y-35643324D01*
X44849878Y-35589275D01*
X44902968Y-35642458D01*
X45224928Y-35776148D01*
X45573542Y-35776452D01*
X45895736Y-35643324D01*
X45949878Y-35589275D01*
X46002968Y-35642458D01*
X46324928Y-35776148D01*
X46673542Y-35776452D01*
X46995736Y-35643324D01*
X47242458Y-35397032D01*
X47376148Y-35075072D01*
X47376452Y-34726458D01*
X47376452Y-35869986D01*
X47338735Y-35854325D01*
X46990121Y-35854021D01*
X46667927Y-35987149D01*
X46421205Y-36233441D01*
X46397233Y-36291169D01*
X46392462Y-36289188D01*
X46043848Y-36288884D01*
X45721654Y-36422012D01*
X45474932Y-36668304D01*
X45341242Y-36990264D01*
X45340938Y-37338878D01*
X45409748Y-37505411D01*
X45233510Y-37681342D01*
X45099820Y-38003302D01*
X45099768Y-38062904D01*
X45091473Y-38062897D01*
X44829915Y-38170970D01*
X44709149Y-38049993D01*
X44387189Y-37916303D01*
X44038575Y-37915999D01*
X43863224Y-37988452D01*
X43693750Y-37818682D01*
X43371790Y-37684992D01*
X43023176Y-37684688D01*
X42700982Y-37817816D01*
X42454260Y-38064108D01*
X42320570Y-38386068D01*
X42320266Y-38734682D01*
X42453394Y-39056876D01*
X42699686Y-39303598D01*
X43021646Y-39437288D01*
X43370260Y-39437592D01*
X43545610Y-39365138D01*
X43715085Y-39534909D01*
X44037045Y-39668599D01*
X44385659Y-39668903D01*
X44647216Y-39560829D01*
X44767983Y-39681807D01*
X45089943Y-39815497D01*
X45438557Y-39815801D01*
X45760751Y-39682673D01*
X46007473Y-39436381D01*
X46141163Y-39114421D01*
X46141214Y-39054818D01*
X46149510Y-39054826D01*
X46471704Y-38921698D01*
X46718426Y-38675406D01*
X46819752Y-38431385D01*
X46864043Y-38654049D01*
X47177887Y-39123749D01*
X47455416Y-39309188D01*
X47396733Y-39284821D01*
X47048119Y-39284517D01*
X46725925Y-39417645D01*
X46479203Y-39663937D01*
X46345513Y-39985897D01*
X46345209Y-40334511D01*
X46455512Y-40601465D01*
X46276754Y-40527238D01*
X45928140Y-40526934D01*
X45605946Y-40660062D01*
X45359224Y-40906354D01*
X45355217Y-40916003D01*
X45197032Y-40757542D01*
X44875072Y-40623852D01*
X44526458Y-40623548D01*
X44204264Y-40756676D01*
X43957542Y-41002968D01*
X43823852Y-41324928D01*
X43823548Y-41673542D01*
X43956676Y-41995736D01*
X44202968Y-42242458D01*
X44524928Y-42376148D01*
X44873542Y-42376452D01*
X45195736Y-42243324D01*
X45442458Y-41997032D01*
X45446464Y-41987382D01*
X45604650Y-42145844D01*
X45926610Y-42279534D01*
X46015018Y-42279611D01*
X46141461Y-42585626D01*
X46387753Y-42832348D01*
X46709713Y-42966038D01*
X47058327Y-42966342D01*
X47380521Y-42833214D01*
X47627243Y-42586922D01*
X47760933Y-42264962D01*
X47761159Y-42005409D01*
X48033614Y-42118543D01*
X48382228Y-42118847D01*
X48704422Y-41985719D01*
X48951144Y-41739427D01*
X49084834Y-41417467D01*
X49085138Y-41068853D01*
X48952010Y-40746659D01*
X48705718Y-40499937D01*
X48383758Y-40366247D01*
X48085374Y-40365986D01*
X48097809Y-40336041D01*
X48098113Y-39987427D01*
X47964985Y-39665233D01*
X47760078Y-39459968D01*
X48201636Y-39547800D01*
X48258364Y-39547800D01*
X48812413Y-39437593D01*
X49282113Y-39123749D01*
X49313741Y-39076414D01*
X49313741Y-39116000D01*
X49345685Y-39280644D01*
X49440742Y-39425351D01*
X49584245Y-39522216D01*
X49754000Y-39556259D01*
X51786000Y-39556259D01*
X51950644Y-39524315D01*
X52095351Y-39429258D01*
X52192216Y-39285755D01*
X52226259Y-39116000D01*
X52226259Y-46036854D01*
X52177032Y-45987542D01*
X51855072Y-45853852D01*
X51506458Y-45853548D01*
X51184264Y-45986676D01*
X50937542Y-46232968D01*
X50803852Y-46554928D01*
X50803548Y-46903542D01*
X50936676Y-47225736D01*
X51182968Y-47472458D01*
X51504928Y-47606148D01*
X51853542Y-47606452D01*
X52175736Y-47473324D01*
X52422458Y-47227032D01*
X52556148Y-46905072D01*
X52556452Y-46556458D01*
X52556452Y-57590702D01*
X52518943Y-57553128D01*
X52206452Y-57423369D01*
X52206452Y-52296458D01*
X52073324Y-51974264D01*
X51827032Y-51727542D01*
X51505072Y-51593852D01*
X51156458Y-51593548D01*
X50834264Y-51726676D01*
X50587542Y-51972968D01*
X50531593Y-52107707D01*
X50531593Y-47980862D01*
X50398465Y-47658668D01*
X50186452Y-47446284D01*
X50186452Y-45946458D01*
X50053324Y-45624264D01*
X49807032Y-45377542D01*
X49485072Y-45243852D01*
X49136458Y-45243548D01*
X48814264Y-45376676D01*
X48567542Y-45622968D01*
X48433852Y-45944928D01*
X48433548Y-46293542D01*
X48566676Y-46615736D01*
X48812968Y-46862458D01*
X49134928Y-46996148D01*
X49483542Y-46996452D01*
X49805736Y-46863324D01*
X50052458Y-46617032D01*
X50186148Y-46295072D01*
X50186452Y-45946458D01*
X50186452Y-47446284D01*
X50152173Y-47411946D01*
X49830213Y-47278256D01*
X49481599Y-47277952D01*
X49159405Y-47411080D01*
X48912683Y-47657372D01*
X48778993Y-47979332D01*
X48778689Y-48327946D01*
X48911817Y-48650140D01*
X49158109Y-48896862D01*
X49480069Y-49030552D01*
X49828683Y-49030856D01*
X50150877Y-48897728D01*
X50397599Y-48651436D01*
X50531289Y-48329476D01*
X50531593Y-47980862D01*
X50531593Y-52107707D01*
X50512022Y-52154839D01*
X50512022Y-51052702D01*
X50378894Y-50730508D01*
X50132602Y-50483786D01*
X49810642Y-50350096D01*
X49462028Y-50349792D01*
X49139834Y-50482920D01*
X48893112Y-50729212D01*
X48759422Y-51051172D01*
X48759118Y-51399786D01*
X48892246Y-51721980D01*
X49138538Y-51968702D01*
X49460498Y-52102392D01*
X49809112Y-52102696D01*
X50131306Y-51969568D01*
X50378028Y-51723276D01*
X50511718Y-51401316D01*
X50512022Y-51052702D01*
X50512022Y-52154839D01*
X50453852Y-52294928D01*
X50453548Y-52643542D01*
X50586676Y-52965736D01*
X50832968Y-53212458D01*
X51154928Y-53346148D01*
X51503542Y-53346452D01*
X51825736Y-53213324D01*
X52072458Y-52967032D01*
X52206148Y-52645072D01*
X52206452Y-52296458D01*
X52206452Y-57423369D01*
X52196983Y-57419438D01*
X51848369Y-57419134D01*
X51776377Y-57448880D01*
X51768805Y-57430554D01*
X51522513Y-57183832D01*
X51200553Y-57050142D01*
X50851939Y-57049838D01*
X50529745Y-57182966D01*
X50283023Y-57429258D01*
X50149333Y-57751218D01*
X50149029Y-58099832D01*
X50282157Y-58422026D01*
X50528449Y-58668748D01*
X50850409Y-58802438D01*
X51199023Y-58802742D01*
X51271014Y-58772995D01*
X51278587Y-58791322D01*
X51524879Y-59038044D01*
X51846839Y-59171734D01*
X52195453Y-59172038D01*
X52517647Y-59038910D01*
X52764369Y-58792618D01*
X52898059Y-58470658D01*
X52898363Y-58122044D01*
X52898363Y-60759224D01*
X52697032Y-60557542D01*
X52375072Y-60423852D01*
X52026458Y-60423548D01*
X51704264Y-60556676D01*
X51457542Y-60802968D01*
X51406673Y-60925471D01*
X51352899Y-60795327D01*
X51106607Y-60548605D01*
X50784647Y-60414915D01*
X50436033Y-60414611D01*
X50113839Y-60547739D01*
X49867117Y-60794031D01*
X49733427Y-61115991D01*
X49733376Y-61173641D01*
X49626458Y-61173548D01*
X49304264Y-61306676D01*
X49203332Y-61407432D01*
X49203332Y-57426458D01*
X49070204Y-57104264D01*
X48823912Y-56857542D01*
X48501952Y-56723852D01*
X48153338Y-56723548D01*
X47831144Y-56856676D01*
X47584422Y-57102968D01*
X47461611Y-57398728D01*
X47434633Y-57398704D01*
X47434633Y-51070790D01*
X47434633Y-47980862D01*
X47301505Y-47658668D01*
X47055213Y-47411946D01*
X46986452Y-47383393D01*
X46986452Y-45946458D01*
X46853324Y-45624264D01*
X46607032Y-45377542D01*
X46285072Y-45243852D01*
X45936458Y-45243548D01*
X45614264Y-45376676D01*
X45367542Y-45622968D01*
X45233852Y-45944928D01*
X45233548Y-46293542D01*
X45366676Y-46615736D01*
X45612968Y-46862458D01*
X45934928Y-46996148D01*
X46283542Y-46996452D01*
X46605736Y-46863324D01*
X46852458Y-46617032D01*
X46986148Y-46295072D01*
X46986452Y-45946458D01*
X46986452Y-47383393D01*
X46733253Y-47278256D01*
X46384639Y-47277952D01*
X46062445Y-47411080D01*
X45815723Y-47657372D01*
X45682033Y-47979332D01*
X45681729Y-48327946D01*
X45814857Y-48650140D01*
X46061149Y-48896862D01*
X46383109Y-49030552D01*
X46731723Y-49030856D01*
X47053917Y-48897728D01*
X47300639Y-48651436D01*
X47434329Y-48329476D01*
X47434633Y-47980862D01*
X47434633Y-51070790D01*
X47301505Y-50748596D01*
X47055213Y-50501874D01*
X46733253Y-50368184D01*
X46384639Y-50367880D01*
X46062445Y-50501008D01*
X45815723Y-50747300D01*
X45682033Y-51069260D01*
X45681729Y-51417874D01*
X45814857Y-51740068D01*
X46061149Y-51986790D01*
X46383109Y-52120480D01*
X46731723Y-52120784D01*
X47053917Y-51987656D01*
X47300639Y-51741364D01*
X47434329Y-51419404D01*
X47434633Y-51070790D01*
X47434633Y-57398704D01*
X47390591Y-57398666D01*
X47330886Y-57254167D01*
X47084594Y-57007445D01*
X46936452Y-56945930D01*
X46936452Y-53096460D01*
X46803324Y-52774266D01*
X46557032Y-52527544D01*
X46235072Y-52393854D01*
X45886458Y-52393550D01*
X45564264Y-52526678D01*
X45436452Y-52654267D01*
X45436452Y-52116458D01*
X45406452Y-52043852D01*
X45406452Y-46736458D01*
X45273324Y-46414264D01*
X45027032Y-46167542D01*
X44705072Y-46033852D01*
X44356458Y-46033548D01*
X44076452Y-46149244D01*
X44076452Y-44426458D01*
X43943324Y-44104264D01*
X43697032Y-43857542D01*
X43375072Y-43723852D01*
X43026458Y-43723548D01*
X42704264Y-43856676D01*
X42457542Y-44102968D01*
X42323852Y-44424928D01*
X42323548Y-44773542D01*
X42456676Y-45095736D01*
X42702968Y-45342458D01*
X43024928Y-45476148D01*
X43373542Y-45476452D01*
X43695736Y-45343324D01*
X43942458Y-45097032D01*
X44076148Y-44775072D01*
X44076452Y-44426458D01*
X44076452Y-46149244D01*
X44034264Y-46166676D01*
X43787542Y-46412968D01*
X43653852Y-46734928D01*
X43653548Y-47083542D01*
X43786676Y-47405736D01*
X44032968Y-47652458D01*
X44354928Y-47786148D01*
X44703542Y-47786452D01*
X45025736Y-47653324D01*
X45272458Y-47407032D01*
X45406148Y-47085072D01*
X45406452Y-46736458D01*
X45406452Y-52043852D01*
X45303324Y-51794264D01*
X45057032Y-51547542D01*
X44735072Y-51413852D01*
X44386458Y-51413548D01*
X44064264Y-51546676D01*
X43817542Y-51792968D01*
X43683852Y-52114928D01*
X43683548Y-52463542D01*
X43816676Y-52785736D01*
X44062968Y-53032458D01*
X44384928Y-53166148D01*
X44733542Y-53166452D01*
X45055736Y-53033324D01*
X45302458Y-52787032D01*
X45436148Y-52465072D01*
X45436452Y-52116458D01*
X45436452Y-52654267D01*
X45317542Y-52772970D01*
X45183852Y-53094930D01*
X45183548Y-53443544D01*
X45316676Y-53765738D01*
X45562968Y-54012460D01*
X45884928Y-54146150D01*
X46233542Y-54146454D01*
X46555736Y-54013326D01*
X46802458Y-53767034D01*
X46936148Y-53445074D01*
X46936452Y-53096460D01*
X46936452Y-56945930D01*
X46762634Y-56873755D01*
X46414020Y-56873451D01*
X46091826Y-57006579D01*
X45871949Y-57226072D01*
X45768192Y-57182988D01*
X45419578Y-57182684D01*
X45097384Y-57315812D01*
X44850662Y-57562104D01*
X44794082Y-57698362D01*
X44704288Y-57608411D01*
X44382328Y-57474721D01*
X44059211Y-57474439D01*
X44146148Y-57265074D01*
X44146452Y-56916460D01*
X44040922Y-56661059D01*
X44272326Y-56430059D01*
X44406016Y-56108099D01*
X44406320Y-55759485D01*
X44273192Y-55437291D01*
X44026900Y-55190569D01*
X43704940Y-55056879D01*
X43356326Y-55056575D01*
X43034132Y-55189703D01*
X42787410Y-55435995D01*
X42653720Y-55757955D01*
X42653416Y-56106569D01*
X42758945Y-56361969D01*
X42527542Y-56592970D01*
X42393852Y-56914930D01*
X42393548Y-57263544D01*
X42494413Y-57507656D01*
X42352317Y-57507533D01*
X42030123Y-57640661D01*
X41898185Y-57772368D01*
X41868584Y-57700729D01*
X41622292Y-57454007D01*
X41522301Y-57412486D01*
X41643736Y-57362311D01*
X41890458Y-57116019D01*
X42024148Y-56794059D01*
X42024452Y-56445445D01*
X41891324Y-56123251D01*
X41704686Y-55936287D01*
X41893542Y-55936452D01*
X42215736Y-55803324D01*
X42462458Y-55557032D01*
X42596148Y-55235072D01*
X42596452Y-54886458D01*
X42463324Y-54564264D01*
X42226452Y-54326978D01*
X42226452Y-39451458D01*
X42093324Y-39129264D01*
X41847032Y-38882542D01*
X41525072Y-38748852D01*
X41176458Y-38748548D01*
X40854264Y-38881676D01*
X40607542Y-39127968D01*
X40473852Y-39449928D01*
X40473578Y-39763065D01*
X40437850Y-39748229D01*
X40089236Y-39747925D01*
X39767042Y-39881053D01*
X39548490Y-40099223D01*
X39435765Y-40052416D01*
X39087151Y-40052112D01*
X38877730Y-40138642D01*
X38647051Y-39907561D01*
X38325091Y-39773871D01*
X37976477Y-39773567D01*
X37654283Y-39906695D01*
X37407561Y-40152987D01*
X37273871Y-40474947D01*
X37273775Y-40584332D01*
X37247013Y-40557523D01*
X37041921Y-40472361D01*
X37042212Y-40138721D01*
X36956851Y-39932132D01*
X37050776Y-39893324D01*
X37297498Y-39647032D01*
X37431188Y-39325072D01*
X37431492Y-38976458D01*
X37298364Y-38654264D01*
X37268870Y-38624719D01*
X37297498Y-38596142D01*
X37431188Y-38274182D01*
X37431492Y-37925568D01*
X37298364Y-37603374D01*
X37052072Y-37356652D01*
X36730112Y-37222962D01*
X36381498Y-37222658D01*
X36059304Y-37355786D01*
X35812582Y-37602078D01*
X35678892Y-37924038D01*
X35678588Y-38272652D01*
X35697561Y-38318571D01*
X35650072Y-38298852D01*
X35301458Y-38298548D01*
X34979264Y-38431676D01*
X34732542Y-38677968D01*
X34598852Y-38999928D01*
X34598548Y-39348542D01*
X34624366Y-39411027D01*
X34554049Y-39364043D01*
X34000000Y-39253836D01*
X33445951Y-39364043D01*
X32976251Y-39677887D01*
X32662407Y-40147587D01*
X32552200Y-40701636D01*
X32552200Y-40758364D01*
X32662407Y-41312413D01*
X32976251Y-41782113D01*
X33023585Y-41813741D01*
X32984000Y-41813741D01*
X32819356Y-41845685D01*
X32674649Y-41940742D01*
X32577784Y-42084245D01*
X32543741Y-42254000D01*
X32543741Y-44286000D01*
X32575685Y-44450644D01*
X32670742Y-44595351D01*
X32814245Y-44692216D01*
X32984000Y-44726259D01*
X35016000Y-44726259D01*
X35180644Y-44694315D01*
X35325351Y-44599258D01*
X35422216Y-44455755D01*
X35456259Y-44286000D01*
X35456259Y-42254000D01*
X35424315Y-42089356D01*
X35329258Y-41944649D01*
X35185755Y-41847784D01*
X35016000Y-41813741D01*
X34976414Y-41813741D01*
X35023749Y-41782113D01*
X35337593Y-41312413D01*
X35435353Y-40820938D01*
X35668728Y-41054721D01*
X35873819Y-41139882D01*
X35873529Y-41473523D01*
X36006657Y-41795717D01*
X36252949Y-42042439D01*
X36574909Y-42176129D01*
X36923523Y-42176433D01*
X37245717Y-42043305D01*
X37492439Y-41797013D01*
X37626129Y-41475053D01*
X37626224Y-41365667D01*
X37652987Y-41392477D01*
X37974947Y-41526167D01*
X38323561Y-41526471D01*
X38532981Y-41439940D01*
X38763661Y-41671022D01*
X39085621Y-41804712D01*
X39434235Y-41805016D01*
X39756429Y-41671888D01*
X39974980Y-41453717D01*
X40087706Y-41500525D01*
X40436320Y-41500829D01*
X40758514Y-41367701D01*
X41005236Y-41121409D01*
X41138926Y-40799449D01*
X41139199Y-40486311D01*
X41174928Y-40501148D01*
X41523542Y-40501452D01*
X41845736Y-40368324D01*
X42092458Y-40122032D01*
X42226148Y-39800072D01*
X42226452Y-39451458D01*
X42226452Y-54326978D01*
X42217032Y-54317542D01*
X41895072Y-54183852D01*
X41546458Y-54183548D01*
X41224264Y-54316676D01*
X40977542Y-54562968D01*
X40843852Y-54884928D01*
X40843548Y-55233542D01*
X40976676Y-55555736D01*
X41163313Y-55742699D01*
X40974458Y-55742535D01*
X40652264Y-55875663D01*
X40405542Y-56121955D01*
X40271852Y-56443915D01*
X40271548Y-56792529D01*
X40404676Y-57114723D01*
X40650968Y-57361445D01*
X40750958Y-57402965D01*
X40629524Y-57453141D01*
X40382802Y-57699433D01*
X40249112Y-58021393D01*
X40248808Y-58370007D01*
X40381936Y-58692201D01*
X40628228Y-58938923D01*
X40950188Y-59072613D01*
X41298802Y-59072917D01*
X41620996Y-58939789D01*
X41752933Y-58808081D01*
X41782535Y-58879721D01*
X42028827Y-59126443D01*
X42350787Y-59260133D01*
X42699401Y-59260437D01*
X43021595Y-59127309D01*
X43268317Y-58881017D01*
X43373492Y-58627726D01*
X43463932Y-58846605D01*
X43710224Y-59093327D01*
X44032184Y-59227017D01*
X44380798Y-59227321D01*
X44702992Y-59094193D01*
X44949714Y-58847901D01*
X45006293Y-58711642D01*
X45096088Y-58801594D01*
X45418048Y-58935284D01*
X45766662Y-58935588D01*
X46088856Y-58802460D01*
X46308732Y-58582966D01*
X46412490Y-58626051D01*
X46683841Y-58626287D01*
X46743547Y-58770787D01*
X46989839Y-59017509D01*
X47311799Y-59151199D01*
X47660413Y-59151503D01*
X47982607Y-59018375D01*
X48229329Y-58772083D01*
X48352139Y-58476322D01*
X48500422Y-58476452D01*
X48822616Y-58343324D01*
X49069338Y-58097032D01*
X49203028Y-57775072D01*
X49203332Y-57426458D01*
X49203332Y-61407432D01*
X49057542Y-61552968D01*
X48923852Y-61874928D01*
X48923548Y-62223542D01*
X49019013Y-62454585D01*
X48840305Y-62275565D01*
X48518345Y-62141875D01*
X48169731Y-62141571D01*
X47847537Y-62274699D01*
X47600815Y-62520991D01*
X47467125Y-62842951D01*
X47466821Y-63191565D01*
X47599949Y-63513759D01*
X47846241Y-63760481D01*
X48168201Y-63894171D01*
X48516815Y-63894475D01*
X48839009Y-63761347D01*
X49085731Y-63515055D01*
X49219421Y-63193095D01*
X49219725Y-62844481D01*
X49124259Y-62613437D01*
X49302968Y-62792458D01*
X49624928Y-62926148D01*
X49973542Y-62926452D01*
X50295736Y-62793324D01*
X50542458Y-62547032D01*
X50601326Y-62405260D01*
X50656676Y-62539216D01*
X50902968Y-62785938D01*
X51224928Y-62919628D01*
X51573542Y-62919932D01*
X51895736Y-62786804D01*
X52142458Y-62540512D01*
X52276148Y-62218552D01*
X52276184Y-62176367D01*
X52373542Y-62176452D01*
X52695736Y-62043324D01*
X52942458Y-61797032D01*
X53076148Y-61475072D01*
X53076452Y-61126458D01*
X53076452Y-72803200D01*
X48436452Y-72803200D01*
X48436452Y-64606458D01*
X48303324Y-64284264D01*
X48057032Y-64037542D01*
X47735072Y-63903852D01*
X47386458Y-63903548D01*
X47384365Y-63904412D01*
X47384645Y-63584101D01*
X47251517Y-63261907D01*
X47041618Y-63051641D01*
X47268514Y-62825141D01*
X47402204Y-62503181D01*
X47402280Y-62415435D01*
X47490729Y-62415513D01*
X47812923Y-62282385D01*
X48059645Y-62036093D01*
X48193335Y-61714133D01*
X48193639Y-61365519D01*
X48060511Y-61043325D01*
X47814219Y-60796603D01*
X47492259Y-60662913D01*
X47143645Y-60662609D01*
X46821451Y-60795737D01*
X46574729Y-61042029D01*
X46441039Y-61363989D01*
X46440962Y-61451734D01*
X46352514Y-61451657D01*
X46030320Y-61584785D01*
X45783598Y-61831077D01*
X45649908Y-62153037D01*
X45649604Y-62501651D01*
X45782732Y-62823845D01*
X45992630Y-63034110D01*
X45765735Y-63260611D01*
X45632045Y-63582571D01*
X45631741Y-63931185D01*
X45764869Y-64253379D01*
X46011161Y-64500101D01*
X46333121Y-64633791D01*
X46681735Y-64634095D01*
X46683827Y-64633230D01*
X46683548Y-64953542D01*
X46816676Y-65275736D01*
X47062968Y-65522458D01*
X47384928Y-65656148D01*
X47733542Y-65656452D01*
X48055736Y-65523324D01*
X48302458Y-65277032D01*
X48436148Y-64955072D01*
X48436452Y-64606458D01*
X48436452Y-72803200D01*
X45958445Y-72803200D01*
X45958445Y-69842212D01*
X45825317Y-69520018D01*
X45579025Y-69273296D01*
X45401452Y-69199560D01*
X45401452Y-62176458D01*
X45268324Y-61854264D01*
X45022032Y-61607542D01*
X44700072Y-61473852D01*
X44351458Y-61473548D01*
X44029264Y-61606676D01*
X43782542Y-61852968D01*
X43648852Y-62174928D01*
X43648548Y-62523542D01*
X43781676Y-62845736D01*
X44027968Y-63092458D01*
X44349928Y-63226148D01*
X44698542Y-63226452D01*
X45020736Y-63093324D01*
X45267458Y-62847032D01*
X45401148Y-62525072D01*
X45401452Y-62176458D01*
X45401452Y-69199560D01*
X45257065Y-69139606D01*
X44908451Y-69139302D01*
X44586257Y-69272430D01*
X44339535Y-69518722D01*
X44205845Y-69840682D01*
X44205541Y-70189296D01*
X44338669Y-70511490D01*
X44584961Y-70758212D01*
X44906921Y-70891902D01*
X45255535Y-70892206D01*
X45577729Y-70759078D01*
X45824451Y-70512786D01*
X45958141Y-70190826D01*
X45958445Y-69842212D01*
X45958445Y-72803200D01*
X42767248Y-72803200D01*
X42767248Y-65293718D01*
X42634120Y-64971524D01*
X42387828Y-64724802D01*
X42065868Y-64591112D01*
X41717254Y-64590808D01*
X41395060Y-64723936D01*
X41370264Y-64748688D01*
X41346428Y-64724810D01*
X41024468Y-64591120D01*
X40798350Y-64590922D01*
X40720503Y-64402518D01*
X40474211Y-64155796D01*
X40152251Y-64022106D01*
X39803637Y-64021802D01*
X39481443Y-64154930D01*
X39234721Y-64401222D01*
X39101031Y-64723182D01*
X39100727Y-65071796D01*
X39233855Y-65393990D01*
X39480147Y-65640712D01*
X39802107Y-65774402D01*
X40028224Y-65774599D01*
X40106072Y-65963004D01*
X40352364Y-66209726D01*
X40674324Y-66343416D01*
X41022938Y-66343720D01*
X41345132Y-66210592D01*
X41369927Y-66185839D01*
X41393764Y-66209718D01*
X41715724Y-66343408D01*
X42064338Y-66343712D01*
X42386532Y-66210584D01*
X42633254Y-65964292D01*
X42766944Y-65642332D01*
X42767248Y-65293718D01*
X42767248Y-72803200D01*
X40820126Y-72803200D01*
X40820126Y-70066932D01*
X40686998Y-69744738D01*
X40540957Y-69598442D01*
X40592458Y-69547032D01*
X40726148Y-69225072D01*
X40726452Y-68876458D01*
X40593324Y-68554264D01*
X40347032Y-68307542D01*
X40025072Y-68173852D01*
X39676458Y-68173548D01*
X39354264Y-68306676D01*
X39107542Y-68552968D01*
X39043900Y-68706234D01*
X39043900Y-42782925D01*
X38910772Y-42460731D01*
X38664480Y-42214009D01*
X38342520Y-42080319D01*
X37993906Y-42080015D01*
X37671712Y-42213143D01*
X37424990Y-42459435D01*
X37291300Y-42781395D01*
X37290996Y-43130009D01*
X37424124Y-43452203D01*
X37670416Y-43698925D01*
X37992376Y-43832615D01*
X38340990Y-43832919D01*
X38663184Y-43699791D01*
X38909906Y-43453499D01*
X39043596Y-43131539D01*
X39043900Y-42782925D01*
X39043900Y-68706234D01*
X38973852Y-68874928D01*
X38973548Y-69223542D01*
X39106676Y-69545736D01*
X39252716Y-69692031D01*
X39201216Y-69743442D01*
X39067526Y-70065402D01*
X39067222Y-70414016D01*
X39200350Y-70736210D01*
X39446642Y-70982932D01*
X39768602Y-71116622D01*
X40117216Y-71116926D01*
X40439410Y-70983798D01*
X40686132Y-70737506D01*
X40819822Y-70415546D01*
X40820126Y-70066932D01*
X40820126Y-72803200D01*
X38776452Y-72803200D01*
X38776452Y-68476458D01*
X38643324Y-68154264D01*
X38416694Y-67927238D01*
X38416694Y-46448419D01*
X38283566Y-46126225D01*
X38037274Y-45879503D01*
X37715314Y-45745813D01*
X37366700Y-45745509D01*
X37044506Y-45878637D01*
X36797784Y-46124929D01*
X36664094Y-46446889D01*
X36663790Y-46795503D01*
X36725123Y-46943940D01*
X36535867Y-47132867D01*
X36402177Y-47454827D01*
X36401873Y-47803441D01*
X36535001Y-48125635D01*
X36781293Y-48372357D01*
X37103253Y-48506047D01*
X37451867Y-48506351D01*
X37774061Y-48373223D01*
X38020783Y-48126931D01*
X38154473Y-47804971D01*
X38154777Y-47456357D01*
X38093443Y-47307919D01*
X38282700Y-47118993D01*
X38416390Y-46797033D01*
X38416694Y-46448419D01*
X38416694Y-67927238D01*
X38397032Y-67907542D01*
X38393886Y-67906235D01*
X38393886Y-52566206D01*
X38260758Y-52244012D01*
X38014466Y-51997290D01*
X37692506Y-51863600D01*
X37343892Y-51863296D01*
X37021698Y-51996424D01*
X36774976Y-52242716D01*
X36641286Y-52564676D01*
X36641152Y-52718286D01*
X36602076Y-52623715D01*
X36579621Y-52601221D01*
X36608862Y-52572032D01*
X36742552Y-52250072D01*
X36742856Y-51901458D01*
X36609728Y-51579264D01*
X36363436Y-51332542D01*
X36041476Y-51198852D01*
X35692862Y-51198548D01*
X35370668Y-51331676D01*
X35123946Y-51577968D01*
X34990256Y-51899928D01*
X34989952Y-52248542D01*
X35123080Y-52570736D01*
X35145534Y-52593229D01*
X35116294Y-52622419D01*
X34982604Y-52944379D01*
X34982300Y-53292993D01*
X35115428Y-53615187D01*
X35361720Y-53861909D01*
X35683680Y-53995599D01*
X35745514Y-53995652D01*
X35637763Y-54040175D01*
X35391041Y-54286467D01*
X35257351Y-54608427D01*
X35257047Y-54957041D01*
X35390175Y-55279235D01*
X35636467Y-55525957D01*
X35958427Y-55659647D01*
X36307041Y-55659951D01*
X36629235Y-55526823D01*
X36875957Y-55280531D01*
X37009647Y-54958571D01*
X37009851Y-54723622D01*
X37243168Y-54723826D01*
X37565362Y-54590698D01*
X37812084Y-54344406D01*
X37945774Y-54022446D01*
X37946078Y-53673832D01*
X37888535Y-53534569D01*
X38013170Y-53483072D01*
X38259892Y-53236780D01*
X38393582Y-52914820D01*
X38393886Y-52566206D01*
X38393886Y-67906235D01*
X38075072Y-67773852D01*
X38026452Y-67773809D01*
X38026452Y-61826458D01*
X37893324Y-61504264D01*
X37666452Y-61276995D01*
X37666452Y-57786458D01*
X37533324Y-57464264D01*
X37287032Y-57217542D01*
X36965072Y-57083852D01*
X36873055Y-57083771D01*
X36876668Y-57075072D01*
X36876972Y-56726458D01*
X36743844Y-56404264D01*
X36497552Y-56157542D01*
X36175592Y-56023852D01*
X35826978Y-56023548D01*
X35504784Y-56156676D01*
X35258062Y-56402968D01*
X35124372Y-56724928D01*
X35124068Y-57073542D01*
X35257196Y-57395736D01*
X35503488Y-57642458D01*
X35825448Y-57776148D01*
X35917464Y-57776228D01*
X35913852Y-57784928D01*
X35913548Y-58133542D01*
X36046676Y-58455736D01*
X36292968Y-58702458D01*
X36614928Y-58836148D01*
X36963542Y-58836452D01*
X37285736Y-58703324D01*
X37532458Y-58457032D01*
X37666148Y-58135072D01*
X37666452Y-57786458D01*
X37666452Y-61276995D01*
X37647032Y-61257542D01*
X37325072Y-61123852D01*
X36976458Y-61123548D01*
X36654264Y-61256676D01*
X36407542Y-61502968D01*
X36372770Y-61586705D01*
X36125072Y-61483852D01*
X35993242Y-61483737D01*
X35993242Y-59426458D01*
X35860114Y-59104264D01*
X35613822Y-58857542D01*
X35291862Y-58723852D01*
X34943248Y-58723548D01*
X34621054Y-58856676D01*
X34374332Y-59102968D01*
X34240642Y-59424928D01*
X34240338Y-59773542D01*
X34373466Y-60095736D01*
X34619758Y-60342458D01*
X34941718Y-60476148D01*
X35290332Y-60476452D01*
X35612526Y-60343324D01*
X35859248Y-60097032D01*
X35992938Y-59775072D01*
X35993242Y-59426458D01*
X35993242Y-61483737D01*
X35776458Y-61483548D01*
X35454264Y-61616676D01*
X35207542Y-61862968D01*
X35073852Y-62184928D01*
X35073548Y-62533542D01*
X35206676Y-62855736D01*
X35306424Y-62955658D01*
X35173852Y-63274928D01*
X35173548Y-63623542D01*
X35306676Y-63945736D01*
X35552968Y-64192458D01*
X35874928Y-64326148D01*
X36223542Y-64326452D01*
X36545736Y-64193324D01*
X36792458Y-63947032D01*
X36926148Y-63625072D01*
X36926452Y-63276458D01*
X36793324Y-62954264D01*
X36693575Y-62854341D01*
X36727229Y-62773294D01*
X36974928Y-62876148D01*
X37323542Y-62876452D01*
X37645736Y-62743324D01*
X37892458Y-62497032D01*
X38026148Y-62175072D01*
X38026452Y-61826458D01*
X38026452Y-67773809D01*
X37726458Y-67773548D01*
X37404264Y-67906676D01*
X37157542Y-68152968D01*
X37023852Y-68474928D01*
X37023548Y-68823542D01*
X37156676Y-69145736D01*
X37285811Y-69275096D01*
X37057542Y-69502968D01*
X36923852Y-69824928D01*
X36923548Y-70173542D01*
X37056676Y-70495736D01*
X37302968Y-70742458D01*
X37624928Y-70876148D01*
X37973542Y-70876452D01*
X38295736Y-70743324D01*
X38542458Y-70497032D01*
X38676148Y-70175072D01*
X38676452Y-69826458D01*
X38543324Y-69504264D01*
X38414188Y-69374903D01*
X38642458Y-69147032D01*
X38776148Y-68825072D01*
X38776452Y-68476458D01*
X38776452Y-72803200D01*
X36387906Y-72803200D01*
X36387906Y-67970772D01*
X36254778Y-67648578D01*
X36008486Y-67401856D01*
X35686526Y-67268166D01*
X35337912Y-67267862D01*
X35015718Y-67400990D01*
X34768996Y-67647282D01*
X34635306Y-67969242D01*
X34635002Y-68317856D01*
X34768130Y-68640050D01*
X35014422Y-68886772D01*
X35336382Y-69020462D01*
X35684996Y-69020766D01*
X36007190Y-68887638D01*
X36253912Y-68641346D01*
X36387602Y-68319386D01*
X36387906Y-67970772D01*
X36387906Y-72803200D01*
X31585107Y-72803200D01*
X31585107Y-21847180D01*
X31585107Y-19307180D01*
X31403745Y-18868250D01*
X31068216Y-18532136D01*
X30629603Y-18350008D01*
X30154680Y-18349593D01*
X29715750Y-18530955D01*
X29379636Y-18866484D01*
X29197508Y-19305097D01*
X29197093Y-19780020D01*
X29378455Y-20218950D01*
X29713984Y-20555064D01*
X30152597Y-20737192D01*
X30627520Y-20737607D01*
X31066450Y-20556245D01*
X31402564Y-20220716D01*
X31584692Y-19782103D01*
X31585107Y-19307180D01*
X31585107Y-21847180D01*
X31403745Y-21408250D01*
X31068216Y-21072136D01*
X30629603Y-20890008D01*
X30154680Y-20889593D01*
X29715750Y-21070955D01*
X29379636Y-21406484D01*
X29197508Y-21845097D01*
X29197093Y-22320020D01*
X29378455Y-22758950D01*
X29713984Y-23095064D01*
X30152597Y-23277192D01*
X30627520Y-23277607D01*
X31066450Y-23096245D01*
X31402564Y-22760716D01*
X31584692Y-22322103D01*
X31585107Y-21847180D01*
X31585107Y-72803200D01*
X30173859Y-72803200D01*
X30173859Y-66303600D01*
X30173859Y-64576400D01*
X30141915Y-64411756D01*
X30046858Y-64267049D01*
X29903355Y-64170184D01*
X29733600Y-64136141D01*
X29295500Y-64136141D01*
X29365728Y-64122172D01*
X29785986Y-63841364D01*
X30066794Y-63421106D01*
X30165400Y-62925378D01*
X30165400Y-62874622D01*
X30066794Y-62378894D01*
X29785986Y-61958636D01*
X29365728Y-61677828D01*
X29125279Y-61630000D01*
X29365728Y-61582172D01*
X29785986Y-61301364D01*
X30066794Y-60881106D01*
X30165400Y-60385378D01*
X30165400Y-60334622D01*
X30066794Y-59838894D01*
X29785986Y-59418636D01*
X29365728Y-59137828D01*
X29176452Y-59100178D01*
X29176452Y-23776458D01*
X29043324Y-23454264D01*
X28797032Y-23207542D01*
X28527199Y-23095497D01*
X28862564Y-22760716D01*
X29044692Y-22322103D01*
X29045107Y-21847180D01*
X29045107Y-19307180D01*
X28863745Y-18868250D01*
X28528216Y-18532136D01*
X28089603Y-18350008D01*
X27614680Y-18349593D01*
X27175750Y-18530955D01*
X26839636Y-18866484D01*
X26657508Y-19305097D01*
X26657093Y-19780020D01*
X26838455Y-20218950D01*
X27173984Y-20555064D01*
X27612597Y-20737192D01*
X28087520Y-20737607D01*
X28526450Y-20556245D01*
X28862564Y-20220716D01*
X29044692Y-19782103D01*
X29045107Y-19307180D01*
X29045107Y-21847180D01*
X28863745Y-21408250D01*
X28528216Y-21072136D01*
X28089603Y-20890008D01*
X27614680Y-20889593D01*
X27175750Y-21070955D01*
X26839636Y-21406484D01*
X26657508Y-21845097D01*
X26657093Y-22320020D01*
X26838455Y-22758950D01*
X27173984Y-23095064D01*
X27612597Y-23277192D01*
X27733519Y-23277297D01*
X27557542Y-23452968D01*
X27423852Y-23774928D01*
X27423548Y-24123542D01*
X27556676Y-24445736D01*
X27802968Y-24692458D01*
X28124928Y-24826148D01*
X28473542Y-24826452D01*
X28795736Y-24693324D01*
X29042458Y-24447032D01*
X29176148Y-24125072D01*
X29176452Y-23776458D01*
X29176452Y-59100178D01*
X29066450Y-59078298D01*
X29066450Y-36576458D01*
X28933322Y-36254264D01*
X28687030Y-36007542D01*
X28365070Y-35873852D01*
X28016456Y-35873548D01*
X27694262Y-36006676D01*
X27540459Y-36160210D01*
X27540459Y-30550060D01*
X27540459Y-27049940D01*
X27508515Y-26885296D01*
X27413458Y-26740589D01*
X27269955Y-26643724D01*
X27100200Y-26609681D01*
X26513359Y-26609681D01*
X26513359Y-22845600D01*
X26513359Y-21321600D01*
X26505107Y-21279067D01*
X26505107Y-19307180D01*
X26323745Y-18868250D01*
X25988216Y-18532136D01*
X25549603Y-18350008D01*
X25074680Y-18349593D01*
X24635750Y-18530955D01*
X24299636Y-18866484D01*
X24117508Y-19305097D01*
X24117093Y-19780020D01*
X24298455Y-20218950D01*
X24633984Y-20555064D01*
X25072597Y-20737192D01*
X25547520Y-20737607D01*
X25986450Y-20556245D01*
X26322564Y-20220716D01*
X26504692Y-19782103D01*
X26505107Y-19307180D01*
X26505107Y-21279067D01*
X26481415Y-21156956D01*
X26386358Y-21012249D01*
X26242855Y-20915384D01*
X26073100Y-20881341D01*
X24549100Y-20881341D01*
X24384456Y-20913285D01*
X24239749Y-21008342D01*
X24142884Y-21151845D01*
X24108841Y-21321600D01*
X24108841Y-22845600D01*
X24140785Y-23010244D01*
X24235842Y-23154951D01*
X24379345Y-23251816D01*
X24549100Y-23285859D01*
X26073100Y-23285859D01*
X26237744Y-23253915D01*
X26382451Y-23158858D01*
X26479316Y-23015355D01*
X26513359Y-22845600D01*
X26513359Y-26609681D01*
X23626452Y-26609681D01*
X23626452Y-24976458D01*
X23493324Y-24654264D01*
X23247032Y-24407542D01*
X22925072Y-24273852D01*
X22576458Y-24273548D01*
X22273217Y-24398844D01*
X22273217Y-20450831D01*
X21994930Y-19777324D01*
X21480086Y-19261581D01*
X20807066Y-18982119D01*
X20078331Y-18981483D01*
X19404824Y-19259770D01*
X18889081Y-19774614D01*
X18609619Y-20447634D01*
X18608983Y-21176369D01*
X18887270Y-21849876D01*
X19402114Y-22365619D01*
X20075134Y-22645081D01*
X20803869Y-22645717D01*
X21477376Y-22367430D01*
X21993119Y-21852586D01*
X22272581Y-21179566D01*
X22273217Y-20450831D01*
X22273217Y-24398844D01*
X22254264Y-24406676D01*
X22007542Y-24652968D01*
X21873852Y-24974928D01*
X21873548Y-25323542D01*
X22006676Y-25645736D01*
X22252968Y-25892458D01*
X22574928Y-26026148D01*
X22923542Y-26026452D01*
X23245736Y-25893324D01*
X23492458Y-25647032D01*
X23626148Y-25325072D01*
X23626452Y-24976458D01*
X23626452Y-26609681D01*
X23600080Y-26609681D01*
X23435436Y-26641625D01*
X23290729Y-26736682D01*
X23193864Y-26880185D01*
X23159821Y-27049940D01*
X23159821Y-30550060D01*
X23191765Y-30714704D01*
X23286822Y-30859411D01*
X23430325Y-30956276D01*
X23600080Y-30990319D01*
X27100200Y-30990319D01*
X27264844Y-30958375D01*
X27409551Y-30863318D01*
X27506416Y-30719815D01*
X27540459Y-30550060D01*
X27540459Y-36160210D01*
X27447540Y-36252968D01*
X27313850Y-36574928D01*
X27313546Y-36923542D01*
X27446674Y-37245736D01*
X27692966Y-37492458D01*
X28014926Y-37626148D01*
X28363540Y-37626452D01*
X28685734Y-37493324D01*
X28932456Y-37247032D01*
X29066146Y-36925072D01*
X29066450Y-36576458D01*
X29066450Y-59078298D01*
X28870000Y-59039222D01*
X28374272Y-59137828D01*
X27954014Y-59418636D01*
X27726452Y-59759205D01*
X27726452Y-49076458D01*
X27593324Y-48754264D01*
X27347032Y-48507542D01*
X27176452Y-48436710D01*
X27176452Y-43126458D01*
X27043324Y-42804264D01*
X26797032Y-42557542D01*
X26475072Y-42423852D01*
X26126458Y-42423548D01*
X25804264Y-42556676D01*
X25557542Y-42802968D01*
X25423852Y-43124928D01*
X25423548Y-43473542D01*
X25556676Y-43795736D01*
X25802968Y-44042458D01*
X26124928Y-44176148D01*
X26473542Y-44176452D01*
X26795736Y-44043324D01*
X27042458Y-43797032D01*
X27176148Y-43475072D01*
X27176452Y-43126458D01*
X27176452Y-48436710D01*
X27025072Y-48373852D01*
X26676458Y-48373548D01*
X26354264Y-48506676D01*
X26107542Y-48752968D01*
X25973852Y-49074928D01*
X25973548Y-49423542D01*
X26106676Y-49745736D01*
X26352968Y-49992458D01*
X26674928Y-50126148D01*
X27023542Y-50126452D01*
X27345736Y-49993324D01*
X27592458Y-49747032D01*
X27726148Y-49425072D01*
X27726452Y-49076458D01*
X27726452Y-59759205D01*
X27673206Y-59838894D01*
X27600000Y-60206927D01*
X27526794Y-59838894D01*
X27245986Y-59418636D01*
X26825728Y-59137828D01*
X26330000Y-59039222D01*
X25834272Y-59137828D01*
X25414014Y-59418636D01*
X25133206Y-59838894D01*
X25034600Y-60334622D01*
X25034600Y-60385378D01*
X25133206Y-60881106D01*
X25414014Y-61301364D01*
X25834272Y-61582172D01*
X26074720Y-61630000D01*
X25834272Y-61677828D01*
X25414014Y-61958636D01*
X25133206Y-62378894D01*
X25034600Y-62874622D01*
X25034600Y-62925378D01*
X25133206Y-63421106D01*
X25414014Y-63841364D01*
X25834272Y-64122172D01*
X26074720Y-64170000D01*
X25834272Y-64217828D01*
X25414014Y-64498636D01*
X25133206Y-64918894D01*
X25034600Y-65414622D01*
X25034600Y-65465378D01*
X25133206Y-65961106D01*
X25414014Y-66381364D01*
X25834272Y-66662172D01*
X26330000Y-66760778D01*
X26825728Y-66662172D01*
X27245986Y-66381364D01*
X27526794Y-65961106D01*
X27566141Y-65763294D01*
X27566141Y-66303600D01*
X27598085Y-66468244D01*
X27693142Y-66612951D01*
X27836645Y-66709816D01*
X28006400Y-66743859D01*
X29733600Y-66743859D01*
X29898244Y-66711915D01*
X30042951Y-66616858D01*
X30139816Y-66473355D01*
X30173859Y-66303600D01*
X30173859Y-72803200D01*
X28308452Y-72803200D01*
X28308452Y-68660458D01*
X28175324Y-68338264D01*
X27929032Y-68091542D01*
X27607072Y-67957852D01*
X27258458Y-67957548D01*
X26936264Y-68090676D01*
X26695195Y-68331323D01*
X26455832Y-68091542D01*
X26133872Y-67957852D01*
X25785258Y-67957548D01*
X25463064Y-68090676D01*
X25216342Y-68336968D01*
X25171454Y-68445068D01*
X25127324Y-68338264D01*
X24881032Y-68091542D01*
X24559072Y-67957852D01*
X24540719Y-67957835D01*
X24540719Y-35249060D01*
X24540719Y-31748940D01*
X24508775Y-31584296D01*
X24413718Y-31439589D01*
X24270215Y-31342724D01*
X24100460Y-31308681D01*
X20600340Y-31308681D01*
X20435696Y-31340625D01*
X20290989Y-31435682D01*
X20194124Y-31579185D01*
X20160081Y-31748940D01*
X20160081Y-35249060D01*
X20192025Y-35413704D01*
X20287082Y-35558411D01*
X20430585Y-35655276D01*
X20600340Y-35689319D01*
X24100460Y-35689319D01*
X24265104Y-35657375D01*
X24409811Y-35562318D01*
X24506676Y-35418815D01*
X24540719Y-35249060D01*
X24540719Y-67957835D01*
X24223952Y-67957559D01*
X24223952Y-51148413D01*
X24223952Y-45726458D01*
X24090824Y-45404264D01*
X23844532Y-45157542D01*
X23522572Y-45023852D01*
X23173958Y-45023548D01*
X22851764Y-45156676D01*
X22605042Y-45402968D01*
X22471352Y-45724928D01*
X22471048Y-46073542D01*
X22604176Y-46395736D01*
X22850468Y-46642458D01*
X23172428Y-46776148D01*
X23521042Y-46776452D01*
X23843236Y-46643324D01*
X24089958Y-46397032D01*
X24223648Y-46075072D01*
X24223952Y-45726458D01*
X24223952Y-51148413D01*
X24090824Y-50826219D01*
X23844532Y-50579497D01*
X23522572Y-50445807D01*
X23173958Y-50445503D01*
X22851764Y-50578631D01*
X22605042Y-50824923D01*
X22471352Y-51146883D01*
X22471048Y-51495497D01*
X22604176Y-51817691D01*
X22850468Y-52064413D01*
X23172428Y-52198103D01*
X23521042Y-52198407D01*
X23843236Y-52065279D01*
X24089958Y-51818987D01*
X24223648Y-51497027D01*
X24223952Y-51148413D01*
X24223952Y-67957559D01*
X24210458Y-67957548D01*
X23888264Y-68090676D01*
X23641542Y-68336968D01*
X23507852Y-68658928D01*
X23507548Y-69007542D01*
X23640676Y-69329736D01*
X23886968Y-69576458D01*
X24208928Y-69710148D01*
X24557542Y-69710452D01*
X24879736Y-69577324D01*
X25126458Y-69331032D01*
X25171345Y-69222931D01*
X25215476Y-69329736D01*
X25461768Y-69576458D01*
X25783728Y-69710148D01*
X26132342Y-69710452D01*
X26454536Y-69577324D01*
X26695604Y-69336676D01*
X26934968Y-69576458D01*
X27256928Y-69710148D01*
X27605542Y-69710452D01*
X27927736Y-69577324D01*
X28174458Y-69331032D01*
X28308148Y-69009072D01*
X28308452Y-68660458D01*
X28308452Y-72803200D01*
X22273217Y-72803200D01*
X22273217Y-69450831D01*
X21994930Y-68777324D01*
X21480086Y-68261581D01*
X20807066Y-67982119D01*
X20078331Y-67981483D01*
X19826452Y-68085557D01*
X19826452Y-66676458D01*
X19826452Y-58976458D01*
X19693324Y-58654264D01*
X19447032Y-58407542D01*
X19125072Y-58273852D01*
X18776458Y-58273548D01*
X18454264Y-58406676D01*
X18207542Y-58652968D01*
X18073852Y-58974928D01*
X18073548Y-59323542D01*
X18206676Y-59645736D01*
X18452968Y-59892458D01*
X18774928Y-60026148D01*
X19123542Y-60026452D01*
X19445736Y-59893324D01*
X19692458Y-59647032D01*
X19826148Y-59325072D01*
X19826452Y-58976458D01*
X19826452Y-66676458D01*
X19693324Y-66354264D01*
X19447032Y-66107542D01*
X19125072Y-65973852D01*
X18776458Y-65973548D01*
X18454264Y-66106676D01*
X18207542Y-66352968D01*
X18073852Y-66674928D01*
X18073548Y-67023542D01*
X18206676Y-67345736D01*
X18452968Y-67592458D01*
X18774928Y-67726148D01*
X19123542Y-67726452D01*
X19445736Y-67593324D01*
X19692458Y-67347032D01*
X19826148Y-67025072D01*
X19826452Y-66676458D01*
X19826452Y-68085557D01*
X19404824Y-68259770D01*
X18889081Y-68774614D01*
X18609619Y-69447634D01*
X18608983Y-70176369D01*
X18887270Y-70849876D01*
X19402114Y-71365619D01*
X20075134Y-71645081D01*
X20803869Y-71645717D01*
X21477376Y-71367430D01*
X21993119Y-70852586D01*
X22272581Y-70179566D01*
X22273217Y-69450831D01*
X22273217Y-72803200D01*
X19989915Y-72803200D01*
X18989693Y-72604243D01*
X18184060Y-72065936D01*
X17645755Y-71260305D01*
X17446800Y-70260084D01*
X17446800Y-54859914D01*
X17493515Y-54625060D01*
X17598275Y-54468275D01*
X17755060Y-54363515D01*
X17989914Y-54316800D01*
X20940000Y-54316800D01*
X20988956Y-54307062D01*
X21038871Y-54307062D01*
X21421554Y-54230942D01*
X21604245Y-54155269D01*
X21604246Y-54155269D01*
X21928670Y-53938496D01*
X22068495Y-53798670D01*
X22068496Y-53798670D01*
X22285269Y-53474246D01*
X22360942Y-53291555D01*
X22360942Y-53291554D01*
X22437062Y-52908871D01*
X22437062Y-52858956D01*
X22446800Y-52810000D01*
X22446800Y-37810000D01*
X22444061Y-37796233D01*
X22444978Y-37759583D01*
X22377360Y-37368842D01*
X22377359Y-37368841D01*
X22333659Y-37255400D01*
X22306276Y-37184317D01*
X22306276Y-37184316D01*
X22094275Y-36849196D01*
X21957987Y-36705920D01*
X21957987Y-36705919D01*
X21633880Y-36477439D01*
X21633879Y-36477438D01*
X21453136Y-36397223D01*
X21453132Y-36397222D01*
X21066264Y-36310164D01*
X20961892Y-36307554D01*
X20940000Y-36303200D01*
X17989914Y-36303200D01*
X17755060Y-36256484D01*
X17598275Y-36151724D01*
X17493515Y-35994939D01*
X17446800Y-35760085D01*
X17446800Y-30959475D01*
X17600600Y-30990319D01*
X21100720Y-30990319D01*
X21265364Y-30958375D01*
X21410071Y-30863318D01*
X21506936Y-30719815D01*
X21540979Y-30550060D01*
X21540979Y-27049940D01*
X21509035Y-26885296D01*
X21413978Y-26740589D01*
X21270475Y-26643724D01*
X21100720Y-26609681D01*
X17600600Y-26609681D01*
X17446800Y-26639521D01*
X17446800Y-20359915D01*
X17645755Y-19359694D01*
X18184060Y-18554063D01*
X18989693Y-18015756D01*
X19989915Y-17816800D01*
X78890084Y-17816800D01*
X79890305Y-18015755D01*
X80695936Y-18554060D01*
X81234243Y-19359693D01*
X81433200Y-20359915D01*
X81433200Y-70260084D01*
X81433200Y-70260084D01*
G37*
X81433200Y-70260084D02*
X81234243Y-71260306D01*
X80695936Y-72065939D01*
X80273217Y-72348390D01*
X80273217Y-69450831D01*
X80273217Y-20450831D01*
X79994930Y-19777324D01*
X79480086Y-19261581D01*
X78807066Y-18982119D01*
X78078331Y-18981483D01*
X77404824Y-19259770D01*
X76889081Y-19774614D01*
X76609619Y-20447634D01*
X76608983Y-21176369D01*
X76887270Y-21849876D01*
X77402114Y-22365619D01*
X77756690Y-22512851D01*
X77403250Y-22749014D01*
X77122442Y-23169272D01*
X77023836Y-23665000D01*
X77122442Y-24160728D01*
X77403250Y-24580986D01*
X77823508Y-24861794D01*
X78191541Y-24935000D01*
X77823508Y-25008206D01*
X77403250Y-25289014D01*
X77122442Y-25709272D01*
X77023836Y-26205000D01*
X77122442Y-26700728D01*
X77403250Y-27120986D01*
X77823508Y-27401794D01*
X78191541Y-27475000D01*
X77823508Y-27548206D01*
X77403250Y-27829014D01*
X77122442Y-28249272D01*
X77023836Y-28745000D01*
X77122442Y-29240728D01*
X77403250Y-29660986D01*
X77823508Y-29941794D01*
X78191541Y-30015000D01*
X77823508Y-30088206D01*
X77403250Y-30369014D01*
X77122442Y-30789272D01*
X77023836Y-31285000D01*
X77122442Y-31780728D01*
X77403250Y-32200986D01*
X77792132Y-32460829D01*
X77585680Y-32533046D01*
X77149268Y-32922964D01*
X76895291Y-33450209D01*
X76892642Y-33465974D01*
X77013783Y-33698000D01*
X78373000Y-33698000D01*
X78373000Y-33678000D01*
X78627000Y-33678000D01*
X78627000Y-33698000D01*
X79986217Y-33698000D01*
X80107358Y-33465974D01*
X80104709Y-33450209D01*
X79850732Y-32922964D01*
X79414320Y-32533046D01*
X79207867Y-32460829D01*
X79596750Y-32200986D01*
X79877558Y-31780728D01*
X79976164Y-31285000D01*
X79877558Y-30789272D01*
X79596750Y-30369014D01*
X79176492Y-30088206D01*
X78808458Y-30015000D01*
X79176492Y-29941794D01*
X79596750Y-29660986D01*
X79877558Y-29240728D01*
X79976164Y-28745000D01*
X79877558Y-28249272D01*
X79596750Y-27829014D01*
X79176492Y-27548206D01*
X78808458Y-27475000D01*
X79176492Y-27401794D01*
X79596750Y-27120986D01*
X79877558Y-26700728D01*
X79976164Y-26205000D01*
X79877558Y-25709272D01*
X79596750Y-25289014D01*
X79176492Y-25008206D01*
X78808458Y-24935000D01*
X79176492Y-24861794D01*
X79596750Y-24580986D01*
X79877558Y-24160728D01*
X79976164Y-23665000D01*
X79877558Y-23169272D01*
X79596750Y-22749014D01*
X79198266Y-22482755D01*
X79477376Y-22367430D01*
X79993119Y-21852586D01*
X80272581Y-21179566D01*
X80273217Y-20450831D01*
X80273217Y-69450831D01*
X79994930Y-68777324D01*
X79480086Y-68261581D01*
X79184538Y-68138859D01*
X79516000Y-68138859D01*
X79680644Y-68106915D01*
X79825351Y-68011858D01*
X79922216Y-67868355D01*
X79956259Y-67698600D01*
X79956259Y-65971400D01*
X79924315Y-65806756D01*
X79829258Y-65662049D01*
X79685755Y-65565184D01*
X79516000Y-65531141D01*
X78978680Y-65531141D01*
X79176492Y-65491794D01*
X79596750Y-65210986D01*
X79877558Y-64790728D01*
X79976164Y-64295000D01*
X79877558Y-63799272D01*
X79596750Y-63379014D01*
X79176492Y-63098206D01*
X78808458Y-63025000D01*
X79176492Y-62951794D01*
X79596750Y-62670986D01*
X79877558Y-62250728D01*
X79976164Y-61755000D01*
X79877558Y-61259272D01*
X79596750Y-60839014D01*
X79176492Y-60558206D01*
X78808458Y-60485000D01*
X79176492Y-60411794D01*
X79596750Y-60130986D01*
X79877558Y-59710728D01*
X79976164Y-59215000D01*
X79877558Y-58719272D01*
X79596750Y-58299014D01*
X79207867Y-58039170D01*
X79414320Y-57966954D01*
X79850732Y-57577036D01*
X80104709Y-57049791D01*
X80107358Y-57034026D01*
X80107358Y-56315974D01*
X80104709Y-56300209D01*
X79850732Y-55772964D01*
X79414320Y-55383046D01*
X79207867Y-55310829D01*
X79596750Y-55050986D01*
X79877558Y-54630728D01*
X79976164Y-54135000D01*
X79877558Y-53639272D01*
X79596750Y-53219014D01*
X79176492Y-52938206D01*
X78808458Y-52865000D01*
X79176492Y-52791794D01*
X79596750Y-52510986D01*
X79877558Y-52090728D01*
X79976164Y-51595000D01*
X79877558Y-51099272D01*
X79596750Y-50679014D01*
X79176492Y-50398206D01*
X78808458Y-50325000D01*
X79176492Y-50251794D01*
X79596750Y-49970986D01*
X79877558Y-49550728D01*
X79976164Y-49055000D01*
X79877558Y-48559272D01*
X79596750Y-48139014D01*
X79176492Y-47858206D01*
X78808458Y-47785000D01*
X79176492Y-47711794D01*
X79596750Y-47430986D01*
X79877558Y-47010728D01*
X79976164Y-46515000D01*
X79877558Y-46019272D01*
X79596750Y-45599014D01*
X79368136Y-45446259D01*
X79516000Y-45446259D01*
X79680644Y-45414315D01*
X79825351Y-45319258D01*
X79922216Y-45175755D01*
X79956259Y-45006000D01*
X79956259Y-44848600D01*
X79956259Y-43121400D01*
X79956259Y-42974000D01*
X79924315Y-42809356D01*
X79829258Y-42664649D01*
X79685755Y-42567784D01*
X79516000Y-42533741D01*
X79338204Y-42533741D01*
X79596750Y-42360986D01*
X79877558Y-41940728D01*
X79976164Y-41445000D01*
X79877558Y-40949272D01*
X79596750Y-40529014D01*
X79176492Y-40248206D01*
X78808458Y-40175000D01*
X79176492Y-40101794D01*
X79596750Y-39820986D01*
X79877558Y-39400728D01*
X79976164Y-38905000D01*
X79877558Y-38409272D01*
X79596750Y-37989014D01*
X79176492Y-37708206D01*
X78808458Y-37635000D01*
X79176492Y-37561794D01*
X79596750Y-37280986D01*
X79877558Y-36860728D01*
X79976164Y-36365000D01*
X79877558Y-35869272D01*
X79596750Y-35449014D01*
X79207867Y-35189170D01*
X79414320Y-35116954D01*
X79850732Y-34727036D01*
X80104709Y-34199791D01*
X80107358Y-34184026D01*
X79986217Y-33952000D01*
X78627000Y-33952000D01*
X78627000Y-33972000D01*
X78373000Y-33972000D01*
X78373000Y-33952000D01*
X77013783Y-33952000D01*
X76892642Y-34184026D01*
X76895291Y-34199791D01*
X77149268Y-34727036D01*
X77585680Y-35116954D01*
X77792132Y-35189170D01*
X77403250Y-35449014D01*
X77122442Y-35869272D01*
X77023836Y-36365000D01*
X77122442Y-36860728D01*
X77403250Y-37280986D01*
X77823508Y-37561794D01*
X78191541Y-37635000D01*
X77823508Y-37708206D01*
X77403250Y-37989014D01*
X77122442Y-38409272D01*
X77023836Y-38905000D01*
X77122442Y-39400728D01*
X77403250Y-39820986D01*
X77823508Y-40101794D01*
X78191541Y-40175000D01*
X77823508Y-40248206D01*
X77403250Y-40529014D01*
X77122442Y-40949272D01*
X77023836Y-41445000D01*
X77122442Y-41940728D01*
X77403250Y-42360986D01*
X77661795Y-42533741D01*
X77484000Y-42533741D01*
X77319356Y-42565685D01*
X77174649Y-42660742D01*
X77077784Y-42804245D01*
X77043741Y-42974000D01*
X77043741Y-43013585D01*
X77012113Y-42966251D01*
X76542413Y-42652407D01*
X75988364Y-42542200D01*
X75931636Y-42542200D01*
X75377587Y-42652407D01*
X74907887Y-42966251D01*
X74765107Y-43179936D01*
X74765107Y-21847180D01*
X74765107Y-19307180D01*
X74583745Y-18868250D01*
X74248216Y-18532136D01*
X73809603Y-18350008D01*
X73334680Y-18349593D01*
X72895750Y-18530955D01*
X72559636Y-18866484D01*
X72377508Y-19305097D01*
X72377093Y-19780020D01*
X72558455Y-20218950D01*
X72893984Y-20555064D01*
X73332597Y-20737192D01*
X73807520Y-20737607D01*
X74246450Y-20556245D01*
X74582564Y-20220716D01*
X74764692Y-19782103D01*
X74765107Y-19307180D01*
X74765107Y-21847180D01*
X74583745Y-21408250D01*
X74248216Y-21072136D01*
X73809603Y-20890008D01*
X73334680Y-20889593D01*
X72895750Y-21070955D01*
X72559636Y-21406484D01*
X72377508Y-21845097D01*
X72377093Y-22320020D01*
X72558455Y-22758950D01*
X72893984Y-23095064D01*
X73332597Y-23277192D01*
X73807520Y-23277607D01*
X74246450Y-23096245D01*
X74582564Y-22760716D01*
X74764692Y-22322103D01*
X74765107Y-21847180D01*
X74765107Y-43179936D01*
X74708600Y-43264504D01*
X74708600Y-38259910D01*
X74708600Y-38007291D01*
X74708600Y-37555750D01*
X74708600Y-36984250D01*
X74708600Y-36532709D01*
X74708600Y-36280090D01*
X74666259Y-36177869D01*
X74666259Y-33206000D01*
X74666259Y-31174000D01*
X74634315Y-31009356D01*
X74539258Y-30864649D01*
X74395755Y-30767784D01*
X74226000Y-30733741D01*
X72225107Y-30733741D01*
X72225107Y-21847180D01*
X72225107Y-19307180D01*
X72043745Y-18868250D01*
X71708216Y-18532136D01*
X71269603Y-18350008D01*
X70794680Y-18349593D01*
X70355750Y-18530955D01*
X70019636Y-18866484D01*
X69837508Y-19305097D01*
X69837093Y-19780020D01*
X70018455Y-20218950D01*
X70353984Y-20555064D01*
X70792597Y-20737192D01*
X71267520Y-20737607D01*
X71706450Y-20556245D01*
X72042564Y-20220716D01*
X72224692Y-19782103D01*
X72225107Y-19307180D01*
X72225107Y-21847180D01*
X72043745Y-21408250D01*
X71708216Y-21072136D01*
X71269603Y-20890008D01*
X70794680Y-20889593D01*
X70355750Y-21070955D01*
X70019636Y-21406484D01*
X69837508Y-21845097D01*
X69837093Y-22320020D01*
X70018455Y-22758950D01*
X70353984Y-23095064D01*
X70792597Y-23277192D01*
X71267520Y-23277607D01*
X71706450Y-23096245D01*
X72042564Y-22760716D01*
X72224692Y-22322103D01*
X72225107Y-21847180D01*
X72225107Y-30733741D01*
X72194000Y-30733741D01*
X72029356Y-30765685D01*
X71884649Y-30860742D01*
X71787784Y-31004245D01*
X71753741Y-31174000D01*
X71753741Y-31213585D01*
X71722113Y-31166251D01*
X71252413Y-30852407D01*
X70698364Y-30742200D01*
X70641636Y-30742200D01*
X70087587Y-30852407D01*
X69685107Y-31121335D01*
X69685107Y-21847180D01*
X69685107Y-19307180D01*
X69503745Y-18868250D01*
X69168216Y-18532136D01*
X68729603Y-18350008D01*
X68254680Y-18349593D01*
X67815750Y-18530955D01*
X67479636Y-18866484D01*
X67297508Y-19305097D01*
X67297093Y-19780020D01*
X67478455Y-20218950D01*
X67813984Y-20555064D01*
X68252597Y-20737192D01*
X68727520Y-20737607D01*
X69166450Y-20556245D01*
X69502564Y-20220716D01*
X69684692Y-19782103D01*
X69685107Y-19307180D01*
X69685107Y-21847180D01*
X69503745Y-21408250D01*
X69168216Y-21072136D01*
X68729603Y-20890008D01*
X68254680Y-20889593D01*
X67815750Y-21070955D01*
X67479636Y-21406484D01*
X67297508Y-21845097D01*
X67297093Y-22320020D01*
X67478455Y-22758950D01*
X67813984Y-23095064D01*
X68252597Y-23277192D01*
X68727520Y-23277607D01*
X69166450Y-23096245D01*
X69502564Y-22760716D01*
X69684692Y-22322103D01*
X69685107Y-21847180D01*
X69685107Y-31121335D01*
X69617887Y-31166251D01*
X69304043Y-31635951D01*
X69193836Y-32190000D01*
X69304043Y-32744049D01*
X69617887Y-33213749D01*
X70087587Y-33527593D01*
X70141303Y-33538277D01*
X69728636Y-33814014D01*
X69447828Y-34234272D01*
X69400000Y-34474720D01*
X69352172Y-34234272D01*
X69071364Y-33814014D01*
X68651106Y-33533206D01*
X68155378Y-33434600D01*
X68104622Y-33434600D01*
X67608894Y-33533206D01*
X67188636Y-33814014D01*
X67145107Y-33879159D01*
X67145107Y-21847180D01*
X67145107Y-19307180D01*
X66963745Y-18868250D01*
X66628216Y-18532136D01*
X66189603Y-18350008D01*
X65714680Y-18349593D01*
X65275750Y-18530955D01*
X64939636Y-18866484D01*
X64757508Y-19305097D01*
X64757093Y-19780020D01*
X64938455Y-20218950D01*
X65273984Y-20555064D01*
X65712597Y-20737192D01*
X66187520Y-20737607D01*
X66626450Y-20556245D01*
X66962564Y-20220716D01*
X67144692Y-19782103D01*
X67145107Y-19307180D01*
X67145107Y-21847180D01*
X66963745Y-21408250D01*
X66628216Y-21072136D01*
X66189603Y-20890008D01*
X65714680Y-20889593D01*
X65275750Y-21070955D01*
X64939636Y-21406484D01*
X64757508Y-21845097D01*
X64757093Y-22320020D01*
X64938455Y-22758950D01*
X65273984Y-23095064D01*
X65712597Y-23277192D01*
X66187520Y-23277607D01*
X66626450Y-23096245D01*
X66962564Y-22760716D01*
X67144692Y-22322103D01*
X67145107Y-21847180D01*
X67145107Y-33879159D01*
X66907828Y-34234272D01*
X66860000Y-34474720D01*
X66812172Y-34234272D01*
X66531364Y-33814014D01*
X66111106Y-33533206D01*
X65656259Y-33442731D01*
X65656259Y-30186000D01*
X65656259Y-28154000D01*
X65624315Y-27989356D01*
X65529258Y-27844649D01*
X65385755Y-27747784D01*
X65216000Y-27713741D01*
X65176414Y-27713741D01*
X65223749Y-27682113D01*
X65537593Y-27212413D01*
X65647800Y-26658364D01*
X65647800Y-26601636D01*
X65537593Y-26047587D01*
X65223749Y-25577887D01*
X64754049Y-25264043D01*
X64605107Y-25234416D01*
X64605107Y-21847180D01*
X64423745Y-21408250D01*
X64088216Y-21072136D01*
X63649603Y-20890008D01*
X63174680Y-20889593D01*
X62976151Y-20971623D01*
X62976426Y-20655734D01*
X63172597Y-20737192D01*
X63647520Y-20737607D01*
X64086450Y-20556245D01*
X64422564Y-20220716D01*
X64604692Y-19782103D01*
X64605107Y-19307180D01*
X64423745Y-18868250D01*
X64088216Y-18532136D01*
X63649603Y-18350008D01*
X63174680Y-18349593D01*
X62735750Y-18530955D01*
X62399636Y-18866484D01*
X62217508Y-19305097D01*
X62217093Y-19780020D01*
X62276823Y-19924579D01*
X62275072Y-19923852D01*
X62005930Y-19923617D01*
X62064692Y-19782103D01*
X62065107Y-19307180D01*
X61883745Y-18868250D01*
X61548216Y-18532136D01*
X61109603Y-18350008D01*
X60634680Y-18349593D01*
X60195750Y-18530955D01*
X59859636Y-18866484D01*
X59677508Y-19305097D01*
X59677093Y-19780020D01*
X59858455Y-20218950D01*
X60193984Y-20555064D01*
X60632597Y-20737192D01*
X61107520Y-20737607D01*
X61223795Y-20689562D01*
X61223579Y-20937335D01*
X61109603Y-20890008D01*
X60634680Y-20889593D01*
X60195750Y-21070955D01*
X59859636Y-21406484D01*
X59677508Y-21845097D01*
X59677093Y-22320020D01*
X59858455Y-22758950D01*
X60193984Y-23095064D01*
X60632597Y-23277192D01*
X61107520Y-23277607D01*
X61546450Y-23096245D01*
X61882564Y-22760716D01*
X62064692Y-22322103D01*
X62065107Y-21847180D01*
X61994463Y-21676208D01*
X62273542Y-21676452D01*
X62290433Y-21669472D01*
X62217508Y-21845097D01*
X62217093Y-22320020D01*
X62398455Y-22758950D01*
X62733984Y-23095064D01*
X63172597Y-23277192D01*
X63647520Y-23277607D01*
X64086450Y-23096245D01*
X64422564Y-22760716D01*
X64604692Y-22322103D01*
X64605107Y-21847180D01*
X64605107Y-25234416D01*
X64200000Y-25153836D01*
X63645951Y-25264043D01*
X63176251Y-25577887D01*
X62976189Y-25877299D01*
X62976452Y-25576458D01*
X62843324Y-25254264D01*
X62597032Y-25007542D01*
X62275072Y-24873852D01*
X61926458Y-24873548D01*
X61604264Y-25006676D01*
X61474990Y-25135724D01*
X61347032Y-25007542D01*
X61025072Y-24873852D01*
X60676458Y-24873548D01*
X60354264Y-25006676D01*
X60224990Y-25135724D01*
X60097032Y-25007542D01*
X59775072Y-24873852D01*
X59525107Y-24873634D01*
X59525107Y-21847180D01*
X59525107Y-19307180D01*
X59343745Y-18868250D01*
X59008216Y-18532136D01*
X58569603Y-18350008D01*
X58094680Y-18349593D01*
X57655750Y-18530955D01*
X57319636Y-18866484D01*
X57137508Y-19305097D01*
X57137093Y-19780020D01*
X57318455Y-20218950D01*
X57653984Y-20555064D01*
X58092597Y-20737192D01*
X58567520Y-20737607D01*
X59006450Y-20556245D01*
X59342564Y-20220716D01*
X59524692Y-19782103D01*
X59525107Y-19307180D01*
X59525107Y-21847180D01*
X59343745Y-21408250D01*
X59008216Y-21072136D01*
X58569603Y-20890008D01*
X58094680Y-20889593D01*
X57655750Y-21070955D01*
X57319636Y-21406484D01*
X57137508Y-21845097D01*
X57137093Y-22320020D01*
X57318455Y-22758950D01*
X57653984Y-23095064D01*
X58092597Y-23277192D01*
X58567520Y-23277607D01*
X59006450Y-23096245D01*
X59342564Y-22760716D01*
X59524692Y-22322103D01*
X59525107Y-21847180D01*
X59525107Y-24873634D01*
X59426458Y-24873548D01*
X59104264Y-25006676D01*
X58949947Y-25160724D01*
X58797032Y-25007542D01*
X58475072Y-24873852D01*
X58126458Y-24873548D01*
X57804264Y-25006676D01*
X57557542Y-25252968D01*
X57423852Y-25574928D01*
X57423548Y-25923542D01*
X57556676Y-26245736D01*
X57802968Y-26492458D01*
X58124928Y-26626148D01*
X58473542Y-26626452D01*
X58795736Y-26493324D01*
X58950052Y-26339275D01*
X59102968Y-26492458D01*
X59424928Y-26626148D01*
X59773542Y-26626452D01*
X60095736Y-26493324D01*
X60225009Y-26364275D01*
X60352968Y-26492458D01*
X60674928Y-26626148D01*
X61023542Y-26626452D01*
X61345736Y-26493324D01*
X61475009Y-26364275D01*
X61602968Y-26492458D01*
X61924928Y-26626148D01*
X62273542Y-26626452D01*
X62595736Y-26493324D01*
X62817848Y-26271598D01*
X62752200Y-26601636D01*
X62752200Y-26658364D01*
X62862407Y-27212413D01*
X63176251Y-27682113D01*
X63223585Y-27713741D01*
X63184000Y-27713741D01*
X63019356Y-27745685D01*
X62874649Y-27840742D01*
X62777784Y-27984245D01*
X62743741Y-28154000D01*
X62743741Y-30186000D01*
X62775685Y-30350644D01*
X62870742Y-30495351D01*
X63014245Y-30592216D01*
X63184000Y-30626259D01*
X65216000Y-30626259D01*
X65380644Y-30594315D01*
X65525351Y-30499258D01*
X65622216Y-30355755D01*
X65656259Y-30186000D01*
X65656259Y-33442731D01*
X65615378Y-33434600D01*
X65564622Y-33434600D01*
X65068894Y-33533206D01*
X64648636Y-33814014D01*
X64367828Y-34234272D01*
X64269222Y-34730000D01*
X64367828Y-35225728D01*
X64648636Y-35645986D01*
X65068894Y-35926794D01*
X65436927Y-36000000D01*
X65068894Y-36073206D01*
X64648636Y-36354014D01*
X64367828Y-36774272D01*
X64269222Y-37270000D01*
X64367828Y-37765728D01*
X64648636Y-38185986D01*
X65068894Y-38466794D01*
X65564622Y-38565400D01*
X65615378Y-38565400D01*
X66111106Y-38466794D01*
X66531364Y-38185986D01*
X66812172Y-37765728D01*
X66860000Y-37525279D01*
X66907828Y-37765728D01*
X67188636Y-38185986D01*
X67608894Y-38466794D01*
X68104622Y-38565400D01*
X68155378Y-38565400D01*
X68651106Y-38466794D01*
X69071364Y-38185986D01*
X69352172Y-37765728D01*
X69400000Y-37525279D01*
X69447828Y-37765728D01*
X69728636Y-38185986D01*
X70148894Y-38466794D01*
X70644622Y-38565400D01*
X70695378Y-38565400D01*
X71191106Y-38466794D01*
X71611364Y-38185986D01*
X71711400Y-38036271D01*
X71711400Y-38259910D01*
X71808073Y-38493299D01*
X71986702Y-38671927D01*
X72220091Y-38768600D01*
X72924250Y-38768600D01*
X73083000Y-38609850D01*
X73083000Y-37397000D01*
X73063000Y-37397000D01*
X73063000Y-37143000D01*
X73083000Y-37143000D01*
X73083000Y-36064469D01*
X73083000Y-35930150D01*
X73083000Y-34857000D01*
X73063000Y-34857000D01*
X73063000Y-34603000D01*
X73083000Y-34603000D01*
X73083000Y-34583000D01*
X73337000Y-34583000D01*
X73337000Y-34603000D01*
X74543817Y-34603000D01*
X74664958Y-34370974D01*
X74492688Y-33955053D01*
X74210832Y-33646259D01*
X74226000Y-33646259D01*
X74390644Y-33614315D01*
X74535351Y-33519258D01*
X74632216Y-33375755D01*
X74666259Y-33206000D01*
X74666259Y-36177869D01*
X74611927Y-36046701D01*
X74433298Y-35868073D01*
X74235880Y-35786299D01*
X74492688Y-35504947D01*
X74664958Y-35089026D01*
X74543817Y-34857000D01*
X73337000Y-34857000D01*
X73337000Y-35930150D01*
X73337000Y-36064469D01*
X73337000Y-37143000D01*
X74549850Y-37143000D01*
X74708600Y-36984250D01*
X74708600Y-37555750D01*
X74549850Y-37397000D01*
X73337000Y-37397000D01*
X73337000Y-38609850D01*
X73495750Y-38768600D01*
X74199909Y-38768600D01*
X74433298Y-38671927D01*
X74611927Y-38493299D01*
X74708600Y-38259910D01*
X74708600Y-43264504D01*
X74594043Y-43435951D01*
X74483836Y-43990000D01*
X74594043Y-44544049D01*
X74907887Y-45013749D01*
X75377587Y-45327593D01*
X75931636Y-45437800D01*
X75988364Y-45437800D01*
X76542413Y-45327593D01*
X77012113Y-45013749D01*
X77043741Y-44966414D01*
X77043741Y-45006000D01*
X77075685Y-45170644D01*
X77170742Y-45315351D01*
X77314245Y-45412216D01*
X77484000Y-45446259D01*
X77631863Y-45446259D01*
X77403250Y-45599014D01*
X77122442Y-46019272D01*
X77023836Y-46515000D01*
X77122442Y-47010728D01*
X77403250Y-47430986D01*
X77823508Y-47711794D01*
X78191541Y-47785000D01*
X77823508Y-47858206D01*
X77403250Y-48139014D01*
X77122442Y-48559272D01*
X77023836Y-49055000D01*
X77122442Y-49550728D01*
X77403250Y-49970986D01*
X77823508Y-50251794D01*
X78191541Y-50325000D01*
X77823508Y-50398206D01*
X77403250Y-50679014D01*
X77122442Y-51099272D01*
X77023836Y-51595000D01*
X77122442Y-52090728D01*
X77403250Y-52510986D01*
X77823508Y-52791794D01*
X78191541Y-52865000D01*
X77823508Y-52938206D01*
X77403250Y-53219014D01*
X77122442Y-53639272D01*
X77023836Y-54135000D01*
X77122442Y-54630728D01*
X77403250Y-55050986D01*
X77792132Y-55310829D01*
X77585680Y-55383046D01*
X77149268Y-55772964D01*
X76895291Y-56300209D01*
X76892642Y-56315974D01*
X77013783Y-56548000D01*
X78373000Y-56548000D01*
X78373000Y-56528000D01*
X78627000Y-56528000D01*
X78627000Y-56548000D01*
X79986217Y-56548000D01*
X80107358Y-56315974D01*
X80107358Y-57034026D01*
X79986217Y-56802000D01*
X78627000Y-56802000D01*
X78627000Y-56822000D01*
X78373000Y-56822000D01*
X78373000Y-56802000D01*
X77013783Y-56802000D01*
X76892642Y-57034026D01*
X76895291Y-57049791D01*
X77149268Y-57577036D01*
X77585680Y-57966954D01*
X77792132Y-58039170D01*
X77403250Y-58299014D01*
X77122442Y-58719272D01*
X77023836Y-59215000D01*
X77122442Y-59710728D01*
X77403250Y-60130986D01*
X77823508Y-60411794D01*
X78191541Y-60485000D01*
X77823508Y-60558206D01*
X77403250Y-60839014D01*
X77122442Y-61259272D01*
X77023836Y-61755000D01*
X77122442Y-62250728D01*
X77403250Y-62670986D01*
X77823508Y-62951794D01*
X78191541Y-63025000D01*
X77823508Y-63098206D01*
X77403250Y-63379014D01*
X77122442Y-63799272D01*
X77023836Y-64295000D01*
X77122442Y-64790728D01*
X77403250Y-65210986D01*
X77823508Y-65491794D01*
X78021319Y-65531141D01*
X77484000Y-65531141D01*
X77319356Y-65563085D01*
X77174649Y-65658142D01*
X77108662Y-65755898D01*
X76857036Y-65474268D01*
X76329791Y-65220291D01*
X76314026Y-65217642D01*
X76082000Y-65338783D01*
X76082000Y-66698000D01*
X76102000Y-66698000D01*
X76102000Y-66952000D01*
X76082000Y-66952000D01*
X76082000Y-68311217D01*
X76314026Y-68432358D01*
X76329791Y-68429709D01*
X76857036Y-68175732D01*
X77101339Y-67902297D01*
X77170742Y-68007951D01*
X77314245Y-68104816D01*
X77484000Y-68138859D01*
X77697451Y-68138859D01*
X77404824Y-68259770D01*
X76889081Y-68774614D01*
X76609619Y-69447634D01*
X76608983Y-70176369D01*
X76887270Y-70849876D01*
X77402114Y-71365619D01*
X78075134Y-71645081D01*
X78803869Y-71645717D01*
X79477376Y-71367430D01*
X79993119Y-70852586D01*
X80272581Y-70179566D01*
X80273217Y-69450831D01*
X80273217Y-72348390D01*
X79890305Y-72604244D01*
X78890084Y-72803200D01*
X75828000Y-72803200D01*
X75828000Y-68311217D01*
X75828000Y-66952000D01*
X75808000Y-66952000D01*
X75808000Y-66698000D01*
X75828000Y-66698000D01*
X75828000Y-65338783D01*
X75595974Y-65217642D01*
X75580209Y-65220291D01*
X75052964Y-65474268D01*
X74663046Y-65910680D01*
X74590829Y-66117132D01*
X74330986Y-65728250D01*
X73910728Y-65447442D01*
X73415000Y-65348836D01*
X72919272Y-65447442D01*
X72499014Y-65728250D01*
X72218206Y-66148508D01*
X72145000Y-66516541D01*
X72071794Y-66148508D01*
X71790986Y-65728250D01*
X71451452Y-65501380D01*
X71451452Y-44201458D01*
X71318324Y-43879264D01*
X71072032Y-43632542D01*
X70750072Y-43498852D01*
X70401458Y-43498548D01*
X70079264Y-43631676D01*
X69832542Y-43877968D01*
X69698852Y-44199928D01*
X69698548Y-44548542D01*
X69831676Y-44870736D01*
X70077968Y-45117458D01*
X70399928Y-45251148D01*
X70748542Y-45251452D01*
X71070736Y-45118324D01*
X71317458Y-44872032D01*
X71451148Y-44550072D01*
X71451452Y-44201458D01*
X71451452Y-65501380D01*
X71370728Y-65447442D01*
X70875000Y-65348836D01*
X70379272Y-65447442D01*
X69959014Y-65728250D01*
X69678206Y-66148508D01*
X69605000Y-66516541D01*
X69531794Y-66148508D01*
X69250986Y-65728250D01*
X69176452Y-65678447D01*
X69176452Y-44226458D01*
X69043324Y-43904264D01*
X68797032Y-43657542D01*
X68475072Y-43523852D01*
X68126458Y-43523548D01*
X67804264Y-43656676D01*
X67557542Y-43902968D01*
X67423852Y-44224928D01*
X67423548Y-44573542D01*
X67556676Y-44895736D01*
X67802968Y-45142458D01*
X68124928Y-45276148D01*
X68473542Y-45276452D01*
X68795736Y-45143324D01*
X69042458Y-44897032D01*
X69176148Y-44575072D01*
X69176452Y-44226458D01*
X69176452Y-65678447D01*
X68830728Y-65447442D01*
X68335000Y-65348836D01*
X67839272Y-65447442D01*
X67445459Y-65710579D01*
X67445459Y-48361600D01*
X67445459Y-46329600D01*
X67413515Y-46164956D01*
X67318458Y-46020249D01*
X67174955Y-45923384D01*
X67005200Y-45889341D01*
X64973200Y-45889341D01*
X64808556Y-45921285D01*
X64751452Y-45958796D01*
X64751452Y-44348529D01*
X64618324Y-44026335D01*
X64372032Y-43779613D01*
X64050072Y-43645923D01*
X63701458Y-43645619D01*
X63379264Y-43778747D01*
X63287005Y-43870845D01*
X63195932Y-43779613D01*
X62873972Y-43645923D01*
X62525358Y-43645619D01*
X62203164Y-43778747D01*
X61999310Y-43982244D01*
X61797032Y-43779613D01*
X61475072Y-43645923D01*
X61126458Y-43645619D01*
X61053206Y-43675885D01*
X61015414Y-43584420D01*
X60769122Y-43337698D01*
X60447162Y-43204008D01*
X60098548Y-43203704D01*
X59776354Y-43336832D01*
X59529632Y-43583124D01*
X59395942Y-43905084D01*
X59395638Y-44253698D01*
X59528766Y-44575892D01*
X59775058Y-44822614D01*
X60097018Y-44956304D01*
X60445632Y-44956608D01*
X60518883Y-44926341D01*
X60556676Y-45017807D01*
X60802968Y-45264529D01*
X61124928Y-45398219D01*
X61473542Y-45398523D01*
X61795736Y-45265395D01*
X61999589Y-45061897D01*
X62201868Y-45264529D01*
X62523828Y-45398219D01*
X62872442Y-45398523D01*
X63194636Y-45265395D01*
X63286894Y-45173296D01*
X63377968Y-45264529D01*
X63699928Y-45398219D01*
X64048542Y-45398523D01*
X64370736Y-45265395D01*
X64617458Y-45019103D01*
X64751148Y-44697143D01*
X64751452Y-44348529D01*
X64751452Y-45958796D01*
X64663849Y-46016342D01*
X64566984Y-46159845D01*
X64532941Y-46329600D01*
X64532941Y-48361600D01*
X64564885Y-48526244D01*
X64659942Y-48670951D01*
X64803445Y-48767816D01*
X64973200Y-48801859D01*
X65012785Y-48801859D01*
X64965451Y-48833487D01*
X64651607Y-49303187D01*
X64541400Y-49857236D01*
X64541400Y-49913964D01*
X64651607Y-50468013D01*
X64965451Y-50937713D01*
X65435151Y-51251557D01*
X65989200Y-51361764D01*
X66543249Y-51251557D01*
X67012949Y-50937713D01*
X67326793Y-50468013D01*
X67437000Y-49913964D01*
X67437000Y-49857236D01*
X67326793Y-49303187D01*
X67012949Y-48833487D01*
X66965614Y-48801859D01*
X67005200Y-48801859D01*
X67169844Y-48769915D01*
X67314551Y-48674858D01*
X67411416Y-48531355D01*
X67445459Y-48361600D01*
X67445459Y-65710579D01*
X67419014Y-65728250D01*
X67138206Y-66148508D01*
X67098859Y-66346319D01*
X67098859Y-65809000D01*
X67066915Y-65644356D01*
X66971858Y-65499649D01*
X66828355Y-65402784D01*
X66658600Y-65368741D01*
X64931400Y-65368741D01*
X64766756Y-65400685D01*
X64622049Y-65495742D01*
X64525184Y-65639245D01*
X64491141Y-65809000D01*
X64491141Y-67841000D01*
X64523085Y-68005644D01*
X64618142Y-68150351D01*
X64761645Y-68247216D01*
X64931400Y-68281259D01*
X66658600Y-68281259D01*
X66823244Y-68249315D01*
X66967951Y-68154258D01*
X67064816Y-68010755D01*
X67098859Y-67841000D01*
X67098859Y-67303680D01*
X67138206Y-67501492D01*
X67419014Y-67921750D01*
X67839272Y-68202558D01*
X68335000Y-68301164D01*
X68830728Y-68202558D01*
X69250986Y-67921750D01*
X69531794Y-67501492D01*
X69605000Y-67133458D01*
X69678206Y-67501492D01*
X69959014Y-67921750D01*
X70379272Y-68202558D01*
X70875000Y-68301164D01*
X71370728Y-68202558D01*
X71790986Y-67921750D01*
X72071794Y-67501492D01*
X72145000Y-67133458D01*
X72218206Y-67501492D01*
X72499014Y-67921750D01*
X72919272Y-68202558D01*
X73415000Y-68301164D01*
X73910728Y-68202558D01*
X74330986Y-67921750D01*
X74590829Y-67532867D01*
X74663046Y-67739320D01*
X75052964Y-68175732D01*
X75580209Y-68429709D01*
X75595974Y-68432358D01*
X75828000Y-68311217D01*
X75828000Y-72803200D01*
X63989914Y-72803200D01*
X63755060Y-72756484D01*
X63598275Y-72651724D01*
X63493515Y-72494939D01*
X63446800Y-72260085D01*
X63446800Y-54310000D01*
X63437062Y-54261043D01*
X63437062Y-54211129D01*
X63360942Y-53828446D01*
X63360942Y-53828445D01*
X63285269Y-53645754D01*
X63068496Y-53321330D01*
X62928670Y-53181504D01*
X62604246Y-52964731D01*
X62421554Y-52889058D01*
X62038872Y-52812938D01*
X62038871Y-52812938D01*
X61841129Y-52812938D01*
X61841128Y-52812938D01*
X61841127Y-52812938D01*
X61458446Y-52889058D01*
X61458445Y-52889058D01*
X61275754Y-52964731D01*
X60951330Y-53181504D01*
X60811504Y-53321330D01*
X60594731Y-53645754D01*
X60519058Y-53828446D01*
X60442938Y-54211129D01*
X60442938Y-54261043D01*
X60433200Y-54310000D01*
X60433200Y-72260085D01*
X60386484Y-72494939D01*
X60281724Y-72651724D01*
X60124939Y-72756484D01*
X59890085Y-72803200D01*
X59546698Y-72803200D01*
X59546698Y-46229396D01*
X59413570Y-45907202D01*
X59167278Y-45660480D01*
X58845318Y-45526790D01*
X58496704Y-45526486D01*
X58174510Y-45659614D01*
X57927788Y-45905906D01*
X57871164Y-46042268D01*
X57871164Y-36750000D01*
X57760957Y-36195951D01*
X57447113Y-35726251D01*
X57342362Y-35656259D01*
X57411000Y-35656259D01*
X57575644Y-35624315D01*
X57720351Y-35529258D01*
X57817216Y-35385755D01*
X57851259Y-35216000D01*
X57851259Y-33184000D01*
X57819315Y-33019356D01*
X57724258Y-32874649D01*
X57580755Y-32777784D01*
X57411000Y-32743741D01*
X56985107Y-32743741D01*
X56985107Y-21847180D01*
X56985107Y-19307180D01*
X56803745Y-18868250D01*
X56468216Y-18532136D01*
X56029603Y-18350008D01*
X55554680Y-18349593D01*
X55115750Y-18530955D01*
X54779636Y-18866484D01*
X54597508Y-19305097D01*
X54597093Y-19780020D01*
X54778455Y-20218950D01*
X55113984Y-20555064D01*
X55552597Y-20737192D01*
X56027520Y-20737607D01*
X56466450Y-20556245D01*
X56802564Y-20220716D01*
X56984692Y-19782103D01*
X56985107Y-19307180D01*
X56985107Y-21847180D01*
X56803745Y-21408250D01*
X56468216Y-21072136D01*
X56029603Y-20890008D01*
X55554680Y-20889593D01*
X55115750Y-21070955D01*
X54779636Y-21406484D01*
X54597508Y-21845097D01*
X54597093Y-22320020D01*
X54778455Y-22758950D01*
X55113984Y-23095064D01*
X55552597Y-23277192D01*
X56027520Y-23277607D01*
X56466450Y-23096245D01*
X56802564Y-22760716D01*
X56984692Y-22322103D01*
X56985107Y-21847180D01*
X56985107Y-32743741D01*
X56876164Y-32743741D01*
X56876164Y-27400000D01*
X56777558Y-26904272D01*
X56496750Y-26484014D01*
X56076492Y-26203206D01*
X55708458Y-26130000D01*
X56076492Y-26056794D01*
X56496750Y-25775986D01*
X56777558Y-25355728D01*
X56876164Y-24860000D01*
X56777558Y-24364272D01*
X56496750Y-23944014D01*
X56076492Y-23663206D01*
X55580764Y-23564600D01*
X55219236Y-23564600D01*
X54723508Y-23663206D01*
X54445107Y-23849227D01*
X54445107Y-21847180D01*
X54445107Y-19307180D01*
X54263745Y-18868250D01*
X53928216Y-18532136D01*
X53489603Y-18350008D01*
X53014680Y-18349593D01*
X52575750Y-18530955D01*
X52239636Y-18866484D01*
X52057508Y-19305097D01*
X52057093Y-19780020D01*
X52238455Y-20218950D01*
X52573984Y-20555064D01*
X53012597Y-20737192D01*
X53487520Y-20737607D01*
X53926450Y-20556245D01*
X54262564Y-20220716D01*
X54444692Y-19782103D01*
X54445107Y-19307180D01*
X54445107Y-21847180D01*
X54263745Y-21408250D01*
X53928216Y-21072136D01*
X53489603Y-20890008D01*
X53014680Y-20889593D01*
X52575750Y-21070955D01*
X52239636Y-21406484D01*
X52057508Y-21845097D01*
X52057093Y-22320020D01*
X52238455Y-22758950D01*
X52573984Y-23095064D01*
X53012597Y-23277192D01*
X53487520Y-23277607D01*
X53926450Y-23096245D01*
X54262564Y-22760716D01*
X54444692Y-22322103D01*
X54445107Y-21847180D01*
X54445107Y-23849227D01*
X54303250Y-23944014D01*
X54022442Y-24364272D01*
X53923836Y-24860000D01*
X54022442Y-25355728D01*
X54303250Y-25775986D01*
X54723508Y-26056794D01*
X55091541Y-26130000D01*
X54723508Y-26203206D01*
X54303250Y-26484014D01*
X54022442Y-26904272D01*
X53923836Y-27400000D01*
X54022442Y-27895728D01*
X54303250Y-28315986D01*
X54723508Y-28596794D01*
X54921319Y-28636141D01*
X54384000Y-28636141D01*
X54219356Y-28668085D01*
X54074649Y-28763142D01*
X53977784Y-28906645D01*
X53943741Y-29076400D01*
X53943741Y-30803600D01*
X53975685Y-30968244D01*
X54070742Y-31112951D01*
X54214245Y-31209816D01*
X54384000Y-31243859D01*
X56416000Y-31243859D01*
X56580644Y-31211915D01*
X56725351Y-31116858D01*
X56822216Y-30973355D01*
X56856259Y-30803600D01*
X56856259Y-29076400D01*
X56824315Y-28911756D01*
X56729258Y-28767049D01*
X56585755Y-28670184D01*
X56416000Y-28636141D01*
X55878680Y-28636141D01*
X56076492Y-28596794D01*
X56496750Y-28315986D01*
X56777558Y-27895728D01*
X56876164Y-27400000D01*
X56876164Y-32743741D01*
X55379000Y-32743741D01*
X55214356Y-32775685D01*
X55069649Y-32870742D01*
X54972784Y-33014245D01*
X54938741Y-33184000D01*
X54938741Y-33223585D01*
X54907113Y-33176251D01*
X54437413Y-32862407D01*
X53883364Y-32752200D01*
X53826636Y-32752200D01*
X53272587Y-32862407D01*
X52802887Y-33176251D01*
X52489043Y-33645951D01*
X52378836Y-34200000D01*
X52489043Y-34754049D01*
X52802887Y-35223749D01*
X52907637Y-35293741D01*
X52839000Y-35293741D01*
X52674356Y-35325685D01*
X52529649Y-35420742D01*
X52432784Y-35564245D01*
X52398741Y-35734000D01*
X52398741Y-37766000D01*
X52430685Y-37930644D01*
X52525742Y-38075351D01*
X52669245Y-38172216D01*
X52839000Y-38206259D01*
X54871000Y-38206259D01*
X55035644Y-38174315D01*
X55180351Y-38079258D01*
X55277216Y-37935755D01*
X55311259Y-37766000D01*
X55311259Y-37726414D01*
X55342887Y-37773749D01*
X55812587Y-38087593D01*
X56366636Y-38197800D01*
X56423364Y-38197800D01*
X56977413Y-38087593D01*
X57447113Y-37773749D01*
X57760957Y-37304049D01*
X57871164Y-36750000D01*
X57871164Y-46042268D01*
X57859045Y-46071454D01*
X57773144Y-45985403D01*
X57451184Y-45851713D01*
X57102570Y-45851409D01*
X56780376Y-45984537D01*
X56533654Y-46230829D01*
X56528675Y-46242819D01*
X56231528Y-46119433D01*
X55882914Y-46119129D01*
X55560720Y-46252257D01*
X55313998Y-46498549D01*
X55180308Y-46820509D01*
X55180004Y-47169123D01*
X55313132Y-47491317D01*
X55559424Y-47738039D01*
X55881384Y-47871729D01*
X56229998Y-47872033D01*
X56516577Y-47753620D01*
X56516379Y-47980805D01*
X56602631Y-48189552D01*
X56564304Y-48189519D01*
X56341414Y-48281614D01*
X56334739Y-48265458D01*
X56088447Y-48018736D01*
X55766487Y-47885046D01*
X55417873Y-47884742D01*
X55095679Y-48017870D01*
X54848957Y-48264162D01*
X54715267Y-48586122D01*
X54714963Y-48934736D01*
X54848091Y-49256930D01*
X55094383Y-49503652D01*
X55416343Y-49637342D01*
X55480370Y-49637397D01*
X55402267Y-49825491D01*
X55401963Y-50174105D01*
X55535091Y-50496299D01*
X55677280Y-50638736D01*
X55589590Y-50849917D01*
X55589286Y-51198531D01*
X55600550Y-51225793D01*
X55564264Y-51240787D01*
X55489304Y-51315616D01*
X55193693Y-51192867D01*
X54845079Y-51192563D01*
X54522885Y-51325691D01*
X54276163Y-51571983D01*
X54142473Y-51893943D01*
X54142169Y-52242557D01*
X54275297Y-52564751D01*
X54521589Y-52811473D01*
X54843549Y-52945163D01*
X55192163Y-52945467D01*
X55514357Y-52812339D01*
X55589316Y-52737509D01*
X55884928Y-52860259D01*
X56233542Y-52860563D01*
X56555736Y-52727435D01*
X56802458Y-52481143D01*
X56936148Y-52159183D01*
X56936452Y-51810569D01*
X56925187Y-51783306D01*
X56961474Y-51768313D01*
X57208196Y-51522021D01*
X57341886Y-51200061D01*
X57342190Y-50851447D01*
X57209062Y-50529253D01*
X57066872Y-50386815D01*
X57154563Y-50175635D01*
X57154854Y-49841824D01*
X57233582Y-49809295D01*
X57480304Y-49563003D01*
X57613994Y-49241043D01*
X57614298Y-48892429D01*
X57528045Y-48683681D01*
X57566373Y-48683715D01*
X57888567Y-48550587D01*
X58135289Y-48304295D01*
X58268979Y-47982335D01*
X58269283Y-47633721D01*
X58136155Y-47311527D01*
X58027706Y-47202889D01*
X58087312Y-47059344D01*
X58173214Y-47145396D01*
X58495174Y-47279086D01*
X58843788Y-47279390D01*
X59165982Y-47146262D01*
X59412704Y-46899970D01*
X59546394Y-46578010D01*
X59546698Y-46229396D01*
X59546698Y-72803200D01*
X56274584Y-72803200D01*
X56274584Y-56525313D01*
X56141456Y-56203119D01*
X55895164Y-55956397D01*
X55573204Y-55822707D01*
X55224590Y-55822403D01*
X54902396Y-55955531D01*
X54655674Y-56201823D01*
X54521984Y-56523783D01*
X54521680Y-56872397D01*
X54648832Y-57180128D01*
X54587832Y-57241022D01*
X54454142Y-57562982D01*
X54453838Y-57911596D01*
X54586966Y-58233790D01*
X54833258Y-58480512D01*
X55155218Y-58614202D01*
X55503832Y-58614506D01*
X55826026Y-58481378D01*
X56072748Y-58235086D01*
X56206438Y-57913126D01*
X56206742Y-57564512D01*
X56079589Y-57256780D01*
X56140590Y-57195887D01*
X56274280Y-56873927D01*
X56274584Y-56525313D01*
X56274584Y-72803200D01*
X53076452Y-72803200D01*
X53076452Y-61126458D01*
X52943324Y-60804264D01*
X52898363Y-60759224D01*
X52898363Y-58122044D01*
X52765235Y-57799850D01*
X52556452Y-57590702D01*
X52556452Y-46556458D01*
X52423324Y-46234264D01*
X52226259Y-46036854D01*
X52226259Y-39116000D01*
X52226259Y-37084000D01*
X52194315Y-36919356D01*
X52099258Y-36774649D01*
X51955755Y-36677784D01*
X51905107Y-36667626D01*
X51905107Y-21847180D01*
X51905107Y-19307180D01*
X51723745Y-18868250D01*
X51388216Y-18532136D01*
X50949603Y-18350008D01*
X50474680Y-18349593D01*
X50035750Y-18530955D01*
X49699636Y-18866484D01*
X49517508Y-19305097D01*
X49517093Y-19780020D01*
X49698455Y-20218950D01*
X50033984Y-20555064D01*
X50472597Y-20737192D01*
X50947520Y-20737607D01*
X51386450Y-20556245D01*
X51722564Y-20220716D01*
X51904692Y-19782103D01*
X51905107Y-19307180D01*
X51905107Y-21847180D01*
X51723745Y-21408250D01*
X51388216Y-21072136D01*
X50949603Y-20890008D01*
X50474680Y-20889593D01*
X50035750Y-21070955D01*
X49699636Y-21406484D01*
X49517508Y-21845097D01*
X49517093Y-22320020D01*
X49698455Y-22758950D01*
X50033984Y-23095064D01*
X50472597Y-23277192D01*
X50947520Y-23277607D01*
X51386450Y-23096245D01*
X51722564Y-22760716D01*
X51904692Y-22322103D01*
X51905107Y-21847180D01*
X51905107Y-36667626D01*
X51786000Y-36643741D01*
X49754000Y-36643741D01*
X49589356Y-36675685D01*
X49444649Y-36770742D01*
X49365107Y-36888581D01*
X49365107Y-21847180D01*
X49365107Y-19307180D01*
X49183745Y-18868250D01*
X48848216Y-18532136D01*
X48409603Y-18350008D01*
X47934680Y-18349593D01*
X47495750Y-18530955D01*
X47159636Y-18866484D01*
X46977508Y-19305097D01*
X46977093Y-19780020D01*
X47158455Y-20218950D01*
X47493984Y-20555064D01*
X47932597Y-20737192D01*
X48407520Y-20737607D01*
X48846450Y-20556245D01*
X49182564Y-20220716D01*
X49364692Y-19782103D01*
X49365107Y-19307180D01*
X49365107Y-21847180D01*
X49183745Y-21408250D01*
X48848216Y-21072136D01*
X48409603Y-20890008D01*
X47934680Y-20889593D01*
X47495750Y-21070955D01*
X47159636Y-21406484D01*
X46977508Y-21845097D01*
X46977093Y-22320020D01*
X47158455Y-22758950D01*
X47493984Y-23095064D01*
X47932597Y-23277192D01*
X48407520Y-23277607D01*
X48846450Y-23096245D01*
X49182564Y-22760716D01*
X49364692Y-22322103D01*
X49365107Y-21847180D01*
X49365107Y-36888581D01*
X49347784Y-36914245D01*
X49313741Y-37084000D01*
X49313741Y-37123585D01*
X49282113Y-37076251D01*
X48812413Y-36762407D01*
X48258364Y-36652200D01*
X48201636Y-36652200D01*
X48040003Y-36684350D01*
X48040115Y-36556931D01*
X47906987Y-36234737D01*
X47660695Y-35988015D01*
X47376452Y-35869986D01*
X47376452Y-34726458D01*
X47243324Y-34404264D01*
X47189275Y-34350121D01*
X47242458Y-34297032D01*
X47376148Y-33975072D01*
X47376452Y-33626458D01*
X47243324Y-33304264D01*
X47189275Y-33250121D01*
X47242458Y-33197032D01*
X47376148Y-32875072D01*
X47376452Y-32526458D01*
X47243324Y-32204264D01*
X47189275Y-32150121D01*
X47242458Y-32097032D01*
X47376148Y-31775072D01*
X47376452Y-31426458D01*
X47243324Y-31104264D01*
X47189275Y-31050121D01*
X47242458Y-30997032D01*
X47376148Y-30675072D01*
X47376452Y-30326458D01*
X47243324Y-30004264D01*
X46997032Y-29757542D01*
X46825107Y-29686152D01*
X46825107Y-21847180D01*
X46825107Y-19307180D01*
X46643745Y-18868250D01*
X46308216Y-18532136D01*
X45869603Y-18350008D01*
X45394680Y-18349593D01*
X44955750Y-18530955D01*
X44619636Y-18866484D01*
X44437508Y-19305097D01*
X44437093Y-19780020D01*
X44618455Y-20218950D01*
X44953984Y-20555064D01*
X45392597Y-20737192D01*
X45867520Y-20737607D01*
X46306450Y-20556245D01*
X46642564Y-20220716D01*
X46824692Y-19782103D01*
X46825107Y-19307180D01*
X46825107Y-21847180D01*
X46643745Y-21408250D01*
X46308216Y-21072136D01*
X45869603Y-20890008D01*
X45394680Y-20889593D01*
X44955750Y-21070955D01*
X44619636Y-21406484D01*
X44437508Y-21845097D01*
X44437093Y-22320020D01*
X44438627Y-22323733D01*
X44284071Y-22323598D01*
X44284692Y-22322103D01*
X44285107Y-21847180D01*
X44285107Y-19307180D01*
X44103745Y-18868250D01*
X43768216Y-18532136D01*
X43329603Y-18350008D01*
X42854680Y-18349593D01*
X42415750Y-18530955D01*
X42079636Y-18866484D01*
X41897508Y-19305097D01*
X41897093Y-19780020D01*
X42078455Y-20218950D01*
X42413984Y-20555064D01*
X42852597Y-20737192D01*
X43327520Y-20737607D01*
X43766450Y-20556245D01*
X44102564Y-20220716D01*
X44284692Y-19782103D01*
X44285107Y-19307180D01*
X44285107Y-21847180D01*
X44103745Y-21408250D01*
X43768216Y-21072136D01*
X43329603Y-20890008D01*
X42854680Y-20889593D01*
X42415750Y-21070955D01*
X42079636Y-21406484D01*
X41897508Y-21845097D01*
X41897093Y-22320020D01*
X42078455Y-22758950D01*
X42413984Y-23095064D01*
X42852597Y-23277192D01*
X43327520Y-23277607D01*
X43523702Y-23196546D01*
X43523548Y-23373542D01*
X43656676Y-23695736D01*
X43902968Y-23942458D01*
X44224928Y-24076148D01*
X44573542Y-24076452D01*
X44895736Y-23943324D01*
X45142458Y-23697032D01*
X45276148Y-23375072D01*
X45276275Y-23228891D01*
X45392597Y-23277192D01*
X45867520Y-23277607D01*
X46306450Y-23096245D01*
X46642564Y-22760716D01*
X46824692Y-22322103D01*
X46825107Y-21847180D01*
X46825107Y-29686152D01*
X46675072Y-29623852D01*
X46326458Y-29623548D01*
X46004264Y-29756676D01*
X45757542Y-30002968D01*
X45623852Y-30324928D01*
X45623548Y-30673542D01*
X45756676Y-30995736D01*
X45810724Y-31049878D01*
X45757542Y-31102968D01*
X45623852Y-31424928D01*
X45623548Y-31773542D01*
X45756676Y-32095736D01*
X45810724Y-32149878D01*
X45757542Y-32202968D01*
X45623852Y-32524928D01*
X45623548Y-32873542D01*
X45756676Y-33195736D01*
X45810724Y-33249878D01*
X45757542Y-33302968D01*
X45623852Y-33624928D01*
X45623548Y-33973542D01*
X45658680Y-34058569D01*
X45575072Y-34023852D01*
X45226458Y-34023548D01*
X44904264Y-34156676D01*
X44850121Y-34210724D01*
X44797032Y-34157542D01*
X44475072Y-34023852D01*
X44126458Y-34023548D01*
X43804264Y-34156676D01*
X43750121Y-34210724D01*
X43697032Y-34157542D01*
X43375072Y-34023852D01*
X43026458Y-34023548D01*
X42704264Y-34156676D01*
X42650121Y-34210724D01*
X42597032Y-34157542D01*
X42275072Y-34023852D01*
X41926458Y-34023548D01*
X41745107Y-34098480D01*
X41745107Y-21847180D01*
X41745107Y-19307180D01*
X41563745Y-18868250D01*
X41228216Y-18532136D01*
X40789603Y-18350008D01*
X40314680Y-18349593D01*
X39875750Y-18530955D01*
X39539636Y-18866484D01*
X39357508Y-19305097D01*
X39357093Y-19780020D01*
X39538455Y-20218950D01*
X39873984Y-20555064D01*
X40312597Y-20737192D01*
X40787520Y-20737607D01*
X41226450Y-20556245D01*
X41562564Y-20220716D01*
X41744692Y-19782103D01*
X41745107Y-19307180D01*
X41745107Y-21847180D01*
X41563745Y-21408250D01*
X41228216Y-21072136D01*
X40789603Y-20890008D01*
X40314680Y-20889593D01*
X39875750Y-21070955D01*
X39539636Y-21406484D01*
X39357508Y-21845097D01*
X39357093Y-22320020D01*
X39538455Y-22758950D01*
X39873984Y-23095064D01*
X40312597Y-23277192D01*
X40787520Y-23277607D01*
X41226450Y-23096245D01*
X41562564Y-22760716D01*
X41744692Y-22322103D01*
X41745107Y-21847180D01*
X41745107Y-34098480D01*
X41604264Y-34156676D01*
X41550121Y-34210724D01*
X41497032Y-34157542D01*
X41175072Y-34023852D01*
X40826458Y-34023548D01*
X40504264Y-34156676D01*
X40450121Y-34210724D01*
X40397032Y-34157542D01*
X40075072Y-34023852D01*
X39726458Y-34023548D01*
X39404264Y-34156676D01*
X39350121Y-34210724D01*
X39297032Y-34157542D01*
X39205107Y-34119371D01*
X39205107Y-21847180D01*
X39205107Y-19307180D01*
X39023745Y-18868250D01*
X38688216Y-18532136D01*
X38249603Y-18350008D01*
X37774680Y-18349593D01*
X37335750Y-18530955D01*
X36999636Y-18866484D01*
X36817508Y-19305097D01*
X36817093Y-19780020D01*
X36998455Y-20218950D01*
X37333984Y-20555064D01*
X37772597Y-20737192D01*
X38247520Y-20737607D01*
X38686450Y-20556245D01*
X39022564Y-20220716D01*
X39204692Y-19782103D01*
X39205107Y-19307180D01*
X39205107Y-21847180D01*
X39023745Y-21408250D01*
X38688216Y-21072136D01*
X38249603Y-20890008D01*
X37774680Y-20889593D01*
X37335750Y-21070955D01*
X36999636Y-21406484D01*
X36817508Y-21845097D01*
X36817093Y-22320020D01*
X36998455Y-22758950D01*
X37333984Y-23095064D01*
X37772597Y-23277192D01*
X38247520Y-23277607D01*
X38686450Y-23096245D01*
X39022564Y-22760716D01*
X39204692Y-22322103D01*
X39205107Y-21847180D01*
X39205107Y-34119371D01*
X38975072Y-34023852D01*
X38626458Y-34023548D01*
X38304264Y-34156676D01*
X38250121Y-34210724D01*
X38197032Y-34157542D01*
X37875072Y-34023852D01*
X37526458Y-34023548D01*
X37204264Y-34156676D01*
X37150121Y-34210724D01*
X37097032Y-34157542D01*
X36775072Y-34023852D01*
X36665107Y-34023756D01*
X36665107Y-21847180D01*
X36665107Y-19307180D01*
X36483745Y-18868250D01*
X36148216Y-18532136D01*
X35709603Y-18350008D01*
X35234680Y-18349593D01*
X34795750Y-18530955D01*
X34459636Y-18866484D01*
X34277508Y-19305097D01*
X34277093Y-19780020D01*
X34458455Y-20218950D01*
X34793984Y-20555064D01*
X35232597Y-20737192D01*
X35707520Y-20737607D01*
X36146450Y-20556245D01*
X36482564Y-20220716D01*
X36664692Y-19782103D01*
X36665107Y-19307180D01*
X36665107Y-21847180D01*
X36483745Y-21408250D01*
X36148216Y-21072136D01*
X35709603Y-20890008D01*
X35234680Y-20889593D01*
X34795750Y-21070955D01*
X34459636Y-21406484D01*
X34277508Y-21845097D01*
X34277093Y-22320020D01*
X34458455Y-22758950D01*
X34793984Y-23095064D01*
X35232597Y-23277192D01*
X35707520Y-23277607D01*
X36146450Y-23096245D01*
X36482564Y-22760716D01*
X36664692Y-22322103D01*
X36665107Y-21847180D01*
X36665107Y-34023756D01*
X36426458Y-34023548D01*
X36104264Y-34156676D01*
X36050121Y-34210724D01*
X35997032Y-34157542D01*
X35675072Y-34023852D01*
X35326458Y-34023548D01*
X35004264Y-34156676D01*
X34899946Y-34260811D01*
X34697032Y-34057542D01*
X34558512Y-34000023D01*
X34695736Y-33943324D01*
X34942458Y-33697032D01*
X35076148Y-33375072D01*
X35076452Y-33026458D01*
X34943324Y-32704264D01*
X34697032Y-32457542D01*
X34558512Y-32400023D01*
X34695736Y-32343324D01*
X34942458Y-32097032D01*
X35076148Y-31775072D01*
X35076452Y-31426458D01*
X34943324Y-31104264D01*
X34697032Y-30857542D01*
X34679223Y-30850147D01*
X34695736Y-30843324D01*
X34942458Y-30597032D01*
X35076148Y-30275072D01*
X35076452Y-29926458D01*
X34943324Y-29604264D01*
X34697032Y-29357542D01*
X34576452Y-29307472D01*
X34576452Y-25826458D01*
X34443324Y-25504264D01*
X34197032Y-25257542D01*
X34125107Y-25227676D01*
X34125107Y-21847180D01*
X34125107Y-19307180D01*
X33943745Y-18868250D01*
X33608216Y-18532136D01*
X33169603Y-18350008D01*
X32694680Y-18349593D01*
X32255750Y-18530955D01*
X31919636Y-18866484D01*
X31737508Y-19305097D01*
X31737093Y-19780020D01*
X31918455Y-20218950D01*
X32253984Y-20555064D01*
X32692597Y-20737192D01*
X33167520Y-20737607D01*
X33606450Y-20556245D01*
X33942564Y-20220716D01*
X34124692Y-19782103D01*
X34125107Y-19307180D01*
X34125107Y-21847180D01*
X33943745Y-21408250D01*
X33608216Y-21072136D01*
X33169603Y-20890008D01*
X32694680Y-20889593D01*
X32255750Y-21070955D01*
X31919636Y-21406484D01*
X31737508Y-21845097D01*
X31737093Y-22320020D01*
X31918455Y-22758950D01*
X32253984Y-23095064D01*
X32692597Y-23277192D01*
X33167520Y-23277607D01*
X33606450Y-23096245D01*
X33942564Y-22760716D01*
X34124692Y-22322103D01*
X34125107Y-21847180D01*
X34125107Y-25227676D01*
X33875072Y-25123852D01*
X33526458Y-25123548D01*
X33204264Y-25256676D01*
X32957542Y-25502968D01*
X32823852Y-25824928D01*
X32823548Y-26173542D01*
X32956676Y-26495736D01*
X33202968Y-26742458D01*
X33524928Y-26876148D01*
X33873542Y-26876452D01*
X34195736Y-26743324D01*
X34442458Y-26497032D01*
X34576148Y-26175072D01*
X34576452Y-25826458D01*
X34576452Y-29307472D01*
X34375072Y-29223852D01*
X34026458Y-29223548D01*
X33704264Y-29356676D01*
X33457542Y-29602968D01*
X33324389Y-29923633D01*
X33226458Y-29923548D01*
X32904264Y-30056676D01*
X32657542Y-30302968D01*
X32523852Y-30624928D01*
X32523548Y-30973542D01*
X32656676Y-31295736D01*
X32902968Y-31542458D01*
X33041487Y-31599976D01*
X32904264Y-31656676D01*
X32657542Y-31902968D01*
X32523852Y-32224928D01*
X32523548Y-32573542D01*
X32656676Y-32895736D01*
X32902968Y-33142458D01*
X33041487Y-33199976D01*
X32904264Y-33256676D01*
X32657542Y-33502968D01*
X32523852Y-33824928D01*
X32523548Y-34173542D01*
X32656676Y-34495736D01*
X32902968Y-34742458D01*
X33224928Y-34876148D01*
X33323632Y-34876234D01*
X33323548Y-34973542D01*
X33456676Y-35295736D01*
X33702968Y-35542458D01*
X34024928Y-35676148D01*
X34373542Y-35676452D01*
X34695736Y-35543324D01*
X34800053Y-35439188D01*
X35002968Y-35642458D01*
X35324928Y-35776148D01*
X35673542Y-35776452D01*
X35995736Y-35643324D01*
X36049878Y-35589275D01*
X36102968Y-35642458D01*
X36424928Y-35776148D01*
X36773542Y-35776452D01*
X37095736Y-35643324D01*
X37149878Y-35589275D01*
X37202968Y-35642458D01*
X37524928Y-35776148D01*
X37873542Y-35776452D01*
X38195736Y-35643324D01*
X38249878Y-35589275D01*
X38302968Y-35642458D01*
X38624928Y-35776148D01*
X38973542Y-35776452D01*
X39295736Y-35643324D01*
X39349878Y-35589275D01*
X39402968Y-35642458D01*
X39724928Y-35776148D01*
X40073542Y-35776452D01*
X40395736Y-35643324D01*
X40449878Y-35589275D01*
X40502968Y-35642458D01*
X40824928Y-35776148D01*
X41173542Y-35776452D01*
X41495736Y-35643324D01*
X41549878Y-35589275D01*
X41602968Y-35642458D01*
X41924928Y-35776148D01*
X42273542Y-35776452D01*
X42595736Y-35643324D01*
X42649878Y-35589275D01*
X42702968Y-35642458D01*
X43024928Y-35776148D01*
X43373542Y-35776452D01*
X43695736Y-35643324D01*
X43749878Y-35589275D01*
X43802968Y-35642458D01*
X44124928Y-35776148D01*
X44473542Y-35776452D01*
X44795736Y-35643324D01*
X44849878Y-35589275D01*
X44902968Y-35642458D01*
X45224928Y-35776148D01*
X45573542Y-35776452D01*
X45895736Y-35643324D01*
X45949878Y-35589275D01*
X46002968Y-35642458D01*
X46324928Y-35776148D01*
X46673542Y-35776452D01*
X46995736Y-35643324D01*
X47242458Y-35397032D01*
X47376148Y-35075072D01*
X47376452Y-34726458D01*
X47376452Y-35869986D01*
X47338735Y-35854325D01*
X46990121Y-35854021D01*
X46667927Y-35987149D01*
X46421205Y-36233441D01*
X46397233Y-36291169D01*
X46392462Y-36289188D01*
X46043848Y-36288884D01*
X45721654Y-36422012D01*
X45474932Y-36668304D01*
X45341242Y-36990264D01*
X45340938Y-37338878D01*
X45409748Y-37505411D01*
X45233510Y-37681342D01*
X45099820Y-38003302D01*
X45099768Y-38062904D01*
X45091473Y-38062897D01*
X44829915Y-38170970D01*
X44709149Y-38049993D01*
X44387189Y-37916303D01*
X44038575Y-37915999D01*
X43863224Y-37988452D01*
X43693750Y-37818682D01*
X43371790Y-37684992D01*
X43023176Y-37684688D01*
X42700982Y-37817816D01*
X42454260Y-38064108D01*
X42320570Y-38386068D01*
X42320266Y-38734682D01*
X42453394Y-39056876D01*
X42699686Y-39303598D01*
X43021646Y-39437288D01*
X43370260Y-39437592D01*
X43545610Y-39365138D01*
X43715085Y-39534909D01*
X44037045Y-39668599D01*
X44385659Y-39668903D01*
X44647216Y-39560829D01*
X44767983Y-39681807D01*
X45089943Y-39815497D01*
X45438557Y-39815801D01*
X45760751Y-39682673D01*
X46007473Y-39436381D01*
X46141163Y-39114421D01*
X46141214Y-39054818D01*
X46149510Y-39054826D01*
X46471704Y-38921698D01*
X46718426Y-38675406D01*
X46819752Y-38431385D01*
X46864043Y-38654049D01*
X47177887Y-39123749D01*
X47455416Y-39309188D01*
X47396733Y-39284821D01*
X47048119Y-39284517D01*
X46725925Y-39417645D01*
X46479203Y-39663937D01*
X46345513Y-39985897D01*
X46345209Y-40334511D01*
X46455512Y-40601465D01*
X46276754Y-40527238D01*
X45928140Y-40526934D01*
X45605946Y-40660062D01*
X45359224Y-40906354D01*
X45355217Y-40916003D01*
X45197032Y-40757542D01*
X44875072Y-40623852D01*
X44526458Y-40623548D01*
X44204264Y-40756676D01*
X43957542Y-41002968D01*
X43823852Y-41324928D01*
X43823548Y-41673542D01*
X43956676Y-41995736D01*
X44202968Y-42242458D01*
X44524928Y-42376148D01*
X44873542Y-42376452D01*
X45195736Y-42243324D01*
X45442458Y-41997032D01*
X45446464Y-41987382D01*
X45604650Y-42145844D01*
X45926610Y-42279534D01*
X46015018Y-42279611D01*
X46141461Y-42585626D01*
X46387753Y-42832348D01*
X46709713Y-42966038D01*
X47058327Y-42966342D01*
X47380521Y-42833214D01*
X47627243Y-42586922D01*
X47760933Y-42264962D01*
X47761159Y-42005409D01*
X48033614Y-42118543D01*
X48382228Y-42118847D01*
X48704422Y-41985719D01*
X48951144Y-41739427D01*
X49084834Y-41417467D01*
X49085138Y-41068853D01*
X48952010Y-40746659D01*
X48705718Y-40499937D01*
X48383758Y-40366247D01*
X48085374Y-40365986D01*
X48097809Y-40336041D01*
X48098113Y-39987427D01*
X47964985Y-39665233D01*
X47760078Y-39459968D01*
X48201636Y-39547800D01*
X48258364Y-39547800D01*
X48812413Y-39437593D01*
X49282113Y-39123749D01*
X49313741Y-39076414D01*
X49313741Y-39116000D01*
X49345685Y-39280644D01*
X49440742Y-39425351D01*
X49584245Y-39522216D01*
X49754000Y-39556259D01*
X51786000Y-39556259D01*
X51950644Y-39524315D01*
X52095351Y-39429258D01*
X52192216Y-39285755D01*
X52226259Y-39116000D01*
X52226259Y-46036854D01*
X52177032Y-45987542D01*
X51855072Y-45853852D01*
X51506458Y-45853548D01*
X51184264Y-45986676D01*
X50937542Y-46232968D01*
X50803852Y-46554928D01*
X50803548Y-46903542D01*
X50936676Y-47225736D01*
X51182968Y-47472458D01*
X51504928Y-47606148D01*
X51853542Y-47606452D01*
X52175736Y-47473324D01*
X52422458Y-47227032D01*
X52556148Y-46905072D01*
X52556452Y-46556458D01*
X52556452Y-57590702D01*
X52518943Y-57553128D01*
X52206452Y-57423369D01*
X52206452Y-52296458D01*
X52073324Y-51974264D01*
X51827032Y-51727542D01*
X51505072Y-51593852D01*
X51156458Y-51593548D01*
X50834264Y-51726676D01*
X50587542Y-51972968D01*
X50531593Y-52107707D01*
X50531593Y-47980862D01*
X50398465Y-47658668D01*
X50186452Y-47446284D01*
X50186452Y-45946458D01*
X50053324Y-45624264D01*
X49807032Y-45377542D01*
X49485072Y-45243852D01*
X49136458Y-45243548D01*
X48814264Y-45376676D01*
X48567542Y-45622968D01*
X48433852Y-45944928D01*
X48433548Y-46293542D01*
X48566676Y-46615736D01*
X48812968Y-46862458D01*
X49134928Y-46996148D01*
X49483542Y-46996452D01*
X49805736Y-46863324D01*
X50052458Y-46617032D01*
X50186148Y-46295072D01*
X50186452Y-45946458D01*
X50186452Y-47446284D01*
X50152173Y-47411946D01*
X49830213Y-47278256D01*
X49481599Y-47277952D01*
X49159405Y-47411080D01*
X48912683Y-47657372D01*
X48778993Y-47979332D01*
X48778689Y-48327946D01*
X48911817Y-48650140D01*
X49158109Y-48896862D01*
X49480069Y-49030552D01*
X49828683Y-49030856D01*
X50150877Y-48897728D01*
X50397599Y-48651436D01*
X50531289Y-48329476D01*
X50531593Y-47980862D01*
X50531593Y-52107707D01*
X50512022Y-52154839D01*
X50512022Y-51052702D01*
X50378894Y-50730508D01*
X50132602Y-50483786D01*
X49810642Y-50350096D01*
X49462028Y-50349792D01*
X49139834Y-50482920D01*
X48893112Y-50729212D01*
X48759422Y-51051172D01*
X48759118Y-51399786D01*
X48892246Y-51721980D01*
X49138538Y-51968702D01*
X49460498Y-52102392D01*
X49809112Y-52102696D01*
X50131306Y-51969568D01*
X50378028Y-51723276D01*
X50511718Y-51401316D01*
X50512022Y-51052702D01*
X50512022Y-52154839D01*
X50453852Y-52294928D01*
X50453548Y-52643542D01*
X50586676Y-52965736D01*
X50832968Y-53212458D01*
X51154928Y-53346148D01*
X51503542Y-53346452D01*
X51825736Y-53213324D01*
X52072458Y-52967032D01*
X52206148Y-52645072D01*
X52206452Y-52296458D01*
X52206452Y-57423369D01*
X52196983Y-57419438D01*
X51848369Y-57419134D01*
X51776377Y-57448880D01*
X51768805Y-57430554D01*
X51522513Y-57183832D01*
X51200553Y-57050142D01*
X50851939Y-57049838D01*
X50529745Y-57182966D01*
X50283023Y-57429258D01*
X50149333Y-57751218D01*
X50149029Y-58099832D01*
X50282157Y-58422026D01*
X50528449Y-58668748D01*
X50850409Y-58802438D01*
X51199023Y-58802742D01*
X51271014Y-58772995D01*
X51278587Y-58791322D01*
X51524879Y-59038044D01*
X51846839Y-59171734D01*
X52195453Y-59172038D01*
X52517647Y-59038910D01*
X52764369Y-58792618D01*
X52898059Y-58470658D01*
X52898363Y-58122044D01*
X52898363Y-60759224D01*
X52697032Y-60557542D01*
X52375072Y-60423852D01*
X52026458Y-60423548D01*
X51704264Y-60556676D01*
X51457542Y-60802968D01*
X51406673Y-60925471D01*
X51352899Y-60795327D01*
X51106607Y-60548605D01*
X50784647Y-60414915D01*
X50436033Y-60414611D01*
X50113839Y-60547739D01*
X49867117Y-60794031D01*
X49733427Y-61115991D01*
X49733376Y-61173641D01*
X49626458Y-61173548D01*
X49304264Y-61306676D01*
X49203332Y-61407432D01*
X49203332Y-57426458D01*
X49070204Y-57104264D01*
X48823912Y-56857542D01*
X48501952Y-56723852D01*
X48153338Y-56723548D01*
X47831144Y-56856676D01*
X47584422Y-57102968D01*
X47461611Y-57398728D01*
X47434633Y-57398704D01*
X47434633Y-51070790D01*
X47434633Y-47980862D01*
X47301505Y-47658668D01*
X47055213Y-47411946D01*
X46986452Y-47383393D01*
X46986452Y-45946458D01*
X46853324Y-45624264D01*
X46607032Y-45377542D01*
X46285072Y-45243852D01*
X45936458Y-45243548D01*
X45614264Y-45376676D01*
X45367542Y-45622968D01*
X45233852Y-45944928D01*
X45233548Y-46293542D01*
X45366676Y-46615736D01*
X45612968Y-46862458D01*
X45934928Y-46996148D01*
X46283542Y-46996452D01*
X46605736Y-46863324D01*
X46852458Y-46617032D01*
X46986148Y-46295072D01*
X46986452Y-45946458D01*
X46986452Y-47383393D01*
X46733253Y-47278256D01*
X46384639Y-47277952D01*
X46062445Y-47411080D01*
X45815723Y-47657372D01*
X45682033Y-47979332D01*
X45681729Y-48327946D01*
X45814857Y-48650140D01*
X46061149Y-48896862D01*
X46383109Y-49030552D01*
X46731723Y-49030856D01*
X47053917Y-48897728D01*
X47300639Y-48651436D01*
X47434329Y-48329476D01*
X47434633Y-47980862D01*
X47434633Y-51070790D01*
X47301505Y-50748596D01*
X47055213Y-50501874D01*
X46733253Y-50368184D01*
X46384639Y-50367880D01*
X46062445Y-50501008D01*
X45815723Y-50747300D01*
X45682033Y-51069260D01*
X45681729Y-51417874D01*
X45814857Y-51740068D01*
X46061149Y-51986790D01*
X46383109Y-52120480D01*
X46731723Y-52120784D01*
X47053917Y-51987656D01*
X47300639Y-51741364D01*
X47434329Y-51419404D01*
X47434633Y-51070790D01*
X47434633Y-57398704D01*
X47390591Y-57398666D01*
X47330886Y-57254167D01*
X47084594Y-57007445D01*
X46936452Y-56945930D01*
X46936452Y-53096460D01*
X46803324Y-52774266D01*
X46557032Y-52527544D01*
X46235072Y-52393854D01*
X45886458Y-52393550D01*
X45564264Y-52526678D01*
X45436452Y-52654267D01*
X45436452Y-52116458D01*
X45406452Y-52043852D01*
X45406452Y-46736458D01*
X45273324Y-46414264D01*
X45027032Y-46167542D01*
X44705072Y-46033852D01*
X44356458Y-46033548D01*
X44076452Y-46149244D01*
X44076452Y-44426458D01*
X43943324Y-44104264D01*
X43697032Y-43857542D01*
X43375072Y-43723852D01*
X43026458Y-43723548D01*
X42704264Y-43856676D01*
X42457542Y-44102968D01*
X42323852Y-44424928D01*
X42323548Y-44773542D01*
X42456676Y-45095736D01*
X42702968Y-45342458D01*
X43024928Y-45476148D01*
X43373542Y-45476452D01*
X43695736Y-45343324D01*
X43942458Y-45097032D01*
X44076148Y-44775072D01*
X44076452Y-44426458D01*
X44076452Y-46149244D01*
X44034264Y-46166676D01*
X43787542Y-46412968D01*
X43653852Y-46734928D01*
X43653548Y-47083542D01*
X43786676Y-47405736D01*
X44032968Y-47652458D01*
X44354928Y-47786148D01*
X44703542Y-47786452D01*
X45025736Y-47653324D01*
X45272458Y-47407032D01*
X45406148Y-47085072D01*
X45406452Y-46736458D01*
X45406452Y-52043852D01*
X45303324Y-51794264D01*
X45057032Y-51547542D01*
X44735072Y-51413852D01*
X44386458Y-51413548D01*
X44064264Y-51546676D01*
X43817542Y-51792968D01*
X43683852Y-52114928D01*
X43683548Y-52463542D01*
X43816676Y-52785736D01*
X44062968Y-53032458D01*
X44384928Y-53166148D01*
X44733542Y-53166452D01*
X45055736Y-53033324D01*
X45302458Y-52787032D01*
X45436148Y-52465072D01*
X45436452Y-52116458D01*
X45436452Y-52654267D01*
X45317542Y-52772970D01*
X45183852Y-53094930D01*
X45183548Y-53443544D01*
X45316676Y-53765738D01*
X45562968Y-54012460D01*
X45884928Y-54146150D01*
X46233542Y-54146454D01*
X46555736Y-54013326D01*
X46802458Y-53767034D01*
X46936148Y-53445074D01*
X46936452Y-53096460D01*
X46936452Y-56945930D01*
X46762634Y-56873755D01*
X46414020Y-56873451D01*
X46091826Y-57006579D01*
X45871949Y-57226072D01*
X45768192Y-57182988D01*
X45419578Y-57182684D01*
X45097384Y-57315812D01*
X44850662Y-57562104D01*
X44794082Y-57698362D01*
X44704288Y-57608411D01*
X44382328Y-57474721D01*
X44059211Y-57474439D01*
X44146148Y-57265074D01*
X44146452Y-56916460D01*
X44040922Y-56661059D01*
X44272326Y-56430059D01*
X44406016Y-56108099D01*
X44406320Y-55759485D01*
X44273192Y-55437291D01*
X44026900Y-55190569D01*
X43704940Y-55056879D01*
X43356326Y-55056575D01*
X43034132Y-55189703D01*
X42787410Y-55435995D01*
X42653720Y-55757955D01*
X42653416Y-56106569D01*
X42758945Y-56361969D01*
X42527542Y-56592970D01*
X42393852Y-56914930D01*
X42393548Y-57263544D01*
X42494413Y-57507656D01*
X42352317Y-57507533D01*
X42030123Y-57640661D01*
X41898185Y-57772368D01*
X41868584Y-57700729D01*
X41622292Y-57454007D01*
X41522301Y-57412486D01*
X41643736Y-57362311D01*
X41890458Y-57116019D01*
X42024148Y-56794059D01*
X42024452Y-56445445D01*
X41891324Y-56123251D01*
X41704686Y-55936287D01*
X41893542Y-55936452D01*
X42215736Y-55803324D01*
X42462458Y-55557032D01*
X42596148Y-55235072D01*
X42596452Y-54886458D01*
X42463324Y-54564264D01*
X42226452Y-54326978D01*
X42226452Y-39451458D01*
X42093324Y-39129264D01*
X41847032Y-38882542D01*
X41525072Y-38748852D01*
X41176458Y-38748548D01*
X40854264Y-38881676D01*
X40607542Y-39127968D01*
X40473852Y-39449928D01*
X40473578Y-39763065D01*
X40437850Y-39748229D01*
X40089236Y-39747925D01*
X39767042Y-39881053D01*
X39548490Y-40099223D01*
X39435765Y-40052416D01*
X39087151Y-40052112D01*
X38877730Y-40138642D01*
X38647051Y-39907561D01*
X38325091Y-39773871D01*
X37976477Y-39773567D01*
X37654283Y-39906695D01*
X37407561Y-40152987D01*
X37273871Y-40474947D01*
X37273775Y-40584332D01*
X37247013Y-40557523D01*
X37041921Y-40472361D01*
X37042212Y-40138721D01*
X36956851Y-39932132D01*
X37050776Y-39893324D01*
X37297498Y-39647032D01*
X37431188Y-39325072D01*
X37431492Y-38976458D01*
X37298364Y-38654264D01*
X37268870Y-38624719D01*
X37297498Y-38596142D01*
X37431188Y-38274182D01*
X37431492Y-37925568D01*
X37298364Y-37603374D01*
X37052072Y-37356652D01*
X36730112Y-37222962D01*
X36381498Y-37222658D01*
X36059304Y-37355786D01*
X35812582Y-37602078D01*
X35678892Y-37924038D01*
X35678588Y-38272652D01*
X35697561Y-38318571D01*
X35650072Y-38298852D01*
X35301458Y-38298548D01*
X34979264Y-38431676D01*
X34732542Y-38677968D01*
X34598852Y-38999928D01*
X34598548Y-39348542D01*
X34624366Y-39411027D01*
X34554049Y-39364043D01*
X34000000Y-39253836D01*
X33445951Y-39364043D01*
X32976251Y-39677887D01*
X32662407Y-40147587D01*
X32552200Y-40701636D01*
X32552200Y-40758364D01*
X32662407Y-41312413D01*
X32976251Y-41782113D01*
X33023585Y-41813741D01*
X32984000Y-41813741D01*
X32819356Y-41845685D01*
X32674649Y-41940742D01*
X32577784Y-42084245D01*
X32543741Y-42254000D01*
X32543741Y-44286000D01*
X32575685Y-44450644D01*
X32670742Y-44595351D01*
X32814245Y-44692216D01*
X32984000Y-44726259D01*
X35016000Y-44726259D01*
X35180644Y-44694315D01*
X35325351Y-44599258D01*
X35422216Y-44455755D01*
X35456259Y-44286000D01*
X35456259Y-42254000D01*
X35424315Y-42089356D01*
X35329258Y-41944649D01*
X35185755Y-41847784D01*
X35016000Y-41813741D01*
X34976414Y-41813741D01*
X35023749Y-41782113D01*
X35337593Y-41312413D01*
X35435353Y-40820938D01*
X35668728Y-41054721D01*
X35873819Y-41139882D01*
X35873529Y-41473523D01*
X36006657Y-41795717D01*
X36252949Y-42042439D01*
X36574909Y-42176129D01*
X36923523Y-42176433D01*
X37245717Y-42043305D01*
X37492439Y-41797013D01*
X37626129Y-41475053D01*
X37626224Y-41365667D01*
X37652987Y-41392477D01*
X37974947Y-41526167D01*
X38323561Y-41526471D01*
X38532981Y-41439940D01*
X38763661Y-41671022D01*
X39085621Y-41804712D01*
X39434235Y-41805016D01*
X39756429Y-41671888D01*
X39974980Y-41453717D01*
X40087706Y-41500525D01*
X40436320Y-41500829D01*
X40758514Y-41367701D01*
X41005236Y-41121409D01*
X41138926Y-40799449D01*
X41139199Y-40486311D01*
X41174928Y-40501148D01*
X41523542Y-40501452D01*
X41845736Y-40368324D01*
X42092458Y-40122032D01*
X42226148Y-39800072D01*
X42226452Y-39451458D01*
X42226452Y-54326978D01*
X42217032Y-54317542D01*
X41895072Y-54183852D01*
X41546458Y-54183548D01*
X41224264Y-54316676D01*
X40977542Y-54562968D01*
X40843852Y-54884928D01*
X40843548Y-55233542D01*
X40976676Y-55555736D01*
X41163313Y-55742699D01*
X40974458Y-55742535D01*
X40652264Y-55875663D01*
X40405542Y-56121955D01*
X40271852Y-56443915D01*
X40271548Y-56792529D01*
X40404676Y-57114723D01*
X40650968Y-57361445D01*
X40750958Y-57402965D01*
X40629524Y-57453141D01*
X40382802Y-57699433D01*
X40249112Y-58021393D01*
X40248808Y-58370007D01*
X40381936Y-58692201D01*
X40628228Y-58938923D01*
X40950188Y-59072613D01*
X41298802Y-59072917D01*
X41620996Y-58939789D01*
X41752933Y-58808081D01*
X41782535Y-58879721D01*
X42028827Y-59126443D01*
X42350787Y-59260133D01*
X42699401Y-59260437D01*
X43021595Y-59127309D01*
X43268317Y-58881017D01*
X43373492Y-58627726D01*
X43463932Y-58846605D01*
X43710224Y-59093327D01*
X44032184Y-59227017D01*
X44380798Y-59227321D01*
X44702992Y-59094193D01*
X44949714Y-58847901D01*
X45006293Y-58711642D01*
X45096088Y-58801594D01*
X45418048Y-58935284D01*
X45766662Y-58935588D01*
X46088856Y-58802460D01*
X46308732Y-58582966D01*
X46412490Y-58626051D01*
X46683841Y-58626287D01*
X46743547Y-58770787D01*
X46989839Y-59017509D01*
X47311799Y-59151199D01*
X47660413Y-59151503D01*
X47982607Y-59018375D01*
X48229329Y-58772083D01*
X48352139Y-58476322D01*
X48500422Y-58476452D01*
X48822616Y-58343324D01*
X49069338Y-58097032D01*
X49203028Y-57775072D01*
X49203332Y-57426458D01*
X49203332Y-61407432D01*
X49057542Y-61552968D01*
X48923852Y-61874928D01*
X48923548Y-62223542D01*
X49019013Y-62454585D01*
X48840305Y-62275565D01*
X48518345Y-62141875D01*
X48169731Y-62141571D01*
X47847537Y-62274699D01*
X47600815Y-62520991D01*
X47467125Y-62842951D01*
X47466821Y-63191565D01*
X47599949Y-63513759D01*
X47846241Y-63760481D01*
X48168201Y-63894171D01*
X48516815Y-63894475D01*
X48839009Y-63761347D01*
X49085731Y-63515055D01*
X49219421Y-63193095D01*
X49219725Y-62844481D01*
X49124259Y-62613437D01*
X49302968Y-62792458D01*
X49624928Y-62926148D01*
X49973542Y-62926452D01*
X50295736Y-62793324D01*
X50542458Y-62547032D01*
X50601326Y-62405260D01*
X50656676Y-62539216D01*
X50902968Y-62785938D01*
X51224928Y-62919628D01*
X51573542Y-62919932D01*
X51895736Y-62786804D01*
X52142458Y-62540512D01*
X52276148Y-62218552D01*
X52276184Y-62176367D01*
X52373542Y-62176452D01*
X52695736Y-62043324D01*
X52942458Y-61797032D01*
X53076148Y-61475072D01*
X53076452Y-61126458D01*
X53076452Y-72803200D01*
X48436452Y-72803200D01*
X48436452Y-64606458D01*
X48303324Y-64284264D01*
X48057032Y-64037542D01*
X47735072Y-63903852D01*
X47386458Y-63903548D01*
X47384365Y-63904412D01*
X47384645Y-63584101D01*
X47251517Y-63261907D01*
X47041618Y-63051641D01*
X47268514Y-62825141D01*
X47402204Y-62503181D01*
X47402280Y-62415435D01*
X47490729Y-62415513D01*
X47812923Y-62282385D01*
X48059645Y-62036093D01*
X48193335Y-61714133D01*
X48193639Y-61365519D01*
X48060511Y-61043325D01*
X47814219Y-60796603D01*
X47492259Y-60662913D01*
X47143645Y-60662609D01*
X46821451Y-60795737D01*
X46574729Y-61042029D01*
X46441039Y-61363989D01*
X46440962Y-61451734D01*
X46352514Y-61451657D01*
X46030320Y-61584785D01*
X45783598Y-61831077D01*
X45649908Y-62153037D01*
X45649604Y-62501651D01*
X45782732Y-62823845D01*
X45992630Y-63034110D01*
X45765735Y-63260611D01*
X45632045Y-63582571D01*
X45631741Y-63931185D01*
X45764869Y-64253379D01*
X46011161Y-64500101D01*
X46333121Y-64633791D01*
X46681735Y-64634095D01*
X46683827Y-64633230D01*
X46683548Y-64953542D01*
X46816676Y-65275736D01*
X47062968Y-65522458D01*
X47384928Y-65656148D01*
X47733542Y-65656452D01*
X48055736Y-65523324D01*
X48302458Y-65277032D01*
X48436148Y-64955072D01*
X48436452Y-64606458D01*
X48436452Y-72803200D01*
X45958445Y-72803200D01*
X45958445Y-69842212D01*
X45825317Y-69520018D01*
X45579025Y-69273296D01*
X45401452Y-69199560D01*
X45401452Y-62176458D01*
X45268324Y-61854264D01*
X45022032Y-61607542D01*
X44700072Y-61473852D01*
X44351458Y-61473548D01*
X44029264Y-61606676D01*
X43782542Y-61852968D01*
X43648852Y-62174928D01*
X43648548Y-62523542D01*
X43781676Y-62845736D01*
X44027968Y-63092458D01*
X44349928Y-63226148D01*
X44698542Y-63226452D01*
X45020736Y-63093324D01*
X45267458Y-62847032D01*
X45401148Y-62525072D01*
X45401452Y-62176458D01*
X45401452Y-69199560D01*
X45257065Y-69139606D01*
X44908451Y-69139302D01*
X44586257Y-69272430D01*
X44339535Y-69518722D01*
X44205845Y-69840682D01*
X44205541Y-70189296D01*
X44338669Y-70511490D01*
X44584961Y-70758212D01*
X44906921Y-70891902D01*
X45255535Y-70892206D01*
X45577729Y-70759078D01*
X45824451Y-70512786D01*
X45958141Y-70190826D01*
X45958445Y-69842212D01*
X45958445Y-72803200D01*
X42767248Y-72803200D01*
X42767248Y-65293718D01*
X42634120Y-64971524D01*
X42387828Y-64724802D01*
X42065868Y-64591112D01*
X41717254Y-64590808D01*
X41395060Y-64723936D01*
X41370264Y-64748688D01*
X41346428Y-64724810D01*
X41024468Y-64591120D01*
X40798350Y-64590922D01*
X40720503Y-64402518D01*
X40474211Y-64155796D01*
X40152251Y-64022106D01*
X39803637Y-64021802D01*
X39481443Y-64154930D01*
X39234721Y-64401222D01*
X39101031Y-64723182D01*
X39100727Y-65071796D01*
X39233855Y-65393990D01*
X39480147Y-65640712D01*
X39802107Y-65774402D01*
X40028224Y-65774599D01*
X40106072Y-65963004D01*
X40352364Y-66209726D01*
X40674324Y-66343416D01*
X41022938Y-66343720D01*
X41345132Y-66210592D01*
X41369927Y-66185839D01*
X41393764Y-66209718D01*
X41715724Y-66343408D01*
X42064338Y-66343712D01*
X42386532Y-66210584D01*
X42633254Y-65964292D01*
X42766944Y-65642332D01*
X42767248Y-65293718D01*
X42767248Y-72803200D01*
X40820126Y-72803200D01*
X40820126Y-70066932D01*
X40686998Y-69744738D01*
X40540957Y-69598442D01*
X40592458Y-69547032D01*
X40726148Y-69225072D01*
X40726452Y-68876458D01*
X40593324Y-68554264D01*
X40347032Y-68307542D01*
X40025072Y-68173852D01*
X39676458Y-68173548D01*
X39354264Y-68306676D01*
X39107542Y-68552968D01*
X39043900Y-68706234D01*
X39043900Y-42782925D01*
X38910772Y-42460731D01*
X38664480Y-42214009D01*
X38342520Y-42080319D01*
X37993906Y-42080015D01*
X37671712Y-42213143D01*
X37424990Y-42459435D01*
X37291300Y-42781395D01*
X37290996Y-43130009D01*
X37424124Y-43452203D01*
X37670416Y-43698925D01*
X37992376Y-43832615D01*
X38340990Y-43832919D01*
X38663184Y-43699791D01*
X38909906Y-43453499D01*
X39043596Y-43131539D01*
X39043900Y-42782925D01*
X39043900Y-68706234D01*
X38973852Y-68874928D01*
X38973548Y-69223542D01*
X39106676Y-69545736D01*
X39252716Y-69692031D01*
X39201216Y-69743442D01*
X39067526Y-70065402D01*
X39067222Y-70414016D01*
X39200350Y-70736210D01*
X39446642Y-70982932D01*
X39768602Y-71116622D01*
X40117216Y-71116926D01*
X40439410Y-70983798D01*
X40686132Y-70737506D01*
X40819822Y-70415546D01*
X40820126Y-70066932D01*
X40820126Y-72803200D01*
X38776452Y-72803200D01*
X38776452Y-68476458D01*
X38643324Y-68154264D01*
X38416694Y-67927238D01*
X38416694Y-46448419D01*
X38283566Y-46126225D01*
X38037274Y-45879503D01*
X37715314Y-45745813D01*
X37366700Y-45745509D01*
X37044506Y-45878637D01*
X36797784Y-46124929D01*
X36664094Y-46446889D01*
X36663790Y-46795503D01*
X36725123Y-46943940D01*
X36535867Y-47132867D01*
X36402177Y-47454827D01*
X36401873Y-47803441D01*
X36535001Y-48125635D01*
X36781293Y-48372357D01*
X37103253Y-48506047D01*
X37451867Y-48506351D01*
X37774061Y-48373223D01*
X38020783Y-48126931D01*
X38154473Y-47804971D01*
X38154777Y-47456357D01*
X38093443Y-47307919D01*
X38282700Y-47118993D01*
X38416390Y-46797033D01*
X38416694Y-46448419D01*
X38416694Y-67927238D01*
X38397032Y-67907542D01*
X38393886Y-67906235D01*
X38393886Y-52566206D01*
X38260758Y-52244012D01*
X38014466Y-51997290D01*
X37692506Y-51863600D01*
X37343892Y-51863296D01*
X37021698Y-51996424D01*
X36774976Y-52242716D01*
X36641286Y-52564676D01*
X36641152Y-52718286D01*
X36602076Y-52623715D01*
X36579621Y-52601221D01*
X36608862Y-52572032D01*
X36742552Y-52250072D01*
X36742856Y-51901458D01*
X36609728Y-51579264D01*
X36363436Y-51332542D01*
X36041476Y-51198852D01*
X35692862Y-51198548D01*
X35370668Y-51331676D01*
X35123946Y-51577968D01*
X34990256Y-51899928D01*
X34989952Y-52248542D01*
X35123080Y-52570736D01*
X35145534Y-52593229D01*
X35116294Y-52622419D01*
X34982604Y-52944379D01*
X34982300Y-53292993D01*
X35115428Y-53615187D01*
X35361720Y-53861909D01*
X35683680Y-53995599D01*
X35745514Y-53995652D01*
X35637763Y-54040175D01*
X35391041Y-54286467D01*
X35257351Y-54608427D01*
X35257047Y-54957041D01*
X35390175Y-55279235D01*
X35636467Y-55525957D01*
X35958427Y-55659647D01*
X36307041Y-55659951D01*
X36629235Y-55526823D01*
X36875957Y-55280531D01*
X37009647Y-54958571D01*
X37009851Y-54723622D01*
X37243168Y-54723826D01*
X37565362Y-54590698D01*
X37812084Y-54344406D01*
X37945774Y-54022446D01*
X37946078Y-53673832D01*
X37888535Y-53534569D01*
X38013170Y-53483072D01*
X38259892Y-53236780D01*
X38393582Y-52914820D01*
X38393886Y-52566206D01*
X38393886Y-67906235D01*
X38075072Y-67773852D01*
X38026452Y-67773809D01*
X38026452Y-61826458D01*
X37893324Y-61504264D01*
X37666452Y-61276995D01*
X37666452Y-57786458D01*
X37533324Y-57464264D01*
X37287032Y-57217542D01*
X36965072Y-57083852D01*
X36873055Y-57083771D01*
X36876668Y-57075072D01*
X36876972Y-56726458D01*
X36743844Y-56404264D01*
X36497552Y-56157542D01*
X36175592Y-56023852D01*
X35826978Y-56023548D01*
X35504784Y-56156676D01*
X35258062Y-56402968D01*
X35124372Y-56724928D01*
X35124068Y-57073542D01*
X35257196Y-57395736D01*
X35503488Y-57642458D01*
X35825448Y-57776148D01*
X35917464Y-57776228D01*
X35913852Y-57784928D01*
X35913548Y-58133542D01*
X36046676Y-58455736D01*
X36292968Y-58702458D01*
X36614928Y-58836148D01*
X36963542Y-58836452D01*
X37285736Y-58703324D01*
X37532458Y-58457032D01*
X37666148Y-58135072D01*
X37666452Y-57786458D01*
X37666452Y-61276995D01*
X37647032Y-61257542D01*
X37325072Y-61123852D01*
X36976458Y-61123548D01*
X36654264Y-61256676D01*
X36407542Y-61502968D01*
X36372770Y-61586705D01*
X36125072Y-61483852D01*
X35993242Y-61483737D01*
X35993242Y-59426458D01*
X35860114Y-59104264D01*
X35613822Y-58857542D01*
X35291862Y-58723852D01*
X34943248Y-58723548D01*
X34621054Y-58856676D01*
X34374332Y-59102968D01*
X34240642Y-59424928D01*
X34240338Y-59773542D01*
X34373466Y-60095736D01*
X34619758Y-60342458D01*
X34941718Y-60476148D01*
X35290332Y-60476452D01*
X35612526Y-60343324D01*
X35859248Y-60097032D01*
X35992938Y-59775072D01*
X35993242Y-59426458D01*
X35993242Y-61483737D01*
X35776458Y-61483548D01*
X35454264Y-61616676D01*
X35207542Y-61862968D01*
X35073852Y-62184928D01*
X35073548Y-62533542D01*
X35206676Y-62855736D01*
X35306424Y-62955658D01*
X35173852Y-63274928D01*
X35173548Y-63623542D01*
X35306676Y-63945736D01*
X35552968Y-64192458D01*
X35874928Y-64326148D01*
X36223542Y-64326452D01*
X36545736Y-64193324D01*
X36792458Y-63947032D01*
X36926148Y-63625072D01*
X36926452Y-63276458D01*
X36793324Y-62954264D01*
X36693575Y-62854341D01*
X36727229Y-62773294D01*
X36974928Y-62876148D01*
X37323542Y-62876452D01*
X37645736Y-62743324D01*
X37892458Y-62497032D01*
X38026148Y-62175072D01*
X38026452Y-61826458D01*
X38026452Y-67773809D01*
X37726458Y-67773548D01*
X37404264Y-67906676D01*
X37157542Y-68152968D01*
X37023852Y-68474928D01*
X37023548Y-68823542D01*
X37156676Y-69145736D01*
X37285811Y-69275096D01*
X37057542Y-69502968D01*
X36923852Y-69824928D01*
X36923548Y-70173542D01*
X37056676Y-70495736D01*
X37302968Y-70742458D01*
X37624928Y-70876148D01*
X37973542Y-70876452D01*
X38295736Y-70743324D01*
X38542458Y-70497032D01*
X38676148Y-70175072D01*
X38676452Y-69826458D01*
X38543324Y-69504264D01*
X38414188Y-69374903D01*
X38642458Y-69147032D01*
X38776148Y-68825072D01*
X38776452Y-68476458D01*
X38776452Y-72803200D01*
X36387906Y-72803200D01*
X36387906Y-67970772D01*
X36254778Y-67648578D01*
X36008486Y-67401856D01*
X35686526Y-67268166D01*
X35337912Y-67267862D01*
X35015718Y-67400990D01*
X34768996Y-67647282D01*
X34635306Y-67969242D01*
X34635002Y-68317856D01*
X34768130Y-68640050D01*
X35014422Y-68886772D01*
X35336382Y-69020462D01*
X35684996Y-69020766D01*
X36007190Y-68887638D01*
X36253912Y-68641346D01*
X36387602Y-68319386D01*
X36387906Y-67970772D01*
X36387906Y-72803200D01*
X31585107Y-72803200D01*
X31585107Y-21847180D01*
X31585107Y-19307180D01*
X31403745Y-18868250D01*
X31068216Y-18532136D01*
X30629603Y-18350008D01*
X30154680Y-18349593D01*
X29715750Y-18530955D01*
X29379636Y-18866484D01*
X29197508Y-19305097D01*
X29197093Y-19780020D01*
X29378455Y-20218950D01*
X29713984Y-20555064D01*
X30152597Y-20737192D01*
X30627520Y-20737607D01*
X31066450Y-20556245D01*
X31402564Y-20220716D01*
X31584692Y-19782103D01*
X31585107Y-19307180D01*
X31585107Y-21847180D01*
X31403745Y-21408250D01*
X31068216Y-21072136D01*
X30629603Y-20890008D01*
X30154680Y-20889593D01*
X29715750Y-21070955D01*
X29379636Y-21406484D01*
X29197508Y-21845097D01*
X29197093Y-22320020D01*
X29378455Y-22758950D01*
X29713984Y-23095064D01*
X30152597Y-23277192D01*
X30627520Y-23277607D01*
X31066450Y-23096245D01*
X31402564Y-22760716D01*
X31584692Y-22322103D01*
X31585107Y-21847180D01*
X31585107Y-72803200D01*
X30173859Y-72803200D01*
X30173859Y-66303600D01*
X30173859Y-64576400D01*
X30141915Y-64411756D01*
X30046858Y-64267049D01*
X29903355Y-64170184D01*
X29733600Y-64136141D01*
X29295500Y-64136141D01*
X29365728Y-64122172D01*
X29785986Y-63841364D01*
X30066794Y-63421106D01*
X30165400Y-62925378D01*
X30165400Y-62874622D01*
X30066794Y-62378894D01*
X29785986Y-61958636D01*
X29365728Y-61677828D01*
X29125279Y-61630000D01*
X29365728Y-61582172D01*
X29785986Y-61301364D01*
X30066794Y-60881106D01*
X30165400Y-60385378D01*
X30165400Y-60334622D01*
X30066794Y-59838894D01*
X29785986Y-59418636D01*
X29365728Y-59137828D01*
X29176452Y-59100178D01*
X29176452Y-23776458D01*
X29043324Y-23454264D01*
X28797032Y-23207542D01*
X28527199Y-23095497D01*
X28862564Y-22760716D01*
X29044692Y-22322103D01*
X29045107Y-21847180D01*
X29045107Y-19307180D01*
X28863745Y-18868250D01*
X28528216Y-18532136D01*
X28089603Y-18350008D01*
X27614680Y-18349593D01*
X27175750Y-18530955D01*
X26839636Y-18866484D01*
X26657508Y-19305097D01*
X26657093Y-19780020D01*
X26838455Y-20218950D01*
X27173984Y-20555064D01*
X27612597Y-20737192D01*
X28087520Y-20737607D01*
X28526450Y-20556245D01*
X28862564Y-20220716D01*
X29044692Y-19782103D01*
X29045107Y-19307180D01*
X29045107Y-21847180D01*
X28863745Y-21408250D01*
X28528216Y-21072136D01*
X28089603Y-20890008D01*
X27614680Y-20889593D01*
X27175750Y-21070955D01*
X26839636Y-21406484D01*
X26657508Y-21845097D01*
X26657093Y-22320020D01*
X26838455Y-22758950D01*
X27173984Y-23095064D01*
X27612597Y-23277192D01*
X27733519Y-23277297D01*
X27557542Y-23452968D01*
X27423852Y-23774928D01*
X27423548Y-24123542D01*
X27556676Y-24445736D01*
X27802968Y-24692458D01*
X28124928Y-24826148D01*
X28473542Y-24826452D01*
X28795736Y-24693324D01*
X29042458Y-24447032D01*
X29176148Y-24125072D01*
X29176452Y-23776458D01*
X29176452Y-59100178D01*
X29066450Y-59078298D01*
X29066450Y-36576458D01*
X28933322Y-36254264D01*
X28687030Y-36007542D01*
X28365070Y-35873852D01*
X28016456Y-35873548D01*
X27694262Y-36006676D01*
X27540459Y-36160210D01*
X27540459Y-30550060D01*
X27540459Y-27049940D01*
X27508515Y-26885296D01*
X27413458Y-26740589D01*
X27269955Y-26643724D01*
X27100200Y-26609681D01*
X26513359Y-26609681D01*
X26513359Y-22845600D01*
X26513359Y-21321600D01*
X26505107Y-21279067D01*
X26505107Y-19307180D01*
X26323745Y-18868250D01*
X25988216Y-18532136D01*
X25549603Y-18350008D01*
X25074680Y-18349593D01*
X24635750Y-18530955D01*
X24299636Y-18866484D01*
X24117508Y-19305097D01*
X24117093Y-19780020D01*
X24298455Y-20218950D01*
X24633984Y-20555064D01*
X25072597Y-20737192D01*
X25547520Y-20737607D01*
X25986450Y-20556245D01*
X26322564Y-20220716D01*
X26504692Y-19782103D01*
X26505107Y-19307180D01*
X26505107Y-21279067D01*
X26481415Y-21156956D01*
X26386358Y-21012249D01*
X26242855Y-20915384D01*
X26073100Y-20881341D01*
X24549100Y-20881341D01*
X24384456Y-20913285D01*
X24239749Y-21008342D01*
X24142884Y-21151845D01*
X24108841Y-21321600D01*
X24108841Y-22845600D01*
X24140785Y-23010244D01*
X24235842Y-23154951D01*
X24379345Y-23251816D01*
X24549100Y-23285859D01*
X26073100Y-23285859D01*
X26237744Y-23253915D01*
X26382451Y-23158858D01*
X26479316Y-23015355D01*
X26513359Y-22845600D01*
X26513359Y-26609681D01*
X23626452Y-26609681D01*
X23626452Y-24976458D01*
X23493324Y-24654264D01*
X23247032Y-24407542D01*
X22925072Y-24273852D01*
X22576458Y-24273548D01*
X22273217Y-24398844D01*
X22273217Y-20450831D01*
X21994930Y-19777324D01*
X21480086Y-19261581D01*
X20807066Y-18982119D01*
X20078331Y-18981483D01*
X19404824Y-19259770D01*
X18889081Y-19774614D01*
X18609619Y-20447634D01*
X18608983Y-21176369D01*
X18887270Y-21849876D01*
X19402114Y-22365619D01*
X20075134Y-22645081D01*
X20803869Y-22645717D01*
X21477376Y-22367430D01*
X21993119Y-21852586D01*
X22272581Y-21179566D01*
X22273217Y-20450831D01*
X22273217Y-24398844D01*
X22254264Y-24406676D01*
X22007542Y-24652968D01*
X21873852Y-24974928D01*
X21873548Y-25323542D01*
X22006676Y-25645736D01*
X22252968Y-25892458D01*
X22574928Y-26026148D01*
X22923542Y-26026452D01*
X23245736Y-25893324D01*
X23492458Y-25647032D01*
X23626148Y-25325072D01*
X23626452Y-24976458D01*
X23626452Y-26609681D01*
X23600080Y-26609681D01*
X23435436Y-26641625D01*
X23290729Y-26736682D01*
X23193864Y-26880185D01*
X23159821Y-27049940D01*
X23159821Y-30550060D01*
X23191765Y-30714704D01*
X23286822Y-30859411D01*
X23430325Y-30956276D01*
X23600080Y-30990319D01*
X27100200Y-30990319D01*
X27264844Y-30958375D01*
X27409551Y-30863318D01*
X27506416Y-30719815D01*
X27540459Y-30550060D01*
X27540459Y-36160210D01*
X27447540Y-36252968D01*
X27313850Y-36574928D01*
X27313546Y-36923542D01*
X27446674Y-37245736D01*
X27692966Y-37492458D01*
X28014926Y-37626148D01*
X28363540Y-37626452D01*
X28685734Y-37493324D01*
X28932456Y-37247032D01*
X29066146Y-36925072D01*
X29066450Y-36576458D01*
X29066450Y-59078298D01*
X28870000Y-59039222D01*
X28374272Y-59137828D01*
X27954014Y-59418636D01*
X27726452Y-59759205D01*
X27726452Y-49076458D01*
X27593324Y-48754264D01*
X27347032Y-48507542D01*
X27176452Y-48436710D01*
X27176452Y-43126458D01*
X27043324Y-42804264D01*
X26797032Y-42557542D01*
X26475072Y-42423852D01*
X26126458Y-42423548D01*
X25804264Y-42556676D01*
X25557542Y-42802968D01*
X25423852Y-43124928D01*
X25423548Y-43473542D01*
X25556676Y-43795736D01*
X25802968Y-44042458D01*
X26124928Y-44176148D01*
X26473542Y-44176452D01*
X26795736Y-44043324D01*
X27042458Y-43797032D01*
X27176148Y-43475072D01*
X27176452Y-43126458D01*
X27176452Y-48436710D01*
X27025072Y-48373852D01*
X26676458Y-48373548D01*
X26354264Y-48506676D01*
X26107542Y-48752968D01*
X25973852Y-49074928D01*
X25973548Y-49423542D01*
X26106676Y-49745736D01*
X26352968Y-49992458D01*
X26674928Y-50126148D01*
X27023542Y-50126452D01*
X27345736Y-49993324D01*
X27592458Y-49747032D01*
X27726148Y-49425072D01*
X27726452Y-49076458D01*
X27726452Y-59759205D01*
X27673206Y-59838894D01*
X27600000Y-60206927D01*
X27526794Y-59838894D01*
X27245986Y-59418636D01*
X26825728Y-59137828D01*
X26330000Y-59039222D01*
X25834272Y-59137828D01*
X25414014Y-59418636D01*
X25133206Y-59838894D01*
X25034600Y-60334622D01*
X25034600Y-60385378D01*
X25133206Y-60881106D01*
X25414014Y-61301364D01*
X25834272Y-61582172D01*
X26074720Y-61630000D01*
X25834272Y-61677828D01*
X25414014Y-61958636D01*
X25133206Y-62378894D01*
X25034600Y-62874622D01*
X25034600Y-62925378D01*
X25133206Y-63421106D01*
X25414014Y-63841364D01*
X25834272Y-64122172D01*
X26074720Y-64170000D01*
X25834272Y-64217828D01*
X25414014Y-64498636D01*
X25133206Y-64918894D01*
X25034600Y-65414622D01*
X25034600Y-65465378D01*
X25133206Y-65961106D01*
X25414014Y-66381364D01*
X25834272Y-66662172D01*
X26330000Y-66760778D01*
X26825728Y-66662172D01*
X27245986Y-66381364D01*
X27526794Y-65961106D01*
X27566141Y-65763294D01*
X27566141Y-66303600D01*
X27598085Y-66468244D01*
X27693142Y-66612951D01*
X27836645Y-66709816D01*
X28006400Y-66743859D01*
X29733600Y-66743859D01*
X29898244Y-66711915D01*
X30042951Y-66616858D01*
X30139816Y-66473355D01*
X30173859Y-66303600D01*
X30173859Y-72803200D01*
X28308452Y-72803200D01*
X28308452Y-68660458D01*
X28175324Y-68338264D01*
X27929032Y-68091542D01*
X27607072Y-67957852D01*
X27258458Y-67957548D01*
X26936264Y-68090676D01*
X26695195Y-68331323D01*
X26455832Y-68091542D01*
X26133872Y-67957852D01*
X25785258Y-67957548D01*
X25463064Y-68090676D01*
X25216342Y-68336968D01*
X25171454Y-68445068D01*
X25127324Y-68338264D01*
X24881032Y-68091542D01*
X24559072Y-67957852D01*
X24540719Y-67957835D01*
X24540719Y-35249060D01*
X24540719Y-31748940D01*
X24508775Y-31584296D01*
X24413718Y-31439589D01*
X24270215Y-31342724D01*
X24100460Y-31308681D01*
X20600340Y-31308681D01*
X20435696Y-31340625D01*
X20290989Y-31435682D01*
X20194124Y-31579185D01*
X20160081Y-31748940D01*
X20160081Y-35249060D01*
X20192025Y-35413704D01*
X20287082Y-35558411D01*
X20430585Y-35655276D01*
X20600340Y-35689319D01*
X24100460Y-35689319D01*
X24265104Y-35657375D01*
X24409811Y-35562318D01*
X24506676Y-35418815D01*
X24540719Y-35249060D01*
X24540719Y-67957835D01*
X24223952Y-67957559D01*
X24223952Y-51148413D01*
X24223952Y-45726458D01*
X24090824Y-45404264D01*
X23844532Y-45157542D01*
X23522572Y-45023852D01*
X23173958Y-45023548D01*
X22851764Y-45156676D01*
X22605042Y-45402968D01*
X22471352Y-45724928D01*
X22471048Y-46073542D01*
X22604176Y-46395736D01*
X22850468Y-46642458D01*
X23172428Y-46776148D01*
X23521042Y-46776452D01*
X23843236Y-46643324D01*
X24089958Y-46397032D01*
X24223648Y-46075072D01*
X24223952Y-45726458D01*
X24223952Y-51148413D01*
X24090824Y-50826219D01*
X23844532Y-50579497D01*
X23522572Y-50445807D01*
X23173958Y-50445503D01*
X22851764Y-50578631D01*
X22605042Y-50824923D01*
X22471352Y-51146883D01*
X22471048Y-51495497D01*
X22604176Y-51817691D01*
X22850468Y-52064413D01*
X23172428Y-52198103D01*
X23521042Y-52198407D01*
X23843236Y-52065279D01*
X24089958Y-51818987D01*
X24223648Y-51497027D01*
X24223952Y-51148413D01*
X24223952Y-67957559D01*
X24210458Y-67957548D01*
X23888264Y-68090676D01*
X23641542Y-68336968D01*
X23507852Y-68658928D01*
X23507548Y-69007542D01*
X23640676Y-69329736D01*
X23886968Y-69576458D01*
X24208928Y-69710148D01*
X24557542Y-69710452D01*
X24879736Y-69577324D01*
X25126458Y-69331032D01*
X25171345Y-69222931D01*
X25215476Y-69329736D01*
X25461768Y-69576458D01*
X25783728Y-69710148D01*
X26132342Y-69710452D01*
X26454536Y-69577324D01*
X26695604Y-69336676D01*
X26934968Y-69576458D01*
X27256928Y-69710148D01*
X27605542Y-69710452D01*
X27927736Y-69577324D01*
X28174458Y-69331032D01*
X28308148Y-69009072D01*
X28308452Y-68660458D01*
X28308452Y-72803200D01*
X22273217Y-72803200D01*
X22273217Y-69450831D01*
X21994930Y-68777324D01*
X21480086Y-68261581D01*
X20807066Y-67982119D01*
X20078331Y-67981483D01*
X19826452Y-68085557D01*
X19826452Y-66676458D01*
X19826452Y-58976458D01*
X19693324Y-58654264D01*
X19447032Y-58407542D01*
X19125072Y-58273852D01*
X18776458Y-58273548D01*
X18454264Y-58406676D01*
X18207542Y-58652968D01*
X18073852Y-58974928D01*
X18073548Y-59323542D01*
X18206676Y-59645736D01*
X18452968Y-59892458D01*
X18774928Y-60026148D01*
X19123542Y-60026452D01*
X19445736Y-59893324D01*
X19692458Y-59647032D01*
X19826148Y-59325072D01*
X19826452Y-58976458D01*
X19826452Y-66676458D01*
X19693324Y-66354264D01*
X19447032Y-66107542D01*
X19125072Y-65973852D01*
X18776458Y-65973548D01*
X18454264Y-66106676D01*
X18207542Y-66352968D01*
X18073852Y-66674928D01*
X18073548Y-67023542D01*
X18206676Y-67345736D01*
X18452968Y-67592458D01*
X18774928Y-67726148D01*
X19123542Y-67726452D01*
X19445736Y-67593324D01*
X19692458Y-67347032D01*
X19826148Y-67025072D01*
X19826452Y-66676458D01*
X19826452Y-68085557D01*
X19404824Y-68259770D01*
X18889081Y-68774614D01*
X18609619Y-69447634D01*
X18608983Y-70176369D01*
X18887270Y-70849876D01*
X19402114Y-71365619D01*
X20075134Y-71645081D01*
X20803869Y-71645717D01*
X21477376Y-71367430D01*
X21993119Y-70852586D01*
X22272581Y-70179566D01*
X22273217Y-69450831D01*
X22273217Y-72803200D01*
X19989915Y-72803200D01*
X18989693Y-72604243D01*
X18184060Y-72065936D01*
X17645755Y-71260305D01*
X17446800Y-70260084D01*
X17446800Y-54859914D01*
X17493515Y-54625060D01*
X17598275Y-54468275D01*
X17755060Y-54363515D01*
X17989914Y-54316800D01*
X20940000Y-54316800D01*
X20988956Y-54307062D01*
X21038871Y-54307062D01*
X21421554Y-54230942D01*
X21604245Y-54155269D01*
X21604246Y-54155269D01*
X21928670Y-53938496D01*
X22068495Y-53798670D01*
X22068496Y-53798670D01*
X22285269Y-53474246D01*
X22360942Y-53291555D01*
X22360942Y-53291554D01*
X22437062Y-52908871D01*
X22437062Y-52858956D01*
X22446800Y-52810000D01*
X22446800Y-37810000D01*
X22444061Y-37796233D01*
X22444978Y-37759583D01*
X22377360Y-37368842D01*
X22377359Y-37368841D01*
X22333659Y-37255400D01*
X22306276Y-37184317D01*
X22306276Y-37184316D01*
X22094275Y-36849196D01*
X21957987Y-36705920D01*
X21957987Y-36705919D01*
X21633880Y-36477439D01*
X21633879Y-36477438D01*
X21453136Y-36397223D01*
X21453132Y-36397222D01*
X21066264Y-36310164D01*
X20961892Y-36307554D01*
X20940000Y-36303200D01*
X17989914Y-36303200D01*
X17755060Y-36256484D01*
X17598275Y-36151724D01*
X17493515Y-35994939D01*
X17446800Y-35760085D01*
X17446800Y-30959475D01*
X17600600Y-30990319D01*
X21100720Y-30990319D01*
X21265364Y-30958375D01*
X21410071Y-30863318D01*
X21506936Y-30719815D01*
X21540979Y-30550060D01*
X21540979Y-27049940D01*
X21509035Y-26885296D01*
X21413978Y-26740589D01*
X21270475Y-26643724D01*
X21100720Y-26609681D01*
X17600600Y-26609681D01*
X17446800Y-26639521D01*
X17446800Y-20359915D01*
X17645755Y-19359694D01*
X18184060Y-18554063D01*
X18989693Y-18015756D01*
X19989915Y-17816800D01*
X78890084Y-17816800D01*
X79890305Y-18015755D01*
X80695936Y-18554060D01*
X81234243Y-19359693D01*
X81433200Y-20359915D01*
X81433200Y-70260084D01*
M02*
